<?xml version="1.0" encoding="UTF-8"?>
<svg width="425px" height="469px" viewBox="0 0 425 469" version="1.1" xmlns="http://www.w3.org/2000/svg" xmlns:xlink="http://www.w3.org/1999/xlink">
    <!-- Generator: sketchtool 50.2 (55047) - http://www.bohemiancoding.com/sketch -->
    <title>265D3981-D580-4BFB-AC44-E877CD8FC78B</title>
    <desc>Created with sketchtool.</desc>
    <defs></defs>
    <g id="Visuals-Homepage-v1" stroke="none" stroke-width="1" fill="none" fill-rule="evenodd">
        <g id="Home-page-Process" transform="translate(-682.000000, -213.000000)">
            <g id="Group-3" transform="translate(652.000000, 113.000000)">
                <g id="Group-2" transform="translate(30.000000, 100.000000)">
                    <rect id="Rectangle-5-Copy" fill="#FBFBFB" x="0" y="20" width="424" height="449"></rect>
                    <rect id="Rectangle" fill="#CECDF3" x="1" y="0" width="424" height="20"></rect>
                    <rect id="Rectangle-2" fill="#FFFFFF" x="100" y="3" width="54" height="13"></rect>
                    <rect id="Rectangle-5" fill="#FFFFFF" x="42" y="36" width="88" height="248"></rect>
                    <rect id="Rectangle-4-Copy" fill="#EDEDED" x="65" y="67" width="26" height="4"></rect>
                    <rect id="Rectangle-4-Copy-4" fill="#EDEDED" x="65" y="102" width="26" height="4"></rect>
                    <rect id="Rectangle-4-Copy-2" fill="#EDEDED" x="65" y="78" width="32" height="4"></rect>
                    <rect id="Rectangle-4-Copy-5" fill="#EDEDED" x="65" y="114" width="32" height="4"></rect>
                    <rect id="Rectangle-4-Copy-3" fill="#EDEDED" x="65" y="91" width="32" height="4"></rect>
                    <rect id="Rectangle-4-Copy-7" fill="#EDEDED" x="65" y="138" width="30" height="4"></rect>
                    <rect id="Rectangle-4-Copy-8" fill="#EDEDED" x="65" y="150" width="30" height="4"></rect>
                    <rect id="Rectangle-4-Copy-9" fill="#EDEDED" x="54" y="172" width="30" height="4"></rect>
                    <rect id="Rectangle-4-Copy-15" fill="#EDEDED" x="54" y="48" width="30" height="4"></rect>
                    <rect id="Rectangle-4-Copy-10" fill="#EDEDED" x="54" y="190" width="30" height="4"></rect>
                    <rect id="Rectangle-4-Copy-11" fill="#EDEDED" x="55" y="208" width="30" height="4"></rect>
                    <rect id="Rectangle-4-Copy-12" fill="#EDEDED" x="55" y="226" width="30" height="4"></rect>
                    <rect id="Rectangle-4-Copy-13" fill="#EDEDED" x="55" y="244" width="30" height="4"></rect>
                    <rect id="Rectangle-4-Copy-14" fill="#EDEDED" x="55" y="264" width="30" height="4"></rect>
                    <rect id="Rectangle-6" fill="#CAC9F3" x="54" y="65" width="6" height="6"></rect>
                    <rect id="Rectangle-6-Copy" fill="#CAC9F3" x="54" y="77" width="6" height="6"></rect>
                    <rect id="Rectangle-6-Copy-2" fill="#CAC9F3" x="54" y="89" width="6" height="6"></rect>
                    <rect id="Rectangle-6-Copy-3" fill="#CAC9F3" x="54" y="101" width="6" height="6"></rect>
                    <rect id="Rectangle-6-Copy-4" fill="#CAC9F3" x="54" y="112" width="6" height="6"></rect>
                    <rect id="Rectangle-6-Copy-6" stroke="#E1E1E1" x="54" y="136" width="6" height="6"></rect>
                    <rect id="Rectangle-6-Copy-8" stroke="#E1E1E1" x="54" y="124" width="6" height="6"></rect>
                    <rect id="Rectangle-6-Copy-7" stroke="#E1E1E1" x="54" y="148" width="6" height="6"></rect>
                    <rect id="Rectangle-4-Copy-6" fill="#EDEDED" x="65" y="126" width="38" height="4"></rect>
                </g>
            </g>
        </g>
    </g>
</svg>