<svg xmlns="http://www.w3.org/2000/svg" width="48" height="48" viewBox="0 0 48 48">
    <g fill="#37517E" fill-rule="nonzero">
        <path d="M44 0H5.6c-2.206 0-4 1.794-4 4v30.023A8.843 8.843 0 0 0 0 39.1C0 44.007 3.993 48 8.9 48c4.604 0 8.402-3.514 8.854-8H25.6v3.2c0 1.765 1.435 3.2 3.2 3.2 1.765 0 3.2-1.435 3.2-3.2V40h12c2.206 0 4-1.794 4-4V4c0-2.206-1.794-4-4-4zM8.9 46.4c-4.026 0-7.3-3.274-7.3-7.3 0-1.64.551-3.152 1.468-4.373.154-.205.318-.4.49-.586.023-.024.044-.05.068-.074a7.25 7.25 0 0 1 .546-.518l.06-.055c.197-.166.404-.319.616-.462.095-.064.196-.12.294-.18.119-.071.236-.142.359-.207.12-.063.244-.121.368-.178.053-.025.107-.046.161-.07.185-.079.372-.152.561-.216.071-.024.143-.043.215-.065.172-.052.344-.1.518-.14h.002c.124-.028.25-.046.376-.067.114-.02.228-.041.342-.055l.053-.008c.265-.028.532-.046.803-.046a7.349 7.349 0 0 1 1.226.111c.277.047.55.108.818.186.04.012.083.019.124.032.282.087.554.198.822.319a7.222 7.222 0 0 1 .862.462 7.079 7.079 0 0 1 1.628 1.382 7.269 7.269 0 0 1 .829 1.151c.158.274.305.555.43.852a7.271 7.271 0 0 1 .562 2.799l-.005.097v.003C16.145 43.175 12.894 46.4 8.9 46.4zm18.045-14.452a.794.794 0 0 1-.545-.748v-1.062l.036.005c.34.074.686.129 1.037.17.045.006.09.017.135.021.392.042.789.066 1.192.066.403 0 .8-.024 1.192-.066.046-.004.09-.015.136-.02.35-.042.696-.097 1.036-.17l.036-.006V31.2a.794.794 0 0 1-.545.748.78.78 0 0 1-.255.052h-3.2a.78.78 0 0 1-.255-.052zM25.6 35.2h-8.7a.087.087 0 0 0-.006-.012l-.008-.014c-.036-.075-.078-.146-.116-.22-.027-.05-.053-.102-.081-.152a9.127 9.127 0 0 0-.225-.384 9.045 9.045 0 0 0-.422-.624l-.002-.004a8.855 8.855 0 0 0-3.669-2.885l-.027-.011-.104-.043-.06-.025a8.856 8.856 0 0 0-.583-.207l-.082-.026a8.93 8.93 0 0 0-.799-.206l-.065-.013c-.052-.01-.105-.017-.158-.027a8.899 8.899 0 0 0-.57-.084c-.046-.005-.09-.014-.136-.018-.036-.004-.073-.004-.109-.007A8.978 8.978 0 0 0 8.9 30.2c-.29 0-.577.017-.861.044-.075.007-.148.02-.221.029l-.076.01-.18.024c-.127.02-.254.04-.38.064-.07.014-.14.031-.21.047a9.143 9.143 0 0 0-.571.144V22.4h7.2a.801.801 0 0 0 .731-.475L16.8 16.37l.84 1.888c-.026.316-.04.63-.04.942a11.248 11.248 0 0 0 .084 1.314c.028.238.065.474.108.708.018.102.033.205.054.306a11.076 11.076 0 0 0 .517 1.705c.065.167.13.334.203.497.042.096.09.19.136.284.152.316.317.624.497.924.043.07.08.144.124.213l.004-.002a11.252 11.252 0 0 0 5.473 4.5V31.2c0 .706.313 1.336.8 1.776V35.2zm12.529-13.773c-.081.339-.182.67-.298.998l-.04.111a9.73 9.73 0 0 1-.362.846l-.087.18a9.57 9.57 0 0 1-.406.71c-.047.076-.09.154-.14.229a9.622 9.622 0 0 1-5.06 3.836c-.132.042-.267.076-.4.113-.142.038-.283.077-.426.11a9.854 9.854 0 0 1-.878.153c-.128.016-.255.033-.383.044a9.53 9.53 0 0 1-1.015.034 9.506 9.506 0 0 1-.68-.034c-.128-.011-.256-.029-.383-.045a9.854 9.854 0 0 1-.877-.153c-.144-.032-.285-.071-.426-.11-.134-.036-.269-.07-.402-.112a9.63 9.63 0 0 1-5.263-4.17 9.625 9.625 0 0 1-.517-.97c-.016-.034-.033-.067-.048-.101-.068-.152-.128-.307-.188-.462a10.041 10.041 0 0 1-.434-1.436c-.02-.09-.032-.182-.049-.273a9.722 9.722 0 0 1-.12-.869 8.422 8.422 0 0 1-.047-.856c0-.326.018-.658.051-.988C19.747 13.381 23.84 9.6 28.8 9.6c5.294 0 9.6 4.306 9.6 9.6 0 .768-.1 1.511-.271 2.227zM32 32.976c.487-.44.8-1.07.8-1.776v-1.551a11.244 11.244 0 0 0 4.611-3.298l.004.003c.275-.33.523-.68.759-1.042a11.15 11.15 0 0 0 1.355-2.912H43.2v12.8H32v-2.224zM43.2 20.8h-3.328c.075-.524.128-1.055.128-1.6C40 13.024 34.976 8 28.8 8c-4.914 0-9.088 3.185-10.594 7.594l-.675-1.519a.801.801 0 0 0-1.462 0L13.08 20.8H6.4v-16h36.8v16zM17.773 38.4c-.003-.036-.01-.071-.014-.107-.012-.133-.032-.263-.05-.395-.021-.158-.042-.316-.071-.472-.025-.13-.056-.256-.087-.384-.02-.08-.034-.162-.055-.242H25.6v1.6h-7.827zM30.4 43.2c0 .882-.718 1.6-1.6 1.6-.882 0-1.6-.718-1.6-1.6v-9.6h3.2v9.6zm16-7.2c0 1.323-1.077 2.4-2.4 2.4H32v-1.6h12a.8.8 0 0 0 .8-.8V4a.8.8 0 0 0-.8-.8H5.6a.8.8 0 0 0-.8.8v27.206l-.087.045-.075.04c-.23.125-.453.261-.67.407l-.052.033c-.214.146-.422.301-.623.466l-.06.045c-.01.01-.022.017-.033.026V4c0-1.323 1.077-2.4 2.4-2.4H44c1.323 0 2.4 1.077 2.4 2.4v32z"/>
        <path d="M8.8 34.4H7.2V40a.8.8 0 0 0 .8.8h5.6v-1.6H8.8v-4.8zM28.8 11.2c-4.411 0-8 3.589-8 8 0 .61.074 1.2.204 1.771v.007c.008.036.02.07.029.106a8 8 0 0 0 .324 1.031c.023.061.042.123.067.183.014.033.03.064.045.096.09.21.189.414.295.613l.008.015a7.921 7.921 0 0 0 4.617 3.806l.076.023c.205.063.414.116.626.162.055.012.108.025.163.035.192.038.388.066.584.09.064.008.127.018.19.024.255.023.512.038.772.038s.517-.015.77-.04c.064-.006.127-.016.19-.024a7.78 7.78 0 0 0 .585-.09c.054-.01.109-.023.163-.035.212-.045.42-.099.626-.161l.076-.024a7.923 7.923 0 0 0 4.617-3.807l.008-.014c.107-.2.206-.403.295-.613.015-.033.032-.063.045-.096.025-.06.044-.122.067-.183.132-.334.239-.678.324-1.031.01-.036.021-.07.03-.107 0-.002-.002-.004 0-.006.13-.568.204-1.16.204-1.769 0-4.411-3.589-8-8-8zm0 1.6c3.529 0 6.4 2.871 6.4 6.4 0 .271-.022.538-.055.8h-3.417l-2.192-5.115a.798.798 0 0 0-.69-.483.81.81 0 0 0-.74.401L25.136 20h-2.68a6.287 6.287 0 0 1-.056-.8c0-3.529 2.871-6.4 6.4-6.4zm5.922 8.82a6.472 6.472 0 0 1-1.218 1.906c-.071.078-.142.157-.216.232a7.015 7.015 0 0 1-.36.328c-.068.056-.138.11-.206.163a6.36 6.36 0 0 1-.645.44c-.101.06-.2.12-.304.175a6.495 6.495 0 0 1-1.868.634 6.665 6.665 0 0 1-1.105.102 6.459 6.459 0 0 1-1.102-.102 6.431 6.431 0 0 1-.682-.156 6.192 6.192 0 0 1-.32-.104 6.1 6.1 0 0 1-.866-.375c-.104-.054-.204-.115-.304-.175a6.589 6.589 0 0 1-.645-.44c-.07-.054-.14-.106-.206-.163a6.35 6.35 0 0 1-.36-.328c-.076-.075-.145-.153-.217-.231a6.194 6.194 0 0 1-.428-.519 6.336 6.336 0 0 1-.272-.393 6.34 6.34 0 0 1-.518-.995l-.006-.02H25.6a.799.799 0 0 0 .694-.403l2.404-4.205 1.767 4.123a.798.798 0 0 0 .735.486h3.529l-.007.02z"/>
    </g>
</svg>
