<?xml version="1.0" encoding="UTF-8"?>
<svg width="90px" height="90px" viewBox="0 0 90 90" version="1.1" xmlns="http://www.w3.org/2000/svg" xmlns:xlink="http://www.w3.org/1999/xlink">
    <!-- Generator: sketchtool 50.2 (55047) - http://www.bohemiancoding.com/sketch -->
    <title>6A1B034C-22AD-4931-8EE4-9B0FA4D2C449</title>
    <desc>Created with sketchtool.</desc>
    <defs></defs>
    <g id="Visuals-Homepage-v1" stroke="none" stroke-width="1" fill="none" fill-rule="evenodd">
        <g id="Home-page-Final" transform="translate(-661.000000, -5815.000000)" fill-rule="nonzero">
            <g id="analytics-(1)" transform="translate(661.000000, 5815.000000)">
                <path d="M11.191754,72.6244657 C10.6916734,71.7033266 10.2906653,70.7208569 9.98637097,69.6971069 L5.80645161,68.8608871 L5.80645161,61.7842742 L9.98637097,60.9480544 C10.2906653,59.9243044 10.6916734,58.9430141 11.191754,58.0206956 L8.83170363,54.4800302 L13.8360484,49.4756855 L17.3767137,51.8357359 C18.2978528,51.3356552 19.2803226,50.9346472 20.3040726,50.6303528 L21.1391129,46.4516129 L28.2157258,46.4516129 L29.0519456,50.6315323 C30.0756956,50.9358266 31.0569859,51.3368347 31.9793044,51.8369153 L35.5199698,49.4768649 L40.5243145,54.4812097 L38.1642641,58.021875 C38.6643448,58.9430141 39.0653528,59.9254839 39.3696472,60.9492339 L43.5483871,61.7842742 L43.5483871,68.8608871 L39.3684677,69.6971069 C39.0641734,70.7208569 38.6631653,71.7021472 38.1630847,72.6244657 L40.5231351,76.165131 L35.5187903,81.1694758 L31.978125,78.8094254 C31.0569859,79.309506 30.0745161,79.7105141 29.0507661,80.0148085 L28.2157258,84.1935484 L21.1391129,84.1935484 L20.3028931,80.013629 C19.2791431,79.7093347 18.2978528,79.3083266 17.3755343,78.808246 L13.834869,81.1682964 L8.83052419,76.1639516 L11.191754,72.6244657 Z" id="Shape" fill="#7773FF"></path>
                <g id="Group" transform="translate(8.709677, 0.000000)" fill="#3F3A34">
                    <polygon id="Shape" points="8.70967742 42.0967742 5.80645161 42.0967742 5.80645161 15.9677419 2.90322581 15.9677419 2.90322581 42.0967742 0 42.0967742 0 13.0645161 8.70967742 13.0645161"></polygon>
                    <polygon id="Shape" points="20.3225806 37.7419355 17.4193548 37.7419355 17.4193548 27.5806452 14.516129 27.5806452 14.516129 37.7419355 11.6129032 37.7419355 11.6129032 24.6774194 20.3225806 24.6774194"></polygon>
                    <polygon id="Shape" points="26.1290323 42.0967742 23.2258065 42.0967742 23.2258065 0 31.9354839 0 31.9354839 40.6451613 29.0322581 40.6451613 29.0322581 2.90322581 26.1290323 2.90322581"></polygon>
                </g>
                <g id="Group" fill="#3F3A34">
                    <path d="M42.5496774,55.6432258 L39.9977419,57.0295161 C40.5537097,58.0529032 41.0153226,59.1720968 41.3666129,60.3522581 L41.6162903,61.1898387 L46.4516129,62.1566129 L46.4516129,68.4870968 L41.6162903,69.453871 L41.3666129,70.2914516 C41.0153226,71.4716129 40.5537097,72.5908065 39.9977419,73.6141935 L39.5796774,74.3835484 L42.3101613,78.48 L37.8348387,82.953871 L33.7398387,80.2248387 L32.9704839,80.6414516 C31.9398387,81.2003226 30.8220968,81.6604839 29.6477419,82.008871 L28.8087097,82.2585484 L27.8419355,87.0967742 L21.5129032,87.0967742 L20.5446774,82.2614516 L19.7056452,82.0117742 C18.5312903,81.6633871 17.4135484,81.2017742 16.3829032,80.6443548 L15.6135484,80.2277419 L11.5185484,82.9567742 L6.20129032,77.6409677 L4.14870968,79.6935484 L11.1483871,86.6932258 L15.7877419,83.5998387 C16.5106452,83.9496774 17.2625806,84.258871 18.0377419,84.5259677 L19.1322581,90 L30.2225806,90 L31.3170968,84.5259677 C32.0922581,84.258871 32.8441935,83.951129 33.5670968,83.5998387 L38.2064516,86.6932258 L46.0480645,78.8516129 L42.956129,74.2137097 C43.3045161,73.4937097 43.6137097,72.7417742 43.8808065,71.9637097 L49.3548387,70.8662903 L49.3548387,59.7774194 L43.8808065,58.6814516 C43.5135484,57.6159677 43.0679032,56.5969355 42.5496774,55.6432258 Z" id="Shape"></path>
                    <path d="M6.80516129,75.0019355 L9.35709677,73.6156452 C8.80112903,72.5922581 8.33951613,71.4730645 7.98822581,70.2929032 L7.73854839,69.4553226 L2.90322581,68.4885484 L2.90322581,62.1580645 L7.73854839,61.1912903 L7.98822581,60.3537097 C8.33951613,59.1735484 8.80112903,58.0543548 9.35709677,57.0309677 L9.77516129,56.2616129 L7.04467742,52.1651613 L11.52,47.6898387 L15.615,50.4217742 L16.3843548,50.0037097 C17.415,49.4448387 18.5327419,48.9846774 19.7070968,48.6362903 L20.546129,48.3866129 L21.5129032,43.5483871 L27.8419355,43.5483871 L28.8101613,48.3837097 L29.6491935,48.6333871 C30.8235484,48.9817742 31.9412903,49.4433871 32.9719355,50.0008065 L33.7412903,50.418871 L37.8362903,47.6869355 L43.1535484,53.0041935 L45.206129,50.9516129 L38.2064516,43.9504839 L33.5670968,47.0453226 C32.8441935,46.6954839 32.0922581,46.3862903 31.3170968,46.1191935 L30.2225806,40.6451613 L19.1322581,40.6451613 L18.0377419,46.1191935 C17.2625806,46.3862903 16.5106452,46.6940323 15.7877419,47.0453226 L11.1483871,43.9504839 L3.30677419,51.7935484 L6.39870968,56.4314516 C6.05032258,57.1514516 5.74112903,57.9033871 5.47403226,58.6814516 L0,59.778871 L0,70.8677419 L5.47403226,71.9637097 C5.84129032,73.0291935 6.28693548,74.0482258 6.80516129,75.0019355 Z" id="Shape"></path>
                    <path d="M24.6774194,50.8064516 C16.6732258,50.8064516 10.1612903,57.3183871 10.1612903,65.3225806 C10.1612903,73.3267742 16.6732258,79.8387097 24.6774194,79.8387097 C32.6816129,79.8387097 39.1935484,73.3267742 39.1935484,65.3225806 C39.1935484,57.3183871 32.6816129,50.8064516 24.6774194,50.8064516 Z M24.6774194,76.9354839 C18.2743548,76.9354839 13.0645161,71.7256452 13.0645161,65.3225806 C13.0645161,58.9195161 18.2743548,53.7096774 24.6774194,53.7096774 C31.0804839,53.7096774 36.2903226,58.9195161 36.2903226,65.3225806 C36.2903226,71.7256452 31.0804839,76.9354839 24.6774194,76.9354839 Z" id="Shape"></path>
                    <path d="M24.6774194,56.6129032 C19.8740323,56.6129032 15.9677419,60.5191935 15.9677419,65.3225806 C15.9677419,70.1259677 19.8740323,74.0322581 24.6774194,74.0322581 C29.4808065,74.0322581 33.3870968,70.1259677 33.3870968,65.3225806 C33.3870968,60.5191935 29.4808065,56.6129032 24.6774194,56.6129032 Z M24.6774194,71.1290323 C21.4751613,71.1290323 18.8709677,68.5248387 18.8709677,65.3225806 C18.8709677,62.1203226 21.4751613,59.516129 24.6774194,59.516129 C27.8796774,59.516129 30.483871,62.1203226 30.483871,65.3225806 C30.483871,68.5248387 27.8796774,71.1290323 24.6774194,71.1290323 Z" id="Shape"></path>
                    <polygon id="Shape" points="5.80645161 45 2.90322581 45 2.90322581 0 0 0 0 47.9032258 5.80645161 47.9032258"></polygon>
                    <path d="M63.8709677,39.3024194 C63.8709677,29.6970968 56.0569355,21.8830645 46.4516129,21.8830645 C45.3904839,21.8830645 44.325,21.978871 43.2856452,22.1704839 L43.8096774,25.0258065 C44.6762903,24.8675806 45.5632258,24.7862903 46.4501613,24.7862903 C54.4543548,24.7862903 60.9662903,31.2982258 60.9662903,39.3024194 C60.9662903,46.8667742 55.2933871,53.081129 47.771129,53.7590323 L48.0324194,56.6506452 C57.0629032,55.8377419 63.8709677,48.3793548 63.8709677,39.3024194 Z" id="Shape"></path>
                    <path d="M87.4843548,68.0008065 L74.9264516,55.376129 L76.6291935,53.6733871 L74.5766129,51.6208065 L72.8782258,53.3191935 L70.0679032,50.4943548 C71.6777419,47.0816129 72.5806452,43.2870968 72.5806452,39.3024194 C72.5806452,24.8951613 60.858871,13.1733871 46.4516129,13.1733871 C45.4325806,13.1733871 44.3990323,13.2329032 43.3814516,13.3519355 L43.7153226,16.2348387 C44.6240323,16.1303226 45.5443548,16.0766129 46.4516129,16.0766129 C59.2577419,16.0766129 69.6774194,26.4962903 69.6774194,39.3024194 C69.6774194,50.0748387 62.3743548,59.3608065 51.9183871,61.8837097 L52.5991935,64.7041935 C54.4020968,64.2687097 56.1106452,63.6358065 57.7306452,62.865 L60.543871,65.6520968 L58.1530645,68.0429032 L60.2056452,70.0954839 L62.6051613,67.6959677 L75.2617742,80.2364516 C76.8919355,81.8535484 79.0519355,82.7419355 81.3556452,82.7419355 C86.1227419,82.7419355 90,78.8632258 90,74.0975806 C90,71.7967742 89.1058065,69.6324194 87.4843548,68.0008065 Z M60.39,61.4162903 C63.746129,59.3085484 66.5448387,56.4720968 68.6162903,53.1508065 L70.8256452,55.3717742 L62.595,63.6009677 L60.39,61.4162903 Z M81.3469355,79.8387097 C79.8227419,79.8387097 78.3885484,79.2479032 77.3056452,78.1751613 L64.6577419,65.6433871 L72.873871,57.4287097 L85.4274194,70.0475806 C86.5030645,71.1304839 87.0967742,72.5690323 87.0967742,74.0975806 C87.0967742,77.2635484 84.5216129,79.8387097 81.3469355,79.8387097 Z" id="Shape"></path>
                    <rect id="Rectangle-path" x="45" y="45" width="5.80645161" height="2.90322581"></rect>
                </g>
            </g>
        </g>
    </g>
</svg>