<?xml version="1.0" encoding="UTF-8"?>
<svg width="275px" height="359px" viewBox="0 0 275 359" version="1.1" xmlns="http://www.w3.org/2000/svg" xmlns:xlink="http://www.w3.org/1999/xlink">
    <!-- Generator: sketchtool 50.2 (55047) - http://www.bohemiancoding.com/sketch -->
    <title>394A7483-C1EF-494A-9A79-29FE99A08B80</title>
    <desc>Created with sketchtool.</desc>
    <defs></defs>
    <g id="Visuals-Homepage-v1" stroke="none" stroke-width="1" fill="none" fill-rule="evenodd" opacity="0.100000001">
        <g id="Home-page-Final" transform="translate(-1165.000000, -5144.000000)" fill="#CDCDCD" fill-rule="nonzero">
            <g id="analytics-(1)-copy" transform="translate(1165.000000, 5144.000000)">
                <g id="Group" transform="translate(34.000000, 0.000000)">
                    <polygon id="Shape" points="34.9090909 168 23.2727273 168 23.2727273 63.7241379 11.6363636 63.7241379 11.6363636 168 0 168 0 52.137931 34.9090909 52.137931"></polygon>
                    <polygon id="Shape" points="81.4545455 150.62069 69.8181818 150.62069 69.8181818 110.068966 58.1818182 110.068966 58.1818182 150.62069 46.5454545 150.62069 46.5454545 98.4827586 81.4545455 98.4827586"></polygon>
                    <polygon id="Shape" points="104.727273 168 93.0909091 168 93.0909091 0 128 0 128 162.206897 116.363636 162.206897 116.363636 11.5862069 104.727273 11.5862069"></polygon>
                </g>
                <g id="Group">
                    <path d="M169.725935,221.954645 L159.546548,227.484403 C161.764242,231.566581 163.605565,236.030919 165.006823,240.738452 L166.002758,244.079468 L185.290323,247.935823 L185.290323,273.187419 L166.002758,277.043774 L165.006823,280.38479 C163.605565,285.092323 161.764242,289.556661 159.546548,293.638839 L157.878935,296.70771 L168.770532,313.048 L150.918968,330.893774 L134.584468,320.007968 L131.515597,321.66979 C127.404468,323.899065 122.945919,325.734597 118.261548,327.124274 L114.914742,328.12021 L111.058387,347.419355 L85.8125806,347.419355 L81.9504355,328.13179 L78.603629,327.135855 C73.9192581,325.746177 69.4607097,323.904855 65.3495806,321.681371 L62.2807097,320.019548 L45.9462097,330.905355 L24.7362581,309.701194 L16.5487419,317.88871 L44.4696774,345.809645 L62.9755484,333.470468 C65.859129,334.865935 68.8585161,336.099274 71.9505484,337.164694 L76.3164516,359 L120.554516,359 L124.920419,337.164694 C128.012452,336.099274 131.011839,334.871726 133.895419,333.470468 L152.40129,345.809645 L183.680613,314.530323 L171.347226,296.030242 C172.736903,293.158242 173.970242,290.158855 175.035661,287.055242 L196.870968,282.677758 L196.870968,238.445484 L175.035661,234.07379 C173.57071,229.823694 171.793081,225.758887 169.725935,221.954645 Z" id="Shape"></path>
                    <path d="M27.1450323,299.174387 L37.3244194,293.644629 C35.1067258,289.562452 33.2654032,285.098113 31.8641452,280.390581 L30.8682097,277.049565 L11.5806452,273.19321 L11.5806452,247.941613 L30.8682097,244.085258 L31.8641452,240.744242 C33.2654032,236.03671 35.1067258,231.572371 37.3244194,227.490194 L38.9920323,224.421323 L28.1004355,208.081032 L45.952,190.229468 L62.2865,201.126855 L65.355371,199.459242 C69.4665,197.229968 73.9250484,195.394435 78.6094194,194.004758 L81.9562258,193.008823 L85.8125806,173.709677 L111.058387,173.709677 L114.920532,192.997242 L118.267339,193.993177 C122.95171,195.382855 127.410258,197.224177 131.521387,199.447661 L134.590258,201.115274 L150.924758,190.217887 L172.13471,211.427839 L180.322226,203.240323 L152.40129,175.313597 L133.895419,187.658565 C131.011839,186.263097 128.012452,185.029758 124.920419,183.964339 L120.554516,162.129032 L76.3164516,162.129032 L71.9505484,183.964339 C68.8585161,185.029758 65.859129,186.257306 62.9755484,187.658565 L44.4696774,175.313597 L13.1903548,206.59871 L25.5237419,225.09879 C24.1340645,227.97079 22.9007258,230.970177 21.8353065,234.07379 L0,238.451274 L0,282.683548 L21.8353065,287.055242 C23.3002581,291.305339 25.0778871,295.370145 27.1450323,299.174387 Z" id="Shape"></path>
                    <path d="M98.4354839,202.66129 C66.5076452,202.66129 40.5322581,228.636677 40.5322581,260.564516 C40.5322581,292.492355 66.5076452,318.467742 98.4354839,318.467742 C130.363323,318.467742 156.33871,292.492355 156.33871,260.564516 C156.33871,228.636677 130.363323,202.66129 98.4354839,202.66129 Z M98.4354839,306.887097 C72.894371,306.887097 52.1129032,286.105629 52.1129032,260.564516 C52.1129032,235.023403 72.894371,214.241935 98.4354839,214.241935 C123.976597,214.241935 144.758065,235.023403 144.758065,260.564516 C144.758065,286.105629 123.976597,306.887097 98.4354839,306.887097 Z" id="Shape"></path>
                    <path d="M98.4354839,225.822581 C79.2753065,225.822581 63.6935484,241.404339 63.6935484,260.564516 C63.6935484,279.724694 79.2753065,295.306452 98.4354839,295.306452 C117.595661,295.306452 133.177419,279.724694 133.177419,260.564516 C133.177419,241.404339 117.595661,225.822581 98.4354839,225.822581 Z M98.4354839,283.725806 C85.6620323,283.725806 75.2741935,273.337968 75.2741935,260.564516 C75.2741935,247.791065 85.6620323,237.403226 98.4354839,237.403226 C111.208935,237.403226 121.596774,247.791065 121.596774,260.564516 C121.596774,273.337968 111.208935,283.725806 98.4354839,283.725806 Z" id="Shape"></path>
                    <polygon id="Shape" points="23.1612903 179.5 11.5806452 179.5 11.5806452 0 0 0 0 191.080645 23.1612903 191.080645"></polygon>
                    <path d="M254.774194,156.772984 C254.774194,118.458419 223.604887,87.2891129 185.290323,87.2891129 C181.057597,87.2891129 176.8075,87.6712742 172.661629,88.4355968 L174.751935,99.8251613 C178.208758,99.1940161 181.746645,98.8697581 185.284532,98.8697581 C217.212371,98.8697581 243.187758,124.845145 243.187758,156.772984 C243.187758,186.946355 220.559177,211.734726 190.553726,214.438806 L191.595984,225.973129 C227.617581,222.730548 254.774194,192.979871 254.774194,156.772984 Z" id="Shape"></path>
                    <path d="M348.965371,271.247661 L298.87329,220.889226 L305.665339,214.097177 L297.477823,205.909661 L290.703145,212.684339 L279.493081,201.416371 C285.914548,187.803323 289.516129,172.667419 289.516129,156.772984 C289.516129,99.3040323 242.759274,52.5471774 185.290323,52.5471774 C181.225516,52.5471774 177.102806,52.7845806 173.04379,53.2593871 L174.375565,64.7589677 C178.000306,64.3420645 181.671371,64.1278226 185.290323,64.1278226 C236.372548,64.1278226 277.935484,105.690758 277.935484,156.772984 C277.935484,199.742968 248.804371,236.783661 207.096677,246.847242 L209.812339,258.097839 C217.003919,256.360742 223.819129,253.836161 230.281129,250.7615 L241.502774,261.878919 L231.966113,271.415581 L240.153629,279.603097 L249.725032,270.031694 L300.210855,320.05429 C306.713387,326.50471 315.329387,330.048387 324.518629,330.048387 C343.534048,330.048387 359,314.576645 359,295.567016 C359,286.389355 355.433161,277.755984 348.965371,271.247661 Z M240.889,244.982758 C254.276226,236.57521 265.439968,225.260919 273.702758,212.012661 L282.515629,220.871855 L249.6845,253.697194 L240.889,244.982758 Z M324.483887,318.467742 C318.404048,318.467742 312.68321,316.111081 308.363629,311.832032 L257.912548,261.844177 L290.685774,229.076742 L340.760484,279.412016 C345.051113,283.731597 347.419355,289.469806 347.419355,295.567016 C347.419355,308.19571 337.147323,318.467742 324.483887,318.467742 Z" id="Shape"></path>
                    <rect id="Rectangle-path" x="179.5" y="179.5" width="23.1612903" height="11.5806452"></rect>
                </g>
            </g>
        </g>
    </g>
</svg>