<?xml version="1.0" encoding="UTF-8"?>
<svg width="1166px" height="221px" viewBox="0 0 1166 221" version="1.1" xmlns="http://www.w3.org/2000/svg" xmlns:xlink="http://www.w3.org/1999/xlink">
    <!-- Generator: sketchtool 50.2 (55047) - http://www.bohemiancoding.com/sketch -->
    <title>97926FA5-72BD-4007-ADCC-47A9147D2DAE</title>
    <desc>Created with sketchtool.</desc>
    <defs>
        <circle id="path-1" cx="18" cy="18" r="18"></circle>
        <filter x="-19.4%" y="-13.9%" width="138.9%" height="138.9%" filterUnits="objectBoundingBox" id="filter-2">
            <feOffset dx="0" dy="2" in="SourceAlpha" result="shadowOffsetOuter1"></feOffset>
            <feGaussianBlur stdDeviation="2" in="shadowOffsetOuter1" result="shadowBlurOuter1"></feGaussianBlur>
            <feColorMatrix values="0 0 0 0 0   0 0 0 0 0   0 0 0 0 0  0 0 0 0.122112772 0" type="matrix" in="shadowBlurOuter1"></feColorMatrix>
        </filter>
    </defs>
    <g id="Visuals-Homepage-v1" stroke="none" stroke-width="1" fill="none" fill-rule="evenodd">
        <g id="Home-page-v1" transform="translate(-274.000000, -7003.000000)">
            <g id="Group-7" transform="translate(276.000000, 7005.000000)">
                <path d="M1164,2.24181638 C1125.35321,-0.747272127 1099.09794,-0.747272127 1085.23417,2.24181638 C1029,14.3661434 1018.00904,38.4236285 991,50.2995719 C928.604607,77.7349826 801.68714,45.812472 764.34357,61.0319822 C727,76.2514924 694,103.201564 661.836852,135.499526 C631.039107,166.426362 579.985053,173.996051 534.817658,166.854281 C500.208743,161.381994 479.20984,145.386458 461.28023,135.499526 C419,112.184921 363.230326,135.499526 320.890595,166.854281 C278.550864,198.209036 224.149712,190.287931 147.074856,174.69297 C95.6916187,164.296329 46.6666667,176.732005 0,212" id="Path-11-Copy" stroke="#DCDCDC" stroke-width="4" opacity="0.5"></path>
                <path d="M1167,7.24181638 C1128.35321,4.25272787 1102.09794,4.25272787 1088.23417,7.24181638 C1032,19.3661434 1021.00904,43.4236285 994,55.2995719 C931.604607,82.7349826 804.68714,50.812472 767.34357,66.0319822 C730,81.2514924 697,108.201564 664.836852,140.499526 C634.039107,171.426362 582.985053,178.996051 537.817658,171.854281 C503.208743,166.381994 482.20984,150.386458 464.28023,140.499526 C422,117.184921 366.230326,140.499526 323.890595,171.854281 C281.550864,203.209036 227.149712,195.287931 150.074856,179.69297 C98.6916187,169.296329 49.6666667,181.732005 3,217" id="Path-11-Copy-2" stroke="#544FF0" stroke-width="4" opacity="0.5"></path>
                <g id="Group-17" transform="translate(805.000000, 38.000000)">
                    <g id="Oval-4" opacity="0.300000012">
                        <use fill="black" fill-opacity="1" filter="url(#filter-2)" xlink:href="#path-1"></use>
                        <use fill="#FFFFFF" fill-rule="evenodd" xlink:href="#path-1"></use>
                    </g>
                    <circle id="Oval-4" fill="#FFFFFF" opacity="0.600000024" cx="18.5" cy="18.5" r="10.5"></circle>
                    <circle id="Oval-4" fill="#FFFFFF" cx="18.5" cy="18.5" r="4.5"></circle>
                </g>
            </g>
        </g>
    </g>
</svg>