<svg xmlns="http://www.w3.org/2000/svg" width="50" height="43" viewBox="0 0 50 43">
    <path fill="#37517E" fill-rule="nonzero" stroke="#FFF" stroke-width=".5" d="M29.364 1c-4.773 0-8.88 2.603-11.165 6.39-1.081-.526-2.26-.894-3.546-.894-4.505 0-8.181 3.636-8.181 8.092 0 .44.102.855.17 1.281C3.349 17.28 1 20.435 1 24.197c0 5.053 4.164 9.171 9.273 9.171h1.636v6.272c0 1.29 1.082 2.36 2.386 2.36h21.41c1.304 0 2.386-1.07 2.386-2.36v-6.272h.204C44.398 33.368 49 27.996 49 22.04c0-4.58-2.798-8.47-6.767-10.25C41.189 5.674 35.834 1 29.363 1zm0 2.158c5.579 0 10.14 4.127 10.806 9.458.05.398.32.735.7.876 3.477 1.322 5.948 4.632 5.948 8.547 0 4.863-3.726 9.172-8.523 9.172h-.204v-8.902a1.073 1.073 0 0 0-.324-.758l-5.182-5.125a1.097 1.097 0 0 0-.767-.32H14.295c-1.304 0-2.386 1.07-2.386 2.36V31.21h-1.636c-3.93 0-7.091-3.128-7.091-7.014 0-3.153 2.084-5.801 4.96-6.692.563-.171.888-.753.733-1.315a5.912 5.912 0 0 1-.222-1.602c0-3.29 2.674-5.934 6-5.934 1.235 0 2.35.362 3.307.994.263.18.591.236.9.155.308-.081.564-.292.703-.576a10.905 10.905 0 0 1 9.8-6.07zM14.295 18.263h2.523v7.553c0 .596.489 1.079 1.091 1.079H31c.602 0 1.09-.483 1.09-1.08v-6.827l3.82 3.776V39.64c0 .132-.072.202-.205.202h-21.41c-.133 0-.204-.07-.204-.202V18.465c0-.131.071-.202.204-.202zm4.705 0h10.91v6.474H19v-6.474zm6 10.79c-2.397 0-4.364 1.945-4.364 4.315 0 2.371 1.967 4.316 4.364 4.316s4.364-1.945 4.364-4.316c0-2.37-1.967-4.315-4.364-4.315zm0 2.158c1.218 0 2.182.953 2.182 2.157 0 1.205-.964 2.158-2.182 2.158s-2.182-.953-2.182-2.158c0-1.204.964-2.157 2.182-2.157z"/>
</svg>
