<?xml version="1.0" encoding="UTF-8"?>
<svg width="90px" height="90px" viewBox="0 0 90 90" version="1.1" xmlns="http://www.w3.org/2000/svg" xmlns:xlink="http://www.w3.org/1999/xlink">
    <!-- Generator: sketchtool 50.2 (55047) - http://www.bohemiancoding.com/sketch -->
    <title>E8E53702-1674-4BCE-9844-89A6A2B49E59</title>
    <desc>Created with sketchtool.</desc>
    <defs></defs>
    <g id="Visuals-Homepage-v1" stroke="none" stroke-width="1" fill="none" fill-rule="evenodd">
        <g id="Home-page-Final" transform="translate(-656.000000, -5566.000000)" fill-rule="nonzero">
            <g id="folder" transform="translate(656.000000, 5566.000000)">
                <g id="Group" fill="#333333">
                    <path d="M46.4516129,0 L5.80645161,0 L5.80645161,5.80645161 L0,5.80645161 L0,46.4516129 L49.3548387,46.4516129 L49.3548387,11.6129032 L46.4516129,11.6129032 L46.4516129,0 Z M8.70967742,2.90322581 L43.5483871,2.90322581 L43.5483871,11.6129032 L24.1229032,11.6129032 L21.2196774,5.80645161 L8.70967742,5.80645161 L8.70967742,2.90322581 Z M2.90322581,43.5483871 L2.90322581,20.3225806 L40.6451613,20.3225806 L40.6451613,17.4193548 L2.90322581,17.4193548 L2.90322581,8.70967742 L19.4254839,8.70967742 L22.3287097,14.516129 L46.4516129,14.516129 L46.4516129,17.4193548 L43.5483871,17.4193548 L43.5483871,20.3225806 L46.4516129,20.3225806 L46.4516129,43.5483871 L2.90322581,43.5483871 Z" id="Shape"></path>
                    <rect id="Rectangle-path" x="26.126129" y="5.80645161" width="14.516129" height="2.90322581"></rect>
                    <rect id="Rectangle-path" x="5.80354839" y="11.6129032" width="11.6129032" height="2.90322581"></rect>
                    <path d="M76.0848387,43.5483871 L52.2580645,43.5483871 L52.2580645,90 L90,90 L90,57.4635484 L76.0848387,43.5483871 Z M76.9354839,48.5041935 L85.0441935,56.6129032 L76.9354839,56.6129032 L76.9354839,48.5041935 Z M55.1612903,87.0967742 L55.1612903,46.4516129 L74.0322581,46.4516129 L74.0322581,59.516129 L87.0967742,59.516129 L87.0967742,87.0967742 L55.1612903,87.0967742 Z" id="Shape"></path>
                    <rect id="Rectangle-path" x="58.0616129" y="49.3548387" width="13.0645161" height="2.90322581"></rect>
                    <rect id="Rectangle-path" x="58.0616129" y="55.1612903" width="7.25806452" height="2.90322581"></rect>
                    <rect id="Rectangle-path" x="68.2229032" y="55.1612903" width="2.90322581" height="2.90322581"></rect>
                    <rect id="Rectangle-path" x="58.0616129" y="62.4193548" width="26.1290323" height="2.90322581"></rect>
                    <rect id="Rectangle-path" x="58.0616129" y="68.2258065" width="20.3225806" height="2.90322581"></rect>
                    <rect id="Rectangle-path" x="81.2874194" y="68.2258065" width="2.90322581" height="2.90322581"></rect>
                    <rect id="Rectangle-path" x="58.0616129" y="74.0322581" width="26.1290323" height="2.90322581"></rect>
                    <rect id="Rectangle-path" x="58.0616129" y="79.8387097" width="20.3225806" height="2.90322581"></rect>
                    <rect id="Rectangle-path" x="81.2874194" y="79.8387097" width="2.90322581" height="2.90322581"></rect>
                </g>
                <g id="Group" transform="translate(7.258065, 0.000000)" fill="#29CE9A">
                    <polygon id="Shape" points="36.2903226 84.1935484 4.35483871 84.1935484 4.35483871 62.4193548 0 62.4193548 10.1612903 49.3548387 20.3225806 62.4193548 15.9677419 62.4193548 15.9677419 72.5806452 36.2903226 72.5806452"></polygon>
                    <polygon id="Shape" points="72.5806452 34.8387097 62.4193548 21.7741935 66.7741935 21.7741935 66.7741935 11.6129032 45 11.6129032 45 0 78.3870968 0 78.3870968 21.7741935 82.7419355 21.7741935"></polygon>
                </g>
            </g>
        </g>
    </g>
</svg>