<svg xmlns="http://www.w3.org/2000/svg" width="50" height="50" viewBox="0 0 50 50">
    <g fill="#37517E" fill-rule="nonzero" stroke="#FFF" stroke-width=".5">
        <path d="M48.705 39.827c-.32-.914-.901-1.68-1.637-2.159-.87-.567-1.901-.692-2.907-.354l-10.237 2.632c.424-1.798-.31-3.438-1.885-4.04a1.108 1.108 0 0 0-.13-.041L19.22 32.73a9.249 9.249 0 0 0-5.798.463l-2.57 1.092v-1.54c0-.613-.498-1.11-1.111-1.11H2.147c-.613 0-1.11.497-1.11 1.11v15.246c0 .614.497 1.111 1.11 1.111H9.74c.613 0 1.11-.497 1.11-1.111v-.604l2.483-.285a10.409 10.409 0 0 1 3.317.152l9.61 2.004a12.665 12.665 0 0 0 6.282-.287l14.092-4.312.043-.014c2.173-.762 2.666-3 2.028-4.818zM8.63 46.88h-5.37V33.856h5.37V46.88zm37.33-4.339l-14.066 4.304a10.454 10.454 0 0 1-5.179.237l-9.61-2.004a12.625 12.625 0 0 0-4.024-.184l-2.23.256V36.7l3.44-1.461a7.014 7.014 0 0 1 4.395-.352l12.613 3.116c.875.392.379 1.721.357 1.779-.163.426-.427.782-.723.978-.252.166-.487.197-.761.098a1.12 1.12 0 0 0-.151-.049l-7.024-1.735a1.11 1.11 0 1 0-.533 2.158l6.96 1.719c.349.124.699.184 1.043.184.54 0 1.065-.15 1.541-.426.076-.004.153-.015.23-.034l12.52-3.22a1.13 1.13 0 0 0 .09-.027c.372-.13.703-.097 1.01.103.321.209.595.585.752 1.031.055.159.507 1.557-.65 1.98zM28.775 1.033a6.173 6.173 0 0 0-6.166 6.166c0 3.4 2.766 6.166 6.166 6.166 3.4 0 6.166-2.766 6.166-6.166 0-3.4-2.766-6.166-6.166-6.166zm0 10.11a3.948 3.948 0 0 1-3.944-3.944 3.948 3.948 0 0 1 3.944-3.944 3.948 3.948 0 0 1 3.944 3.944 3.948 3.948 0 0 1-3.944 3.943zM39.217 11.322a6.173 6.173 0 0 0-6.166 6.166c0 3.4 2.766 6.166 6.166 6.166 3.4 0 6.166-2.766 6.166-6.166 0-3.4-2.766-6.166-6.166-6.166zm0 10.11a3.948 3.948 0 0 1-3.944-3.944 3.948 3.948 0 0 1 3.944-3.944 3.948 3.948 0 0 1 3.944 3.944 3.948 3.948 0 0 1-3.944 3.944zM27.775 20.598a6.173 6.173 0 0 0-6.166 6.166c0 3.4 2.766 6.166 6.166 6.166 3.4 0 6.166-2.766 6.166-6.166 0-3.4-2.766-6.166-6.166-6.166zm0 10.11a3.948 3.948 0 0 1-3.944-3.944 3.948 3.948 0 0 1 3.944-3.944 3.948 3.948 0 0 1 3.944 3.944 3.948 3.948 0 0 1-3.944 3.944z"/>
    </g>
</svg>
