<?xml version="1.0" encoding="UTF-8"?>
<svg width="988px" height="430px" viewBox="0 0 988 430" version="1.1" xmlns="http://www.w3.org/2000/svg" xmlns:xlink="http://www.w3.org/1999/xlink">
    <!-- Generator: Sketch 48.2 (47327) - http://www.bohemiancoding.com/sketch -->
    <title>Group 2</title>
    <desc>Created with Sketch.</desc>
    <defs></defs>
    <g id="01.-Landing-Page" stroke="none" stroke-width="1" fill="none" fill-rule="evenodd" transform="translate(0.000000, -370.000000)">
        <g id="Group-2">
            <g style="mix-blend-mode: hard-light;" transform="translate(-11.000000, 370.000000)">
                <path d="M10.3394135,219.789431 C10.3394135,219.789431 -5.13291039,288.119758 19.3635432,334.534343 C43.8599967,380.94654 43.8599967,380.94654 43.8599967,380.94654 C43.8599967,380.94654 50.3058036,264.912466 10.3394135,219.789431" id="Fill-10" fill="#00A88B"></path>
                <path d="M11.3850666,398.180718 C12.8723769,406.557879 14.7798583,415.009048 18.9266607,422.443212 C23.0734631,429.874989 29.7723276,436.25395 38.0444465,438.256925 C41.7949512,439.1665 45.7006327,439.152176 49.5585675,439.049521 C53.7889267,438.934929 58.2126601,438.667547 61.858122,436.516557 C66.6136951,433.716212 69.1084611,428.313671 71.0398158,423.145089 C74.3080786,414.39789 76.7885206,405.357049 78.4429444,396.165806 C79.3978788,390.861146 80.0138114,385.110054 77.5357568,380.321058 C74.1815498,373.834666 66.3200528,371.227695 59.1126857,370.050739 C47.1378089,368.097898 30.6484799,367.099992 19.1749436,371.974932 C9.1552949,376.231551 9.75929088,389.032446 11.3850666,398.180718" id="Fill-11" fill="#FFFFFE"></path>
                <path d="M38.545787,381.170949 C48.0473839,381.724811 58.3463509,380.268536 64.3290146,377.045633 C65.5250699,376.40344 66.5898217,375.575034 66.0240231,374.787213 C65.3555691,373.853765 62.824993,373.469404 60.6190947,373.24022 C49.1956924,372.063263 36.5428122,371.530887 25.3629183,373.428819 C8.98101938,376.205291 29.8511097,380.662447 38.545787,381.170949" id="Fill-12" fill="#4C4757"></path>
                <path d="M33.5467057,203.030333 C33.5467057,203.030333 25.8093501,333.242794 43.8599967,380.94654 C43.8599967,380.94654 55.4624491,264.912466 33.5467057,203.030333" id="Fill-13" fill="#1B9981"></path>
                <path d="M41.5800909,379.993993 L45.7674781,379.993993 C51.929192,354.217927 70.3618124,270.71608 60.6190947,231.745209 C60.6190947,231.745209 29.6768342,341.333475 37.4141898,365.829929 C39.3025725,372.25425 40.6347059,376.785413 41.5800909,379.993993" id="Fill-14" fill="#00A88B"></path>
                <path d="M929.478055,224.239425 C929.478055,224.239425 914.008118,292.569753 938.504572,338.984337 C962.998638,385.398921 962.998638,385.398921 962.998638,385.398921 C962.998638,385.398921 969.444445,269.364848 929.478055,224.239425" id="Fill-15" fill="#00A88B"></path>
                <path d="M930.523708,402.630712 C932.013405,411.010261 933.920887,419.463817 938.065302,426.893206 C942.212104,434.324983 948.913356,440.703944 957.183088,442.706919 C960.933592,443.616494 964.839274,443.60217 968.694821,443.499515 C972.927568,443.384923 977.351301,443.117541 980.996763,440.971326 C985.754724,438.168594 988.244715,432.763665 990.178457,427.595083 C993.44672,418.847884 995.927162,409.807043 997.581586,400.618188 C998.53652,395.313527 999.152453,389.560048 996.676785,384.771052 C993.317804,378.289435 985.456307,375.677689 978.251327,374.50312 C966.27645,372.547892 949.787121,371.549986 938.311197,376.424926 C928.293936,380.683933 928.897932,393.482441 930.523708,402.630712" id="Fill-16" fill="#FFFFFE"></path>
                <path d="M957.684428,385.620943 C967.186025,386.174805 977.484992,384.720918 983.467656,381.495627 C984.663711,380.853434 985.728463,380.025028 985.162664,379.237207 C984.49421,378.303759 981.966022,377.919398 979.757736,377.694988 C968.334334,376.513257 955.683841,375.983268 944.501559,377.878813 C928.119661,380.655285 948.989751,385.112441 957.684428,385.620943" id="Fill-17" fill="#4C4757"></path>
                <path d="M952.685347,207.480327 C952.685347,207.480327 944.950379,337.695176 962.998638,385.398921 C962.998638,385.398921 974.603478,269.364848 952.685347,207.480327" id="Fill-18" fill="#1B9981"></path>
                <path d="M960.718732,384.446374 L964.906119,384.446374 C971.067833,358.667921 989.502841,275.168461 979.760123,236.195203 C979.760123,236.195203 948.817863,345.783469 956.552831,370.279923 C958.441214,376.706631 959.775734,381.235407 960.718732,384.446374" id="Fill-19" fill="#00A88B"></path>
                <path d="M147.219704,69.5424465 L189.623564,76.4203612 L169.448188,57.9972901 L179.093025,47.2399546 L215.767279,80.0419497 C220.823657,85.3537721 217.216392,94.1439428 209.887271,94.3731271 L158.507028,95.9774168 L147.219704,69.5424465" id="Fill-25" fill="#CED4D9"></path>
                <polyline id="Fill-26" fill="#4C4757" points="164.928962 178.223525 164.083845 455.032734 149.521096 456.073613 139.405954 221.231382 125.884083 222.269873 112.06857 453.994243 97.5058215 452.953365 99.3440701 173.212507 164.928962 178.223525"></polyline>
                <path d="M147.219704,69.5424465 L98.2458956,67.4821756 C93.1847435,67.2697027 88.3074163,69.4063683 85.0319915,73.2714651 L99.3440701,185.411794 L166.275419,186.758251 L160.163839,83.9715046 C160.163839,83.9715046 149.000657,69.6188412 147.219704,69.5424465" id="Fill-27" fill="#CED4D9"></path>
                <path d="M169.28585,48.0611982 C166.597709,50.1954764 163.171882,52.1745779 162.632345,55.5645949 C162.164427,58.4986307 164.324966,61.4207298 167.09905,62.4830943 C169.875522,63.5430714 173.045904,63.0345689 175.75553,61.8218022 C180.126742,59.8665741 183.731619,55.9059839 184.536151,51.1886082 C185.125823,47.7293585 183.581217,41.080628 179.565718,39.8678614 C175.008294,38.4927559 172.585148,45.444678 169.28585,48.0611982" id="Fill-28" fill="#FFFFFE"></path>
                <path d="M157.867222,26.2958569 C156.026586,25.3862819 153.632088,26.2672088 152.476618,27.9646046 C151.325922,29.6620005 151.28295,31.9395189 151.965728,33.873261 C153.242952,37.4829128 157.172507,40.0445242 160.956435,39.4787256 C164.742749,38.9105397 167.810476,35.0597669 167.249452,31.2710649 C166.850767,28.556664 164.764235,26.2409481 162.207399,25.2454291 C159.648175,24.24991 156.706977,24.4838689 154.183563,25.5605574" id="Fill-31" fill="#EFA9AD"></path>
                <path d="M156.895576,30.5477021 L178.930687,47.8630493 C178.930687,47.8630493 179.455901,57.3073501 174.210924,58.3553905 C172.635282,59.4058183 152.173426,37.8935346 152.173426,37.8935346 L156.895576,30.5477021" id="Fill-32" fill="#EFA9AD"></path>
                <path d="M114.697027,45.8576871 L115.821462,76.3702271 C115.821462,79.9106463 118.397398,82.9234641 121.892458,83.4773261 C125.888858,84.1099701 129.620264,81.3263364 130.15264,77.3156121 L131.699633,50.9307759 L114.697027,45.8576871" id="Fill-34" fill="#EFA9AD"></path>
                <polyline id="Fill-35" fill="#4C4757" points="153.856498 53.1151882 138.384174 50.2360612 144.452782 17.6155036 159.925106 20.4946307 153.856498 53.1151882"></polyline>
                <polyline id="Fill-36" fill="#4C4757" points="152.142391 52.7952852 138.384174 50.2360612 144.452782 17.6155036 158.208611 20.1747276 152.142391 52.7952852"></polyline>
                <path d="M112.930399,71.8939723 C112.930399,71.8939723 110.695852,73.8062284 110.538288,74.4460344 C110.378337,75.0834531 119.147021,88.7963104 119.147021,88.7963104 L125.048516,79.3878197 L132.384799,88.7963104 L135.414328,71.7340208 L130.472543,70.6167476 L124.888564,76.9980965 L115.002606,69.0220073 L112.930399,71.8939723" id="Fill-37" fill="#FFFFFE"></path>
                <polyline id="Fill-38" fill="#7375A9" points="125.048516 79.3878197 121.381568 85.4492655 123.931242 90.0735351 122.496454 93.5829189 123.931242 138.553165 129.035367 144.294708 133.662024 138.873068 128.877802 93.4229674 126.165789 89.7536321 129.515221 85.1293625 125.048516 79.3878197"></polyline>
                <path d="M101.977302,13.2204182 C98.8809269,20.3704892 99.2270906,28.570988 100.855254,36.1913641 C102.62427,44.470645 106.093069,52.7785739 112.65108,58.1333683 C119.209092,63.4881627 129.386305,65.0088956 136.142465,59.9071588 C140.167514,56.8704676 142.440258,52.0528238 143.972927,47.249504 C147.019168,37.6906111 147.639875,27.0120576 143.672123,17.7969411 C136.395523,0.901765016 110.664817,-6.85707662 101.977302,13.2204182" id="Fill-39" fill="#EFA9AD"></path>
                <polyline id="Fill-40" fill="#CED4D9" points="91.0289792 105.5005 38.4526809 122.47207 0.243370031 80.8440946 9.76645289 72.9802102 44.9868193 101.857425 85.0319915 73.2714651 91.8573848 85.2129193 91.0289792 105.5005"></polyline>
                <path d="M92.9770453,26.7685494 C90.7066889,27.7640684 89.591803,30.5071174 89.8448606,32.9732353 C90.0955309,35.436966 91.4443756,37.654801 92.9627213,39.6124165 C93.8054508,40.6986543 94.7293498,41.7538567 95.8991444,42.4772195 C97.033129,43.1767089 98.3509384,43.5300346 99.6735225,43.7066975 C101.296911,43.9215577 103.209167,43.7496695 104.159327,42.4151488 C104.660667,41.713272 104.787196,40.8180211 104.889851,39.9609675 C105.386417,35.8953345 104.338377,34.2814954 101.986851,31.3402976 C99.8286993,28.6378334 96.9949316,25.0019208 92.9770453,26.7685494" id="Fill-42" fill="#EFA9AD"></path>
                <path d="M108.014874,27.043093 C107.675872,31.2877762 105.665736,35.6279529 101.941492,37.6929984 C99.1626326,34.1334806 97.6968083,29.6739371 97.2026298,25.1857457 C96.5914718,19.6375771 97.4962721,13.7408574 100.738274,9.20014456 C104.438645,4.01485101 110.824768,1.17869598 117.177469,0.717940152 C123.532557,0.257184326 129.870934,1.93786879 135.765266,4.35385271 C138.319716,5.40189317 141.595141,6.47141964 143.543207,4.51141688 C144.560212,6.42606026 145.104524,8.59137391 145.114074,10.7590749 C145.118848,12.4254354 144.796558,14.1371552 143.872659,15.5241973 C142.313729,17.8613992 139.787927,20.4707573 137.044878,21.0843026 C116.308479,25.7181216 106.668417,14.4618329 106.572923,14.7721865 C106.233921,15.8799104 106.899988,17.2645652 107.15782,18.3913877 C107.802401,21.2251554 108.246446,24.1305432 108.014874,27.043093" id="Fill-43" fill="#4C4757"></path>
                <path d="M413.087753,259.69375 L407.198195,144.922577 C407.198195,144.922577 377.690723,143.153561 368.910102,143.153561 C364.125881,143.153561 355.95403,145.426305 349.503449,147.491351 C343.442003,149.434642 338.407111,149.262754 335.463526,154.906416 L287.06984,247.661577 L316.804109,250.49057 L326.716327,239.165049 L321.674274,231.520799 L339.751181,188.885368 L339.459926,261.111828 L413.087753,259.69375" id="Fill-44" fill="#E1BF7F"></path>
                <path d="M364.689292,236.488845 C363.447877,236.073449 353.514173,230.281772 346.065685,230.281772 C338.617197,230.281772 329.511898,238.145656 329.511898,238.145656 C329.511898,238.145656 328.270483,242.282909 333.236142,241.454504 C338.2018,240.628486 341.513035,240.213089 341.513035,240.213089 C341.513035,240.213089 332.820745,244.765739 338.617197,245.594144 C344.408874,246.420162 368.828933,245.594144 368.828933,245.594144 L364.689292,236.488845" id="Fill-46" fill="#8D565F"></path>
                <path d="M362.860593,253.324338 L267.24779,253.324338 L267.24779,246.312732 L362.860593,246.312732 C364.796722,246.312732 366.365202,247.883599 366.365202,249.819729 C366.365202,251.755858 364.796722,253.324338 362.860593,253.324338" id="Fill-47" fill="#455091"></path>
                <path d="M336.628546,253.324338 L244.427247,253.324338 C240.349677,253.324338 236.782997,250.578902 235.734957,246.63741 L219.465263,185.328237 C217.949304,179.624892 222.251284,174.031364 228.155165,174.031364 L308.665681,174.031364 C312.743251,174.031364 316.30993,176.774413 317.355583,180.715904 L336.628546,253.324338" id="Fill-48" fill="#696CA3"></path>
                <path d="M282.330979,219.106653 C283.340822,223.10544 280.82457,226.347442 276.708803,226.347442 C272.595423,226.347442 268.441458,223.10544 267.431615,219.106653 C266.421772,215.107865 268.938024,211.865863 273.051404,211.865863 C277.167171,211.865863 281.321136,215.107865 282.330979,219.106653" id="Fill-51" fill="#FFFFFE"></path>
                <path d="M365.930707,128.882067 C366.759112,130.538878 372.553177,153.302126 372.553177,153.302126 C372.553177,153.302126 374.622997,157.02637 379.588655,156.613361 C384.554314,156.197965 386.624134,149.162486 386.624134,149.162486 L377.931844,120.607561 L365.930707,128.882067" id="Fill-52" fill="#8D565F"></path>
                <path d="M396.562614,114.863631 C396.562614,130.54604 379.91572,147.897198 364.235698,147.897198 C348.555676,147.897198 339.782217,130.54604 339.782217,114.863631 C339.782217,99.1836089 352.492393,86.4734326 368.172415,86.4734326 C383.85005,86.4734326 396.562614,99.1836089 396.562614,114.863631" id="Fill-53" fill="#8D565F"></path>
                <path d="M370.483356,146.266647 L367.172121,154.95655 L369.241942,164.061849 L375.864411,154.543541 L382.486881,165.303264 L389.935369,152.060711 L384.96971,143.368422 C384.96971,143.368422 382.486881,149.162486 377.105826,150.4039 C371.724771,151.647702 370.483356,146.266647 370.483356,146.266647" id="Fill-54" fill="#FFFFFE"></path>
                <polyline id="Fill-55" fill="#696CA3" points="375.864411 154.543541 370.898753 160.750614 373.381582 164.474858 369.657338 172.338743 370.483356 224.072311 375.449015 234.419025 382.486881 222.830897 380.83007 173.582545 377.105826 164.061849 380.004052 159.922209 375.864411 154.543541"></polyline>
                <path d="M407.198195,144.924965 L411.134912,230.448885 L371.610179,238.498982 L377.000783,248.831372 L433.575869,252.121121 L425.848063,167.528261 C425.05308,158.812097 419.781842,151.134425 411.932282,147.259779 L407.198195,144.924965" id="Fill-59" fill="#E1BF7F"></path>
                <polyline id="Fill-60" fill="#FFFFFE" points="364.689292 236.488845 372.553177 237.317251 379.588655 248.902992 366.365202 249.819729 364.689292 236.488845"></polyline>
                <path d="M325.281539,275.201884 L255.327822,292.994698 L290.918226,432.904518 L303.19152,426.766678 L292.761249,306.495083 L355.350034,286.859245 L319.146085,307.722173 L319.759631,421.860702 L330.805834,421.860702 C330.805834,421.860702 361.487875,310.176355 364.555601,310.176355 C367.623328,310.176355 419.168297,275.815429 419.168297,275.815429 L325.281539,275.201884" id="Fill-61" fill="#4C4757"></path>
                <polyline id="Fill-62" fill="#4C4757" points="253.277101 443.919686 301.923844 440.462824 303.260752 425.136127 251.262189 436.972538 253.277101 443.919686"></polyline>
                <polyline id="Fill-63" fill="#4C4757" points="292.761249 452.540356 302.577974 453.767446 330.192289 443.337176 330.805834 421.860702 319.759631 421.860702 314.851268 435.358699 299.966229 444.351794 292.761249 452.540356"></polyline>
                <path d="M338.79386,104.772362 C337.683749,106.811147 336.547377,109.188934 337.375782,111.359022 C338.385625,114.008965 341.684923,114.820659 344.504367,115.152499 C349.369758,115.723072 354.270958,115.97613 359.169772,115.909284 C362.418936,115.866312 365.687199,115.6801 368.850419,114.940026 C374.026163,113.727259 378.733989,111.084478 383.363033,108.472733 C386.662332,106.610611 390.314956,104.26386 390.91179,100.522904 C391.506236,96.8129843 388.818096,93.4611648 386.304231,90.6679818 C384.878992,89.0804034 383.439428,87.4808884 381.718159,86.2156003 C377.518835,83.128775 371.944406,82.3242428 366.79731,83.1550357 C354.013126,85.2153066 344.762199,93.8288145 338.79386,104.772362" id="Fill-64" fill="#433C41"></path>
                <path d="M385.246641,113.961218 C385.688299,112.464358 387.564745,111.688474 389.044893,112.177878 C390.527428,112.669669 391.532497,114.154592 391.764068,115.699199 C391.99564,117.241418 391.558758,118.821834 390.878367,120.2232 C390.546527,120.910753 390.155004,121.574432 389.975954,122.314506 C389.825552,122.935214 389.835101,123.582182 389.847038,124.2196 C389.892397,126.993685 389.935369,129.767769 389.980729,132.541853 C392.272571,131.670476 393.609479,129.340436 394.762562,127.17751 C397.293138,122.429098 399.897722,117.370334 399.604079,111.998828 C399.358184,107.548834 397.147511,103.473651 394.903415,99.6228787 C394.421173,98.7944731 393.912671,97.9445816 393.129625,97.393107 C392.017126,96.6124481 390.513104,96.5790254 389.214394,96.9729358 C387.913296,97.3692336 386.767374,98.1451178 385.645327,98.9114526 C384.544765,99.6634634 383.441816,100.415474 382.338866,101.165098 C381.266953,101.895622 380.149679,102.676281 379.569557,103.838914 C378.521516,105.937382 379.980178,106.823084 381.207269,108.093146 C381.830364,108.740114 380.729802,122.534141 385.246641,113.961218" id="Fill-65" fill="#433C41"></path>
                <path d="M466.07706,70.5164795 C466.370702,74.9736356 468.815334,79.4093057 467.585856,83.704123 C466.576013,87.2254434 463.293426,89.7393081 462.281196,93.2582412 C461.132887,97.2522541 463.159736,101.399057 465.124513,105.06123 C466.767,108.124182 469.068392,111.604918 472.544353,111.621629 C474.065086,111.628791 475.490325,110.931689 476.84872,110.248911 C480.157567,108.589712 483.466415,106.932901 486.772875,105.271315 C488.202889,104.555115 489.654389,103.822203 490.80986,102.716866 C492.528742,101.071992 493.421605,98.7634378 494.235687,96.526504 C496.780587,89.5172859 499.058105,82.1738407 498.470821,74.7396767 C497.883536,67.3031254 493.817903,59.7042353 486.889854,56.9468623 C483.012821,55.4046434 471.665813,54.0247632 468.33548,57.3455474 C466.852944,58.8256957 467.593018,60.3965627 467.404419,62.2801707 C467.1251,65.1091637 465.886073,67.5919931 466.07706,70.5164795" id="Fill-68" fill="#4C4757"></path>
                <path d="M474.11522,92.7855487 L470.734752,93.7094477 C456.682893,102.857719 448.460908,115.565508 446.689505,132.238662 L439.529885,248.229763 L450.299157,243.414507 L474.11522,92.7855487" id="Fill-69" fill="#EFA9AD"></path>
                <path d="M545.169498,91.9046218 L487.794655,89.5674199 C482.943588,89.3716584 474.408862,91.0977022 469.760719,92.4919064 L462.448309,95.9034094 L475.320825,157.367759 C463.601393,177.237556 457.747645,200.022289 458.439972,223.081567 L465.251042,306.891381 L529.565871,306.891381 L537.754433,218.493107 C538.44676,200.394714 535.106877,182.365553 527.973518,165.721047 L524.473683,157.553971 L545.169498,91.9046218" id="Fill-70" fill="#696CA3"></path>
                <path d="M520.474896,61.969817 C520.474896,77.2177314 504.212363,97.9230955 488.964449,97.9230955 C473.716535,97.9230955 465.251042,77.2177314 465.251042,61.969817 C465.251042,46.7195154 477.612667,34.3578902 492.862969,34.3578902 C508.110883,34.3578902 520.474896,46.7195154 520.474896,61.969817" id="Fill-76" fill="#EFA9AD"></path>
                <path d="M545.169498,91.9046218 L584.966387,143.779043 C589.137063,149.217394 587.678401,157.069342 581.834203,160.643184 L535.309801,189.10739 L529.565871,180.135782 L561.482164,154.548315 C563.800267,152.688581 564.292058,149.351085 562.601825,146.904066 L538.396626,112.602824 L545.169498,91.9046218" id="Fill-77" fill="#EFA9AD"></path>
                <path d="M417.518648,253.348211 L442.504505,253.348211 C446.503293,253.348211 449.82169,250.251837 450.098621,246.262598 L450.299157,243.414507 L417.518648,253.348211" id="Fill-78" fill="#EFA9AD"></path>
                <path d="M485.42403,80.5337409 C485.05638,79.6122293 492.022626,98.7538884 492.022626,98.7538884 C492.022626,98.7538884 493.591106,106.608223 500.189702,104.724615 C506.788299,102.83862 502.703567,74.8781422 501.76057,74.5654012 C500.819959,74.2502729 486.051899,82.1046079 485.42403,80.5337409" id="Fill-79" fill="#EFA9AD"></path>
                <path d="M501.803542,58.3410665 C489.021745,66.1190068 475.573882,74.116582 460.638709,75.0285444 C463.99769,70.8602559 463.324462,64.8990782 463.940394,59.5800938 C464.950237,50.8734798 470.092559,42.7374391 477.526723,38.0964582 C484.960887,33.4507025 494.526942,32.3955001 502.794286,35.3080498 C505.881111,36.396675 508.877218,38.0869088 510.779924,40.746401 C516.275572,48.4169112 507.738459,54.72664 501.803542,58.3410665" id="Fill-80" fill="#4C4757"></path>
                <path d="M500.643296,88.9896846 C501.497963,93.093515 504.102546,96.7294276 504.570464,100.892941 C504.873656,103.597793 504.250561,106.307419 503.629854,108.954975 C502.882617,112.156392 502.132994,115.355422 501.38337,118.554452 C505.82859,117.671138 509.879899,115.345873 513.425093,112.521654 C526.216438,102.334892 532.824584,84.926439 530.01469,68.8190837 C529.212545,64.2210748 527.713298,59.7758554 526.073198,55.409418 C524.80791,52.0408871 523.420868,48.6484828 521.155286,45.8552998 C518.887317,43.0621168 515.588019,40.9063525 511.990304,40.8132464 C507.690712,40.703429 503.782643,43.5371967 501.261616,47.0203197 C499.542734,49.3981063 498.284608,52.224712 498.341905,55.1563604 C498.401588,58.0880089 499.425755,68.0622982 502.113895,69.2368675 C505.511074,67.1765966 510.600874,69.0005212 511.918684,72.7534133 C513.995666,78.6740063 508.69578,79.8079908 505.160136,81.834839 C500.76505,84.358253 499.690749,84.4059997 500.643296,88.9896846" id="Fill-81" fill="#4C4757"></path>
                <path d="M529.974105,70.9867847 C532.683731,73.0231822 535.772944,74.5821125 538.157892,76.9885471 C540.542841,79.3949817 542.128032,83.0476056 540.867519,86.191727 C540.072536,88.1708284 538.327393,89.5721946 536.820984,91.0809909 C535.314575,92.5921745 533.917984,94.5402406 534.159105,96.6578075 C534.321444,98.061561 535.171335,99.2719403 535.949607,100.448897 C537.983617,103.526173 539.738309,107.128663 539.134313,110.766963 C538.649684,113.698611 536.610899,116.255448 534.008703,117.685462 C531.404119,119.120251 528.298195,119.490288 525.359385,119.062955 C523.650052,118.812285 521.962206,118.306169 520.238549,118.380177 C515.693062,118.575938 512.116833,122.686931 507.595218,123.216919 C505.033607,123.517724 502.352629,122.548465 500.578838,120.674407 C498.805048,118.802735 497.976642,116.07401 498.413525,113.531498 C499.129725,109.370371 502.770413,106.443497 506.119845,103.874724 C509.474052,101.308338 513.057443,98.2477732 513.551621,94.0556114 C513.921659,90.925814 512.446285,87.7936294 512.830646,84.663832 C513.382121,80.1804152 517.548022,76.895441 518.55309,72.4908063 C519.126051,69.986491 518.211701,63.6576635 522.136481,63.7388329 C525.137363,63.8009037 527.753883,69.3156496 529.974105,70.9867847" id="Fill-82" fill="#4C4757"></path>
                <path d="M497.002609,65.985316 C496.193302,67.5012743 495.159586,68.8859291 494.130644,70.2610346 C492.681531,72.2019387 491.230031,74.1428427 489.780918,76.0837468 C490.828958,72.3547282 491.179897,68.4323353 490.807472,64.5767878 C490.752564,63.9895032 490.678556,63.3878946 490.821796,62.814934 C491.089178,61.7263088 492.053662,60.9695233 492.98711,60.3512033 C494.319244,59.467889 497.745071,56.6150226 499.09869,58.4484966 C500.163442,59.8904475 497.716423,64.6460206 497.002609,65.985316" id="Fill-83" fill="#4C4757"></path>
                <polyline id="Fill-84" fill="#4C4757" points="530.664045 171.698936 528.035588 174.031364 537.167148 184.70753 530.664045 171.698936"></polyline>
                <path d="M724.658959,259.69375 L718.771789,144.922577 C718.771789,144.922577 689.26193,138.703567 680.478921,138.703567 C675.699475,138.703567 667.525237,140.973924 661.072268,143.041356 C655.01321,144.984648 649.978318,149.262754 647.034733,154.906416 L598.641047,247.661577 L628.375316,250.49057 L638.287534,239.165049 L633.245481,231.520799 L651.324776,188.885368 L651.031133,261.111828 L724.658959,259.69375" id="Fill-85" fill="#DC7C8B"></path>
                <path d="M720.712693,111.702798 C720.712693,127.38282 708.002517,140.095384 692.320107,140.095384 C683.644529,140.095384 677.623668,131.085578 672.416888,124.950125 C668.215177,119.99879 664.903942,118.597424 664.903942,111.597756 C664.903942,95.9177334 676.642473,83.3125999 692.320107,83.3125999 C708.002517,83.3125999 720.712693,96.0227762 720.712693,111.702798" id="Fill-86" fill="#EFA9AD"></path>
                <polyline id="Fill-87" fill="#4C4757" points="648.199753 253.324338 549.079954 253.324338 528.035588 174.031364 627.155387 174.031364 648.199753 253.324338"></polyline>
                <polyline id="Fill-88" fill="#FFFFFE" points="648.199753 253.324338 552.173941 253.324338 530.664045 171.698936 627.809517 174.031364 648.199753 253.324338"></polyline>
                <polygon id="Fill-89" fill="#4C4757" points="549.884486 253.324338 617.84239 253.324338 617.84239 247.57802 549.884486 247.57802"></polygon>
                <polyline id="Fill-93" fill="#696CA3" points="621.80298 234.991986 568.909166 234.991986 557.058431 190.028901 610.570565 191.313288 621.80298 234.991986"></polyline>
                <path d="M636.855133,275.201884 L566.901417,292.994698 L602.49182,432.904518 L614.765114,426.766678 L604.332456,306.495083 L666.923628,286.859245 L630.71968,307.722173 L631.330838,421.860702 L642.377041,421.860702 C642.377041,421.860702 673.059082,310.176355 676.126808,310.176355 C679.194535,310.176355 730.739504,275.815429 730.739504,275.815429 L636.855133,275.201884" id="Fill-94" fill="#7375A9"></path>
                <polyline id="Fill-95" fill="#4C4757" points="564.848308 443.919686 613.497438 440.462824 614.831959 425.136127 562.833396 436.972538 564.848308 443.919686"></polyline>
                <path d="M674.450898,150.690381 C674.890168,156.19319 675.921497,161.65064 677.521012,166.931427 C677.876725,168.096447 678.301671,169.32115 679.26138,170.070773 C681.228545,171.60583 684.083799,170.314282 686.132133,168.886655 C689.7012,166.396663 693.019597,163.519924 695.793681,160.165717 C697.579408,158.009953 699.164599,155.586807 699.711299,152.843758 C700.260387,150.100709 699.59432,146.985235 697.47914,145.158923 C694.203715,142.334705 687.158687,142.437361 683.040533,142.341867 C677.244081,142.205789 673.966269,144.600287 674.450898,150.690381" id="Fill-96" fill="#E3E8EB"></path>
                <polyline id="Fill-97" fill="#4C4757" points="604.332456 452.540356 614.149181 453.767446 641.765883 443.337176 642.377041 421.860702 631.333225 421.860702 626.424862 435.358699 611.539823 444.351794 604.332456 452.540356"></polyline>
                <path d="M681.636779,126.017264 L679.535924,149.950307 C679.535924,149.950307 681.216608,160.024864 687.094229,158.346567 C692.97185,156.66827 693.809805,152.048775 693.809805,152.048775 L696.330832,123.498625 L681.636779,126.017264" id="Fill-98" fill="#EFA9AD"></path>
                <path d="M702.891231,102.504393 C707.360324,102.325343 711.958332,102.014989 715.988155,100.076473 C720.020366,98.1355684 723.393671,94.1725908 723.319664,89.7011107 C723.248044,85.2272433 718.630936,81.0135954 714.376704,82.3958629 C713.405058,82.7109912 712.519356,83.2720152 711.526225,83.5035868 C709.979231,83.8640745 708.374941,83.3937693 706.851821,82.9449502 C695.37351,79.5620952 682.529643,77.3084501 671.810505,82.6322092 C669.819467,83.6229536 667.871401,84.940763 666.825748,86.9007657 C666.009279,88.431048 665.815904,90.2048386 665.65834,91.9308825 C665.235782,96.5670887 664.956464,101.217619 664.820385,105.870537 C667.923922,104.189852 671.00836,102.189265 674.233651,100.766413 C677.384934,99.3745958 679.409395,100.749701 682.763602,101.446803 C689.36936,102.819521 696.182817,102.771775 702.891231,102.504393" id="Fill-99" fill="#433C41"></path>
                <path d="M672.734404,125.332099 L672.416888,124.950125 C669.829016,121.903885 667.219658,120.239911 665.589108,117.780955 C664.987499,116.183828 664.60075,114.753814 664.627011,113.822753 C664.665209,112.354541 664.326207,110.802773 664.054051,109.260554 C664.190129,107.646715 664.464672,106.075848 664.863357,104.555115 C664.846646,104.991997 664.832322,105.431267 664.820385,105.870537 C665.051957,105.746395 665.283529,105.617479 665.517487,105.488563 C665.114028,107.45334 664.903942,109.499287 664.903942,111.597756 C664.903942,118.597424 668.215177,119.99879 672.416888,124.950125 C672.521931,125.076654 672.629361,125.200795 672.736791,125.329712 C672.736791,125.329712 672.734404,125.329712 672.734404,125.332099" id="Fill-100" fill="#727073"></path>
                <path d="M672.736791,125.329712 C672.629361,125.200795 672.521931,125.076654 672.416888,124.950125 C668.215177,119.99879 664.903942,118.597424 664.903942,111.597756 C664.903942,109.499287 665.114028,107.45334 665.517487,105.488563 C668.384678,103.893823 671.249481,102.084222 674.233651,100.766413 C675.217233,100.331917 676.090998,100.167191 676.93134,100.167191 C678.779138,100.167191 680.457435,100.966949 682.763602,101.446803 C683.577683,101.616304 684.39654,101.761932 685.215396,101.890848 C684.298659,104.309219 681.753759,107.415143 680.796437,108.661332 C679.963257,109.749958 675.484615,120.5813 672.736791,125.329712" id="Fill-101" fill="#765F64"></path>
                <path d="M664.820385,105.870537 C664.832322,105.431267 664.846646,104.991997 664.863357,104.555115 C665.543748,101.943369 666.589401,99.4796385 667.938246,97.2164441 C669.793206,95.6766125 672.178155,94.7646502 674.57504,94.7646502 C675.128902,94.7646502 675.680376,94.8123969 676.227076,94.912665 C678.265861,95.2850894 684.749865,97.6366152 685.461291,99.7685062 C685.649891,100.32953 685.52575,101.069604 685.215396,101.890848 C684.39654,101.761932 683.577683,101.616304 682.763602,101.446803 C680.457435,100.966949 678.779138,100.167191 676.93134,100.167191 C676.090998,100.167191 675.217233,100.331917 674.233651,100.766413 C671.249481,102.084222 668.384678,103.893823 665.517487,105.488563 C665.283529,105.617479 665.051957,105.746395 664.820385,105.870537" id="Fill-102" fill="#433C41"></path>
                <path d="M676.265274,106.47692 C676.045639,106.152242 675.806905,105.82279 675.467903,105.627028 C675.05012,105.388295 674.544004,105.381133 674.06415,105.381133 C672.197253,105.381133 670.046264,105.514824 668.924216,107.006909 C668.446749,107.639553 668.23905,108.429761 668.086261,109.205645 C667.725773,111.058218 667.637442,112.963312 667.828429,114.842145 C668.119684,117.728434 669.509113,120.970436 672.335719,121.622179 C674.018791,122.011315 675.823616,121.326149 677.100841,120.163517 C681.543673,116.124144 679.173049,110.766963 676.265274,106.47692" id="Fill-103" fill="#EFA9AD"></path>
                <path d="M712.154094,121.3166 C713.607982,120.975211 715.128715,120.674407 716.582602,121.015796 C718.03649,121.357185 719.404433,122.519817 719.499927,124.009515 C719.547673,124.737652 719.297003,125.446691 719.175249,126.165279 C718.802824,128.399825 719.695688,130.624823 720.47396,132.751939 C722.173743,137.395307 723.295791,142.945863 720.476347,147.009109 C717.826404,150.833621 712.610075,151.898373 707.961932,151.683512 C694.170293,151.053256 681.266742,141.191171 677.036383,128.0465 C675.56101,123.465202 675.08593,118.427923 676.580402,113.851401 C677.033996,112.461971 678.218114,110.864843 679.597995,111.347085 C680.397752,116.673232 683.878488,121.529073 688.667484,123.995191 C697.137751,128.359241 703.996567,123.216919 712.154094,121.3166" id="Fill-104" fill="#433C41"></path>
                <path d="M530.664045,171.698936 L552.176329,253.324338 L648.199753,253.324338 L627.809517,174.031364 L530.664045,171.698936 Z M533.781906,174.162667 L625.947395,176.37334 L645.12009,250.937002 L554.016965,250.937002 L533.781906,174.162667 Z" id="Fill-105" fill="#4C4757"></path>
                <path d="M686.191816,253.324338 L549.884486,253.324338 L549.884486,247.57802 L686.191816,247.57802 C687.777007,247.57802 689.063781,248.864794 689.063781,250.452373 C689.063781,252.037564 687.777007,253.324338 686.191816,253.324338" id="Fill-106" fill="#FFFFFE"></path>
                <path d="M617.195422,253.324338 L549.884486,253.324338 L549.884486,247.57802 L617.195422,247.57802 C618.783,247.57802 620.069774,248.864794 620.069774,250.452373 C620.069774,252.037564 618.783,253.324338 617.195422,253.324338" id="Fill-107" fill="#455091"></path>
                <path d="M718.771789,144.924965 L693.981693,210.459722 L630.75549,218.875081 L633.245481,231.520799 L714.154682,228.882793 L736.005967,171.259667 C737.082655,168.418737 737.297516,165.284165 736.402265,162.383552 C734.384966,155.858963 729.763084,150.351379 723.503489,147.259779 L718.771789,144.924965" id="Fill-108" fill="#DC7C8B"></path>
                <path d="M630.75549,218.875081 L596.657171,200.659708 C596.657171,200.659708 594.826084,203.374109 597.518999,205.620592 C600.214302,207.869463 608.849295,214.253199 608.849295,214.253199 L608.849295,219.214083 C611.695,228.524693 620.487558,232.922165 630.16343,231.859801 L633.245481,231.520799 L630.75549,218.875081" id="Fill-109" fill="#EFA9AD"></path>
                <path d="M769.674565,253.183485 L728.951389,253.183485 C728.951389,253.183485 727.772045,250.232738 734.265599,249.053394 C740.754378,247.87405 759.05092,247.284378 759.05092,247.284378 L763.770683,241.970168 L770.264237,243.741572 L769.674565,253.183485" id="Fill-110" fill="#723C49"></path>
                <path d="M803.106817,128.719728 L759.712212,245.818554 L770.421801,248.494757 L837.088156,134.384877 C837.088156,134.384877 835.1759,126.991297 823.847991,119.912846 C812.520082,112.832008 803.106817,128.719728 803.106817,128.719728" id="Fill-111" fill="#686BA3"></path>
                <path d="M804.300485,75.0500304 C795.834992,61.8409009 778.264199,57.9972901 765.05507,66.4627832 C757.654329,71.2064196 752.908305,79.681462 752.053639,88.359428 C751.619144,92.759288 751.597658,94.2991197 753.383385,98.3623653 C755.190598,102.487682 760.172968,108.128956 757.317714,116.319906 C756.651648,118.236937 757.20551,121.17336 759.444831,122.066223 C761.669828,122.954312 763.62983,120.535941 765.787982,120.435673 C769.882263,120.251848 777.929972,126.523379 780.856846,128.991885 C782.114972,130.051862 783.466204,131.152424 785.094367,131.362509 C786.488572,131.539172 787.880388,131.028282 789.126578,130.378927 C795.362299,127.144087 799.158163,120.681569 802.273636,114.386164 C805.188574,108.496606 807.812256,102.263272 808.253913,95.7410705 C809.583659,88.8368951 808.394766,81.4361539 804.300485,75.0500304" id="Fill-112" fill="#8D565F"></path>
                <path d="M803.223796,129.949206 C804.422239,131.181072 805.923873,132.48217 807.626044,132.229112 C808.40909,132.11452 809.101417,131.67525 809.75316,131.221657 C811.486366,130.016052 813.102592,128.636172 814.570804,127.115439 C815.46128,126.189152 816.344594,125.09814 816.368468,123.816141 C816.382792,123.095165 816.117797,122.395676 815.824155,121.734384 C812.95219,115.264703 807.062632,110.337242 804.983263,103.569145 C804.040265,100.503806 803.939997,97.2164441 802.889569,94.1869149 C801.834367,91.1549983 799.392122,88.2281245 796.18593,88.1015957 C794.290385,88.0275883 792.492721,88.9467126 790.974376,90.0806971 C786.025428,93.7691311 783.174949,100.100346 783.690614,106.25251 C784.158532,111.834102 787.362337,116.947775 791.946021,120.099059 C796.324395,123.111876 799.454193,126.079335 803.223796,129.949206" id="Fill-113" fill="#8D565F"></path>
                <path d="M765.05507,66.4627832 C759.788607,69.8384761 755.902024,75.1121011 753.772521,80.9968841 C759.215646,83.6850243 773.105167,77.7071352 776.87477,75.4272295 C776.464148,84.969411 781.649442,94.5497899 789.871427,99.4175678 C794.860959,102.370702 800.743354,103.659864 805.735274,106.529441 C807.041146,103.029607 808.003243,99.4318918 808.253913,95.7410705 C809.583659,88.8368951 808.394766,81.4361539 804.300485,75.0500304 C795.834992,61.8409009 778.264199,57.9972901 765.05507,66.4627832" id="Fill-114" fill="#433C41"></path>
                <path d="M780.281498,95.268378 C778.684371,92.3224055 780.274336,88.2663219 783.277605,86.7766243 C786.278486,85.289314 790.141196,86.2036637 792.530919,88.5528022 C794.923029,90.8995533 795.932872,94.4232611 795.696526,97.7655314 C795.398109,101.988729 792.325608,106.546153 788.097636,106.328905 C785.769983,106.209538 783.714487,104.641059 782.411002,102.709704 C781.109904,100.775962 780.439062,98.4984435 779.784932,96.2615098" id="Fill-115" fill="#8D565F"></path>
                <polyline id="Fill-116" fill="#FFFFFE" points="818.8131 115.288577 810.715256 105.889635 797.921523 129.39057 802.622188 144.273222 819.596146 125.210345 818.8131 115.288577"></polyline>
                <path d="M828.064026,116.570576 L904.038603,201.137175 L857.516589,241.996429 L800.533269,154.457597 C794.712944,146.07566 803.617707,127.580969 809.435644,119.196646 C813.692264,113.058805 822.274737,111.850813 828.064026,116.570576" id="Fill-117" fill="#7375A9"></path>
                <polyline id="Fill-118" fill="#302C40" points="901.405372 460.456762 880.984101 345.363298 857.516589 241.996429 904.038603 201.137175 901.376724 344.069362 912.733281 454.794001 901.405372 460.456762"></polyline>
                <polyline id="Fill-119" fill="#4C4757" points="904.038603 201.137175 865.740961 464.121322 854.117023 462.235327 857.516589 241.996429 904.038603 201.137175"></polyline>
                <path d="M754.498271,253.183485 L713.77987,253.183485 C713.77987,253.183485 712.600526,250.232738 719.089305,249.053394 C725.582858,247.87405 745.278379,247.430006 745.278379,247.430006 L748.599164,241.970168 L757.480053,245.372122 L754.498271,253.183485" id="Fill-122" fill="#8D565F"></path>
                <path d="M812.47711,124.128882 L781.580209,182.446723 L744.538305,247.157849 L756.58719,247.601894 L789.611207,202.08256 L833.340038,146.195027 C838.976538,141.71161 840.70497,133.895473 837.484454,127.45444 C832.664422,117.819153 819.64628,116.088334 812.47711,124.128882" id="Fill-123" fill="#7375A9"></path>
                <path d="M493.340436,296.90038 C491.263454,296.90038 474.633272,303.828429 474.633272,303.828429 L487.627541,410.516082 C484.681569,411.903124 480.592062,412.717206 477.827527,413.509801 C471.446178,415.333726 465.726122,415.992631 460.089622,419.750297 C459.63364,420.077362 459.495175,421.693589 459.409231,422.249838 C459.225406,423.472154 460.889379,424.014079 462.123632,424.068988 C469.82279,424.405602 477.533885,424.441412 485.23543,424.169256 C490.14618,423.997368 494.156905,421.490665 498.530504,419.246569 C501.068242,417.943084 502.032726,414.082762 501.891873,412.275549 C501.846514,411.726461 495.305213,296.90038 493.340436,296.90038" id="Fill-127" fill="#EFA9AD"></path>
                <path d="M479.052231,420.165694 C486.469683,419.485303 496.451134,416.171681 502.233262,411.475791 C502.748927,416.39609 501.299814,421.123015 491.931908,423.524675 C481.117276,426.29876 469.531535,429.373648 458.826721,426.198492 C457.683187,425.85949 456.36299,425.138514 456.391638,423.944846 C456.403575,423.405309 456.709154,422.920679 457.031444,422.488572 C458.936538,419.948446 464.570651,415.417283 467.915309,416.520232 C469.655676,417.097967 470.904253,419.108104 472.883355,419.714487 C474.852907,420.318483 477.020608,420.351906 479.052231,420.165694" id="Fill-128" fill="#4C4757"></path>
                <path d="M533.048994,412.275549 C533.003634,411.726461 526.462334,296.90038 524.499944,296.90038 C522.418187,296.90038 505.790392,303.828429 505.790392,303.828429 L518.784662,410.516082 C520.971461,416.269562 522.84552,421.755659 526.037388,427.019735 C529.226869,432.283811 533.495425,437.046546 538.950488,439.894638 C539.537773,440.202604 540.282621,440.477148 540.829321,440.102336 C541.14445,439.882701 541.299626,439.500727 541.407057,439.135465 C542.323794,435.969857 540.974949,432.634749 539.64759,429.619544 C537.233993,424.11196 533.526461,418.272536 533.048994,412.275549" id="Fill-129" fill="#EFA9AD"></path>
                <path d="M522.189003,426.367992 C525.500238,432.515382 529.577807,438.782139 535.942445,441.656491 C537.03107,442.145895 538.2319,442.532644 539.399307,442.289135 C540.967787,441.964458 542.132807,440.522507 542.526717,438.968351 C542.923015,437.414196 542.674732,435.766934 542.266498,434.215165 C541.652952,431.873189 540.681306,429.626706 539.399307,427.57121 C539.093728,427.084193 538.70698,426.563754 538.136406,426.473035 C537.408269,426.356056 536.80666,426.991087 536.205052,427.423195 C534.555403,428.609701 532.208651,428.392453 530.439636,427.394547 C528.67062,426.399028 527.364747,424.758928 526.171079,423.118828 C523.757482,419.798044 521.613655,413.700788 518.259448,411.786145 C517.218569,416.768515 519.856576,422.044527 522.189003,426.367992" id="Fill-130" fill="#4C4757"></path>
                <path d="M341.028406,443.657079 L341.028406,439.543699 C341.030793,435.272755 342.756837,431.419595 345.554795,428.61925 C348.352753,425.821293 352.2083,424.095249 356.479244,424.095249 L388.901653,424.095249 L388.901653,342.018641 L386.514317,342.018641 L386.514317,421.707913 L356.479244,421.707913 C346.626709,421.707913 338.643458,429.691164 338.64107,439.543699 L338.64107,443.657079 L341.028406,443.657079" id="Fill-134" fill="#4C4757"></path>
                <path d="M435.710147,443.657079 L435.710147,439.543699 C435.710147,429.691164 427.724509,421.707913 417.874361,421.707913 L387.836901,421.707913 L387.836901,342.018641 L385.449565,342.018641 L385.449565,424.095249 L417.874361,424.095249 C422.145305,424.095249 425.998465,425.821293 428.79881,428.61925 C431.596768,431.419595 433.322812,435.272755 433.322812,439.543699 L433.322812,443.657079 L435.710147,443.657079" id="Fill-135" fill="#4C4757"></path>
                <polygon id="Fill-136" fill="#4C4757" points="384.399137 443.657079 386.786473 443.657079 386.786473 422.901581 384.399137 422.901581"></polygon>
                <polygon id="Fill-137" fill="#4C4757" points="377.136861 422.194929 394.7554 422.194929 394.7554 382.03039 377.136861 382.03039"></polygon>
                <polygon id="Fill-138" fill="#4C4757" points="379.956305 388.371154 391.231693 388.371154 391.231693 342.722905 379.956305 342.722905"></polygon>
                <path d="M645.580845,443.657079 L645.580845,439.543699 C645.583233,435.272755 647.309277,431.419595 650.107234,428.61925 C652.905192,425.821293 656.760739,424.095249 661.029296,424.095249 L693.454092,424.095249 L693.454092,342.018641 L691.066756,342.018641 L691.066756,421.707913 L661.029296,421.707913 C651.179148,421.707913 643.195897,429.691164 643.19351,439.543699 L643.19351,443.657079 L645.580845,443.657079" id="Fill-142" fill="#4C4757"></path>
                <path d="M740.260199,443.657079 L740.260199,439.543699 C740.260199,429.691164 732.276948,421.707913 722.4268,421.707913 L692.391728,421.707913 L692.391728,342.018641 L690.004392,342.018641 L690.004392,424.095249 L722.4268,424.095249 C726.695357,424.095249 730.550904,425.821293 733.348862,428.61925 C736.14682,431.419595 737.872864,435.272755 737.872864,439.543699 L737.872864,443.657079 L740.260199,443.657079" id="Fill-143" fill="#4C4757"></path>
                <polygon id="Fill-144" fill="#4C4757" points="688.951577 443.657079 691.338912 443.657079 691.338912 422.901581 688.951577 422.901581"></polygon>
                <polygon id="Fill-145" fill="#4C4757" points="681.689301 422.194929 699.305452 422.194929 699.305452 382.03039 681.689301 382.03039"></polygon>
                <polygon id="Fill-146" fill="#4C4757" points="684.508744 388.371154 695.784132 388.371154 695.784132 342.722905 684.508744 342.722905"></polygon>
                <polygon id="Fill-147" fill="#ABA9B6" points="212.026324 348.192291 757.167312 348.192291 757.167312 261.818479 212.026324 261.818479"></polygon>
                <polygon id="Fill-148" fill="#4C4757" points="212.806983 482.709119 221.981515 482.709119 221.981515 262.501257 212.806983 262.501257"></polygon>
                <polygon id="Fill-149" fill="#4C4757" points="754.156882 482.709119 763.331413 482.709119 763.331413 262.501257 754.156882 262.501257"></polygon>
                <polygon id="Fill-154" fill="#CED4D9" points="190.786197 268.004066 783.518726 268.004066 783.518726 253.324338 190.786197 253.324338"></polygon>
            </g>
        </g>
    </g>
</svg>