<?xml version="1.0" encoding="UTF-8"?>
<svg width="90px" height="90px" viewBox="0 0 90 90" version="1.1" xmlns="http://www.w3.org/2000/svg" xmlns:xlink="http://www.w3.org/1999/xlink">
    <!-- Generator: sketchtool 50.2 (55047) - http://www.bohemiancoding.com/sketch -->
    <title>FD3AE9D0-F857-43E9-8F28-E3A580596458</title>
    <desc>Created with sketchtool.</desc>
    <defs></defs>
    <g id="Visuals-Homepage-v1" stroke="none" stroke-width="1" fill="none" fill-rule="evenodd">
        <g id="Home-page-Final" transform="translate(-652.000000, -6057.000000)" fill-rule="nonzero">
            <g id="marketing" transform="translate(652.000000, 6057.000000)">
                <circle id="Oval" fill="#FFCF34" cx="45" cy="45" r="15.9677419"></circle>
                <path d="M45,23.2258065 C32.9937097,23.2258065 23.2258065,32.9937097 23.2258065,45 C23.2258065,57.0062903 32.9937097,66.7741935 45,66.7741935 C57.0062903,66.7741935 66.7741935,57.0062903 66.7741935,45 C66.7741935,32.9937097 57.0062903,23.2258065 45,23.2258065 Z M56.5446774,43.5483871 C56.3545161,40.0891935 55.5241935,37.0480645 54.3803226,34.4540323 C56.5098387,33.5395161 57.9106452,32.5175806 58.5958065,31.9485484 C61.5382258,35.0129032 63.4514516,39.0614516 63.7954839,43.5483871 L56.5446774,43.5483871 Z M46.4516129,27.9159677 C47.5795161,29.07 48.9585484,30.7103226 50.2141935,32.7803226 C49.095,33.0532258 47.8408065,33.2579032 46.4516129,33.3435484 L46.4516129,27.9159677 Z M49.2474194,26.6283871 C51.8820968,27.2380645 54.3019355,28.4008065 56.3879032,29.9874194 C55.7491935,30.465 54.6430645,31.185 53.0637097,31.8454839 C51.8327419,29.7029032 50.4667742,27.9580645 49.2474194,26.6283871 Z M43.5483871,27.926129 L43.5483871,33.3420968 C42.1635484,33.2564516 40.9137097,33.0532258 39.7974194,32.7817742 C41.0501613,30.7204839 42.4233871,29.0816129 43.5483871,27.926129 Z M36.9362903,31.8454839 C35.3583871,31.1864516 34.2522581,30.465 33.6120968,29.9874194 C35.6980645,28.4008065 38.1179032,27.2380645 40.7525806,26.6283871 C39.5332258,27.9580645 38.1672581,29.7029032 36.9362903,31.8454839 Z M43.5483871,36.2453226 L43.5483871,43.5483871 L36.36,43.5483871 C36.5559677,40.4651613 37.3369355,37.7404839 38.3951613,35.4179032 C39.8917742,35.8316129 41.6046774,36.1408065 43.5483871,36.2453226 Z M43.5483871,46.4516129 L43.5483871,53.7546774 C41.6003226,53.8606452 39.8845161,54.1698387 38.3864516,54.585 C37.3325806,52.263871 36.5545161,49.5391935 36.3585484,46.4516129 L43.5483871,46.4516129 Z M43.5483871,56.6579032 L43.5483871,62.0854839 C42.4190323,60.9314516 41.0414516,59.2896774 39.7858065,57.221129 C40.9035484,56.9482258 42.1591935,56.7435484 43.5483871,56.6579032 Z M40.7525806,63.3716129 C38.1179032,62.7619355 35.6995161,61.5991935 33.6120968,60.0125806 C34.2508065,59.535 35.3569355,58.815 36.9348387,58.1545161 C38.1658065,60.2970968 39.5332258,62.0419355 40.7525806,63.3716129 Z M46.4516129,62.0724194 L46.4516129,56.6564516 C47.8364516,56.7420968 49.0862903,56.9453226 50.2025806,57.2167742 C48.9498387,59.2795161 47.5766129,60.9183871 46.4516129,62.0724194 Z M53.0637097,58.1545161 C54.6416129,58.8135484 55.7477419,59.5335484 56.3864516,60.0125806 C54.3004839,61.5991935 51.8820968,62.7619355 49.2459677,63.3716129 C50.4682258,62.0419355 51.8341935,60.2970968 53.0637097,58.1545161 Z M46.4516129,53.7546774 L46.4516129,46.4516129 L53.64,46.4516129 C53.4440323,49.5348387 52.6630645,52.2595161 51.6033871,54.5820968 C50.1082258,54.1683871 48.3953226,53.8591935 46.4516129,53.7546774 Z M46.4516129,43.5483871 L46.4516129,36.2453226 C48.3996774,36.1393548 50.1154839,35.8301613 51.6120968,35.415 C52.6659677,37.736129 53.4440323,40.4608065 53.64,43.5483871 L46.4516129,43.5483871 Z M31.4027419,31.9485484 C32.0879032,32.5175806 33.4887097,33.5395161 35.6182258,34.4540323 C34.4743548,37.0480645 33.6454839,40.0891935 33.453871,43.5483871 L26.2016129,43.5483871 C26.5470968,39.06 28.4603226,35.0129032 31.4027419,31.9485484 Z M26.2030645,46.4516129 L33.4553226,46.4516129 C33.6454839,49.9108065 34.4758065,52.9519355 35.6196774,55.5459677 C33.4901613,56.4604839 32.0893548,57.4824194 31.4041935,58.0514516 C28.4603226,54.9870968 26.5470968,50.9385484 26.2030645,46.4516129 Z M58.5972581,58.0514516 C57.9120968,57.4824194 56.5112903,56.4604839 54.3817742,55.5459677 C55.5256452,52.9519355 56.3545161,49.9108065 56.546129,46.4516129 L63.7983871,46.4516129 C63.4529032,50.9385484 61.5396774,54.9870968 58.5972581,58.0514516 Z" id="Shape" fill="#000000"></path>
                <path d="M82.7419355,37.7419355 C82.3703226,37.7419355 82.0132258,37.7970968 81.656129,37.8522581 L76.3940323,23.5683871 C78.4524194,22.2866129 79.8387097,20.0191935 79.8387097,17.4193548 C79.8387097,13.4172581 76.5827419,10.1612903 72.5806452,10.1612903 C69.9808065,10.1612903 67.7133871,11.5475806 66.4316129,13.6074194 L52.1477419,8.34532258 C52.2029032,7.98677419 52.2580645,7.62967742 52.2580645,7.25806452 C52.2580645,3.25596774 49.0020968,0 45,0 C40.9979032,0 37.7419355,3.25596774 37.7419355,7.25806452 C37.7419355,7.62967742 37.7970968,7.98677419 37.8522581,8.34387097 L23.5683871,13.6059677 C22.2866129,11.5475806 20.0191935,10.1612903 17.4193548,10.1612903 C13.4172581,10.1612903 10.1612903,13.4172581 10.1612903,17.4193548 C10.1612903,20.0191935 11.5475806,22.2866129 13.6074194,23.5683871 L8.34532258,37.8522581 C7.98677419,37.7970968 7.62967742,37.7419355 7.25806452,37.7419355 C3.25596774,37.7419355 0,40.9979032 0,45 C0,49.0020968 3.25596774,52.2580645 7.25806452,52.2580645 C7.62967742,52.2580645 7.98677419,52.2029032 8.34387097,52.1477419 L13.6059677,66.4316129 C11.5475806,67.7133871 10.1612903,69.9808065 10.1612903,72.5806452 C10.1612903,76.5827419 13.4172581,79.8387097 17.4193548,79.8387097 C20.0191935,79.8387097 22.2866129,78.4524194 23.5683871,76.3925806 L37.8522581,81.6546774 C37.7970968,82.0132258 37.7419355,82.3703226 37.7419355,82.7419355 C37.7419355,86.7440323 40.9979032,90 45,90 C49.0020968,90 52.2580645,86.7440323 52.2580645,82.7419355 C52.2580645,82.3703226 52.2029032,82.0132258 52.1477419,81.656129 L66.4316129,76.3940323 C67.7133871,78.4524194 69.9808065,79.8387097 72.5806452,79.8387097 C76.5827419,79.8387097 79.8387097,76.5827419 79.8387097,72.5806452 C79.8387097,69.9808065 78.4524194,67.7133871 76.3925806,66.4316129 L81.6546774,52.1477419 C82.0132258,52.2029032 82.3703226,52.2580645 82.7419355,52.2580645 C86.7440323,52.2580645 90,49.0020968 90,45 C90,40.9979032 86.7440323,37.7419355 82.7419355,37.7419355 Z M72.5806452,13.0645161 C74.9816129,13.0645161 76.9354839,15.0183871 76.9354839,17.4193548 C76.9354839,19.8203226 74.9816129,21.7741935 72.5806452,21.7741935 C70.1796774,21.7741935 68.2258065,19.8203226 68.2258065,17.4193548 C68.2258065,15.0183871 70.1796774,13.0645161 72.5806452,13.0645161 Z M45,2.90322581 C47.4009677,2.90322581 49.3548387,4.85709677 49.3548387,7.25806452 C49.3548387,9.65903226 47.4009677,11.6129032 45,11.6129032 C42.5990323,11.6129032 40.6451613,9.65903226 40.6451613,7.25806452 C40.6451613,4.85709677 42.5990323,2.90322581 45,2.90322581 Z M17.4193548,13.0645161 C19.8203226,13.0645161 21.7741935,15.0183871 21.7741935,17.4193548 C21.7741935,19.8203226 19.8203226,21.7741935 17.4193548,21.7741935 C15.0183871,21.7741935 13.0645161,19.8203226 13.0645161,17.4193548 C13.0645161,15.0183871 15.0183871,13.0645161 17.4193548,13.0645161 Z M2.90322581,45 C2.90322581,42.5990323 4.85709677,40.6451613 7.25806452,40.6451613 C9.65903226,40.6451613 11.6129032,42.5990323 11.6129032,45 C11.6129032,47.4009677 9.65903226,49.3548387 7.25806452,49.3548387 C4.85709677,49.3548387 2.90322581,47.4009677 2.90322581,45 Z M17.4193548,76.9354839 C15.0183871,76.9354839 13.0645161,74.9816129 13.0645161,72.5806452 C13.0645161,70.1796774 15.0183871,68.2258065 17.4193548,68.2258065 C19.8203226,68.2258065 21.7741935,70.1796774 21.7741935,72.5806452 C21.7741935,74.9816129 19.8203226,76.9354839 17.4193548,76.9354839 Z M45,87.0967742 C42.5990323,87.0967742 40.6451613,85.1429032 40.6451613,82.7419355 C40.6451613,80.3409677 42.5990323,78.3870968 45,78.3870968 C47.4009677,78.3870968 49.3548387,80.3409677 49.3548387,82.7419355 C49.3548387,85.1429032 47.4009677,87.0967742 45,87.0967742 Z M72.5806452,76.9354839 C70.1796774,76.9354839 68.2258065,74.9816129 68.2258065,72.5806452 C68.2258065,70.1796774 70.1796774,68.2258065 72.5806452,68.2258065 C74.9816129,68.2258065 76.9354839,70.1796774 76.9354839,72.5806452 C76.9354839,74.9816129 74.9816129,76.9354839 72.5806452,76.9354839 Z M73.6664516,65.4329032 C73.3093548,65.3777419 72.9522581,65.3225806 72.5806452,65.3225806 C71.1043548,65.3225806 69.7325806,65.771129 68.5843548,66.5317742 L64.5024194,62.4498387 L62.4498387,64.5024194 L66.5317742,68.5843548 C65.771129,69.7325806 65.3225806,71.1043548 65.3225806,72.5806452 C65.3225806,72.9522581 65.3777419,73.3093548 65.4329032,73.6664516 L51.1490323,78.9285484 C50.1125806,77.2620968 48.4374194,76.0340323 46.4516129,75.6290323 L46.4516129,71.1290323 L43.5483871,71.1290323 L43.5483871,75.6304839 C41.5640323,76.0354839 39.888871,77.2635484 38.8509677,78.93 L24.5670968,73.6679032 C24.6222581,73.3093548 24.6774194,72.9522581 24.6774194,72.5806452 C24.6774194,71.1043548 24.228871,69.7325806 23.4682258,68.5843548 L27.5501613,64.5024194 L25.4975806,62.4498387 L21.4156452,66.5317742 C20.2674194,65.771129 18.8956452,65.3225806 17.4193548,65.3225806 C17.0477419,65.3225806 16.6906452,65.3777419 16.3335484,65.4329032 L11.0714516,51.1490323 C12.7379032,50.1125806 13.9659677,48.4374194 14.3709677,46.4516129 L18.8709677,46.4516129 L18.8709677,43.5483871 L14.3695161,43.5483871 C13.9645161,41.5640323 12.7364516,39.888871 11.07,38.8509677 L16.3320968,24.5670968 C16.6906452,24.6222581 17.0477419,24.6774194 17.4193548,24.6774194 C18.8956452,24.6774194 20.2674194,24.228871 21.4156452,23.4682258 L25.4990323,27.5501613 L27.5516129,25.4975806 L23.4682258,21.4156452 C24.228871,20.268871 24.6774194,18.8956452 24.6774194,17.4193548 C24.6774194,17.0477419 24.6222581,16.6906452 24.5670968,16.3335484 L38.8509677,11.0714516 C39.8874194,12.7379032 41.5625806,13.9659677 43.5483871,14.3709677 L43.5483871,18.8709677 L46.4516129,18.8709677 L46.4516129,14.3695161 C48.4359677,13.9645161 50.111129,12.7364516 51.1490323,11.07 L65.4329032,16.3320968 C65.3777419,16.6906452 65.3225806,17.0477419 65.3225806,17.4193548 C65.3225806,18.8956452 65.771129,20.268871 66.5317742,21.4156452 L62.4483871,25.4975806 L64.5009677,27.5501613 L68.5843548,23.4682258 C69.7325806,24.228871 71.1043548,24.6774194 72.5806452,24.6774194 C72.9522581,24.6774194 73.3093548,24.6222581 73.6664516,24.5670968 L78.9285484,38.8509677 C77.2620968,39.8874194 76.0340323,41.5625806 75.6290323,43.5483871 L71.1290323,43.5483871 L71.1290323,46.4516129 L75.6304839,46.4516129 C76.0354839,48.4359677 77.2635484,50.111129 78.93,51.1490323 L73.6664516,65.4329032 Z M82.7419355,49.3548387 C80.3409677,49.3548387 78.3870968,47.4009677 78.3870968,45 C78.3870968,42.5990323 80.3409677,40.6451613 82.7419355,40.6451613 C85.1429032,40.6451613 87.0967742,42.5990323 87.0967742,45 C87.0967742,47.4009677 85.1429032,49.3548387 82.7419355,49.3548387 Z" id="Shape" fill="#000000"></path>
                <g id="Group" transform="translate(4.354839, 4.354839)" fill="#FFCF34">
                    <circle id="Oval" cx="40.6451613" cy="2.90322581" r="2.90322581"></circle>
                    <circle id="Oval" cx="68.2258065" cy="13.0645161" r="2.90322581"></circle>
                    <circle id="Oval" cx="13.0645161" cy="13.0645161" r="2.90322581"></circle>
                    <circle id="Oval" cx="68.2258065" cy="68.2258065" r="2.90322581"></circle>
                    <circle id="Oval" cx="13.0645161" cy="68.2258065" r="2.90322581"></circle>
                    <circle id="Oval" cx="2.90322581" cy="40.6451613" r="2.90322581"></circle>
                    <circle id="Oval" cx="78.3870968" cy="40.6451613" r="2.90322581"></circle>
                    <circle id="Oval" cx="40.6451613" cy="78.3870968" r="2.90322581"></circle>
                </g>
            </g>
        </g>
    </g>
</svg>