<?xml version="1.0" encoding="UTF-8"?>
<svg width="297px" height="369px" viewBox="0 0 297 369" version="1.1" xmlns="http://www.w3.org/2000/svg" xmlns:xlink="http://www.w3.org/1999/xlink">
    <!-- Generator: sketchtool 50.2 (55047) - http://www.bohemiancoding.com/sketch -->
    <title>62382B60-0F8D-43C8-A0E9-139A6F67C5A3</title>
    <desc>Created with sketchtool.</desc>
    <defs></defs>
    <g id="Visuals-Homepage-v1" stroke="none" stroke-width="1" fill="none" fill-rule="evenodd">
        <g id="Home-page-Final" transform="translate(0.000000, -5765.000000)" fill="#F4F4F4" fill-rule="nonzero">
            <g id="marketing-copy" transform="translate(-72.000000, 5765.000000)">
                <path d="M185,96 C135.9254,96 96,135.9254 96,185 C96,234.0746 135.9254,274 185,274 C234.0746,274 274,234.0746 274,185 C274,135.9254 234.0746,96 185,96 Z M232.1878,179.066667 C231.410533,164.927533 228.016667,152.4972 223.3412,141.894333 C232.0454,138.156333 237.771067,133.979267 240.5716,131.6534 C252.598467,144.178667 260.4186,160.726733 261.8248,179.066667 L232.1878,179.066667 Z M190.933333,115.1706 C195.543533,119.8876 201.1802,126.592267 206.312533,135.0532 C201.737933,136.168667 196.611533,137.005267 190.933333,137.355333 L190.933333,115.1706 Z M202.360933,109.907733 C213.129933,112.399733 223.0208,117.152333 231.547,123.637467 C228.936333,125.589533 224.415133,128.532467 217.959667,131.232133 C212.9282,122.474533 207.344933,115.342667 202.360933,109.907733 Z M179.066667,115.212133 L179.066667,137.3494 C173.406267,136.999333 168.297667,136.168667 163.734933,135.059133 C168.8554,126.6338 174.468333,119.935067 179.066667,115.212133 Z M152.040333,131.232133 C145.5908,128.5384 141.0696,125.589533 138.453,123.637467 C146.9792,117.152333 156.870067,112.399733 167.639067,109.907733 C162.655067,115.342667 157.0718,122.474533 152.040333,131.232133 Z M179.066667,149.216067 L179.066667,179.066667 L149.6848,179.066667 C150.4858,166.464267 153.677933,155.3274 158.003333,145.834067 C164.1206,147.525067 171.121933,148.788867 179.066667,149.216067 Z M179.066667,190.933333 L179.066667,220.783933 C171.104133,221.217067 164.090933,222.480867 157.967733,224.1778 C153.660133,214.6904 150.479867,203.553533 149.678867,190.933333 L179.066667,190.933333 Z M179.066667,232.6506 L179.066667,254.835333 C174.450533,250.118333 168.8198,243.407733 163.687467,234.952733 C168.256133,233.837267 173.388467,233.000667 179.066667,232.6506 Z M167.639067,260.092267 C156.870067,257.600267 146.985133,252.847667 138.453,246.362533 C141.063667,244.410467 145.584867,241.467533 152.0344,238.767867 C157.065867,247.525467 162.655067,254.657333 167.639067,260.092267 Z M190.933333,254.781933 L190.933333,232.644667 C196.593733,232.994733 201.702333,233.8254 206.265067,234.934933 C201.1446,243.3662 195.531667,250.064933 190.933333,254.781933 Z M217.959667,238.767867 C224.4092,241.4616 228.9304,244.404533 231.541067,246.362533 C223.014867,252.847667 213.129933,257.600267 202.355,260.092267 C207.350867,254.657333 212.934133,247.525467 217.959667,238.767867 Z M190.933333,220.783933 L190.933333,190.933333 L220.3152,190.933333 C219.5142,203.535733 216.322067,214.6726 211.990733,224.165933 C205.8794,222.474933 198.878067,221.211133 190.933333,220.783933 Z M190.933333,179.066667 L190.933333,149.216067 C198.895867,148.782933 205.909067,147.519133 212.026333,145.8222 C216.333933,155.3096 219.5142,166.446467 220.3152,179.066667 L190.933333,179.066667 Z M129.422467,131.6534 C132.223,133.979267 137.948667,138.156333 146.652867,141.894333 C141.9774,152.4972 138.589467,164.927533 137.806267,179.066667 L108.163333,179.066667 C109.575467,160.7208 117.3956,144.178667 129.422467,131.6534 Z M108.169267,190.933333 L137.8122,190.933333 C138.589467,205.072467 141.983333,217.5028 146.6588,228.105667 C137.9546,231.843667 132.228933,236.020733 129.4284,238.3466 C117.3956,225.821333 109.575467,209.273267 108.169267,190.933333 Z M240.577533,238.3466 C237.777,236.020733 232.051333,231.843667 223.347133,228.105667 C228.0226,217.5028 231.410533,205.072467 232.193733,190.933333 L261.836667,190.933333 C260.424533,209.273267 252.6044,225.821333 240.577533,238.3466 Z" id="Shape"></path>
                <path d="M339.241935,154.741935 C337.718323,154.741935 336.254226,154.968097 334.790129,155.194258 L313.215532,96.6303871 C321.654919,91.3751129 327.33871,82.0786935 327.33871,71.4193548 C327.33871,55.0107581 313.989242,41.6612903 297.580645,41.6612903 C286.921306,41.6612903 277.624887,47.3450806 272.369613,55.7904194 L213.805742,34.2158226 C214.031903,32.7457742 214.258065,31.2816774 214.258065,29.7580645 C214.258065,13.3494677 200.908597,0 184.5,0 C168.091403,0 154.741935,13.3494677 154.741935,29.7580645 C154.741935,31.2816774 154.968097,32.7457742 155.194258,34.209871 L96.6303871,55.7844677 C91.3751129,47.3450806 82.0786935,41.6612903 71.4193548,41.6612903 C55.0107581,41.6612903 41.6612903,55.0107581 41.6612903,71.4193548 C41.6612903,82.0786935 47.3450806,91.3751129 55.7904194,96.6303871 L34.2158226,155.194258 C32.7457742,154.968097 31.2816774,154.741935 29.7580645,154.741935 C13.3494677,154.741935 0,168.091403 0,184.5 C0,200.908597 13.3494677,214.258065 29.7580645,214.258065 C31.2816774,214.258065 32.7457742,214.031903 34.209871,213.805742 L55.7844677,272.369613 C47.3450806,277.624887 41.6612903,286.921306 41.6612903,297.580645 C41.6612903,313.989242 55.0107581,327.33871 71.4193548,327.33871 C82.0786935,327.33871 91.3751129,321.654919 96.6303871,313.209581 L155.194258,334.784177 C154.968097,336.254226 154.741935,337.718323 154.741935,339.241935 C154.741935,355.650532 168.091403,369 184.5,369 C200.908597,369 214.258065,355.650532 214.258065,339.241935 C214.258065,337.718323 214.031903,336.254226 213.805742,334.790129 L272.369613,313.215532 C277.624887,321.654919 286.921306,327.33871 297.580645,327.33871 C313.989242,327.33871 327.33871,313.989242 327.33871,297.580645 C327.33871,286.921306 321.654919,277.624887 313.209581,272.369613 L334.784177,213.805742 C336.254226,214.031903 337.718323,214.258065 339.241935,214.258065 C355.650532,214.258065 369,200.908597 369,184.5 C369,168.091403 355.650532,154.741935 339.241935,154.741935 Z M297.580645,53.5645161 C307.424613,53.5645161 315.435484,61.5753871 315.435484,71.4193548 C315.435484,81.2633226 307.424613,89.2741935 297.580645,89.2741935 C287.736677,89.2741935 279.725806,81.2633226 279.725806,71.4193548 C279.725806,61.5753871 287.736677,53.5645161 297.580645,53.5645161 Z M184.5,11.9032258 C194.343968,11.9032258 202.354839,19.9140968 202.354839,29.7580645 C202.354839,39.6020323 194.343968,47.6129032 184.5,47.6129032 C174.656032,47.6129032 166.645161,39.6020323 166.645161,29.7580645 C166.645161,19.9140968 174.656032,11.9032258 184.5,11.9032258 Z M71.4193548,53.5645161 C81.2633226,53.5645161 89.2741935,61.5753871 89.2741935,71.4193548 C89.2741935,81.2633226 81.2633226,89.2741935 71.4193548,89.2741935 C61.5753871,89.2741935 53.5645161,81.2633226 53.5645161,71.4193548 C53.5645161,61.5753871 61.5753871,53.5645161 71.4193548,53.5645161 Z M11.9032258,184.5 C11.9032258,174.656032 19.9140968,166.645161 29.7580645,166.645161 C39.6020323,166.645161 47.6129032,174.656032 47.6129032,184.5 C47.6129032,194.343968 39.6020323,202.354839 29.7580645,202.354839 C19.9140968,202.354839 11.9032258,194.343968 11.9032258,184.5 Z M71.4193548,315.435484 C61.5753871,315.435484 53.5645161,307.424613 53.5645161,297.580645 C53.5645161,287.736677 61.5753871,279.725806 71.4193548,279.725806 C81.2633226,279.725806 89.2741935,287.736677 89.2741935,297.580645 C89.2741935,307.424613 81.2633226,315.435484 71.4193548,315.435484 Z M184.5,357.096774 C174.656032,357.096774 166.645161,349.085903 166.645161,339.241935 C166.645161,329.397968 174.656032,321.387097 184.5,321.387097 C194.343968,321.387097 202.354839,329.397968 202.354839,339.241935 C202.354839,349.085903 194.343968,357.096774 184.5,357.096774 Z M297.580645,315.435484 C287.736677,315.435484 279.725806,307.424613 279.725806,297.580645 C279.725806,287.736677 287.736677,279.725806 297.580645,279.725806 C307.424613,279.725806 315.435484,287.736677 315.435484,297.580645 C315.435484,307.424613 307.424613,315.435484 297.580645,315.435484 Z M302.032452,268.274903 C300.568355,268.048742 299.104258,267.822581 297.580645,267.822581 C291.527855,267.822581 285.903581,269.661629 281.195855,272.780274 L264.459919,256.044339 L256.044339,264.459919 L272.780274,281.195855 C269.661629,285.903581 267.822581,291.527855 267.822581,297.580645 C267.822581,299.104258 268.048742,300.568355 268.274903,302.032452 L209.711032,323.607048 C205.461581,316.774597 198.593419,311.739532 190.451613,310.079032 L190.451613,291.629032 L178.548387,291.629032 L178.548387,310.084984 C170.412532,311.745484 163.544371,316.780548 159.288968,323.613 L100.725097,302.038403 C100.951258,300.568355 101.177419,299.104258 101.177419,297.580645 C101.177419,291.527855 99.338371,285.903581 96.2197258,281.195855 L112.955661,264.459919 L104.540081,256.044339 L87.8041452,272.780274 C83.0964194,269.661629 77.4721452,267.822581 71.4193548,267.822581 C69.8957419,267.822581 68.4316452,268.048742 66.9675484,268.274903 L45.3929516,209.711032 C52.2254032,205.461581 57.2604677,198.593419 58.9209677,190.451613 L77.3709677,190.451613 L77.3709677,178.548387 L58.9150161,178.548387 C57.2545161,170.412532 52.2194516,163.544371 45.387,159.288968 L66.9615968,100.725097 C68.4316452,100.951258 69.8957419,101.177419 71.4193548,101.177419 C77.4721452,101.177419 83.0964194,99.338371 87.8041452,96.2197258 L104.546032,112.955661 L112.961613,104.540081 L96.2197258,87.8041452 C99.338371,83.102371 101.177419,77.4721452 101.177419,71.4193548 C101.177419,69.8957419 100.951258,68.4316452 100.725097,66.9675484 L159.288968,45.3929516 C163.538419,52.2254032 170.406581,57.2604677 178.548387,58.9209677 L178.548387,77.3709677 L190.451613,77.3709677 L190.451613,58.9150161 C198.587468,57.2545161 205.455629,52.2194516 209.711032,45.387 L268.274903,66.9615968 C268.048742,68.4316452 267.822581,69.8957419 267.822581,71.4193548 C267.822581,77.4721452 269.661629,83.102371 272.780274,87.8041452 L256.038387,104.540081 L264.453968,112.955661 L281.195855,96.2197258 C285.903581,99.338371 291.527855,101.177419 297.580645,101.177419 C299.104258,101.177419 300.568355,100.951258 302.032452,100.725097 L323.607048,159.288968 C316.774597,163.538419 311.739532,170.406581 310.079032,178.548387 L291.629032,178.548387 L291.629032,190.451613 L310.084984,190.451613 C311.745484,198.587468 316.780548,205.455629 323.613,209.711032 L302.032452,268.274903 Z M339.241935,202.354839 C329.397968,202.354839 321.387097,194.343968 321.387097,184.5 C321.387097,174.656032 329.397968,166.645161 339.241935,166.645161 C349.085903,166.645161 357.096774,174.656032 357.096774,184.5 C357.096774,194.343968 349.085903,202.354839 339.241935,202.354839 Z" id="Shape"></path>
            </g>
        </g>
    </g>
</svg>