<svg xmlns="http://www.w3.org/2000/svg" width="50" height="48" viewBox="0 0 50 48">
    <g fill="none" fill-rule="evenodd" stroke="#37517E" stroke-linecap="round" stroke-linejoin="round" stroke-width="2">
        <path d="M21.47 1.232H2.773C1.793 1.232 1 2.026 1 3.005v41.177c0 .98.794 1.773 1.773 1.773h30.162c.98 0 1.773-.793 1.773-1.773V14.47"/>
        <path d="M21.47 1.232v11.465c0 .98.794 1.773 1.773 1.773h11.465L21.47 1.232zM6.389 9.488h9.526M6.389 20.38h22.93M6.389 26.644h22.93M6.389 32.908h22.93M6.389 39.173h22.93M49 11.618v26.066c-.01 1.049-.539 2.078-1.039 2.97l-3.449 6.114-3.361-6.173c-.49-.902-.784-1.931-.784-2.98V11.56c.02-1.832 1.646-3.302 3.322-3.282l2.254.02c1.675.01 3.067 1.499 3.057 3.321zM40.367 15.764H49M40.367 36.361H49"/>
    </g>
</svg>
