<?xml version="1.0" encoding="UTF-8"?>
<svg width="90px" height="90px" viewBox="0 0 90 90" version="1.1" xmlns="http://www.w3.org/2000/svg" xmlns:xlink="http://www.w3.org/1999/xlink">
    <!-- Generator: sketchtool 50.2 (55047) - http://www.bohemiancoding.com/sketch -->
    <title>AA0BEDEE-ACCC-4091-A5CF-8D9C0AC61753</title>
    <desc>Created with sketchtool.</desc>
    <defs></defs>
    <g id="Visuals-Homepage-v1" stroke="none" stroke-width="1" fill="none" fill-rule="evenodd">
        <g id="Home-page-Final" transform="translate(-650.000000, -6306.000000)" fill-rule="nonzero">
            <g id="rating" transform="translate(650.000000, 6306.000000)">
                <g id="Group" transform="translate(38.467742, 4.899194)" fill="#FFCF34">
                    <polygon id="Shape" points="10.5474194 12.9033871 6.53225806 11.8829032 2.51709677 12.9033871 2.205 8.60806452 0.0958064516 5.0066129 3.83225806 3.38806452 6.53225806 0.0508064516 9.23080645 3.3866129 12.9672581 5.00516129 10.8580645 8.6066129"></polygon>
                    <polygon id="Shape" points="25.0635484 12.9033871 21.0483871 11.8829032 17.0332258 12.9033871 16.721129 8.60806452 14.6119355 5.0066129 18.3483871 3.38806452 21.0483871 0.0508064516 23.7469355 3.3866129 27.4833871 5.00516129 25.3741935 8.6066129"></polygon>
                    <polygon id="Shape" points="17.8054839 24.5162903 13.7903226 23.4958065 9.77516129 24.5162903 9.46306452 20.2209677 7.35387097 16.6195161 11.0903226 15.0009677 13.7903226 11.6637097 16.488871 14.9995161 20.2253226 16.6180645 18.116129 20.2195161"></polygon>
                    <polygon id="Shape" points="32.3216129 24.5162903 28.3064516 23.4958065 24.2912903 24.5162903 23.9791935 20.2209677 21.87 16.6195161 25.6064516 15.0009677 28.3064516 11.6637097 31.005 14.9995161 34.7414516 16.6180645 32.6322581 20.2195161"></polygon>
                    <polygon id="Shape" points="39.5796774 12.9033871 35.5645161 11.8829032 31.5493548 12.9033871 31.2372581 8.60806452 29.1280645 5.0066129 32.8645161 3.38806452 35.5645161 0.0508064516 38.2630645 3.3866129 41.9995161 5.00516129 39.8903226 8.6066129"></polygon>
                </g>
                <path d="M29.0322581,0 L29.0322581,42.0967742 L27.5806452,42.0967742 L24.2085484,42.0967742 C23.6670968,42.0967742 23.2258065,41.6554839 23.2258065,41.1140323 C23.2258065,41.0312903 23.2359677,40.95 23.2562903,40.8687097 C25.136129,38.0975806 26.1290323,34.8677419 26.1290323,31.5145161 L26.1290323,26.1290323 C26.1290323,23.7280645 24.1751613,21.7741935 21.7741935,21.7741935 C19.3732258,21.7741935 17.4193548,23.7280645 17.4193548,26.1290323 C17.4193548,30.4229032 15.7485484,34.4583871 12.7132258,37.4937097 L9.38467742,40.8222581 C8.5616129,41.643871 7.46854839,42.0967742 6.30435484,42.0967742 L2.90322581,42.0967742 L2.90322581,40.6451613 L2.90322581,39.1935484 L0,39.1935484 L0,40.6451613 L0,65.3225806 L0,66.7741935 L2.90322581,66.7741935 L2.90322581,65.3225806 L2.90322581,63.8709677 L6.77467742,63.8709677 C7.71096774,63.8709677 8.63854839,64.1801613 9.38758065,64.7419355 L12.0962903,66.7741935 C13.3432258,67.7104839 14.8906452,68.2258065 16.451129,68.2258065 L27.5806452,68.2258065 L29.0322581,68.2258065 L29.0322581,90 L74.6332258,90 L90,74.6332258 L90,0 L29.0322581,0 Z M37.7419355,45 C38.5432258,45 39.1935484,45.6517742 39.1935484,46.4516129 C39.1935484,47.2529032 38.5432258,47.9032258 37.7419355,47.9032258 L27.5806452,47.9032258 C26.7793548,47.9032258 26.1290323,47.2529032 26.1290323,46.4516129 C26.1290323,45.6517742 26.7793548,45 27.5806452,45 L37.7419355,45 Z M39.1935484,52.2580645 C39.1935484,53.0593548 38.5432258,53.7096774 37.7419355,53.7096774 L27.5806452,53.7096774 C26.7793548,53.7096774 26.1290323,53.0593548 26.1290323,52.2580645 C26.1290323,51.4567742 26.7793548,50.8064516 27.5806452,50.8064516 L37.7419355,50.8064516 C38.5432258,50.8064516 39.1935484,51.4567742 39.1935484,52.2580645 Z M26.1290323,58.0645161 C26.1290323,57.2632258 26.7793548,56.6129032 27.5806452,56.6129032 L37.7419355,56.6129032 C38.5432258,56.6129032 39.1935484,57.2632258 39.1935484,58.0645161 C39.1935484,58.8658065 38.5432258,59.516129 37.7419355,59.516129 L27.5806452,59.516129 C26.7793548,59.516129 26.1290323,58.8658065 26.1290323,58.0645161 Z M13.8382258,64.4516129 L11.1295161,62.4193548 C9.88258065,61.4830645 8.33516129,60.9677419 6.77467742,60.9677419 L2.90322581,60.9677419 L2.90322581,45 L6.30435484,45 C8.24370968,45 10.0669355,44.2451613 11.4372581,42.8748387 L14.7658065,39.5462903 C18.3498387,35.9622581 20.3225806,31.1980645 20.3225806,26.1290323 C20.3225806,25.3291935 20.9729032,24.6774194 21.7741935,24.6774194 C22.5754839,24.6774194 23.2258065,25.3291935 23.2258065,26.1290323 L23.2258065,31.5145161 C23.2258065,34.3408065 22.3722581,37.061129 20.7580645,39.3808065 L20.6012903,39.6725806 C20.4154839,40.1341935 20.3225806,40.6190323 20.3225806,41.1140323 C20.3225806,43.02 21.7030645,44.6008065 23.5146774,44.9303226 C23.336129,45.405 23.2258065,45.9145161 23.2258065,46.4516129 C23.2258065,47.5708065 23.6627419,48.5825806 24.3580645,49.3548387 C23.6612903,50.1270968 23.2258065,51.138871 23.2258065,52.2580645 C23.2258065,53.3772581 23.6627419,54.3890323 24.3580645,55.1612903 C23.6612903,55.9335484 23.2258065,56.9453226 23.2258065,58.0645161 C23.2258065,59.1837097 23.6627419,60.1954839 24.3580645,60.9677419 C23.6612903,61.74 23.2258065,62.7517742 23.2258065,63.8709677 C23.2258065,64.3819355 23.3303226,64.8667742 23.4929032,65.3225806 L16.451129,65.3225806 C15.5148387,65.3225806 14.5872581,65.0133871 13.8382258,64.4516129 Z M27.5806452,65.3225806 C26.7793548,65.3225806 26.1290323,64.6722581 26.1290323,63.8709677 C26.1290323,63.0696774 26.7793548,62.4193548 27.5806452,62.4193548 L37.7419355,62.4193548 C38.5432258,62.4193548 39.1935484,63.0696774 39.1935484,63.8709677 C39.1935484,64.6722581 38.5432258,65.3225806 37.7419355,65.3225806 L34.8387097,65.3225806 L27.5806452,65.3225806 Z M31.9354839,68.2258065 L34.8387097,68.2258065 L37.7419355,68.2258065 C40.1429032,68.2258065 42.0967742,66.2719355 42.0967742,63.8709677 C42.0967742,62.7517742 41.6598387,61.74 40.9645161,60.9677419 C41.6612903,60.1954839 42.0967742,59.1837097 42.0967742,58.0645161 C42.0967742,56.9453226 41.6598387,55.9335484 40.9645161,55.1612903 C41.6612903,54.3890323 42.0967742,53.3772581 42.0967742,52.2580645 C42.0967742,51.138871 41.6598387,50.1270968 40.9645161,49.3548387 C41.6612903,48.5825806 42.0967742,47.5708065 42.0967742,46.4516129 C42.0967742,44.0506452 40.1429032,42.0967742 37.7419355,42.0967742 L31.9354839,42.0967742 L31.9354839,2.90322581 L87.0967742,2.90322581 L87.0967742,72.5806452 L72.5806452,72.5806452 L72.5806452,87.0967742 L31.9354839,87.0967742 L31.9354839,68.2258065 Z M85.0441935,75.483871 L75.483871,85.0441935 L75.483871,75.483871 L85.0441935,75.483871 Z" id="Shape" fill="#000000"></path>
                <path d="M62.8446774,32.3608065 L58.9151613,36.2903226 L45,36.2903226 L45,50.8064516 L59.516129,50.8064516 L59.516129,39.7945161 L64.8972581,34.4133871 L62.8446774,32.3608065 Z M56.6129032,47.9032258 L47.9032258,47.9032258 L47.9032258,39.1935484 L56.0119355,39.1935484 L52.2580645,42.9474194 L50.381129,41.0704839 L48.3285484,43.1230645 L52.2580645,47.0525806 L56.6129032,42.6977419 L56.6129032,47.9032258 Z" id="Shape" fill="#000000"></path>
                <path d="M45,69.6774194 L59.516129,69.6774194 L59.516129,55.1612903 L45,55.1612903 L45,69.6774194 Z M47.9032258,58.0645161 L56.6129032,58.0645161 L56.6129032,66.7741935 L47.9032258,66.7741935 L47.9032258,58.0645161 Z" id="Shape" fill="#000000"></path>
                <rect id="Rectangle-path" fill="#000000" x="66.7741935" y="36.2903226" width="17.4193548" height="2.90322581"></rect>
                <rect id="Rectangle-path" fill="#000000" x="66.7741935" y="47.9032258" width="17.4193548" height="2.90322581"></rect>
                <rect id="Rectangle-path" fill="#000000" x="66.7741935" y="42.0967742" width="7.25806452" height="2.90322581"></rect>
                <rect id="Rectangle-path" fill="#000000" x="76.9354839" y="42.0967742" width="7.25806452" height="2.90322581"></rect>
                <rect id="Rectangle-path" fill="#000000" x="66.7741935" y="55.1612903" width="17.4193548" height="2.90322581"></rect>
                <rect id="Rectangle-path" fill="#000000" x="66.7741935" y="66.7741935" width="17.4193548" height="2.90322581"></rect>
                <rect id="Rectangle-path" fill="#000000" x="66.7741935" y="60.9677419" width="7.25806452" height="2.90322581"></rect>
                <rect id="Rectangle-path" fill="#000000" x="76.9354839" y="60.9677419" width="7.25806452" height="2.90322581"></rect>
            </g>
        </g>
    </g>
</svg>