<svg xmlns="http://www.w3.org/2000/svg" width="117" height="124" viewBox="0 0 117 124">
    <path fill="#37517E" fill-rule="nonzero" d="M63 0c-2.8 0-5 2.2-5 5v18.7C54.2 35 47.2 44.9 37.8 52.3l-3.1 2.5v-2.7H0V124h34.7v-6c6.4 3.9 13.7 6 21.2 6H95c5.5 0 10-4.5 10-10 0-2.3-.8-4.5-2.1-6.1C108.6 107 113 102 113 96c0-3.5-1.5-6.6-3.8-8.8 4.6-1.7 7.8-6.1 7.8-11.2 0-4-2-7.6-5-9.8 3-2 5-5.4 5-9.2 0-6.1-4.9-11-11-11H82c-1.7 0-3-1.3-3-3V16c0-8.8-7.2-16-16-16zm0 4c6.6 0 12 5.4 12 12v27c0 3.9 3.1 7 7 7h24c3.9 0 7 3.1 7 7s-3.1 7-7 7h-1v4c4.4 0 8 3.6 8 8s-3.6 8-8 8h-4v4c4.4 0 8 3.6 8 8s-3.6 8-8 8h-6v4c3.3 0 6 2.7 6 6s-2.7 6-6 6H55.9c-7.6 0-15-2.4-21.2-6.8V59.9l5.6-4.4c10.1-8 17.5-18.6 21.6-30.8l.1-.3V5c0-.6.4-1 1-1zM4 56.1h26.7V120H4V56.1zm13.4 54a3 3 0 1 0 0 6 3 3 0 0 0 0-6z"/>
</svg>
