<?xml version="1.0" encoding="UTF-8"?>
<svg width="40px" height="40px" viewBox="0 0 40 40" version="1.1" xmlns="http://www.w3.org/2000/svg" xmlns:xlink="http://www.w3.org/1999/xlink">
    <!-- Generator: sketchtool 50.2 (55047) - http://www.bohemiancoding.com/sketch -->
    <title>CBEC8792-3EED-4B1C-AEC6-71C411B905FD</title>
    <desc>Created with sketchtool.</desc>
    <defs></defs>
    <g id="Visuals-Homepage-v2" stroke="none" stroke-width="1" fill="none" fill-rule="evenodd">
        <g id="Home-page-alternative-data-panel" transform="translate(-2052.000000, -340.000000)" fill-rule="nonzero">
            <g id="acid-rain-copy" transform="translate(2052.000000, 340.000000)">
                <path d="M34.8387097,11.6129032 C34.383871,11.6129032 33.9451613,11.6780645 33.5245161,11.7890323 C33.2780645,7.02709677 29.3380645,3.22580645 24.516129,3.22580645 C22.863871,3.22580645 21.2877419,3.67354839 19.9232258,4.47870968 C18.6703226,1.79225806 15.936129,0 12.9032258,0 C8.63419355,0 5.16129032,3.47290323 5.16129032,7.74193548 C5.16129032,8.02064516 5.18129032,8.29935484 5.21096774,8.57677419 C2.22774194,9.28516129 0,11.9645161 0,15.1612903 C0,18.8967742 3.03870968,21.9354839 6.77419355,21.9354839 L10.9677419,21.9354839 L10.9677419,20.6451613 L6.77419355,20.6451613 C3.75032258,20.6451613 1.29032258,18.1851613 1.29032258,15.1612903 C1.29032258,12.1374194 3.75032258,9.67741935 6.77419355,9.67741935 C8.47806452,9.67741935 10.056129,10.4490323 11.103871,11.7954839 L12.1219355,11.0025806 C10.8277419,9.34064516 8.87935484,8.38709677 6.77419355,8.38709677 C6.67741935,8.38709677 6.58322581,8.39741935 6.48774194,8.40193548 C6.46580645,8.18258065 6.4516129,7.96258065 6.4516129,7.74193548 C6.4516129,4.18451613 9.34580645,1.29032258 12.9032258,1.29032258 C15.5064516,1.29032258 17.8419355,2.87612903 18.8406452,5.22709677 C17.8909677,5.99483871 17.0896774,6.96193548 16.5019355,8.08903226 L17.6458065,8.68516129 C18.9864516,6.11419355 21.6187097,4.51612903 24.516129,4.51612903 C28.7851613,4.51612903 32.2580645,7.98903226 32.2580645,12.2580645 L32.3458065,12.2580645 C30.7567742,13.1387097 29.6774194,14.8322581 29.6774194,16.7741935 L30.9677419,16.7741935 C30.9677419,14.6393548 32.703871,12.9032258 34.8387097,12.9032258 C36.9735484,12.9032258 38.7096774,14.6393548 38.7096774,16.7741935 C38.7096774,18.9090323 36.9735484,20.6451613 34.8387097,20.6451613 L29.0322581,20.6451613 L29.0322581,21.9354839 L34.8387097,21.9354839 C37.6845161,21.9354839 40,19.62 40,16.7741935 C40,13.9283871 37.6845161,11.6129032 34.8387097,11.6129032 Z" id="Shape" fill="#333333"></path>
                <circle id="Oval" fill="#A19EFF" cx="20" cy="21.2903226" r="9.67741935"></circle>
                <g id="Group" transform="translate(1.935484, 14.193548)" fill="#333333">
                    <path d="M18.7483871,9.57354839 L21.0483871,13.5619355 L21.6070968,13.2406452 C22.6890323,12.6174194 23.5890323,11.7206452 24.2103226,10.6451613 C24.8309677,9.57032258 25.1580645,8.34193548 25.156129,7.09225806 L25.1548387,6.44774194 L20.5529032,6.45032258 C20.4335484,5.99225806 20.1993548,5.58129032 19.8716129,5.25870968 L22.1709677,1.28 L21.6135484,0.956774194 C19.4522581,-0.295483871 16.6767742,-0.295483871 14.5154839,0.956774194 L13.9580645,1.28 L16.2574194,5.25870968 C15.9296774,5.58129032 15.6954839,5.99225806 15.576129,6.45032258 L10.9741935,6.44774194 L10.9729032,7.09225806 C10.9709677,8.34193548 11.2980645,9.57032258 11.9187097,10.6451613 C12.54,11.7206452 13.44,12.6180645 14.5219355,13.2406452 L15.0806452,13.5619355 L17.3806452,9.57354839 C17.6,9.63483871 17.8264516,9.67741935 18.0645161,9.67741935 C18.3025806,9.67741935 18.5290323,9.63419355 18.7483871,9.57354839 Z M16.7741935,7.09677419 C16.7741935,6.38516129 17.3529032,5.80645161 18.0645161,5.80645161 C18.776129,5.80645161 19.3548387,6.38516129 19.3548387,7.09677419 C19.3548387,7.8083871 18.776129,8.38709677 18.0645161,8.38709677 C17.3529032,8.38709677 16.7741935,7.8083871 16.7741935,7.09677419 Z M20.5535484,7.74129032 L23.8309677,7.73935484 C23.743871,8.53548387 23.4929032,9.30709677 23.0922581,10 C22.6916129,10.6929032 22.1496774,11.296129 21.503871,11.7696774 L19.8696774,8.93612903 C20.1993548,8.61290323 20.4348387,8.20064516 20.5535484,7.74129032 Z M15.7380645,1.78129032 C17.2045161,1.13612903 18.9245161,1.13612903 20.3916129,1.78129032 L18.7509677,4.62064516 C18.5303226,4.55935484 18.303871,4.51612903 18.0645161,4.51612903 C17.8251613,4.51612903 17.5980645,4.55935484 17.3787097,4.62064516 L15.7380645,1.78129032 Z M14.6245161,11.7696774 C13.9787097,11.296129 13.436129,10.6929032 13.036129,10 C12.636129,9.30709677 12.3845161,8.53548387 12.2974194,7.73935484 L15.5748387,7.74129032 C15.6941935,8.20064516 15.9296774,8.61354839 16.2587097,8.93612903 L14.6245161,11.7696774 Z" id="Shape"></path>
                    <path d="M34.3954839,12.5974194 C34.14,11.9993548 33.5541935,11.6129032 32.9032258,11.6129032 C32.2522581,11.6129032 31.6664516,11.9993548 31.4116129,12.5967742 L29.9380645,16.0335484 C29.7651613,16.4380645 29.6774194,16.8658065 29.6774194,17.303871 L29.6774194,17.4193548 C29.6774194,19.1980645 31.1245161,20.6451613 32.9032258,20.6451613 C34.6819355,20.6451613 36.1290323,19.1980645 36.1290323,17.4193548 L36.1290323,17.303871 C36.1290323,16.8651613 36.0412903,16.4374194 35.8683871,16.0329032 L34.3954839,12.5974194 Z M34.8387097,17.4193548 C34.8387097,18.4864516 33.9703226,19.3548387 32.9032258,19.3548387 C31.836129,19.3548387 30.9677419,18.4864516 30.9677419,17.4193548 L30.9677419,17.303871 C30.9677419,17.0406452 31.0206452,16.7832258 31.123871,16.5406452 L32.5974194,13.103871 C32.6496774,12.9819355 32.7696774,12.9032258 32.9032258,12.9032258 C33.0367742,12.9032258 33.1567742,12.9819355 33.2096774,13.1045161 L34.6819355,16.54 C34.7858065,16.783871 34.8387097,17.0406452 34.8387097,17.303871 L34.8387097,17.4193548 Z" id="Shape"></path>
                    <path d="M11.8148387,17.7587097 C11.5593548,17.1606452 10.9735484,16.7741935 10.3225806,16.7741935 C9.6716129,16.7741935 9.08580645,17.1606452 8.83096774,17.7580645 L7.35741935,21.1948387 C7.18451613,21.5993548 7.09677419,22.0270968 7.09677419,22.4651613 L7.09677419,22.5806452 C7.09677419,24.3593548 8.54387097,25.8064516 10.3225806,25.8064516 C12.1012903,25.8064516 13.5483871,24.3593548 13.5483871,22.5806452 L13.5483871,22.4651613 C13.5483871,22.0264516 13.4606452,21.5987097 13.2877419,21.1941935 L11.8148387,17.7587097 Z M12.2580645,22.5806452 C12.2580645,23.6477419 11.3896774,24.516129 10.3225806,24.516129 C9.25548387,24.516129 8.38709677,23.6477419 8.38709677,22.5806452 L8.38709677,22.4651613 C8.38709677,22.2019355 8.44,21.9445161 8.54322581,21.7019355 L10.0167742,18.2651613 C10.0690323,18.1432258 10.1890323,18.0645161 10.3225806,18.0645161 C10.456129,18.0645161 10.576129,18.1432258 10.6290323,18.2658065 L12.1012903,21.7012903 C12.2051613,21.9451613 12.2580645,22.2019355 12.2580645,22.4651613 L12.2580645,22.5806452 Z" id="Shape"></path>
                    <path d="M4.71806452,11.3070968 C4.46258065,10.7090323 3.87677419,10.3225806 3.22580645,10.3225806 C2.57483871,10.3225806 1.98903226,10.7090323 1.73419355,11.3064516 L0.260645161,14.7432258 C0.0877419355,15.1477419 0,15.5754839 0,16.0135484 L0,16.1290323 C0,17.9077419 1.44709677,19.3548387 3.22580645,19.3548387 C5.00451613,19.3548387 6.4516129,17.9077419 6.4516129,16.1290323 L6.4516129,16.0135484 C6.4516129,15.5748387 6.36387097,15.1470968 6.19096774,14.7425806 L4.71806452,11.3070968 Z M5.16129032,16.1290323 C5.16129032,17.196129 4.29290323,18.0645161 3.22580645,18.0645161 C2.15870968,18.0645161 1.29032258,17.196129 1.29032258,16.1290323 L1.29032258,16.0135484 C1.29032258,15.7503226 1.34322581,15.4929032 1.44645161,15.2503226 L2.92,11.8135484 C2.97225806,11.6916129 3.09225806,11.6129032 3.22580645,11.6129032 C3.35935484,11.6129032 3.47935484,11.6916129 3.53225806,11.8141935 L5.00451613,15.2496774 C5.1083871,15.4935484 5.16129032,15.7503226 5.16129032,16.0135484 L5.16129032,16.1290323 Z" id="Shape"></path>
                    <path d="M25.3632258,17.7587097 C25.1077419,17.1606452 24.5219355,16.7741935 23.8709677,16.7741935 C23.22,16.7741935 22.6341935,17.1606452 22.3793548,17.7580645 L20.9058065,21.1948387 C20.7329032,21.5993548 20.6451613,22.0270968 20.6451613,22.4651613 L20.6451613,22.5806452 C20.6451613,24.3593548 22.0922581,25.8064516 23.8709677,25.8064516 C25.6496774,25.8064516 27.0967742,24.3593548 27.0967742,22.5806452 L27.0967742,22.4651613 C27.0967742,22.0264516 27.0090323,21.5987097 26.836129,21.1941935 L25.3632258,17.7587097 Z M25.8064516,22.5806452 C25.8064516,23.6477419 24.9380645,24.516129 23.8709677,24.516129 C22.803871,24.516129 21.9354839,23.6477419 21.9354839,22.5806452 L21.9354839,22.4651613 C21.9354839,22.2019355 21.9883871,21.9445161 22.0916129,21.7019355 L23.5651613,18.2651613 C23.6174194,18.1432258 23.7374194,18.0645161 23.8709677,18.0645161 C24.0045161,18.0645161 24.1245161,18.1432258 24.1774194,18.2658065 L25.6496774,21.7012903 C25.7535484,21.9451613 25.8064516,22.2019355 25.8064516,22.4651613 L25.8064516,22.5806452 Z" id="Shape"></path>
                </g>
            </g>
        </g>
    </g>
</svg>