<?xml version="1.0" encoding="UTF-8"?>
<svg width="152px" height="153px" viewBox="0 0 152 153" version="1.1" xmlns="http://www.w3.org/2000/svg" xmlns:xlink="http://www.w3.org/1999/xlink">
    <!-- Generator: sketchtool 50.2 (55047) - http://www.bohemiancoding.com/sketch -->
    <title>6940FA59-7D65-4C72-A111-C9E2115329BB</title>
    <desc>Created with sketchtool.</desc>
    <defs></defs>
    <g id="Visuals-Homepage-v2" stroke="none" stroke-width="1" fill="none" fill-rule="evenodd" opacity="0.100000001">
        <g id="Home-page-alternative-data-panel" transform="translate(-2192.000000, -344.000000)" fill="#FFFFFF" fill-rule="nonzero">
            <g id="acid-rain-copy-2" transform="translate(2192.000000, 344.000000)">
                <path d="M132.387097,44.1856806 C130.65871,44.1856806 128.991613,44.4336113 127.393161,44.8558301 C126.456645,26.7372463 111.484645,12.2738002 93.1612903,12.2738002 C86.8827097,12.2738002 80.8934194,13.9774036 75.7082581,17.0409441 C70.9472258,6.81932337 60.5572903,0 49.0322581,0 C32.8099355,0 19.6129032,13.2139732 19.6129032,29.4571204 C19.6129032,30.5175767 19.6889032,31.578033 19.8016774,32.6335799 C8.46541935,35.3289064 0,45.5235248 0,57.6868607 C0,71.8999213 11.5470968,83.4618411 25.7419355,83.4618411 L41.6774194,83.4618411 L41.6774194,78.552321 L25.7419355,78.552321 C14.2512258,78.552321 4.90322581,69.192321 4.90322581,57.6868607 C4.90322581,46.1814005 14.2512258,36.8214005 25.7419355,36.8214005 C32.2166452,36.8214005 38.2132903,39.7572935 42.1947097,44.8803777 L46.0633548,41.8634776 C41.1454194,35.5400157 33.7415484,31.9118804 25.7419355,31.9118804 C25.3741935,31.9118804 25.0162581,31.9511566 24.6534194,31.9683399 C24.5700645,31.1337215 24.516129,30.2966483 24.516129,29.4571204 C24.516129,15.9215736 35.5140645,4.90952006 49.0322581,4.90952006 C58.9245161,4.90952006 67.7993548,10.9433202 71.5944516,19.8884658 C67.9856774,22.8096302 64.9407742,26.4893155 62.7073548,30.7777813 L67.0540645,33.0459795 C72.1485161,23.2637608 82.1510968,17.1833202 93.1612903,17.1833202 C109.383613,17.1833202 122.580645,30.3972935 122.580645,46.6404406 L122.914065,46.6404406 C116.875742,49.991188 112.774194,56.4349331 112.774194,63.8237608 L117.677419,63.8237608 C117.677419,55.7009599 124.27471,49.0952006 132.387097,49.0952006 C140.499484,49.0952006 147.096774,55.7009599 147.096774,63.8237608 C147.096774,71.9465618 140.499484,78.552321 132.387097,78.552321 L110.322581,78.552321 L110.322581,83.4618411 L132.387097,83.4618411 C143.201161,83.4618411 152,74.6517073 152,63.8237608 C152,52.9958143 143.201161,44.1856806 132.387097,44.1856806 Z" id="Shape"></path>
                <path d="M76,120.68214 C54.1161622,120.68214 36.3758065,102.919011 36.3758065,81.007081 C36.3758065,59.095151 54.1161622,41.332022 76,41.332022 C97.8838378,41.332022 115.624194,59.095151 115.624194,81.007081 C115.624194,102.919011 97.8838378,120.68214 76,120.68214 Z M76,114.974823 C94.7358147,114.974823 109.924194,99.7669469 109.924194,81.007081 C109.924194,62.2472152 94.7358147,47.0393391 76,47.0393391 C57.2641853,47.0393391 42.0758065,62.2472152 42.0758065,81.007081 C42.0758065,99.7669469 57.2641853,114.974823 76,114.974823 Z" id="Oval"></path>
                <g id="Group" transform="translate(7.354839, 54.004721)">
                    <path d="M71.243871,36.4261841 L79.983871,51.6015106 L82.1069677,50.3790401 C86.2183226,48.0077419 89.6383226,44.5956255 91.9992258,40.5035405 C94.3576774,36.4139103 95.6006452,31.7400472 95.5932903,26.985177 L95.5883871,24.5328718 L78.1010323,24.5426908 C77.6474839,22.7998112 76.7575484,21.236129 75.512129,20.008749 L84.2496774,4.8702439 L82.1314839,3.64040913 C73.9185806,-1.12428009 63.3717419,-1.12428009 55.1588387,3.64040913 L53.0406452,4.8702439 L61.7781935,20.008749 C60.5327742,21.236129 59.6428387,22.7998112 59.1892903,24.5426908 L41.7019355,24.5328718 L41.6970323,26.985177 C41.6896774,31.7400472 42.9326452,36.4139103 45.2910968,40.5035405 C47.652,44.5956255 51.072,48.0101967 55.1833548,50.3790401 L57.3064516,51.6015106 L66.0464516,36.4261841 C66.88,36.6593863 67.7405161,36.8214005 68.6451613,36.8214005 C69.5498065,36.8214005 70.4103226,36.6569315 71.243871,36.4261841 Z M63.7419355,27.0023603 C63.7419355,24.29476 65.9410323,22.0928403 68.6451613,22.0928403 C71.3492903,22.0928403 73.5483871,24.29476 73.5483871,27.0023603 C73.5483871,29.7099607 71.3492903,31.9118804 68.6451613,31.9118804 C65.9410323,31.9118804 63.7419355,29.7099607 63.7419355,27.0023603 Z M78.1034839,29.4546656 L90.5576774,29.4473013 C90.2267097,32.4764752 89.2730323,35.4123682 87.7505806,38.0487805 C86.228129,40.6851928 84.1687742,42.9803934 81.7147097,44.7821873 L75.5047742,34.0008812 C76.7575484,32.7710464 77.6523871,31.2024548 78.1034839,29.4546656 Z M59.8046452,6.77759245 C65.3771613,4.32283242 71.9131613,4.32283242 77.488129,6.77759245 L71.2536774,17.5809913 C70.4152258,17.3477891 69.5547097,17.1833202 68.6451613,17.1833202 C67.7356129,17.1833202 66.8726452,17.3477891 66.0390968,17.5809913 L59.8046452,6.77759245 Z M55.5731613,44.7821873 C53.1190968,42.9803934 51.0572903,40.6851928 49.5372903,38.0487805 C48.0172903,35.4123682 47.0611613,32.4764752 46.7301935,29.4473013 L59.1843871,29.4546656 C59.6379355,31.2024548 60.5327742,32.7735012 61.7830968,34.0008812 L55.5731613,44.7821873 Z" id="Shape"></path>
                    <path d="M130.702839,47.9316444 C129.732,45.6560818 127.505935,44.1856806 125.032258,44.1856806 C122.558581,44.1856806 120.332516,45.6560818 119.364129,47.9291896 L113.764645,61.0056963 C113.107613,62.5448308 112.774194,64.1723367 112.774194,65.8391188 L112.774194,66.2785208 C112.774194,73.0462943 118.273161,78.552321 125.032258,78.552321 C131.791355,78.552321 137.290323,73.0462943 137.290323,66.2785208 L137.290323,65.8391188 C137.290323,64.169882 136.956903,62.5423761 136.299871,61.0032415 L130.702839,47.9316444 Z M132.387097,66.2785208 C132.387097,70.3386939 129.087226,73.6428009 125.032258,73.6428009 C120.97729,73.6428009 117.677419,70.3386939 117.677419,66.2785208 L117.677419,65.8391188 C117.677419,64.8375767 117.878452,63.8581275 118.27071,62.9351377 L123.870194,49.858631 C124.068774,49.3946814 124.524774,49.0952006 125.032258,49.0952006 C125.539742,49.0952006 125.995742,49.3946814 126.196774,49.8610858 L131.791355,62.9326829 C132.186065,63.8605822 132.387097,64.8375767 132.387097,65.8391188 L132.387097,66.2785208 Z" id="Shape"></path>
                    <path d="M44.8963871,67.5697246 C43.9255484,65.2941621 41.6994839,63.8237608 39.2258065,63.8237608 C36.752129,63.8237608 34.5260645,65.2941621 33.5576774,67.5672699 L27.9581935,80.6437766 C27.3011613,82.1829111 26.9677419,83.810417 26.9677419,85.4771991 L26.9677419,85.9166011 C26.9677419,92.6843745 32.4667097,98.1904013 39.2258065,98.1904013 C45.9849032,98.1904013 51.483871,92.6843745 51.483871,85.9166011 L51.483871,85.4771991 C51.483871,83.8079622 51.1504516,82.1804563 50.4934194,80.6413218 L44.8963871,67.5697246 Z M46.5806452,85.9166011 C46.5806452,89.9767742 43.2807742,93.2808812 39.2258065,93.2808812 C35.1708387,93.2808812 31.8709677,89.9767742 31.8709677,85.9166011 L31.8709677,85.4771991 C31.8709677,84.475657 32.072,83.4962077 32.4642581,82.5732179 L38.0637419,69.4967113 C38.2623226,69.0327616 38.7183226,68.7332809 39.2258065,68.7332809 C39.7332903,68.7332809 40.1892903,69.0327616 40.3903226,69.499166 L45.9849032,82.5707632 C46.3796129,83.4986625 46.5806452,84.475657 46.5806452,85.4771991 L46.5806452,85.9166011 Z" id="Shape"></path>
                    <path d="M17.9286452,43.0221243 C16.9578065,40.7465618 14.7317419,39.2761605 12.2580645,39.2761605 C9.7843871,39.2761605 7.55832258,40.7465618 6.58993548,43.0196696 L0.990451613,56.0961762 C0.333419355,57.6353108 0,59.2628167 0,60.9295987 L0,61.3690008 C0,68.1367742 5.49896774,73.6428009 12.2580645,73.6428009 C19.0171613,73.6428009 24.516129,68.1367742 24.516129,61.3690008 L24.516129,60.9295987 C24.516129,59.2603619 24.1827097,57.632856 23.5256774,56.0937215 L17.9286452,43.0221243 Z M19.6129032,61.3690008 C19.6129032,65.4291739 16.3130323,68.7332809 12.2580645,68.7332809 C8.20309677,68.7332809 4.90322581,65.4291739 4.90322581,61.3690008 L4.90322581,60.9295987 C4.90322581,59.9280566 5.10425806,58.9486074 5.49651613,58.0256176 L11.096,44.9491109 C11.2945806,44.4851613 11.7505806,44.1856806 12.2580645,44.1856806 C12.7655484,44.1856806 13.2215484,44.4851613 13.4225806,44.9515657 L19.0171613,58.0231629 C19.411871,58.9510622 19.6129032,59.9280566 19.6129032,60.9295987 L19.6129032,61.3690008 Z" id="Shape"></path>
                    <path d="M96.3802581,67.5697246 C95.4094194,65.2941621 93.1833548,63.8237608 90.7096774,63.8237608 C88.236,63.8237608 86.0099355,65.2941621 85.0415484,67.5672699 L79.4420645,80.6437766 C78.7850323,82.1829111 78.4516129,83.810417 78.4516129,85.4771991 L78.4516129,85.9166011 C78.4516129,92.6843745 83.9505806,98.1904013 90.7096774,98.1904013 C97.4687742,98.1904013 102.967742,92.6843745 102.967742,85.9166011 L102.967742,85.4771991 C102.967742,83.8079622 102.634323,82.1804563 101.97729,80.6413218 L96.3802581,67.5697246 Z M98.0645161,85.9166011 C98.0645161,89.9767742 94.7646452,93.2808812 90.7096774,93.2808812 C86.6547097,93.2808812 83.3548387,89.9767742 83.3548387,85.9166011 L83.3548387,85.4771991 C83.3548387,84.475657 83.555871,83.4962077 83.948129,82.5732179 L89.5476129,69.4967113 C89.7461935,69.0327616 90.2021935,68.7332809 90.7096774,68.7332809 C91.2171613,68.7332809 91.6731613,69.0327616 91.8741935,69.499166 L97.4687742,82.5707632 C97.8634839,83.4986625 98.0645161,84.475657 98.0645161,85.4771991 L98.0645161,85.9166011 Z" id="Shape"></path>
                </g>
            </g>
        </g>
    </g>
</svg>