<?xml version="1.0" encoding="UTF-8"?>
<svg width="40px" height="40px" viewBox="0 0 40 40" version="1.1" xmlns="http://www.w3.org/2000/svg" xmlns:xlink="http://www.w3.org/1999/xlink">
    <!-- Generator: sketchtool 50.2 (55047) - http://www.bohemiancoding.com/sketch -->
    <title>9F5E1B1C-3C60-457C-873C-D58E85712982</title>
    <desc>Created with sketchtool.</desc>
    <defs></defs>
    <g id="Visuals-Homepage-v2" stroke="none" stroke-width="1" fill="none" fill-rule="evenodd">
        <g id="Home-page-alternative-data-panel" transform="translate(-2760.000000, -340.000000)" fill-rule="nonzero">
            <g id="cityscape-copy" transform="translate(2760.000000, 340.000000)">
                <g id="Group" transform="translate(0.645161, 12.903226)" fill="#9795F3">
                    <rect id="Rectangle-path" x="20.6451613" y="15.483871" width="18.0645161" height="7.74193548"></rect>
                    <rect id="Rectangle-path" x="0" y="7.09677419" width="14.1935484" height="7.74193548"></rect>
                    <rect id="Rectangle-path" x="16.7741935" y="0" width="5.80645161" height="5.16129032"></rect>
                </g>
                <g id="Group" fill="#333333">
                    <path d="M38.7096774,24.516129 L38.7096774,21.9354839 L30.9677419,21.9354839 L30.9677419,24.516129 L29.6774194,24.516129 L29.6774194,21.9354839 L25.8064516,21.9354839 L25.8064516,9.67741935 L24.516129,9.67741935 L24.516129,7.09677419 L23.2258065,7.09677419 L23.2258065,5.50967742 L18.7096774,1.63870968 L18.7096774,0 L17.4193548,0 L17.4193548,1.63870968 L12.9032258,5.50967742 L12.9032258,7.09677419 L11.6129032,7.09677419 L11.6129032,9.67741935 L10.3225806,9.67741935 L10.3225806,13.5483871 L1.93548387,13.5483871 L1.93548387,16.1290323 L0,16.1290323 L0,40 L20.6451613,40 L21.2903226,40 L29.6774194,40 L30.9677419,40 L40,40 L40,24.516129 L38.7096774,24.516129 Z M28.3870968,24.516129 L23.2258065,24.516129 L23.2258065,23.2258065 L28.3870968,23.2258065 L28.3870968,24.516129 Z M14.1935484,6.10322581 L18.0645161,2.78516129 L21.9354839,6.10322581 L21.9354839,7.09677419 L14.1935484,7.09677419 L14.1935484,6.10322581 Z M12.9032258,8.38709677 L23.2258065,8.38709677 L23.2258065,9.67741935 L12.9032258,9.67741935 L12.9032258,8.38709677 Z M3.22580645,14.8387097 L12.2580645,14.8387097 L12.2580645,16.1290323 L3.22580645,16.1290323 L3.22580645,14.8387097 Z M1.29032258,17.4193548 L14.1935484,17.4193548 L14.1935484,30.9677419 L14.2135484,30.9677419 C13.96,31.156129 13.7367742,31.3793548 13.5483871,31.6329032 C12.96,30.8425806 12.0264516,30.3225806 10.9677419,30.3225806 C9.90903226,30.3225806 8.97548387,30.8425806 8.38709677,31.6329032 C7.79870968,30.8425806 6.86516129,30.3225806 5.80645161,30.3225806 C4.02774194,30.3225806 2.58064516,31.7696774 2.58064516,33.5483871 C2.58064516,35.1058065 3.69096774,36.4090323 5.16129032,36.7090323 L5.16129032,38.7096774 L1.29032258,38.7096774 L1.29032258,17.4193548 Z M5.16129032,35.3651613 C4.41225806,35.0980645 3.87096774,34.3883871 3.87096774,33.5483871 C3.87096774,32.4812903 4.73935484,31.6129032 5.80645161,31.6129032 C6.87354839,31.6129032 7.74193548,32.4812903 7.74193548,33.5483871 C7.74193548,34.3883871 7.20064516,35.0980645 6.4516129,35.3651613 L6.4516129,34.1935484 L5.16129032,34.1935484 L5.16129032,35.3651613 Z M6.4516129,36.7090323 C7.24258065,36.5477419 7.92129032,36.0896774 8.38709677,35.463871 C8.85290323,36.0896774 9.5316129,36.5477419 10.3225806,36.7090323 L10.3225806,38.7096774 L6.4516129,38.7096774 L6.4516129,36.7090323 Z M10.3225806,34.1935484 L10.3225806,35.3651613 C9.57354839,35.0980645 9.03225806,34.3883871 9.03225806,33.5483871 C9.03225806,32.4812903 9.90064516,31.6129032 10.9677419,31.6129032 C12.0348387,31.6129032 12.9032258,32.4812903 12.9032258,33.5483871 C12.9032258,34.3883871 12.3619355,35.0980645 11.6129032,35.3651613 L11.6129032,34.1935484 L10.3225806,34.1935484 Z M11.6129032,36.7090323 C12.403871,36.5477419 13.0825806,36.0896774 13.5483871,35.463871 C14.0141935,36.0896774 14.6929032,36.5477419 15.483871,36.7090323 L15.483871,38.7096774 L11.6129032,38.7096774 L11.6129032,36.7090323 Z M15.483871,34.1935484 L15.483871,35.3651613 C14.7348387,35.0980645 14.1935484,34.3883871 14.1935484,33.5483871 C14.1935484,32.4812903 15.0619355,31.6129032 16.1290323,31.6129032 C17.196129,31.6129032 18.0645161,32.4812903 18.0645161,33.5483871 C18.0645161,34.3883871 17.5232258,35.0980645 16.7741935,35.3651613 L16.7741935,34.1935484 L15.483871,34.1935484 Z M16.7741935,38.7096774 L16.7741935,36.7090323 C18.2445161,36.4090323 19.3548387,35.1064516 19.3548387,33.5483871 C19.3548387,31.7696774 17.9077419,30.3225806 16.1290323,30.3225806 C15.9083871,30.3225806 15.6922581,30.3451613 15.483871,30.3877419 L15.483871,16.1290323 L13.5483871,16.1290323 L13.5483871,13.5483871 L11.6129032,13.5483871 L11.6129032,10.9677419 L24.516129,10.9677419 L24.516129,21.9354839 L21.9354839,21.9354839 L21.9354839,24.516129 L20.6451613,24.516129 L20.6451613,38.7096774 L16.7741935,38.7096774 Z M29.6774194,38.7096774 L21.9354839,38.7096774 L21.9354839,25.8064516 L29.6774194,25.8064516 L29.6774194,38.7096774 Z M32.2580645,23.2258065 L37.4193548,23.2258065 L37.4193548,24.516129 L32.2580645,24.516129 L32.2580645,23.2258065 Z M38.7096774,38.7096774 L30.9677419,38.7096774 L30.9677419,25.8064516 L38.7096774,25.8064516 L38.7096774,38.7096774 Z" id="Shape"></path>
                    <rect id="Rectangle-path" x="32.2580645" y="28.3870968" width="1.29032258" height="1.29032258"></rect>
                    <rect id="Rectangle-path" x="36.1290323" y="28.3870968" width="1.29032258" height="1.29032258"></rect>
                    <rect id="Rectangle-path" x="32.2580645" y="31.6129032" width="1.29032258" height="1.29032258"></rect>
                    <rect id="Rectangle-path" x="36.1290323" y="31.6129032" width="1.29032258" height="1.29032258"></rect>
                    <rect id="Rectangle-path" x="32.2580645" y="34.8387097" width="1.29032258" height="1.29032258"></rect>
                    <rect id="Rectangle-path" x="36.1290323" y="34.8387097" width="1.29032258" height="1.29032258"></rect>
                    <rect id="Rectangle-path" x="23.2258065" y="28.3870968" width="1.29032258" height="1.29032258"></rect>
                    <rect id="Rectangle-path" x="27.0967742" y="28.3870968" width="1.29032258" height="1.29032258"></rect>
                    <rect id="Rectangle-path" x="23.2258065" y="31.6129032" width="1.29032258" height="1.29032258"></rect>
                    <rect id="Rectangle-path" x="27.0967742" y="31.6129032" width="1.29032258" height="1.29032258"></rect>
                    <rect id="Rectangle-path" x="23.2258065" y="34.8387097" width="1.29032258" height="1.29032258"></rect>
                    <rect id="Rectangle-path" x="27.0967742" y="34.8387097" width="1.29032258" height="1.29032258"></rect>
                    <rect id="Rectangle-path" x="3.22580645" y="20" width="1.29032258" height="1.29032258"></rect>
                    <rect id="Rectangle-path" x="7.09677419" y="20" width="1.29032258" height="1.29032258"></rect>
                    <rect id="Rectangle-path" x="3.22580645" y="23.2258065" width="1.29032258" height="1.29032258"></rect>
                    <rect id="Rectangle-path" x="7.09677419" y="23.2258065" width="1.29032258" height="1.29032258"></rect>
                    <rect id="Rectangle-path" x="3.22580645" y="26.4516129" width="1.29032258" height="1.29032258"></rect>
                    <rect id="Rectangle-path" x="7.09677419" y="26.4516129" width="1.29032258" height="1.29032258"></rect>
                    <rect id="Rectangle-path" x="10.9677419" y="20" width="1.29032258" height="1.29032258"></rect>
                    <rect id="Rectangle-path" x="10.9677419" y="23.2258065" width="1.29032258" height="1.29032258"></rect>
                    <rect id="Rectangle-path" x="10.9677419" y="26.4516129" width="1.29032258" height="1.29032258"></rect>
                    <rect id="Rectangle-path" x="17.4193548" y="12.2580645" width="5.80645161" height="1.29032258"></rect>
                    <rect id="Rectangle-path" x="17.4193548" y="14.8387097" width="5.80645161" height="1.29032258"></rect>
                    <rect id="Rectangle-path" x="17.4193548" y="17.4193548" width="5.80645161" height="1.29032258"></rect>
                    <rect id="Rectangle-path" x="16.7741935" y="21.9354839" width="1.29032258" height="1.29032258"></rect>
                    <rect id="Rectangle-path" x="16.7741935" y="24.516129" width="1.29032258" height="1.29032258"></rect>
                    <rect id="Rectangle-path" x="19.3548387" y="21.9354839" width="1.29032258" height="1.29032258"></rect>
                </g>
            </g>
        </g>
    </g>
</svg>