<?xml version="1.0" encoding="UTF-8"?>
<svg width="152px" height="152px" viewBox="0 0 152 152" version="1.1" xmlns="http://www.w3.org/2000/svg" xmlns:xlink="http://www.w3.org/1999/xlink">
    <!-- Generator: sketchtool 50.2 (55047) - http://www.bohemiancoding.com/sketch -->
    <title>FD3B1FF4-9DF8-49DB-81CA-8E3C9564E573</title>
    <desc>Created with sketchtool.</desc>
    <defs></defs>
    <g id="Visuals-Homepage-v2" stroke="none" stroke-width="1" fill="none" fill-rule="evenodd" opacity="0.100000001">
        <g id="Home-page-alternative-data-panel" transform="translate(-2900.000000, -344.000000)" fill="#FFFFFF" fill-rule="nonzero">
            <g id="cityscape-copy-3" transform="translate(2900.000000, 344.000000)">
                <g id="Group">
                    <path d="M147.096774,93.1612903 L147.096774,83.3548387 L117.677419,83.3548387 L117.677419,93.1612903 L112.774194,93.1612903 L112.774194,83.3548387 L98.0645161,83.3548387 L98.0645161,36.7741935 L93.1612903,36.7741935 L93.1612903,26.9677419 L88.2580645,26.9677419 L88.2580645,20.9367742 L71.0967742,6.22709677 L71.0967742,0 L66.1935484,0 L66.1935484,6.22709677 L49.0322581,20.9367742 L49.0322581,26.9677419 L44.1290323,26.9677419 L44.1290323,36.7741935 L39.2258065,36.7741935 L39.2258065,51.483871 L7.35483871,51.483871 L7.35483871,61.2903226 L0,61.2903226 L0,152 L78.4516129,152 L80.9032258,152 L112.774194,152 L117.677419,152 L152,152 L152,93.1612903 L147.096774,93.1612903 Z M107.870968,93.1612903 L88.2580645,93.1612903 L88.2580645,88.2580645 L107.870968,88.2580645 L107.870968,93.1612903 Z M53.9354839,23.1922581 L68.6451613,10.5836129 L83.3548387,23.1922581 L83.3548387,26.9677419 L53.9354839,26.9677419 L53.9354839,23.1922581 Z M49.0322581,31.8709677 L88.2580645,31.8709677 L88.2580645,36.7741935 L49.0322581,36.7741935 L49.0322581,31.8709677 Z M12.2580645,56.3870968 L46.5806452,56.3870968 L46.5806452,61.2903226 L12.2580645,61.2903226 L12.2580645,56.3870968 Z M4.90322581,66.1935484 L53.9354839,66.1935484 L53.9354839,117.677419 L54.0114839,117.677419 C53.048,118.39329 52.1997419,119.241548 51.483871,120.205032 C49.248,117.201806 45.7005161,115.225806 41.6774194,115.225806 C37.6543226,115.225806 34.1068387,117.201806 31.8709677,120.205032 C29.6350968,117.201806 26.0876129,115.225806 22.0645161,115.225806 C15.3054194,115.225806 9.80645161,120.724774 9.80645161,127.483871 C9.80645161,133.402065 14.0256774,138.354323 19.6129032,139.494323 L19.6129032,147.096774 L4.90322581,147.096774 L4.90322581,66.1935484 Z M19.6129032,134.387613 C16.7665806,133.372645 14.7096774,130.675871 14.7096774,127.483871 C14.7096774,123.428903 18.0095484,120.129032 22.0645161,120.129032 C26.1194839,120.129032 29.4193548,123.428903 29.4193548,127.483871 C29.4193548,130.675871 27.3624516,133.372645 24.516129,134.387613 L24.516129,129.935484 L19.6129032,129.935484 L19.6129032,134.387613 Z M24.516129,139.494323 C27.5218065,138.881419 30.1009032,137.140774 31.8709677,134.76271 C33.6410323,137.140774 36.220129,138.881419 39.2258065,139.494323 L39.2258065,147.096774 L24.516129,147.096774 L24.516129,139.494323 Z M39.2258065,129.935484 L39.2258065,134.387613 C36.3794839,133.372645 34.3225806,130.675871 34.3225806,127.483871 C34.3225806,123.428903 37.6224516,120.129032 41.6774194,120.129032 C45.7323871,120.129032 49.0322581,123.428903 49.0322581,127.483871 C49.0322581,130.675871 46.9753548,133.372645 44.1290323,134.387613 L44.1290323,129.935484 L39.2258065,129.935484 Z M44.1290323,139.494323 C47.1347097,138.881419 49.7138065,137.140774 51.483871,134.76271 C53.2539355,137.140774 55.8330323,138.881419 58.8387097,139.494323 L58.8387097,147.096774 L44.1290323,147.096774 L44.1290323,139.494323 Z M58.8387097,129.935484 L58.8387097,134.387613 C55.9923871,133.372645 53.9354839,130.675871 53.9354839,127.483871 C53.9354839,123.428903 57.2353548,120.129032 61.2903226,120.129032 C65.3452903,120.129032 68.6451613,123.428903 68.6451613,127.483871 C68.6451613,130.675871 66.5882581,133.372645 63.7419355,134.387613 L63.7419355,129.935484 L58.8387097,129.935484 Z M63.7419355,147.096774 L63.7419355,139.494323 C69.3291613,138.354323 73.5483871,133.404516 73.5483871,127.483871 C73.5483871,120.724774 68.0494194,115.225806 61.2903226,115.225806 C60.451871,115.225806 59.6305806,115.311613 58.8387097,115.473419 L58.8387097,61.2903226 L51.483871,61.2903226 L51.483871,51.483871 L44.1290323,51.483871 L44.1290323,41.6774194 L93.1612903,41.6774194 L93.1612903,83.3548387 L83.3548387,83.3548387 L83.3548387,93.1612903 L78.4516129,93.1612903 L78.4516129,147.096774 L63.7419355,147.096774 Z M112.774194,147.096774 L83.3548387,147.096774 L83.3548387,98.0645161 L112.774194,98.0645161 L112.774194,147.096774 Z M122.580645,88.2580645 L142.193548,88.2580645 L142.193548,93.1612903 L122.580645,93.1612903 L122.580645,88.2580645 Z M147.096774,147.096774 L117.677419,147.096774 L117.677419,98.0645161 L147.096774,98.0645161 L147.096774,147.096774 Z" id="Shape"></path>
                    <rect id="Rectangle-path" x="122.580645" y="107.870968" width="4.90322581" height="4.90322581"></rect>
                    <rect id="Rectangle-path" x="137.290323" y="107.870968" width="4.90322581" height="4.90322581"></rect>
                    <rect id="Rectangle-path" x="122.580645" y="120.129032" width="4.90322581" height="4.90322581"></rect>
                    <rect id="Rectangle-path" x="137.290323" y="120.129032" width="4.90322581" height="4.90322581"></rect>
                    <rect id="Rectangle-path" x="122.580645" y="132.387097" width="4.90322581" height="4.90322581"></rect>
                    <rect id="Rectangle-path" x="137.290323" y="132.387097" width="4.90322581" height="4.90322581"></rect>
                    <rect id="Rectangle-path" x="88.2580645" y="107.870968" width="4.90322581" height="4.90322581"></rect>
                    <rect id="Rectangle-path" x="102.967742" y="107.870968" width="4.90322581" height="4.90322581"></rect>
                    <rect id="Rectangle-path" x="88.2580645" y="120.129032" width="4.90322581" height="4.90322581"></rect>
                    <rect id="Rectangle-path" x="102.967742" y="120.129032" width="4.90322581" height="4.90322581"></rect>
                    <rect id="Rectangle-path" x="88.2580645" y="132.387097" width="4.90322581" height="4.90322581"></rect>
                    <rect id="Rectangle-path" x="102.967742" y="132.387097" width="4.90322581" height="4.90322581"></rect>
                    <rect id="Rectangle-path" x="12.2580645" y="76" width="4.90322581" height="4.90322581"></rect>
                    <rect id="Rectangle-path" x="26.9677419" y="76" width="4.90322581" height="4.90322581"></rect>
                    <rect id="Rectangle-path" x="12.2580645" y="88.2580645" width="4.90322581" height="4.90322581"></rect>
                    <rect id="Rectangle-path" x="26.9677419" y="88.2580645" width="4.90322581" height="4.90322581"></rect>
                    <rect id="Rectangle-path" x="12.2580645" y="100.516129" width="4.90322581" height="4.90322581"></rect>
                    <rect id="Rectangle-path" x="26.9677419" y="100.516129" width="4.90322581" height="4.90322581"></rect>
                    <rect id="Rectangle-path" x="41.6774194" y="76" width="4.90322581" height="4.90322581"></rect>
                    <rect id="Rectangle-path" x="41.6774194" y="88.2580645" width="4.90322581" height="4.90322581"></rect>
                    <rect id="Rectangle-path" x="41.6774194" y="100.516129" width="4.90322581" height="4.90322581"></rect>
                    <rect id="Rectangle-path" x="66.1935484" y="46.5806452" width="22.0645161" height="4.90322581"></rect>
                    <rect id="Rectangle-path" x="66.1935484" y="56.3870968" width="22.0645161" height="4.90322581"></rect>
                    <rect id="Rectangle-path" x="66.1935484" y="66.1935484" width="22.0645161" height="4.90322581"></rect>
                    <rect id="Rectangle-path" x="63.7419355" y="83.3548387" width="4.90322581" height="4.90322581"></rect>
                    <rect id="Rectangle-path" x="63.7419355" y="93.1612903" width="4.90322581" height="4.90322581"></rect>
                    <rect id="Rectangle-path" x="73.5483871" y="83.3548387" width="4.90322581" height="4.90322581"></rect>
                </g>
            </g>
        </g>
    </g>
</svg>