<?xml version="1.0" encoding="UTF-8"?>
<svg width="152px" height="152px" viewBox="0 0 152 152" version="1.1" xmlns="http://www.w3.org/2000/svg" xmlns:xlink="http://www.w3.org/1999/xlink">
    <!-- Generator: sketchtool 50.2 (55047) - http://www.bohemiancoding.com/sketch -->
    <title>3BB07789-FAB3-4F3C-8154-996ED2548F38</title>
    <desc>Created with sketchtool.</desc>
    <defs></defs>
    <g id="Visuals-Homepage-v2" stroke="none" stroke-width="1" fill="none" fill-rule="evenodd" opacity="0.200000003">
        <g id="Home-page-alternative-data-panel" transform="translate(-422.000000, -344.000000)" fill="#FFFFFF" fill-rule="nonzero">
            <g id="corn-(1)-copy" transform="translate(422.000000, 344.000000)">
                <path d="M143.754006,130.568911 C146.44747,125.688467 147.89405,120.189445 147.89405,114.461499 C147.89405,105.531067 144.413978,97.1364117 138.101628,90.8215464 L131.143919,83.8613132 C109.394076,62.111193 97.4147361,33.1938347 97.4147361,2.43535104 C97.4147361,1.21280482 96.5087971,0.180215977 95.2960077,0.0194828083 C94.0832183,-0.124202903 92.9410532,0.625885218 92.6268969,1.80703047 C89.2832024,14.3442176 87.4810656,27.1151985 87.1717799,39.8886147 L73.1126772,25.8293332 C56.455088,9.17396738 34.3082874,0 10.7514364,0 C7.88019405,0 5.18185942,1.11782613 3.15080248,3.14647355 C1.11974555,5.17512097 0.00193364431,7.87592527 0.00193364431,10.7496395 C0.00193364431,34.3067901 9.17578432,56.4538725 25.8309382,73.1092383 L34.9926123,82.2807703 C27.2994362,83.70058 19.7207202,85.7876758 12.3806655,88.5810235 L1.56784444,92.7016375 C0.471950416,93.1205178 -0.1734094,94.2626975 0.0408987653,95.4194892 C0.255206931,96.5738456 1.26342944,97.4140417 2.43725371,97.4140417 C33.1953461,97.4140417 62.1123365,109.391098 83.8646153,131.141218 L90.8223247,138.101452 C97.1371096,144.416317 105.531658,147.893998 114.461977,147.893998 C120.189849,147.893998 125.688802,146.4474 130.569183,143.753901 L138.815177,152 L152,138.815009 L143.754006,130.568911 Z M87.1669093,48.263787 C87.2277923,50.4531676 87.347123,52.6401128 87.4956775,54.827058 L86.0831919,53.4145544 C86.5312908,51.7268562 86.9087654,50.0148044 87.1669093,48.263787 Z M88.1921791,62.4131765 C88.6597605,66.46073 89.2710258,70.4961066 90.0430223,74.5095652 L80.9958083,65.413529 C82.3060105,63.2485019 83.4554815,60.9836255 84.3955151,58.6164643 L88.1921791,62.4131765 Z M90.3279547,81.6962861 L92.0326788,83.4083379 C92.1130444,83.7346749 92.1812333,84.0634473 92.2664695,84.387349 C91.1218691,84.0853655 89.9699627,83.8199122 88.8180563,83.5471529 C89.3343442,82.9407505 89.8433261,82.3294774 90.3279547,81.6962861 Z M21.8735431,32.6044798 C23.0960738,34.1752812 24.3502636,35.7192937 25.5922769,37.2730477 C24.1968385,38.0913257 22.7356464,38.8024482 21.2160067,39.4064152 C20.2735378,37.7235877 19.3554222,36.026148 18.478707,34.3019194 C19.6549665,33.8124139 20.7800844,33.2352357 21.8735431,32.6044798 Z M16.3283193,29.9085462 C15.5368403,28.2086711 14.7989383,26.4771365 14.073213,24.7382959 C14.5213119,24.5288557 14.9718461,24.3218509 15.4028977,24.0831865 C16.5548041,25.6393758 17.7432403,27.1687762 18.9146292,28.7103534 C18.0841851,29.1633287 17.2147758,29.5529849 16.3283193,29.9085462 Z M45.269663,53.0102862 C43.5357151,51.0741821 41.8066378,49.1332073 40.1067844,47.1654437 C42.7344948,45.1051367 45.1016259,42.7355401 47.164342,40.1077963 C49.1345159,41.8101067 51.0925132,43.5245938 53.031028,45.2609991 C50.8197574,48.1931618 48.2090943,50.8014228 45.269663,53.0102862 Z M56.645043,48.548723 C58.5762518,50.3167879 60.4904133,52.1019002 62.3875277,53.9016246 C59.9789961,57.1309001 57.1199304,59.9875669 53.890696,62.3961291 C52.0909945,60.4989906 50.3205168,58.5774986 48.5549097,56.6462653 C51.5941892,54.3083283 54.309571,51.5904765 56.645043,48.548723 Z M36.9603509,43.4442273 C35.5162061,41.7321755 34.06232,40.0274297 32.6400931,38.2934598 C34.7101152,36.6106322 36.5901823,34.7061877 38.2535059,32.6166565 C39.9996303,34.0462076 41.7287076,35.4928061 43.4529142,36.949146 C41.5679765,39.377191 39.388365,41.5568302 36.9603509,43.4442273 Z M29.6081196,34.5016182 C28.3661064,32.9502996 27.1119166,31.4111578 25.8918212,29.845227 C27.3286601,28.6592111 28.6486035,27.3368155 29.8370397,25.9023937 C31.3932092,27.1151985 32.9445081,28.3304387 34.4836304,29.5627263 C33.0394856,31.3794982 31.4078212,33.0355369 29.6081196,34.5016182 Z M22.937778,25.9584068 C21.7469065,24.3949114 20.541423,22.8435928 19.3724694,21.2654853 C20.0397471,20.6712597 20.6680597,20.0429391 21.2598425,19.3756529 C22.8379299,20.5446214 24.4135819,21.720896 25.9794927,22.914218 C25.0565064,24.0149966 24.0385427,25.0329734 22.937778,25.9584068 Z M28.6486035,41.0965489 C30.0489126,42.8086006 31.4808808,44.4914282 32.905543,46.1839972 C31.0425232,47.2677284 29.0747845,48.180985 27.0218097,48.9262025 C25.8699033,47.2019739 24.7691387,45.4460858 23.6927272,43.6707149 C25.4193691,42.9449803 27.0656455,42.0706893 28.6486035,41.0965489 Z M36.0714591,49.9514852 C37.7469593,51.8973307 39.4589893,53.8066459 41.168584,55.7232672 C38.9938432,56.9652962 36.6900304,58.0003204 34.2790635,58.8112923 C32.7642944,56.928766 31.3055377,55.0097094 29.8954874,53.0541225 C32.053181,52.1944436 34.1085911,51.1472426 36.0714591,49.9514852 Z M44.4903605,59.4225655 C46.236485,61.3367514 47.9972214,63.2338898 49.7750051,65.1164162 C47.52964,66.4071522 45.1527676,67.4860128 42.6687411,68.340821 C40.9323579,66.5313551 39.2495518,64.6829237 37.6203226,62.7955266 C40.0215482,61.8700932 42.3131844,60.7400904 44.4903605,59.4225655 Z M53.2258536,68.7109943 C54.9914606,70.539943 56.7521971,72.3713269 58.5494633,74.168616 L61.8103568,77.4295511 C60.1202447,78.3817733 58.3595083,79.2365815 56.5111004,79.9598808 L56.0021185,80.1157433 C55.4541715,80.1327907 54.9062244,80.1547089 54.3582774,80.176627 L46.3777336,72.1643221 C48.7692179,71.2047938 51.0486775,70.040696 53.2258536,68.7109943 Z M57.3025794,65.920082 C60.5464257,63.4335886 63.4420213,60.5330855 65.928483,57.2891979 C67.5357943,58.8478226 69.1382349,60.4088826 70.7187576,61.9869901 L74.7248591,66.0150607 C72.2846684,69.3173967 69.3501077,72.2519947 65.9844954,74.7190054 L61.9905705,70.7250296 C60.4100478,69.1444868 58.8611842,67.5249784 57.3025794,65.920082 Z M78.2000608,69.5097895 L86.8454471,78.199122 C85.7592943,79.6652033 84.5781641,81.0606595 83.306927,82.3733137 C79.5614048,81.6646265 75.789094,81.1093665 71.9973006,80.7294517 L69.4670031,78.2015573 C72.7814737,75.6882751 75.7111637,72.7658538 78.2000608,69.5097895 Z M75.1364282,34.7402826 L82.766286,42.3702374 C82.7127089,44.7471401 82.4570003,47.077771 82.0186427,49.3499535 L73.9601686,41.2913769 C73.9309448,41.2621527 73.8992856,41.2329285 73.8676264,41.2012689 C74.4326207,39.099561 74.8709783,36.949146 75.1364282,34.7402826 Z M80.5818039,54.8027045 C79.7513597,57.255103 78.7090427,59.6149582 77.4475469,61.8457397 L74.1671708,58.5482744 C72.3699046,56.7509854 70.5531558,54.9731791 68.7217952,53.2051142 C70.044174,51.0352165 71.2058216,48.7654693 72.1604671,46.3812606 L80.5818039,54.8027045 Z M65.570491,25.4664659 C66.9683647,26.6914474 68.3418852,27.9456532 69.6691347,29.2729195 L70.577509,30.1837408 C70.5214967,32.6190919 70.2804,35.0081712 69.8201245,37.3217547 C68.0472115,35.6827635 66.2304627,34.0949146 64.3844901,32.5484667 C64.961661,30.2519307 65.3732301,27.8920755 65.570491,25.4664659 Z M68.3516265,42.6429968 C67.4943938,45.1367962 66.4106764,47.5210049 65.1150861,49.77614 C63.2325837,47.9958984 61.3330341,46.2327042 59.4164372,44.4841222 C60.7363807,42.2971769 61.8712398,39.9957702 62.7990968,37.5823373 C64.6937758,39.2164578 66.5421837,40.9065915 68.3516265,42.6429968 Z M55.8365167,18.1141411 C57.5534174,19.2222258 59.2362235,20.3911943 60.8751939,21.6332233 L60.8849352,21.9181594 C60.8849352,24.3949114 60.6267913,26.8083443 60.183563,29.1560227 C58.3619436,27.7410837 56.515971,26.3578043 54.6334686,25.030538 C55.2179454,22.7900151 55.6368205,20.4837376 55.8365167,18.1141411 Z M58.836831,34.292178 C58.0258694,36.6934342 56.9957291,38.9875348 55.7561511,41.1574326 C53.8371189,39.4453808 51.8986042,37.7552472 49.9503481,36.074855 C51.1460903,34.1119621 52.1932779,32.0565258 53.0553812,29.8988048 C55.0182492,31.3137437 56.9445873,32.7773897 58.836831,34.292178 Z M46.1244603,12.7100971 C47.8170077,13.5040215 49.4730254,14.3710065 51.1119958,15.2793924 C51.06816,17.6222001 50.8221927,19.9163008 50.3570466,22.1324703 C48.6230987,21.000032 46.8623623,19.9138655 45.0845786,18.8569231 C45.5959958,16.864806 45.9539879,14.8166757 46.1244603,12.7100971 Z M48.9250784,27.0299612 C48.1823058,29.0756561 47.2739314,31.0336783 46.1926493,32.8918512 C44.4781839,31.447688 42.7564127,30.0132663 41.0200295,28.5934566 C41.9771102,26.9958663 42.8343429,25.3398276 43.5454564,23.600987 C45.3646404,24.7017656 47.157036,25.8463806 48.9250784,27.0299612 Z M36.4489337,8.91338482 C38.1049513,9.44916205 39.7414864,10.0336463 41.3585389,10.6717083 C41.3098325,12.6126831 41.1052657,14.5171276 40.7180498,16.358253 C39.091256,15.4644791 37.4474149,14.6023649 35.7865266,13.7694748 C36.1445187,12.196238 36.3588269,10.5718589 36.4489337,8.91338482 Z M34.3034167,18.474573 C35.9813522,19.3269459 37.6446758,20.2061076 39.2860816,21.1242349 C38.7040401,22.643894 38.0172798,24.1099753 37.2184948,25.5103022 C35.6891138,24.287756 34.1451209,23.0822572 32.5986927,21.8816291 C33.2343112,20.7857212 33.8114821,19.6532829 34.3034167,18.474573 Z M26.7149594,6.39766719 C28.3758477,6.71913353 30.022124,7.09174224 31.6537885,7.51062262 C31.6391766,8.90364341 31.497928,10.2650046 31.2592666,11.5947063 C29.6227316,10.8421828 27.9715846,10.1188836 26.308261,9.42724389 C26.5176985,8.44092672 26.6418998,7.42782068 26.7149594,6.39766719 Z M24.7472208,14.0544109 C26.483604,14.7801455 28.20294,15.539975 29.907664,16.3338994 C29.5569779,17.2081905 29.1721973,18.065434 28.7265338,18.8885827 C27.1849762,17.7171788 25.6361126,16.5579517 24.0823784,15.408466 C24.3234751,14.9701029 24.5353479,14.5122569 24.7472208,14.0544109 Z M21.8832844,5.62322556 C21.8516252,6.29051174 21.7858716,6.94805653 21.6811528,7.59342455 C19.1679025,6.646073 16.6278637,5.76204057 14.0610364,4.95106867 C16.6936173,5.05335341 19.2994098,5.28227641 21.8832844,5.62322556 Z M20.2175255,12.2473804 C19.2969745,14.1542603 18.037914,15.8614413 16.508533,17.2934278 C14.5237472,14.5512225 12.5730558,11.7895344 10.6540236,9.00349281 C13.8856933,9.97276252 17.0735273,11.0564937 20.2175255,12.2473804 Z M4.87257377,10.7496395 C4.87257377,10.2942289 4.93832741,9.85343032 5.03817553,9.42237319 C7.47593091,13.0120806 9.97213398,16.5652578 12.5170434,20.0867754 C10.4275388,21.1412824 8.09450221,21.7720383 5.62508767,21.8791938 C5.14045898,18.2188612 4.87257377,14.5049508 4.87257377,10.7496395 Z M6.39951945,26.7109302 C7.43453047,26.6403051 8.45249426,26.5136668 9.44366953,26.3017913 C10.1353004,27.965136 10.824496,29.6309161 11.5721393,31.2626013 C10.2497605,31.496395 8.89815783,31.6376454 7.51246072,31.6498222 C7.09358567,30.018137 6.7209817,28.3718397 6.39951945,26.7109302 Z M8.91520507,36.4474637 C10.5785287,36.3573557 12.2053225,36.1406095 13.7834099,35.7826129 C14.6455132,37.5044061 15.541711,39.2018457 16.4671326,40.8846733 C14.62116,41.2962476 12.7143044,41.5251706 10.7660483,41.5957958 C10.0914647,39.9007915 9.47776401,38.183869 8.91520507,36.4474637 Z M12.8141525,46.3496011 C14.9133984,46.1645144 16.9566319,45.7894703 18.9438531,45.2609991 C19.9691228,46.9827923 21.0260517,48.6826674 22.1219458,50.3581889 C19.9106752,50.8233409 17.619039,51.0644407 15.2811317,51.108277 C14.4117225,49.5447816 13.5764077,47.9642388 12.8141525,46.3496011 Z M21.651929,60.8983882 C20.4050451,59.2520909 19.2312209,57.5619573 18.1158443,55.8377287 C20.495152,55.6380299 22.8062707,55.2167142 25.0565064,54.6297946 C26.3813206,56.5074503 27.7524058,58.3534463 29.1673267,60.1702182 C26.7612305,60.6304996 24.28451,60.8910821 21.7420358,60.8935175 L21.651929,60.8983882 Z M29.2769161,69.6656519 C27.952102,68.3432563 26.6979122,66.9697183 25.4753815,65.5742622 C27.9033956,65.3769988 30.2680914,64.9702951 32.5694688,64.3906816 C34.1158971,66.231807 35.7085964,68.0412728 37.3500021,69.8142084 C35.0267068,70.2793604 32.6303518,70.5204602 30.1852905,70.5764732 L29.2769161,69.6656519 Z M34.739339,75.1354504 C36.9481743,74.8724325 39.1009972,74.4316339 41.2026785,73.8666325 C41.2319023,73.8958567 41.2586908,73.9250809 41.2879147,73.9543051 L47.8559729,80.5492357 C45.5375482,80.7440638 43.2239941,81.002211 40.917746,81.3188067 L34.739339,75.1354504 Z M125.230962,140.924023 L121.434298,135.607652 C114.330469,125.664114 108.385853,114.892556 103.790404,103.655846 L102.100292,99.1455763 L97.5389375,100.855193 L99.2558381,105.431217 C102.553261,113.4971 106.547186,121.275611 111.096364,128.715609 C104.396799,125.756657 98.2427449,121.575159 93.0579485,116.392732 L86.426572,109.761272 C73.7434251,97.0877047 56.8910103,90.1079886 38.9670546,90.1079886 L38.9670546,94.9786907 C55.5905494,94.9786907 71.2204335,101.451854 82.9757235,113.207293 L89.6071,119.838754 C96.8448712,127.076617 105.821461,132.529368 115.574918,135.627135 C116.212972,136.559874 116.80719,137.521838 117.464726,138.442401 L120.304309,142.419329 C118.402324,142.813856 116.449198,143.025731 114.459541,143.025731 C106.832119,143.023296 99.6601012,140.052168 94.2658673,134.657865 L87.3081579,127.697632 C67.4310755,107.820297 41.8090732,95.7726151 14.1901083,93.1059057 C39.517437,83.4740924 67.7598437,82.327042 93.7836739,89.8595828 C94.4290337,92.039222 95.1182293,94.2091197 95.8561313,96.3668408 L100.466192,94.793604 C92.1982806,70.5642965 89.9602214,44.9833691 93.8055918,19.9187362 C97.4951017,45.3413657 109.211427,68.8108437 127.705247,87.3024642 L134.662956,94.2626975 C140.05719,99.657 143.030716,106.829109 143.030716,114.459064 C143.030716,120.016535 141.435582,125.320729 138.49615,129.882142 C138.255054,127.415131 137.889756,124.960297 137.380774,122.537123 L132.614852,123.540488 C133.430685,127.415131 133.856866,131.375012 133.925054,135.327587 C131.348486,137.733714 128.416361,139.628417 125.230962,140.924023 Z M134.721404,141.019002 C135.895228,140.117922 137.037394,139.1657 138.101628,138.101452 C139.165863,137.037203 140.118073,135.895024 141.019142,134.721184 L145.112915,138.815009 L138.815177,145.112827 L134.721404,141.019002 Z" id="Shape"></path>
                <path d="M115.665735,91.6701479 C122.00755,97.9769025 126.813875,105.405881 129.933599,113.688041 C130.457615,115.205347 130.920699,116.64509 131.330163,118 L136,116.61358 C135.575912,115.198075 135.088456,113.70016 134.523006,112.054393 C131.132743,103.054785 125.948639,95.0416682 119.112056,88.2404562 L118.541731,87.6732846 C110.888658,80.06252 105.341398,70.553912 102.49465,60.1703083 L99.7039591,50 L95,51.2749243 L97.7906908,61.4452326 C100.861669,72.6383889 106.845203,82.8935306 115.097848,91.1005525 L115.665735,91.6701479 Z" id="Shape"></path>
            </g>
        </g>
    </g>
</svg>