<?xml version="1.0" encoding="UTF-8"?>
<svg width="40px" height="40px" viewBox="0 0 40 40" version="1.1" xmlns="http://www.w3.org/2000/svg" xmlns:xlink="http://www.w3.org/1999/xlink">
    <!-- Generator: sketchtool 50.2 (55047) - http://www.bohemiancoding.com/sketch -->
    <title>079EAC79-03B7-4C9B-8C0E-08A48E501E24</title>
    <desc>Created with sketchtool.</desc>
    <defs></defs>
    <g id="Visuals-Homepage-v2" stroke="none" stroke-width="1" fill="none" fill-rule="evenodd">
        <g id="Home-page-alternative-data-panel" transform="translate(-282.000000, -340.000000)" fill-rule="nonzero">
            <g id="corn-(1)" transform="translate(282.000000, 340.000000)">
                <path d="M19.4721087,8.14277378 C15.6954369,4.15836443 10.5731399,1.92 5.23238607,1.92 C4.71483791,1.92 4.21787731,2.13719978 3.85187641,2.52333273 C3.48587551,2.90946568 3.28,3.43376182 3.28,3.97977794 C3.28,9.6143023 5.40166148,15.0183536 9.1783333,19.0021596 L11.8581462,21.8299801 L19.4721087,21.8299801 C22.3092447,22.8871259 24.1078436,23.2138557 24.8679056,22.8101695 C25.6279676,22.4064833 25.6279676,21.6271785 24.8679056,20.4722552 L23.5919064,12.4891828 L19.4721087,8.14277378 Z" id="Shape" fill="#FCD770"></path>
                <path d="M37.7784,34.3132 C38.48624,33.03064 38.8664,31.58552 38.8664,30.08024 C38.8664,27.73336 37.95184,25.52728 36.29296,23.86776 L34.46448,22.03864 C28.74864,16.3228 25.60048,8.72344 25.60048,0.64024 C25.60048,0.31896 25.3624,0.0476 25.04368,0.00536 C24.72496,-0.0324 24.4248,0.16472 24.34224,0.47512 C23.46352,3.76984 22.98992,7.126 22.90864,10.4828 L19.21392,6.78808 C14.83632,2.41112 9.01616,0.00024 2.82544,0.00024 C2.07088,0.00024 1.36176,0.294 0.828,0.82712 C0.29424,1.36024 0.00048,2.07 0.00048,2.8252 C0.00048,9.01592 2.41136,14.83608 6.78832,19.21304 L9.196,21.62328 C7.17424,21.9964 5.18256,22.54488 3.2536,23.27896 L0.412,24.36184 C0.124,24.47192 -0.0456,24.77208 0.01072,25.07608 C0.06704,25.37944 0.332,25.60024 0.64048,25.60024 C8.72368,25.60024 16.32304,28.74776 22.03952,34.4636 L23.868,36.29272 C25.52752,37.95224 27.7336,38.86616 30.08048,38.86616 C31.58576,38.86616 33.03088,38.486 34.31344,37.77816 L36.48048,39.9452 L39.94544,36.48024 L37.7784,34.3132 Z M22.90736,12.68376 C22.92336,13.25912 22.95472,13.83384 22.99376,14.40856 L22.62256,14.03736 C22.74032,13.59384 22.83952,13.14392 22.90736,12.68376 Z M23.1768,16.40216 C23.29968,17.46584 23.46032,18.52632 23.6632,19.58104 L21.2856,17.19064 C21.62992,16.62168 21.932,16.02648 22.17904,15.4044 L23.1768,16.40216 Z M23.73808,21.46968 L24.18608,21.9196 C24.2072,22.00536 24.22512,22.09176 24.24752,22.17688 C23.94672,22.09752 23.644,22.02776 23.34128,21.95608 C23.47696,21.79672 23.61072,21.63608 23.73808,21.46968 Z M5.74832,8.56856 C6.0696,8.98136 6.3992,9.38712 6.7256,9.79544 C6.35888,10.01048 5.97488,10.19736 5.57552,10.35608 C5.32784,9.91384 5.08656,9.46776 4.85616,9.01464 C5.16528,8.886 5.46096,8.73432 5.74832,8.56856 Z M4.29104,7.86008 C4.08304,7.41336 3.88912,6.95832 3.6984,6.50136 C3.81616,6.44632 3.93456,6.39192 4.04784,6.3292 C4.35056,6.73816 4.66288,7.14008 4.97072,7.5452 C4.75248,7.66424 4.524,7.76664 4.29104,7.86008 Z M11.8968,13.93112 C11.44112,13.42232 10.98672,12.91224 10.54,12.39512 C11.23056,11.85368 11.85264,11.23096 12.39472,10.5404 C12.91248,10.98776 13.42704,11.43832 13.93648,11.89464 C13.35536,12.6652 12.66928,13.35064 11.8968,13.93112 Z M14.88624,12.75864 C15.39376,13.22328 15.8968,13.6924 16.39536,14.16536 C15.7624,15.014 15.01104,15.76472 14.1624,16.39768 C13.68944,15.89912 13.22416,15.39416 12.76016,14.88664 C13.55888,14.27224 14.27248,13.558 14.88624,12.75864 Z M9.71312,11.4172 C9.3336,10.96728 8.95152,10.51928 8.57776,10.0636 C9.12176,9.62136 9.61584,9.12088 10.05296,8.57176 C10.51184,8.94744 10.96624,9.3276 11.41936,9.71032 C10.924,10.3484 10.3512,10.9212 9.71312,11.4172 Z M7.78096,9.06712 C7.45456,8.65944 7.12496,8.25496 6.80432,7.84344 C7.18192,7.53176 7.5288,7.18424 7.84112,6.80728 C8.25008,7.126 8.65776,7.44536 9.06224,7.7692 C8.68272,8.24664 8.25392,8.68184 7.78096,9.06712 Z M6.028,6.822 C5.71504,6.41112 5.39824,6.00344 5.09104,5.58872 C5.2664,5.43256 5.43152,5.26744 5.58704,5.09208 C6.00176,5.39928 6.41584,5.7084 6.82736,6.022 C6.5848,6.31128 6.31728,6.5788 6.028,6.822 Z M7.5288,10.80024 C7.8968,11.25016 8.27312,11.6924 8.64752,12.1372 C8.15792,12.422 7.6408,12.662 7.10128,12.85784 C6.79856,12.40472 6.50928,11.94328 6.2264,11.47672 C6.68016,11.286 7.1128,11.05624 7.5288,10.80024 Z M9.47952,13.12728 C9.91984,13.63864 10.36976,14.1404 10.81904,14.64408 C10.24752,14.97048 9.64208,15.24248 9.00848,15.4556 C8.6104,14.96088 8.22704,14.45656 7.85648,13.94264 C8.42352,13.71672 8.96368,13.44152 9.47952,13.12728 Z M11.692,15.61624 C12.15088,16.11928 12.6136,16.61784 13.0808,17.11256 C12.49072,17.45176 11.86608,17.73528 11.21328,17.95992 C10.75696,17.4844 10.31472,16.99864 9.88656,16.50264 C10.5176,16.25944 11.11984,15.96248 11.692,15.61624 Z M13.98768,18.0572 C14.45168,18.53784 14.9144,19.01912 15.38672,19.49144 L16.24368,20.3484 C15.79952,20.59864 15.3368,20.82328 14.85104,21.01336 L14.71728,21.05432 C14.57328,21.0588 14.42928,21.06456 14.28528,21.07032 L12.188,18.96472 C12.81648,18.71256 13.41552,18.40664 13.98768,18.0572 Z M15.05904,17.32376 C15.91152,16.67032 16.67248,15.90808 17.32592,15.0556 C17.74832,15.4652 18.16944,15.87544 18.5848,16.29016 L19.6376,17.34872 C18.99632,18.21656 18.22512,18.98776 17.34064,19.63608 L16.29104,18.58648 C15.87568,18.17112 15.46864,17.74552 15.05904,17.32376 Z M20.55088,18.26712 L22.82288,20.55064 C22.53744,20.93592 22.22704,21.30264 21.89296,21.6476 C20.90864,21.46136 19.91728,21.31544 18.9208,21.2156 L18.25584,20.55128 C19.12688,19.8908 19.8968,19.1228 20.55088,18.26712 Z M19.74576,9.12984 L21.75088,11.13496 C21.7368,11.7596 21.6696,12.37208 21.5544,12.9692 L19.43664,10.85144 C19.42896,10.84376 19.42064,10.83608 19.41232,10.82776 C19.5608,10.27544 19.676,9.71032 19.74576,9.12984 Z M21.1768,14.40216 C20.95856,15.04664 20.68464,15.6668 20.35312,16.25304 L19.49104,15.38648 C19.01872,14.91416 18.54128,14.44696 18.06,13.98232 C18.40752,13.41208 18.7128,12.8156 18.96368,12.18904 L21.1768,14.40216 Z M17.23184,6.69272 C17.5992,7.01464 17.96016,7.34424 18.30896,7.69304 L18.54768,7.9324 C18.53296,8.5724 18.4696,9.20024 18.34864,9.80824 C17.88272,9.37752 17.40528,8.96024 16.92016,8.55384 C17.07184,7.95032 17.18,7.33016 17.23184,6.69272 Z M17.96272,11.20664 C17.73744,11.862 17.45264,12.48856 17.11216,13.0812 C16.61744,12.61336 16.11824,12.15 15.61456,11.69048 C15.96144,11.11576 16.25968,10.51096 16.50352,9.87672 C17.00144,10.30616 17.4872,10.75032 17.96272,11.20664 Z M14.67376,4.76056 C15.12496,5.05176 15.5672,5.35896 15.99792,5.68536 L16.00048,5.76024 C16.00048,6.41112 15.93264,7.04536 15.81616,7.66232 C15.33744,7.29048 14.85232,6.92696 14.3576,6.57816 C14.5112,5.98936 14.62128,5.38328 14.67376,4.76056 Z M15.46224,9.01208 C15.24912,9.64312 14.9784,10.246 14.65264,10.81624 C14.14832,10.36632 13.63888,9.92216 13.12688,9.48056 C13.44112,8.96472 13.71632,8.42456 13.94288,7.85752 C14.45872,8.22936 14.96496,8.614 15.46224,9.01208 Z M12.12144,3.3404 C12.56624,3.54904 13.00144,3.77688 13.43216,4.0156 C13.42064,4.63128 13.356,5.23416 13.23376,5.81656 C12.77808,5.51896 12.31536,5.23352 11.84816,4.95576 C11.98256,4.43224 12.07664,3.894 12.12144,3.3404 Z M12.85744,7.1036 C12.66224,7.6412 12.42352,8.15576 12.13936,8.64408 C11.6888,8.26456 11.23632,7.8876 10.78,7.51448 C11.03152,7.09464 11.2568,6.65944 11.44368,6.20248 C11.92176,6.49176 12.3928,6.79256 12.85744,7.1036 Z M9.57872,2.34264 C10.01392,2.48344 10.444,2.63704 10.86896,2.80472 C10.85616,3.3148 10.8024,3.81528 10.70064,4.29912 C10.27312,4.06424 9.84112,3.83768 9.40464,3.6188 C9.49872,3.20536 9.55504,2.77848 9.57872,2.34264 Z M9.01488,4.85528 C9.45584,5.07928 9.89296,5.31032 10.32432,5.5516 C10.17136,5.95096 9.99088,6.33624 9.78096,6.70424 C9.37904,6.38296 8.97328,6.06616 8.56688,5.75064 C8.73392,5.46264 8.8856,5.16504 9.01488,4.85528 Z M7.02064,1.68152 C7.45712,1.766 7.88976,1.86392 8.31856,1.974 C8.31472,2.34008 8.2776,2.69784 8.21488,3.04728 C7.7848,2.84952 7.35088,2.65944 6.91376,2.47768 C6.9688,2.21848 7.00144,1.95224 7.02064,1.68152 Z M6.50352,3.69368 C6.95984,3.8844 7.41168,4.08408 7.85968,4.29272 C7.76752,4.52248 7.6664,4.74776 7.54928,4.96408 C7.14416,4.65624 6.73712,4.3516 6.3288,4.04952 C6.39216,3.93432 6.44784,3.814 6.50352,3.69368 Z M5.75088,1.478 C5.74256,1.65336 5.72528,1.82616 5.69776,1.99576 C5.03728,1.7468 4.36976,1.51448 3.6952,1.30136 C4.38704,1.32824 5.07184,1.3884 5.75088,1.478 Z M5.31312,3.2188 C5.0712,3.71992 4.74032,4.16856 4.3384,4.54488 C3.8168,3.82424 3.30416,3.09848 2.79984,2.36632 C3.64912,2.62104 4.48688,2.90584 5.31312,3.2188 Z M1.28048,2.8252 C1.28048,2.70552 1.29776,2.58968 1.324,2.4764 C1.96464,3.41976 2.62064,4.35352 3.28944,5.27896 C2.74032,5.55608 2.1272,5.72184 1.47824,5.75 C1.35088,4.78808 1.28048,3.81208 1.28048,2.8252 Z M1.68176,7.01976 C1.95376,7.0012 2.22128,6.96792 2.48176,6.91224 C2.66352,7.34936 2.84464,7.78712 3.04112,8.21592 C2.6936,8.27736 2.3384,8.31448 1.97424,8.31768 C1.86416,7.88888 1.76624,7.45624 1.68176,7.01976 Z M2.34288,9.57848 C2.78,9.5548 3.20752,9.49784 3.62224,9.40376 C3.8488,9.85624 4.08432,10.30232 4.32752,10.74456 C3.8424,10.85272 3.34128,10.91288 2.82928,10.93144 C2.652,10.486 2.49072,10.0348 2.34288,9.57848 Z M3.36752,12.18072 C3.9192,12.13208 4.45616,12.03352 4.9784,11.89464 C5.24784,12.34712 5.5256,12.79384 5.8136,13.23416 C5.23248,13.3564 4.63024,13.41976 4.01584,13.43128 C3.78736,13.0204 3.56784,12.60504 3.36752,12.18072 Z M5.69008,16.00408 C5.3624,15.57144 5.05392,15.12728 4.7608,14.67416 C5.38608,14.62168 5.99344,14.51096 6.5848,14.35672 C6.93296,14.85016 7.29328,15.33528 7.66512,15.81272 C7.0328,15.93368 6.38192,16.00216 5.71376,16.0028 L5.69008,16.00408 Z M7.69392,18.30808 C7.34576,17.96056 7.01616,17.5996 6.69488,17.23288 C7.33296,17.18104 7.9544,17.07416 8.5592,16.92184 C8.9656,17.40568 9.38416,17.8812 9.81552,18.34712 C9.20496,18.46936 8.5752,18.53272 7.93264,18.54744 L7.69392,18.30808 Z M9.12944,19.74552 C9.70992,19.6764 10.27568,19.56056 10.828,19.41208 C10.83568,19.41976 10.84272,19.42744 10.8504,19.43512 L12.57648,21.16824 C11.9672,21.21944 11.3592,21.28728 10.75312,21.37048 L9.12944,19.74552 Z M32.91056,37.03448 L31.9128,35.63736 C30.04592,33.02424 28.48368,30.19352 27.276,27.24056 L26.83184,26.05528 L25.63312,26.50456 L26.08432,27.70712 C26.95088,29.8268 28.00048,31.87096 29.196,33.82616 C27.43536,33.04856 25.81808,31.94968 24.45552,30.58776 L22.7128,28.84504 C19.37968,25.51448 14.95088,23.68024 10.24048,23.68024 L10.24048,24.96024 C14.60912,24.96024 18.71664,26.66136 21.80592,29.75064 L23.54864,31.49336 C25.45072,33.39544 27.80976,34.8284 30.37296,35.64248 C30.54064,35.8876 30.6968,36.1404 30.8696,36.38232 L31.61584,37.42744 C31.116,37.53112 30.60272,37.5868 30.07984,37.5868 C28.07536,37.58616 26.19056,36.80536 24.77296,35.38776 L22.94448,33.55864 C17.7208,28.33496 10.98736,25.16888 3.72912,24.46808 C10.38512,21.93688 17.8072,21.63544 24.64624,23.61496 C24.81584,24.18776 24.99696,24.758 25.19088,25.32504 L26.4024,24.9116 C24.2296,18.54424 23.64144,11.82168 24.652,5.2348 C25.6216,11.91576 28.70064,18.08344 33.5608,22.94296 L35.38928,24.77208 C36.80688,26.18968 37.58832,28.07448 37.58832,30.0796 C37.58832,31.54008 37.16912,32.934 36.39664,34.13272 C36.33328,33.4844 36.23728,32.83928 36.10352,32.20248 L34.85104,32.46616 C35.06544,33.4844 35.17744,34.52504 35.19536,35.56376 C34.51824,36.19608 33.74768,36.694 32.91056,37.03448 Z M35.40464,37.05944 C35.71312,36.82264 36.01328,36.5724 36.29296,36.29272 C36.57264,36.01304 36.82288,35.71288 37.05968,35.4044 L38.13552,36.48024 L36.48048,38.13528 L35.40464,37.05944 Z" id="Shape" fill="#000000"></path>
                <path d="M30.41008,24.2748 C32.07536,25.94008 33.33744,27.90168 34.15664,30.08856 C34.29424,30.4892 34.41584,30.86936 34.52336,31.22712 L35.7496,30.86104 C35.63824,30.48728 35.51024,30.09176 35.36176,29.6572 C34.47152,27.28088 33.11024,25.16504 31.31504,23.3692 L31.16528,23.21944 C29.15568,21.20984 27.69904,18.69912 26.95152,15.95736 L26.21872,13.27192 L24.98352,13.60856 L25.71632,16.294 C26.52272,19.24952 28.09392,21.95736 30.26096,24.1244 L30.41008,24.2748 Z" id="Shape" fill="#000000"></path>
            </g>
        </g>
    </g>
</svg>