<?xml version="1.0" encoding="UTF-8"?>
<svg width="40px" height="47px" viewBox="0 0 40 47" version="1.1" xmlns="http://www.w3.org/2000/svg" xmlns:xlink="http://www.w3.org/1999/xlink">
    <!-- Generator: sketchtool 50.2 (55047) - http://www.bohemiancoding.com/sketch -->
    <title>DFE42B1F-89CA-4669-8F6B-28051A7D0E3B</title>
    <desc>Created with sketchtool.</desc>
    <defs></defs>
    <g id="Visuals-Homepage-v2" stroke="none" stroke-width="1" fill="none" fill-rule="evenodd">
        <g id="Home-page-alternative-data-panel" transform="translate(-1698.000000, -794.000000)" fill-rule="nonzero">
            <g id="cream-copy" transform="translate(1698.000000, 794.000000)">
                <polygon id="Shape" fill="#F0BC5E" points="26.0891866 37.9032258 23.7925359 12.1290323 39.1035407 12.1290323 36.80689 37.9032258"></polygon>
                <path d="M17.668134,14.4032258 L17.668134,11.3709677 L3.88822967,11.3709677 L3.88822967,14.4032258 L2.05090909,15.7677419 C1.28,16.3400806 0.826028708,17.2391452 0.826028708,18.1935484 L0.826028708,43.2096774 C0.826028708,44.8842419 2.19712919,46.2419355 3.88822967,46.2419355 L17.668134,46.2419355 C19.3592344,46.2419355 20.7303349,44.8842419 20.7303349,43.2096774 L20.7303349,18.1935484 C20.7303349,17.2391452 20.2763636,16.3400806 19.5054545,15.7677419 L17.668134,14.4032258 Z" id="Shape"></path>
                <polygon id="Shape" fill="#FFFFFF" points="38.292823 21.2258065 24.6032536 21.2258065 25.4139713 30.3225806 37.4821053 30.3225806"></polygon>
                <rect id="Rectangle-path" fill="#F0BC5E" x="3.88822967" y="11.3709677" width="13.7799043" height="3.03225806"></rect>
                <g id="Group" transform="translate(0.765550, 21.983871)" fill="#FFFFFF">
                    <rect id="Rectangle-path" x="0.0604784689" y="0" width="19.9043062" height="13.6451613"></rect>
                </g>
                <path d="M14.5102392,27.7679032 C14.24,26.9241774 13.4667943,26.3988387 12.6377033,26.4011129 C12.3835407,25.5998387 11.6524402,25.016129 10.7781818,25.016129 C9.90392344,25.016129 9.17282297,25.5998387 8.91866029,26.4011129 C8.08956938,26.3988387 7.31636364,26.9241774 7.0461244,27.7679032 C6.77588517,28.611629 7.09741627,29.4978065 7.76956938,29.9905484 C7.5108134,30.7903065 7.76497608,31.6992258 8.47157895,32.2200161 C9.17894737,32.7415645 10.1083254,32.7059355 10.7781818,32.2086452 C11.4480383,32.7051774 12.3774163,32.7415645 13.0847847,32.2200161 C13.7921531,31.6984677 14.0455502,30.7903065 13.7867943,29.9905484 C14.4597129,29.4978065 14.7804785,28.611629 14.5102392,27.7679032 Z" id="Shape" fill="#F0BC5E"></path>
                <path d="M37.6290909,37.3020806 L39.9395215,11.3709677 L22.956555,11.3709677 L25.2669856,37.3020806 C24.4072727,37.6310806 23.7925359,38.4528226 23.7925359,39.4193548 C23.7925359,40.4063548 24.4348325,41.2402258 25.3236364,41.5540645 L25.3236364,44.7258065 C25.3236364,45.9796452 26.354067,47 27.6202871,47 L35.2757895,47 C36.5420096,47 37.5724402,45.9796452 37.5724402,44.7258065 L37.5724402,41.5540645 C38.461244,41.2402258 39.1035407,40.4063548 39.1035407,39.4193548 C39.1035407,38.4528226 38.4888038,37.6310806 37.6290909,37.3020806 Z M26.7904306,37.1451613 L26.2499522,31.0806452 L36.6461244,31.0806452 L36.1056459,37.1451613 L26.7904306,37.1451613 Z M33.744689,14.4032258 L33.744689,12.8870968 L35.2757895,12.8870968 L35.2757895,14.4032258 L33.744689,14.4032258 Z M32.2135885,14.4032258 L30.682488,14.4032258 L30.682488,12.8870968 L32.2135885,12.8870968 L32.2135885,14.4032258 Z M29.1513876,14.4032258 L27.6202871,14.4032258 L27.6202871,12.8870968 L29.1513876,12.8870968 L29.1513876,14.4032258 Z M37.9973206,15.9193548 L37.5724402,20.6860645 L37.5724402,20.4677419 L25.3236364,20.4677419 L25.3236364,20.6860645 L24.898756,15.9193548 L37.9973206,15.9193548 Z M37.4568421,21.983871 L36.7816268,29.5645161 L26.1144498,29.5645161 L25.4392344,21.983871 L37.4568421,21.983871 Z M38.1320574,14.4032258 L36.80689,14.4032258 L36.80689,12.8870968 L38.2675598,12.8870968 L38.1320574,14.4032258 Z M26.0891866,12.8870968 L26.0891866,14.4032258 L24.7640191,14.4032258 L24.6292823,12.8870968 L26.0891866,12.8870968 Z M35.2757895,45.483871 L27.6202871,45.483871 C27.1984689,45.483871 26.8547368,45.1435 26.8547368,44.7258065 L26.8547368,41.6935484 L28.4945455,41.6935484 C28.8367464,42.9974194 30.0256459,43.9677419 31.4480383,43.9677419 C32.8704306,43.9677419 34.0593301,42.9974194 34.4015311,41.6935484 L36.0413397,41.6935484 L36.0413397,44.7258065 C36.0413397,45.1435 35.6976077,45.483871 35.2757895,45.483871 Z M30.1297608,41.6935484 L32.7663158,41.6935484 C32.5006699,42.1445968 32.0122488,42.4516129 31.4480383,42.4516129 C30.8838278,42.4516129 30.3954067,42.1445968 30.1297608,41.6935484 Z M36.80689,40.1774194 L26.0891866,40.1774194 C25.6673684,40.1774194 25.3236364,39.8370484 25.3236364,39.4193548 C25.3236364,39.0016613 25.6673684,38.6612903 26.0891866,38.6612903 L36.80689,38.6612903 C37.2287081,38.6612903 37.5724402,39.0016613 37.5724402,39.4193548 C37.5724402,39.8370484 37.2287081,40.1774194 36.80689,40.1774194 Z" id="Shape" fill="#000000"></path>
                <rect id="Rectangle-path" fill="#000000" x="28.3858373" y="23.5" width="6.12440191" height="1.51612903"></rect>
                <rect id="Rectangle-path" fill="#000000" x="28.3858373" y="26.5322581" width="6.12440191" height="1.51612903"></rect>
                <path d="M19.9647847,15.1612903 L18.4336842,14.0241935 L18.4336842,10.6129032 L13.0748325,10.6129032 L13.0748325,6.06451613 L16.1370335,6.06451613 L16.1370335,0 L9.10851675,0 L2.35712919,2.50691935 L2.35712919,6.06451613 L8.4815311,6.06451613 L8.4815311,10.6129032 L3.12267943,10.6129032 L3.12267943,14.0241935 L1.59157895,15.1612903 C0.633110048,15.8731129 0.0604784689,17.0071774 0.0604784689,18.1935484 L0.0604784689,43.2096774 C0.0604784689,45.2996613 1.77760766,47 3.88822967,47 L17.668134,47 C19.778756,47 21.4958852,45.2996613 21.4958852,43.2096774 L21.4958852,18.1935484 C21.4958852,17.0071774 20.9232536,15.8731129 19.9647847,15.1612903 Z M3.88822967,3.55759677 L9.38564593,1.51612903 L14.605933,1.51612903 L14.605933,4.5483871 L3.88822967,4.5483871 L3.88822967,3.55759677 Z M10.0126316,6.06451613 L11.5437321,6.06451613 L11.5437321,10.6129032 L10.0126316,10.6129032 L10.0126316,6.06451613 Z M16.9025837,12.1290323 L16.9025837,13.6451613 L4.6537799,13.6451613 L4.6537799,12.1290323 L16.9025837,12.1290323 Z M2.51023923,16.3741935 L4.14315789,15.1612903 L17.4124402,15.1612903 L19.0453589,16.3741935 C19.6202871,16.8009839 19.9640191,17.4817258 19.9640191,18.1935484 L19.9640191,21.2258065 L1.59157895,21.2258065 L1.59157895,18.1935484 C1.59157895,17.4817258 1.935311,16.8009839 2.51023923,16.3741935 Z M19.9647847,22.7419355 L19.9647847,34.8709677 L1.59157895,34.8709677 L1.59157895,22.7419355 L19.9647847,22.7419355 Z M17.668134,45.483871 L3.88822967,45.483871 C2.62200957,45.483871 1.59157895,44.4635161 1.59157895,43.2096774 L1.59157895,36.3870968 L19.9647847,36.3870968 L19.9647847,43.2096774 C19.9647847,44.4635161 18.9343541,45.483871 17.668134,45.483871 Z" id="Shape" fill="#000000"></path>
                <path d="M8.01454545,32.8287419 C8.82985646,33.4298871 9.88708134,33.5178226 10.7781818,33.0925484 C11.147177,33.2684194 11.5452632,33.3571129 11.9425837,33.3571129 C12.5037321,33.3571129 13.0641148,33.1812419 13.5418182,32.8287419 C14.354067,32.229871 14.757512,31.2413548 14.628134,30.2581452 C15.3018182,29.5387419 15.5483254,28.5024677 15.2398086,27.5389677 C14.9305263,26.5731935 14.1297608,25.8788065 13.1651675,25.6930806 C12.6943541,24.8175161 11.7894737,24.2580645 10.7781818,24.2580645 C9.76688995,24.2580645 8.86200957,24.8175161 8.39119617,25.6930806 C7.42583732,25.8788065 6.62507177,26.5739516 6.31655502,27.5389677 C6.00803828,28.5024677 6.2537799,29.5387419 6.92822967,30.2581452 C6.79885167,31.2413548 7.20229665,32.229871 8.01454545,32.8287419 Z M7.77569378,27.9968387 C7.93645933,27.495 8.39272727,27.1591774 8.91177033,27.1591774 C8.91330144,27.1591774 8.91406699,27.1591774 8.91559809,27.1591774 L9.47980861,27.1606935 L9.64822967,26.6277742 C9.81052632,26.1175968 10.2644976,25.7741935 10.7781818,25.7741935 C11.291866,25.7741935 11.7458373,26.1175968 11.9073684,26.6277742 L12.0757895,27.1606935 L12.64,27.1591774 C12.6415311,27.1591774 12.6422967,27.1591774 12.6438278,27.1591774 C13.1628708,27.1591774 13.6191388,27.495 13.7799043,27.9968387 C13.9437321,28.5085323 13.7638278,29.0641935 13.3312919,29.3810645 L12.8895694,29.704 L13.0572249,30.2217581 C13.2248804,30.7402742 13.051866,31.2989677 12.6269856,31.6120484 C12.212823,31.9160323 11.6547368,31.913 11.2367464,31.6021935 L10.7781818,31.2618226 L10.3188517,31.6021935 C9.90009569,31.913 9.34124402,31.9160323 8.92861244,31.6120484 C8.50373206,31.2989677 8.3307177,30.7402742 8.49837321,30.2217581 L8.66602871,29.704 L8.22430622,29.3810645 C7.79253589,29.0641935 7.61186603,28.5085323 7.77569378,27.9968387 Z" id="Shape" fill="#000000"></path>
                <rect id="Rectangle-path" fill="#000000" x="16.9025837" y="24.2580645" width="1.53110048" height="1.51612903"></rect>
                <rect id="Rectangle-path" fill="#000000" x="16.9025837" y="31.8387097" width="1.53110048" height="1.51612903"></rect>
                <rect id="Rectangle-path" fill="#000000" x="3.12267943" y="31.8387097" width="1.53110048" height="1.51612903"></rect>
                <rect id="Rectangle-path" fill="#000000" x="3.12267943" y="24.2580645" width="1.53110048" height="1.51612903"></rect>
                <rect id="Rectangle-path" fill="#000000" x="10.0126316" y="28.0483871" width="1.53110048" height="1.51612903"></rect>
            </g>
        </g>
    </g>
</svg>