<?xml version="1.0" encoding="UTF-8"?>
<svg width="152px" height="179px" viewBox="0 0 152 179" version="1.1" xmlns="http://www.w3.org/2000/svg" xmlns:xlink="http://www.w3.org/1999/xlink">
    <!-- Generator: sketchtool 50.2 (55047) - http://www.bohemiancoding.com/sketch -->
    <title>2AC43959-89F2-4B68-A3D5-A0F2BEC65E6F</title>
    <desc>Created with sketchtool.</desc>
    <defs></defs>
    <g id="Visuals-Homepage-v2" stroke="none" stroke-width="1" fill="none" fill-rule="evenodd" opacity="0.300000012">
        <g id="Home-page-alternative-data-panel" transform="translate(-1838.000000, -802.000000)" fill-rule="nonzero">
            <g id="cream-copy" transform="translate(1838.000000, 802.000000)">
                <path d="M68.1076923,53.4847364 L68.1076923,41.893617 L15.4923077,41.893617 L15.4923077,53.4847364 L8.47692308,58.7007401 C5.53338462,60.8885638 3.8,64.3253307 3.8,67.9736355 L3.8,163.60037 C3.8,170.001566 9.03523077,175.191489 15.4923077,175.191489 L68.1076923,175.191489 C74.5647692,175.191489 79.8,170.001566 79.8,163.60037 L79.8,67.9736355 C79.8,64.3253307 78.0666154,60.8885638 75.1230769,58.7007401 L68.1076923,53.4847364 Z" id="Shape"></path>
                <path d="M143.211558,141.680809 L152,41.893617 L87.4,41.893617 L96.1884421,141.680809 C92.9182564,142.946856 90.5799135,146.109054 90.5799135,149.828429 C90.5799135,153.626568 93.0230887,156.83544 96.4039308,158.043144 L96.4039308,170.248529 C96.4039308,175.073507 100.323494,179 105.139957,179 L134.260043,179 C139.076506,179 142.996069,175.073507 142.996069,170.248529 L142.996069,158.043144 C146.376911,156.83544 148.820087,153.626568 148.820087,149.828429 C148.820087,146.109054 146.481744,142.946856 143.211558,141.680809 Z M101.983339,141.076958 L99.9274612,117.739701 L139.472539,117.739701 L137.416661,141.076958 L101.983339,141.076958 Z M128.436026,53.5622454 L128.436026,47.7279312 L134.260043,47.7279312 L134.260043,53.5622454 L128.436026,53.5622454 Z M122.612009,53.5622454 L116.787991,53.5622454 L116.787991,47.7279312 L122.612009,47.7279312 L122.612009,53.5622454 Z M110.963974,53.5622454 L105.139957,53.5622454 L105.139957,47.7279312 L110.963974,47.7279312 L110.963974,53.5622454 Z M144.612234,59.3965595 L142.996069,77.7396433 L142.996069,76.899502 L96.4039308,76.899502 L96.4039308,77.7396433 L94.787766,59.3965595 L144.612234,59.3965595 Z M142.556356,82.7338162 L139.987964,111.905387 L99.4120357,111.905387 L96.8436441,82.7338162 L142.556356,82.7338162 Z M145.124748,53.5622454 L140.084061,53.5622454 L140.084061,47.7279312 L145.640173,47.7279312 L145.124748,53.5622454 Z M99.3159394,47.7279312 L99.3159394,53.5622454 L94.2752524,53.5622454 L93.7627389,47.7279312 L99.3159394,47.7279312 Z M134.260043,173.165686 L105.139957,173.165686 C103.53544,173.165686 102.227948,171.855882 102.227948,170.248529 L102.227948,158.5799 L108.465471,158.5799 C109.767138,163.597411 114.289488,167.331372 119.7,167.331372 C125.110512,167.331372 129.632862,163.597411 130.934529,158.5799 L137.172052,158.5799 L137.172052,170.248529 C137.172052,171.855882 135.86456,173.165686 134.260043,173.165686 Z M114.685521,158.5799 L124.714479,158.5799 C123.704012,160.315609 121.84615,161.497057 119.7,161.497057 C117.55385,161.497057 115.695988,160.315609 114.685521,158.5799 Z M140.084061,152.745586 L99.3159394,152.745586 C97.7114226,152.745586 96.4039308,151.435783 96.4039308,149.828429 C96.4039308,148.221076 97.7114226,146.911272 99.3159394,146.911272 L140.084061,146.911272 C141.688577,146.911272 142.996069,148.221076 142.996069,149.828429 C142.996069,151.435783 141.688577,152.745586 140.084061,152.745586 Z" id="Shape" fill="#FFFFFF"></path>
                <rect id="Rectangle-path" fill="#FFFFFF" x="106.4" y="87.5957447" width="26.6" height="7.61702128"></rect>
                <rect id="Rectangle-path" fill="#FFFFFF" x="106.4" y="99.0212766" width="26.6" height="7.61702128"></rect>
                <path d="M74.1,57.7419355 L68.4,53.4112903 L68.4,40.4193548 L48.45,40.4193548 L48.45,23.0967742 L59.85,23.0967742 L59.85,0 L33.68415,0 L8.55,9.54762903 L8.55,23.0967742 L31.35,23.0967742 L31.35,40.4193548 L11.4,40.4193548 L11.4,53.4112903 L5.7,57.7419355 C2.1318,60.4529194 0,64.7720161 0,69.2903226 L0,164.564516 C0,172.524242 6.39255,179 14.25,179 L65.55,179 C73.40745,179 79.8,172.524242 79.8,164.564516 L79.8,69.2903226 C79.8,64.7720161 77.6682,60.4529194 74.1,57.7419355 Z M14.25,13.5491452 L34.71585,5.77419355 L54.15,5.77419355 L54.15,17.3225806 L14.25,17.3225806 L14.25,13.5491452 Z M37.05,23.0967742 L42.75,23.0967742 L42.75,40.4193548 L37.05,40.4193548 L37.05,23.0967742 Z M62.7,46.1935484 L62.7,51.9677419 L17.1,51.9677419 L17.1,46.1935484 L62.7,46.1935484 Z M9.12,62.3612903 L15.19905,57.7419355 L64.5981,57.7419355 L70.67715,62.3612903 C72.8175,63.9867258 74.09715,66.5793387 74.09715,69.2903226 L74.09715,80.8387097 L5.7,80.8387097 L5.7,69.2903226 C5.7,66.5793387 6.97965,63.9867258 9.12,62.3612903 Z M74.1,86.6129032 L74.1,132.806452 L5.7,132.806452 L5.7,86.6129032 L74.1,86.6129032 Z M65.55,173.225806 L14.25,173.225806 C9.5361,173.225806 5.7,169.339774 5.7,164.564516 L5.7,138.580645 L74.1,138.580645 L74.1,164.564516 C74.1,169.339774 70.2639,173.225806 65.55,173.225806 Z" id="Shape" fill="#FFFFFF"></path>
                <path d="M31.5115239,123.69045 C34.5468412,125.954995 38.4827784,126.286253 41.8002519,124.684223 C43.1739823,125.346738 44.6560151,125.680851 46.1351979,125.680851 C48.2242942,125.680851 50.3105404,125.018336 52.0889798,123.69045 C55.1128968,121.434471 56.6148801,117.710679 56.1332194,114.006876 C58.641275,111.296846 59.5589953,107.393146 58.4104199,103.763591 C57.2589944,100.125469 54.2778283,97.5096758 50.6867488,96.8100369 C48.9339599,93.5117391 45.5651853,91.4042553 41.8002519,91.4042553 C38.0353185,91.4042553 34.6665438,93.5117391 32.913755,96.8100369 C29.3198254,97.5096758 26.3386593,100.128324 25.1900839,103.763591 C24.0415084,107.393146 24.9563787,111.296846 27.4672843,114.006876 C26.9856236,117.710679 28.4876069,121.434471 31.5115239,123.69045 Z M30.6223042,105.488415 C31.2208175,103.597962 32.9194551,102.332901 34.8517979,102.332901 C34.857498,102.332901 34.8603481,102.332901 34.8660482,102.332901 L36.9665448,102.338612 L37.5935587,100.331077 C38.1977721,98.4092115 39.8878595,97.1155934 41.8002519,97.1155934 C43.7126442,97.1155934 45.4027317,98.4092115 46.004095,100.331077 L46.6311089,102.338612 L48.7316054,102.332901 C48.7373056,102.332901 48.7401556,102.332901 48.7458557,102.332901 C50.6781986,102.332901 52.3768362,103.597962 52.9753495,105.488415 C53.585263,107.415992 52.9154981,109.509197 51.3052125,110.702867 L49.660726,111.919382 L50.2848898,113.869804 C50.9090537,115.823081 50.2649394,117.92771 48.6831544,119.107101 C47.1412702,120.252224 45.0635742,120.240802 43.5074397,119.069977 L41.8002519,117.787782 L40.090214,119.069977 C38.5312294,120.240802 36.4506833,120.252224 34.9144993,119.107101 C33.3327143,117.92771 32.6886,115.823081 33.3127638,113.869804 L33.9369277,111.919382 L32.2924412,110.702867 C30.6850056,109.509197 30.0123907,107.415992 30.6223042,105.488415 Z" id="Shape" fill="#FFFFFF"></path>
                <rect id="Rectangle-path" fill="#FFFFFF" x="64.6" y="91.4042553" width="7.6" height="7.61702128"></rect>
                <rect id="Rectangle-path" fill="#FFFFFF" x="64.6" y="121.87234" width="7.6" height="7.61702128"></rect>
                <rect id="Rectangle-path" fill="#FFFFFF" x="11.4" y="121.87234" width="7.6" height="7.61702128"></rect>
                <rect id="Rectangle-path" fill="#FFFFFF" x="11.4" y="91.4042553" width="7.6" height="7.61702128"></rect>
                <rect id="Rectangle-path" fill="#FFFFFF" x="38" y="106.638298" width="7.6" height="7.61702128"></rect>
            </g>
        </g>
    </g>
</svg>