<?xml version="1.0" encoding="UTF-8"?>
<svg width="152px" height="152px" viewBox="0 0 152 152" version="1.1" xmlns="http://www.w3.org/2000/svg" xmlns:xlink="http://www.w3.org/1999/xlink">
    <!-- Generator: sketchtool 50.2 (55047) - http://www.bohemiancoding.com/sketch -->
    <title>734A6A91-130B-443F-8681-197B7F1FA396</title>
    <desc>Created with sketchtool.</desc>
    <defs></defs>
    <g id="Visuals-Homepage-v2" stroke="none" stroke-width="1" fill="none" fill-rule="evenodd" opacity="0.300000012">
        <g id="Home-page-alternative-data-panel" transform="translate(-3226.000000, -803.000000)" fill="#FFFFFF" fill-rule="nonzero">
            <g id="document-copy-2" transform="translate(3226.000000, 803.000000)">
                <path d="M132.387097,63.7419355 C135.091226,63.7419355 137.290323,65.9410323 137.290323,68.6451613 L142.193548,68.6451613 C142.193548,64.0876129 139.055484,60.2827097 134.83871,59.1868387 L134.83871,53.9354839 L129.935484,53.9354839 L129.935484,59.1868387 C125.71871,60.2827097 122.580645,64.0876129 122.580645,68.6451613 C122.580645,74.0534194 126.978839,78.4516129 132.387097,78.4516129 C135.091226,78.4516129 137.290323,80.6507097 137.290323,83.3548387 C137.290323,86.0589677 135.091226,88.2580645 132.387097,88.2580645 C129.682968,88.2580645 127.483871,86.0589677 127.483871,83.3548387 L122.580645,83.3548387 C122.580645,87.9123871 125.71871,91.7172903 129.935484,92.8131613 L129.935484,98.0645161 L134.83871,98.0645161 L134.83871,92.8131613 C139.055484,91.7172903 142.193548,87.9123871 142.193548,83.3548387 C142.193548,77.9465806 137.795355,73.5483871 132.387097,73.5483871 C129.682968,73.5483871 127.483871,71.3492903 127.483871,68.6451613 C127.483871,65.9410323 129.682968,63.7419355 132.387097,63.7419355 Z" id="Shape"></path>
                <path d="M121.016516,0 L34.3225806,0 L34.3225806,53.9354839 L12.2580645,53.9354839 C5.49896774,53.9354839 0,59.4344516 0,66.1935484 C0,72.9526452 5.49896774,78.4516129 12.2580645,78.4516129 L20.064,78.4516129 C19.7894194,79.2214194 19.6129032,80.0402581 19.6129032,80.9032258 C19.6129032,84.9581935 22.9127742,88.2580645 26.9677419,88.2580645 L34.3225806,88.2580645 L34.3225806,152 L152,152 L152,25.8179355 L121.016516,0 Z M122.580645,7.68580645 L142.777032,24.516129 L122.580645,24.516129 L122.580645,7.68580645 Z M100.516129,60.6112258 L110.283355,66.1935484 L100.516129,71.775871 L100.516129,60.6112258 Z M95.6129032,73.5483871 L90.7096774,73.5483871 L90.7096774,58.8387097 L95.6129032,58.8387097 L95.6129032,73.5483871 Z M85.8064516,73.5483871 L29.4193548,73.5483871 L29.4193548,58.8387097 L85.8064516,58.8387097 L85.8064516,73.5483871 Z M4.90322581,66.1935484 C4.90322581,62.1385806 8.20309677,58.8387097 12.2580645,58.8387097 L24.516129,58.8387097 L24.516129,73.5483871 L12.2580645,73.5483871 C8.20309677,73.5483871 4.90322581,70.2485161 4.90322581,66.1935484 Z M39.2258065,147.096774 L39.2258065,88.2580645 L61.2903226,88.2580645 L61.2903226,83.3548387 L26.9677419,83.3548387 C25.6169032,83.3548387 24.516129,82.2565161 24.516129,80.9032258 C24.516129,79.5499355 25.6169032,78.4516129 26.9677419,78.4516129 L98.7166452,78.4516129 L120.168258,66.1935484 L98.7166452,53.9354839 L39.2258065,53.9354839 L39.2258065,4.90322581 L117.677419,4.90322581 L117.677419,29.4193548 L147.096774,29.4193548 L147.096774,147.096774 L39.2258065,147.096774 Z" id="Shape"></path>
                <rect id="Rectangle-path" x="53.9354839" y="19.6129032" width="4.90322581" height="4.90322581"></rect>
                <rect id="Rectangle-path" x="63.7419355" y="19.6129032" width="4.90322581" height="4.90322581"></rect>
                <rect id="Rectangle-path" x="73.5483871" y="19.6129032" width="4.90322581" height="4.90322581"></rect>
                <rect id="Rectangle-path" x="83.3548387" y="19.6129032" width="4.90322581" height="4.90322581"></rect>
                <rect id="Rectangle-path" x="93.1612903" y="19.6129032" width="4.90322581" height="4.90322581"></rect>
                <rect id="Rectangle-path" x="44.1290323" y="102.967742" width="98.0645161" height="4.90322581"></rect>
                <rect id="Rectangle-path" x="44.1290323" y="112.774194" width="44.1290323" height="4.90322581"></rect>
                <rect id="Rectangle-path" x="44.1290323" y="122.580645" width="44.1290323" height="4.90322581"></rect>
                <rect id="Rectangle-path" x="44.1290323" y="132.387097" width="44.1290323" height="4.90322581"></rect>
            </g>
        </g>
    </g>
</svg>