<?xml version="1.0" encoding="UTF-8"?>
<svg width="40px" height="40px" viewBox="0 0 40 40" version="1.1" xmlns="http://www.w3.org/2000/svg" xmlns:xlink="http://www.w3.org/1999/xlink">
    <!-- Generator: sketchtool 50.2 (55047) - http://www.bohemiancoding.com/sketch -->
    <title>A72CC683-9124-49A4-8A72-947EAA58DFFB</title>
    <desc>Created with sketchtool.</desc>
    <defs></defs>
    <g id="Visuals-Homepage-v2" stroke="none" stroke-width="1" fill="none" fill-rule="evenodd">
        <g id="Home-page-alternative-data-panel" transform="translate(-3114.000000, -799.000000)" fill-rule="nonzero">
            <g id="document-copy" transform="translate(3114.000000, 799.000000)">
                <g id="Group" transform="translate(11.612903, 2.580645)" fill="#F0BC5E">
                    <polygon id="Shape" points="16.7741935 6.4516129 0 6.4516129 0 0 16.7741935 0"></polygon>
                    <polygon id="Shape" points="25.8064516 34.8387097 12.9032258 34.8387097 12.9032258 27.0967742 25.8064516 27.0967742"></polygon>
                </g>
                <path d="M34.8387097,16.7741935 C35.5503226,16.7741935 36.1290323,17.3529032 36.1290323,18.0645161 L37.4193548,18.0645161 C37.4193548,16.8651613 36.5935484,15.863871 35.483871,15.5754839 L35.483871,14.1935484 L34.1935484,14.1935484 L34.1935484,15.5754839 C33.083871,15.863871 32.2580645,16.8651613 32.2580645,18.0645161 C32.2580645,19.4877419 33.4154839,20.6451613 34.8387097,20.6451613 C35.5503226,20.6451613 36.1290323,21.223871 36.1290323,21.9354839 C36.1290323,22.6470968 35.5503226,23.2258065 34.8387097,23.2258065 C34.1270968,23.2258065 33.5483871,22.6470968 33.5483871,21.9354839 L32.2580645,21.9354839 C32.2580645,23.1348387 33.083871,24.136129 34.1935484,24.4245161 L34.1935484,25.8064516 L35.483871,25.8064516 L35.483871,24.4245161 C36.5935484,24.136129 37.4193548,23.1348387 37.4193548,21.9354839 C37.4193548,20.5122581 36.2619355,19.3548387 34.8387097,19.3548387 C34.1270968,19.3548387 33.5483871,18.776129 33.5483871,18.0645161 C33.5483871,17.3529032 34.1270968,16.7741935 34.8387097,16.7741935 Z" id="Shape" fill="#000000"></path>
                <path d="M31.8464516,0 L9.03225806,0 L9.03225806,14.1935484 L3.22580645,14.1935484 C1.44709677,14.1935484 0,15.6406452 0,17.4193548 C0,19.1980645 1.44709677,20.6451613 3.22580645,20.6451613 L5.28,20.6451613 C5.20774194,20.8477419 5.16129032,21.0632258 5.16129032,21.2903226 C5.16129032,22.3574194 6.02967742,23.2258065 7.09677419,23.2258065 L9.03225806,23.2258065 L9.03225806,40 L40,40 L40,6.79419355 L31.8464516,0 Z M32.2580645,2.02258065 L37.5729032,6.4516129 L32.2580645,6.4516129 L32.2580645,2.02258065 Z M26.4516129,15.9503226 L29.0219355,17.4193548 L26.4516129,18.8883871 L26.4516129,15.9503226 Z M25.1612903,19.3548387 L23.8709677,19.3548387 L23.8709677,15.483871 L25.1612903,15.483871 L25.1612903,19.3548387 Z M22.5806452,19.3548387 L7.74193548,19.3548387 L7.74193548,15.483871 L22.5806452,15.483871 L22.5806452,19.3548387 Z M1.29032258,17.4193548 C1.29032258,16.3522581 2.15870968,15.483871 3.22580645,15.483871 L6.4516129,15.483871 L6.4516129,19.3548387 L3.22580645,19.3548387 C2.15870968,19.3548387 1.29032258,18.4864516 1.29032258,17.4193548 Z M10.3225806,38.7096774 L10.3225806,23.2258065 L16.1290323,23.2258065 L16.1290323,21.9354839 L7.09677419,21.9354839 C6.74129032,21.9354839 6.4516129,21.6464516 6.4516129,21.2903226 C6.4516129,20.9341935 6.74129032,20.6451613 7.09677419,20.6451613 L25.9780645,20.6451613 L31.6232258,17.4193548 L25.9780645,14.1935484 L10.3225806,14.1935484 L10.3225806,1.29032258 L30.9677419,1.29032258 L30.9677419,7.74193548 L38.7096774,7.74193548 L38.7096774,38.7096774 L10.3225806,38.7096774 Z" id="Shape" fill="#000000"></path>
                <rect id="Rectangle-path" fill="#000000" x="14.1935484" y="5.16129032" width="1.29032258" height="1.29032258"></rect>
                <rect id="Rectangle-path" fill="#000000" x="16.7741935" y="5.16129032" width="1.29032258" height="1.29032258"></rect>
                <rect id="Rectangle-path" fill="#000000" x="19.3548387" y="5.16129032" width="1.29032258" height="1.29032258"></rect>
                <rect id="Rectangle-path" fill="#000000" x="21.9354839" y="5.16129032" width="1.29032258" height="1.29032258"></rect>
                <rect id="Rectangle-path" fill="#000000" x="24.516129" y="5.16129032" width="1.29032258" height="1.29032258"></rect>
                <rect id="Rectangle-path" fill="#000000" x="11.6129032" y="27.0967742" width="25.8064516" height="1.29032258"></rect>
                <rect id="Rectangle-path" fill="#000000" x="11.6129032" y="29.6774194" width="11.6129032" height="1.29032258"></rect>
                <rect id="Rectangle-path" fill="#000000" x="11.6129032" y="32.2580645" width="11.6129032" height="1.29032258"></rect>
                <rect id="Rectangle-path" fill="#000000" x="11.6129032" y="34.8387097" width="11.6129032" height="1.29032258"></rect>
            </g>
        </g>
    </g>
</svg>