<?xml version="1.0" encoding="UTF-8"?>
<svg width="111px" height="157px" viewBox="0 0 111 157" version="1.1" xmlns="http://www.w3.org/2000/svg" xmlns:xlink="http://www.w3.org/1999/xlink">
    <!-- Generator: sketchtool 50.2 (55047) - http://www.bohemiancoding.com/sketch -->
    <title>7A50A2C8-C472-4600-B75D-BC24A226B417</title>
    <desc>Created with sketchtool.</desc>
    <defs></defs>
    <g id="Visuals-Homepage-v2" stroke="none" stroke-width="1" fill="none" fill-rule="evenodd" opacity="0.200000003">
        <g id="Home-page-alternative-data-panel" transform="translate(-2192.000000, -802.000000)" fill="#FFFFFF" fill-rule="nonzero">
            <g id="Group-27" transform="translate(2192.000000, 802.000000)">
                <g id="Group-2-Copy-2">
                    <g id="washing-machine-(1)">
                        <g id="Group-29">
                            <path d="M55.5524653,52.5 C76.5131802,52.5 93.5,69.5638424 93.5,90.6082629 C93.5,111.652683 76.5131802,128.716526 55.5524653,128.716526 C34.5917504,128.716526 17.6049306,111.652683 17.6049306,90.6082629 C17.6049306,69.5638424 34.5917504,52.5 55.5524653,52.5 Z M55.5524653,57.5 C37.3582504,57.5 22.6049306,72.3202152 22.6049306,90.6082629 C22.6049306,108.896311 37.3582504,123.716526 55.5524653,123.716526 C73.7466802,123.716526 88.5,108.896311 88.5,90.6082629 C88.5,72.3202152 73.7466802,57.5 55.5524653,57.5 Z M55.5524653,113.243507 C67.9874984,113.243507 78.0742545,103.111015 78.0742545,90.6082629 C78.0742545,78.1055106 67.9874984,67.9730185 55.5524653,67.9730185 C43.1174322,67.9730185 33.0306761,78.1055106 33.0306761,90.6082629 C33.0306761,103.111015 43.1174322,113.243507 55.5524653,113.243507 Z M55.5524653,118.243507 C40.3509322,118.243507 28.0306761,105.867388 28.0306761,90.6082629 C28.0306761,75.3491378 40.3509322,62.9730185 55.5524653,62.9730185 C70.7539984,62.9730185 83.0742545,75.3491378 83.0742545,90.6082629 C83.0742545,105.867388 70.7539984,118.243507 55.5524653,118.243507 Z" id="Shape"></path>
                            <g id="Group">
                                <path d="M105.46838,0 L5.02230382,0 C2.25250327,0 0,2.26271669 0,5.04507624 L0,156.397363 L110.490684,156.397363 L110.490684,5.04507624 C110.490684,2.26271669 108.238181,0 105.46838,0 Z M105.46838,5.04507624 L105.46838,35.3155337 L5.02230382,35.3155337 L5.02230382,5.04507624 L105.46838,5.04507624 Z M5.02230382,151.352287 L5.02230382,40.3606099 L105.46838,40.3606099 L105.46838,151.352287 L5.02230382,151.352287 Z" id="Shape"></path>
                                <path d="M100.446076,10.0901525 L65.2899497,10.0901525 L65.2899497,30.2704574 L100.446076,30.2704574 L100.446076,10.0901525 Z M95.4237727,25.2253812 L70.3122535,25.2253812 L70.3122535,15.1352287 L95.4237727,15.1352287 L95.4237727,25.2253812 Z" id="Shape"></path>
                                <path d="M50.2230382,30.2704574 C55.7626394,30.2704574 60.2676459,25.7450241 60.2676459,20.180305 C60.2676459,14.6155859 55.7626394,10.0901525 50.2230382,10.0901525 C44.6834371,10.0901525 40.1784306,14.6155859 40.1784306,20.180305 C40.1784306,25.7450241 44.6834371,30.2704574 50.2230382,30.2704574 Z M50.2230382,15.1352287 C52.9928388,15.1352287 55.2453421,17.3979454 55.2453421,20.180305 C55.2453421,22.9626645 52.9928388,25.2253812 50.2230382,25.2253812 C47.4532377,25.2253812 45.2007344,22.9626645 45.2007344,20.180305 C45.2007344,17.3979454 47.4532377,15.1352287 50.2230382,15.1352287 Z" id="Shape"></path>
                                <rect id="Rectangle-path" x="10.0446076" y="12.6126906" width="5.02230382" height="5.04507624"></rect>
                                <rect id="Rectangle-path" x="20.0892153" y="12.6126906" width="5.02230382" height="5.04507624"></rect>
                                <rect id="Rectangle-path" x="30.1338229" y="12.6126906" width="5.02230382" height="5.04507624"></rect>
                                <rect id="Rectangle-path" x="10.0446076" y="22.7028431" width="5.02230382" height="5.04507624"></rect>
                                <rect id="Rectangle-path" x="20.0892153" y="22.7028431" width="5.02230382" height="5.04507624"></rect>
                                <rect id="Rectangle-path" x="30.1338229" y="22.7028431" width="5.02230382" height="5.04507624"></rect>
                                <rect id="Rectangle-path" x="95.4237727" y="141.262135" width="5.02230382" height="5.04507624"></rect>
                                <rect id="Rectangle-path" x="77.8457093" y="141.262135" width="12.5557596" height="5.04507624"></rect>
                            </g>
                        </g>
                    </g>
                </g>
            </g>
        </g>
    </g>
</svg>