<?xml version="1.0" encoding="UTF-8"?>
<svg width="50px" height="40px" viewBox="0 0 50 40" version="1.1" xmlns="http://www.w3.org/2000/svg" xmlns:xlink="http://www.w3.org/1999/xlink">
    <!-- Generator: sketchtool 50.2 (55047) - http://www.bohemiancoding.com/sketch -->
    <title>646F37F2-5A51-441A-8606-B0273D0635D9</title>
    <desc>Created with sketchtool.</desc>
    <defs></defs>
    <g id="Visuals-Homepage-v2" stroke="none" stroke-width="1" fill="none" fill-rule="evenodd">
        <g id="Home-page-alternative-data-panel" transform="translate(-2047.000000, -798.000000)">
            <g id="Group-2" transform="translate(2047.000000, 798.000000)">
                <g id="washing-machine-(1)" fill-rule="nonzero">
                    <path d="M12.2010399,10.5372617 C6.9939688,10.5372617 2.7729636,14.7582669 2.7729636,19.965338 C2.7729636,25.172409 6.9939688,29.3934142 12.2010399,29.3934142 C17.4081109,29.3934142 21.6291161,25.172409 21.6291161,19.965338 C21.6291161,14.7582669 17.4081109,10.5372617 12.2010399,10.5372617 Z M12.2010399,26.6204506 C8.5257539,26.6204506 5.54592721,23.6406239 5.54592721,19.965338 C5.54592721,16.290052 8.5257539,13.3102253 12.2010399,13.3102253 C15.8763258,13.3102253 18.8561525,16.290052 18.8561525,19.965338 C18.8561525,23.6406239 15.8763258,26.6204506 12.2010399,26.6204506 Z" id="Shape" fill="#A19EFF"></path>
                    <g id="Group" fill="#333333">
                        <path d="M23.2928943,0 L1.10918544,0 C0.497469671,0 0,0.497469671 0,1.10918544 L0,34.3847487 L24.4020797,34.3847487 L24.4020797,1.10918544 C24.4020797,0.497469671 23.9046101,0 23.2928943,0 Z M23.2928943,1.10918544 L23.2928943,7.76429809 L1.10918544,7.76429809 L1.10918544,1.10918544 L23.2928943,1.10918544 Z M1.10918544,33.2755633 L1.10918544,8.87348354 L23.2928943,8.87348354 L23.2928943,33.2755633 L1.10918544,33.2755633 Z" id="Shape"></path>
                        <path d="M19.4107452,19.965338 C19.4107452,15.9900173 16.1763605,12.7556326 12.2010399,12.7556326 C8.22571924,12.7556326 4.99133449,15.9900173 4.99133449,19.965338 C4.99133449,23.9406586 8.22571924,27.1750433 12.2010399,27.1750433 C16.1763605,27.1750433 19.4107452,23.9406586 19.4107452,19.965338 Z M12.2010399,26.0658579 C8.83743501,26.0658579 6.10051993,23.3289428 6.10051993,19.965338 C6.10051993,16.6017331 8.83743501,13.864818 12.2010399,13.864818 C15.5646447,13.864818 18.3015598,16.6017331 18.3015598,19.965338 C18.3015598,23.3289428 15.5646447,26.0658579 12.2010399,26.0658579 Z" id="Shape"></path>
                        <path d="M22.1837088,2.21837088 L14.4194107,2.21837088 L14.4194107,6.65511265 L22.1837088,6.65511265 L22.1837088,2.21837088 Z M21.0745234,5.54592721 L15.5285962,5.54592721 L15.5285962,3.32755633 L21.0745234,3.32755633 L21.0745234,5.54592721 Z" id="Shape"></path>
                        <path d="M11.0918544,6.65511265 C12.315286,6.65511265 13.3102253,5.66017331 13.3102253,4.43674177 C13.3102253,3.21331023 12.315286,2.21837088 11.0918544,2.21837088 C9.86842288,2.21837088 8.87348354,3.21331023 8.87348354,4.43674177 C8.87348354,5.66017331 9.86842288,6.65511265 11.0918544,6.65511265 Z M11.0918544,3.32755633 C11.7035702,3.32755633 12.2010399,3.825026 12.2010399,4.43674177 C12.2010399,5.04845754 11.7035702,5.54592721 11.0918544,5.54592721 C10.4801386,5.54592721 9.98266898,5.04845754 9.98266898,4.43674177 C9.98266898,3.825026 10.4801386,3.32755633 11.0918544,3.32755633 Z" id="Shape"></path>
                        <rect id="Rectangle-path" x="2.21837088" y="2.7729636" width="1.10918544" height="1.10918544"></rect>
                        <rect id="Rectangle-path" x="4.43674177" y="2.7729636" width="1.10918544" height="1.10918544"></rect>
                        <rect id="Rectangle-path" x="6.65511265" y="2.7729636" width="1.10918544" height="1.10918544"></rect>
                        <rect id="Rectangle-path" x="2.21837088" y="4.99133449" width="1.10918544" height="1.10918544"></rect>
                        <rect id="Rectangle-path" x="4.43674177" y="4.99133449" width="1.10918544" height="1.10918544"></rect>
                        <rect id="Rectangle-path" x="6.65511265" y="4.99133449" width="1.10918544" height="1.10918544"></rect>
                        <rect id="Rectangle-path" x="21.0745234" y="31.0571924" width="1.10918544" height="1.10918544"></rect>
                        <rect id="Rectangle-path" x="17.1923744" y="31.0571924" width="2.7729636" height="1.10918544"></rect>
                    </g>
                </g>
                <rect id="Rectangle-6" fill="#FFFFFF" x="11" y="10" width="39" height="30"></rect>
                <g id="microwave" transform="translate(14.000000, 12.000000)" fill-rule="nonzero">
                    <path d="M2.7729636,5.54592721 C2.46627383,5.54592721 2.21837088,5.79383016 2.21837088,6.10051993 L2.21837088,21.6291161 C2.21837088,21.9358059 2.46627383,22.1837088 2.7729636,22.1837088 L22.7383016,22.1837088 L22.7383016,21.0745234 L22.7383016,6.65511265 L22.7383016,5.54592721 L2.7729636,5.54592721 Z" id="Shape" fill="#A19EFF"></path>
                    <path d="M32.7209705,0 L1.66377816,0 C0.746481802,0 0,0.746481802 0,1.66377816 L0,22.7383016 C0,23.6555979 0.746481802,24.4020797 1.66377816,24.4020797 L2.89441941,24.4020797 L3.44845754,26.6204506 L7.64228769,26.6204506 L8.19632582,24.4020797 L26.1867591,24.4020797 L26.7407972,26.6204506 L30.9346274,26.6204506 L31.4886655,24.4020797 L32.7209705,24.4020797 C33.6382669,24.4020797 34.3847487,23.6555979 34.3847487,22.7383016 L34.3847487,1.66377816 C34.3847487,0.746481802 33.6382669,0 32.7209705,0 Z M1.10918544,22.7383016 L1.10918544,4.43674177 L22.1837088,4.43674177 L22.1837088,11.0918544 L19.965338,11.0918544 L19.965338,16.6377816 L22.1837088,16.6377816 L22.1837088,23.2928943 L1.66377816,23.2928943 C1.35764298,23.2928943 1.10918544,23.0438821 1.10918544,22.7383016 Z M22.1837088,15.5285962 L21.0745234,15.5285962 L21.0745234,12.2010399 L22.1837088,12.2010399 L22.1837088,15.5285962 Z M6.77656846,25.5112652 L4.31528596,25.5112652 L4.03743501,24.4020797 L7.05386482,24.4020797 L6.77656846,25.5112652 Z M30.0694627,25.5112652 L27.6081802,25.5112652 L27.3303293,24.4020797 L30.3467591,24.4020797 L30.0694627,25.5112652 Z M32.7209705,23.2928943 L23.2928943,23.2928943 L23.2928943,4.43674177 L31.0571924,4.43674177 L31.0571924,3.32755633 L1.10918544,3.32755633 L1.10918544,1.66377816 C1.10918544,1.35819757 1.35764298,1.10918544 1.66377816,1.10918544 L32.7209705,1.10918544 C33.0271057,1.10918544 33.2755633,1.35819757 33.2755633,1.66377816 L33.2755633,3.32755633 L32.1663778,3.32755633 L32.1663778,4.43674177 L33.2755633,4.43674177 L33.2755633,22.7383016 C33.2755633,23.0438821 33.0271057,23.2928943 32.7209705,23.2928943 Z" id="Shape" fill="#000000"></path>
                    <path d="M4.43674177,18.8561525 L18.8561525,18.8561525 L18.8561525,8.87348354 L4.43674177,8.87348354 L4.43674177,18.8561525 Z M5.54592721,9.98266898 L17.7469671,9.98266898 L17.7469671,17.7469671 L5.54592721,17.7469671 L5.54592721,9.98266898 Z" id="Shape" fill="#000000"></path>
                    <path d="M28.2842288,13.3102253 C27.5432929,13.3102253 26.847279,13.5986135 26.3237435,14.122149 C25.2428423,15.2036049 25.2428423,16.962773 26.3237435,18.0436742 C26.847279,18.5677643 27.5432929,18.8561525 28.2842288,18.8561525 C29.0251646,18.8561525 29.7211785,18.5677643 30.244714,18.0442288 C31.3256153,16.962773 31.3256153,15.2036049 30.244714,14.1227036 C29.7211785,13.5986135 29.0251646,13.3102253 28.2842288,13.3102253 Z M27.1079376,14.9063432 C27.4218371,14.5924437 27.8394454,14.4194107 28.2842288,14.4194107 C28.5360139,14.4194107 28.7767071,14.4804159 28.997435,14.5857886 L26.7884922,16.795286 C26.4945581,16.1774697 26.5971577,15.4171231 27.1079376,14.9063432 Z M29.4605199,17.2600347 C28.9691508,17.7514038 28.1932756,17.8528943 27.5771231,17.5750433 L29.7805199,15.3710919 C30.0738995,15.9889081 29.9712998,16.7492548 29.4605199,17.2600347 Z" id="Shape" fill="#000000"></path>
                    <path d="M24.4020797,11.0918544 L32.1663778,11.0918544 L32.1663778,5.54592721 L24.4020797,5.54592721 L24.4020797,11.0918544 Z M25.5112652,6.65511265 L31.0571924,6.65511265 L31.0571924,9.98266898 L25.5112652,9.98266898 L25.5112652,6.65511265 Z" id="Shape" fill="#000000"></path>
                    <rect id="Rectangle-path" fill="#000000" transform="translate(9.428048, 13.863894) rotate(116.565051) translate(-9.428048, -13.863894) " x="6.94805454" y="13.309318" width="4.95998786" height="1.10915172"></rect>
                    <rect id="Rectangle-path" fill="#000000" transform="translate(13.866802, 13.864769) rotate(116.565051) translate(-13.866802, -13.864769) " x="11.3868078" y="13.3101936" width="4.95998786" height="1.10915172"></rect>
                    <rect id="Rectangle-path" fill="#000000" x="31.0571924" y="21.0745234" width="1.10918544" height="1.10918544"></rect>
                    <rect id="Rectangle-path" fill="#000000" x="28.8388215" y="21.0745234" width="1.10918544" height="1.10918544"></rect>
                    <rect id="Rectangle-path" fill="#000000" x="26.6204506" y="21.0745234" width="1.10918544" height="1.10918544"></rect>
                    <rect id="Rectangle-path" fill="#000000" x="24.4020797" y="21.0745234" width="1.10918544" height="1.10918544"></rect>
                </g>
            </g>
        </g>
    </g>
</svg>