<?xml version="1.0" encoding="UTF-8"?>
<svg width="152px" height="152px" viewBox="0 0 152 152" version="1.1" xmlns="http://www.w3.org/2000/svg" xmlns:xlink="http://www.w3.org/1999/xlink">
    <!-- Generator: sketchtool 50.2 (55047) - http://www.bohemiancoding.com/sketch -->
    <title>5AA05663-C335-46EB-97EE-C1FC176ABA5E</title>
    <desc>Created with sketchtool.</desc>
    <defs></defs>
    <g id="Visuals-Homepage-v2" stroke="none" stroke-width="1" fill="none" fill-rule="evenodd" opacity="0.100000001">
        <g id="Home-page-alternative-data-panel" transform="translate(-776.000000, -344.000000)" fill-rule="nonzero">
            <g id="planet-earth-(1)-copy" transform="translate(776.000000, 344.000000)">
                <circle id="Oval" cx="76" cy="76" r="73.7647059"></circle>
                <path d="M95,146.943772 L95,143.185986 C95,141.979239 94.7728955,140.801038 94.3504324,139.705882 C86.1087377,144.652249 76.8853656,147.966263 67.0588235,149.201557 C69.823149,149.536332 72.6167782,149.764706 75.4641311,149.764706 C82.2333097,149.764706 88.7778258,148.768166 95,146.943772 Z" id="Shape" fill="#0FA196"></path>
                <path d="M76,0 C34.0945806,0 0,34.0945806 0,76 C0,117.905419 34.0945806,152 76,152 C117.905419,152 152,117.905419 152,76 C152,34.0945806 117.905419,0 76,0 Z M4.90322581,76 C4.90322581,42.3981935 28.3430968,14.1850323 59.7261935,6.80567742 L63.0849032,10.1643871 C63.5090323,10.5885161 63.7419355,11.1523871 63.7419355,11.7505806 L63.7419355,14.5576774 C63.7419355,15.3348387 63.3472258,16.0458065 62.6852903,16.460129 L47.4877419,25.960129 C45.3842581,27.2766452 44.1290323,29.5419355 44.1290323,32.0769032 C44.1290323,36.0190968 47.3357419,39.2258065 51.2779355,39.2258065 L54.143871,39.2258065 C55.3794839,39.2258065 56.3870968,40.2334194 56.3870968,41.4714839 L56.3870968,50.0619355 C56.3870968,51.4789677 56.8014194,52.851871 57.5883871,54.0261935 L60.9152258,59.0176774 C61.1603871,59.3854194 61.2903226,59.8169032 61.2903226,60.2606452 L61.2903226,63.947871 C61.2903226,65.1859355 60.2827097,66.1935484 59.0446452,66.1935484 L46.3722581,66.1935484 C42.4325161,66.1935484 39.2258065,69.4002581 39.2258065,73.3424516 L39.2258065,82.7787097 C39.2258065,83.3621935 39.2969032,83.948129 39.4390968,84.5144516 L41.6185806,93.2323871 C41.6578065,93.3868387 41.6774194,93.5437419 41.6774194,93.6981935 C41.6774194,94.7548387 40.8193548,95.6129032 39.7627097,95.6129032 L39.2454194,95.6129032 C38.5785806,95.6129032 37.9485161,95.2574194 37.6052903,94.6837419 L32.8908387,86.8263226 C31.6061935,84.6836129 29.2575484,83.3548387 26.7618065,83.3548387 C22.8196129,83.3548387 19.6129032,86.5615484 19.6129032,90.5037419 L19.6129032,93.6687742 C19.6129032,94.2694194 19.38,94.8332903 18.955871,95.2549677 L14.3517419,99.8590968 C13.9276129,100.283226 13.3637419,100.516129 12.7655484,100.516129 L9.26219355,100.516129 C6.44529032,92.8695484 4.90322581,84.6125161 4.90322581,76 Z M93.1612903,144.988387 C87.6623226,146.358839 81.9157419,147.096774 76,147.096774 C61.5060645,147.096774 48.0295484,142.715742 36.7741935,135.238323 L36.7741935,131.249548 C36.7741935,127.822194 39.564129,125.032258 42.9914839,125.032258 C45.9603871,125.032258 48.7552258,123.875097 50.8538065,121.774065 L53.1313548,119.496516 C55.2299355,117.397935 56.3870968,114.605548 56.3870968,111.636645 L56.3870968,106.645161 C56.3870968,104.617677 58.0370323,102.967742 60.0645161,102.967742 C62.092,102.967742 63.7419355,104.617677 63.7419355,106.645161 L63.7419355,115.054194 C63.7419355,117.255742 64.3891613,119.391097 65.6100645,121.222452 L71.3860645,129.888903 C73.4527742,132.990194 76.912,134.841161 80.6384516,134.841161 L84.6689032,134.841161 C86.3286452,134.841161 87.8903226,135.488387 89.0646452,136.66271 L91.3421935,138.940258 C92.5140645,140.109677 93.1612903,141.671355 93.1612903,143.331097 L93.1612903,144.988387 Z M98.0645161,143.573806 L98.0645161,143.331097 C98.0645161,140.362194 96.9073548,137.567355 94.8063226,135.468774 L92.5287742,133.191226 C90.4301935,131.092645 87.6378065,129.935484 84.6689032,129.935484 L80.6384516,129.935484 C78.5545806,129.935484 76.6202581,128.900903 75.4655484,127.167613 L69.6895484,118.501161 C69.0055484,117.476387 68.6451613,116.284903 68.6451613,115.054194 L68.6451613,106.645161 C68.6451613,101.913548 64.796129,98.0645161 60.0645161,98.0645161 C55.3329032,98.0645161 51.483871,101.913548 51.483871,106.645161 L51.483871,111.636645 C51.483871,113.296387 50.8366452,114.858065 49.6623226,116.032387 L47.3847742,118.309935 C46.2129032,119.481806 44.6512258,120.129032 42.9914839,120.129032 C36.86,120.129032 31.8709677,125.118065 31.8709677,131.249548 L31.8709677,131.683484 C23.0966452,124.713548 16.0065806,115.725935 11.3019355,105.419355 L12.7655484,105.419355 C14.6753548,105.419355 16.4699355,104.676516 17.8207742,103.325677 L22.4249032,98.7215484 C23.7732903,97.3707097 24.516129,95.576129 24.516129,93.6687742 L24.516129,90.5037419 C24.516129,89.2656774 25.5237419,88.2580645 26.7618065,88.2580645 C27.5463226,88.2580645 28.2842581,88.6748387 28.6863226,89.3490323 L33.4007742,97.2064516 C34.6265806,99.2486452 36.8649032,100.518581 39.2454194,100.518581 L39.7627097,100.518581 C43.5210323,100.516129 46.5806452,97.4565161 46.5806452,93.6981935 C46.5806452,93.144129 46.512,92.5900645 46.3771613,92.0433548 L44.1952258,83.3205161 C44.1510968,83.144 44.1290323,82.960129 44.1290323,82.7762581 L44.1290323,73.34 C44.1290323,72.1043871 45.1366452,71.0967742 46.3747097,71.0967742 L59.0470968,71.0967742 C62.9868387,71.0967742 66.1935484,67.8900645 66.1935484,63.947871 L66.1935484,60.2606452 C66.1935484,58.8436129 65.7792258,57.4707097 64.9922581,56.2963871 L61.6654194,51.3049032 C61.4202581,50.9371613 61.2903226,50.508129 61.2903226,50.0619355 L61.2903226,41.4714839 C61.2903226,37.5292903 58.0836129,34.3225806 54.1414194,34.3225806 L51.2754839,34.3225806 C50.039871,34.3225806 49.0322581,33.3149677 49.0322581,32.0229677 C49.0322581,31.2458065 49.4269677,30.5348387 50.0889032,30.1205161 L65.2864516,20.6205161 C67.3899355,19.304 68.6451613,17.0387097 68.6451613,14.5576774 L68.6451613,11.7505806 C68.6451613,9.84077419 67.9023226,8.04619355 66.5514839,6.69535484 L65.5340645,5.67793548 C68.9516129,5.17290323 72.4451613,4.90322581 76,4.90322581 C79.3292903,4.90322581 82.5972903,5.15083871 85.8064516,5.59458065 L85.8064516,13.2019355 C85.8064516,16.7371613 82.9307097,19.6129032 79.3954839,19.6129032 C74.8207742,19.6129032 71.0967742,23.3369032 71.0967742,27.9116129 C71.0967742,31.3242581 73.143871,34.3470968 76.3138065,35.6170323 L83.0459355,38.3113548 C83.4332903,38.4658065 83.7103226,38.8016774 83.7936774,39.2110968 L84.7988387,44.232 C84.9557419,45.0263226 84.6125161,45.5950968 84.391871,45.8647742 C84.1687742,46.1295484 83.6784516,46.5806452 82.8694194,46.5806452 C79.0816774,46.5806452 76,49.6623226 76,53.4500645 L76,56.8725161 C76,60.6602581 79.0816774,63.7419355 82.8694194,63.7419355 L87.0322581,63.7419355 C87.7089032,63.7419355 88.2580645,64.2910968 88.2580645,64.9677419 C88.2580645,69.6993548 92.1070968,73.5483871 96.8387097,73.5483871 L98.0645161,73.5483871 C103.472774,73.5483871 107.870968,69.1501935 107.870968,63.7419355 L107.870968,60.0645161 C107.870968,58.0370323 109.520903,56.3870968 111.548387,56.3870968 C113.575871,56.3870968 115.225806,58.0370323 115.225806,60.0645161 L115.225806,69.8709677 C115.225806,77.3067097 109.177677,83.3548387 101.741935,83.3548387 C98.3636129,83.3548387 95.6129032,86.1055484 95.6129032,89.483871 L95.6129032,96.8387097 C95.6129032,97.5153548 95.0637419,98.0645161 94.3870968,98.0645161 C91.0087742,98.0645161 88.2580645,100.815226 88.2580645,104.193548 C88.2580645,110.327484 90.1654194,116.194194 93.7741935,121.156258 L94.4067097,122.024129 C99.1260645,128.513548 106.730968,132.387097 114.755097,132.387097 L119.231742,132.387097 C112.923742,137.236387 105.784645,141.046194 98.0645161,143.573806 Z M124.956258,127.483871 L114.757548,127.483871 C108.297548,127.483871 102.173419,124.365419 98.3734194,119.141032 L97.7409032,118.273161 C94.7450323,114.152 93.1612903,109.285548 93.1612903,104.193548 C93.1612903,103.516903 93.7104516,102.967742 94.3870968,102.967742 C97.7654194,102.967742 100.516129,100.217032 100.516129,96.8387097 L100.516129,89.483871 C100.516129,88.8072258 101.06529,88.2580645 101.741935,88.2580645 C111.881806,88.2580645 120.129032,80.0108387 120.129032,69.8709677 L120.129032,60.0645161 C120.129032,55.3329032 116.28,51.483871 111.548387,51.483871 C106.816774,51.483871 102.967742,55.3329032 102.967742,60.0645161 L102.967742,63.7419355 C102.967742,66.4460645 100.768645,68.6451613 98.0645161,68.6451613 L96.8387097,68.6451613 C94.8112258,68.6451613 93.1612903,66.9952258 93.1612903,64.9677419 C93.1612903,61.5894194 90.4105806,58.8387097 87.0322581,58.8387097 L82.8694194,58.8387097 C81.7858065,58.8387097 80.9032258,57.956129 80.9032258,56.8725161 L80.9032258,53.4500645 C80.9032258,52.3664516 81.7858065,51.483871 82.8694194,51.483871 C84.936129,51.483871 86.8729032,50.5669677 88.1820645,48.9685161 C89.4936774,47.3700645 90.0109677,45.2910968 89.6064516,43.2660645 L88.6012903,38.2476129 C88.1943226,36.2103226 86.7993548,34.5309677 84.8699355,33.7587097 L78.1378065,31.0643871 C76.8384516,30.5446452 76,29.3090323 76,27.9116129 C76,26.0410323 77.5249032,24.516129 79.3954839,24.516129 C85.6348387,24.516129 90.7096774,19.4412903 90.7096774,13.2019355 L90.7096774,6.44283871 C122.87729,13.2387097 147.096774,41.8392258 147.096774,76 C147.096774,96.2429677 138.577419,114.522194 124.956258,127.483871 Z" id="Shape" fill="#FFFFFF"></path>
                <rect id="Rectangle-path" fill="#FFFFFF" x="100.588235" y="26.8235294" width="4.47058824" height="4.47058824"></rect>
                <rect id="Rectangle-path" fill="#FFFFFF" x="125.176471" y="46.9411765" width="4.47058824" height="4.47058824"></rect>
                <rect id="Rectangle-path" fill="#FFFFFF" x="51.4117647" y="129.647059" width="4.47058824" height="4.47058824"></rect>
                <rect id="Rectangle-path" fill="#FFFFFF" x="36.8823529" y="53.6470588" width="4.47058824" height="4.47058824"></rect>
                <rect id="Rectangle-path" fill="#FFFFFF" x="22.3529412" y="39.1176471" width="4.47058824" height="4.47058824"></rect>
                <rect id="Rectangle-path" fill="#FFFFFF" x="14.5294118" y="65.9411765" width="4.47058824" height="4.47058824"></rect>
            </g>
        </g>
    </g>
</svg>