<?xml version="1.0" encoding="UTF-8"?>
<svg width="40px" height="40px" viewBox="0 0 40 40" version="1.1" xmlns="http://www.w3.org/2000/svg" xmlns:xlink="http://www.w3.org/1999/xlink">
    <!-- Generator: sketchtool 50.2 (55047) - http://www.bohemiancoding.com/sketch -->
    <title>53DB7AAD-1E5E-4C44-A3B2-1F145C8ACDD4</title>
    <desc>Created with sketchtool.</desc>
    <defs></defs>
    <g id="Visuals-Homepage-v2" stroke="none" stroke-width="1" fill="none" fill-rule="evenodd">
        <g id="Home-page-alternative-data-panel" transform="translate(-636.000000, -340.000000)" fill-rule="nonzero">
            <g id="planet-earth-(1)" transform="translate(636.000000, 340.000000)">
                <circle id="Oval" cx="20" cy="20" r="19.3548387"></circle>
                <path d="M23.2258065,0.918064516 L23.2258065,3.47419355 C23.2258065,4.76258065 22.1819355,5.80645161 20.8935484,5.80645161 C20.043871,5.80645161 19.3548387,6.49548387 19.3548387,7.34516129 C19.3548387,7.97419355 19.7380645,8.54 20.3219355,8.77419355 L22.0935484,9.48322581 C22.3974194,9.60451613 22.6187097,9.87096774 22.6832258,10.1922581 L22.9477419,11.5135484 C23.0916129,12.2322581 22.5412903,12.9032258 21.8077419,12.9032258 C21.1658065,12.9032258 20.6451613,13.423871 20.6451613,14.0658065 L20.6451613,14.9664516 C20.6451613,15.6083871 21.1658065,16.1290323 21.8077419,16.1290323 L22.9032258,16.1290323 C23.4374194,16.1290323 23.8709677,16.5625806 23.8709677,17.0967742 C23.8709677,17.9877419 24.5929032,18.7096774 25.483871,18.7096774 L25.8064516,18.7096774 C26.8754839,18.7096774 27.7419355,17.8432258 27.7419355,16.7741935 L27.7419355,15.8064516 C27.7419355,14.9154839 28.463871,14.1935484 29.3548387,14.1935484 C30.2458065,14.1935484 30.9677419,14.9154839 30.9677419,15.8064516 L30.9677419,18.3870968 C30.9677419,20.7032258 29.0903226,22.5806452 26.7741935,22.5806452 C26.24,22.5806452 25.8064516,23.0141935 25.8064516,23.5483871 L25.8064516,25.483871 C25.8064516,26.0180645 25.3729032,26.4516129 24.8387097,26.4516129 C24.3045161,26.4516129 23.8709677,26.8851613 23.8709677,27.4193548 C23.8709677,28.8870968 24.336129,30.3167742 25.1993548,31.503871 L25.3658065,31.7329032 C26.4903226,33.2787097 28.2864516,34.1935484 30.1987097,34.1935484 L32.9032258,34.1935484 C32.9954839,34.1870968 33.08,34.1845161 33.1677419,34.18 C36.9716129,30.6458065 39.3548387,25.6025806 39.3548387,20 C39.3548387,10.4103226 32.3787097,2.45419355 23.2258065,0.918064516 Z" id="Shape" fill="#A19EFF"></path>
                <g id="Group" transform="translate(0.645161, 0.967742)" fill="#A19EFF">
                    <path d="M7.45677419,22.2129032 L8.69741935,24.2812903 C8.90516129,24.6270968 9.27935484,24.8387097 9.68258065,24.8387097 L9.81870968,24.8387097 C10.4535484,24.8387097 10.9677419,24.3245161 10.9677419,23.6896774 C10.9677419,23.5954839 10.956129,23.5019355 10.9335484,23.4109677 L10.3593548,21.1148387 C10.3348387,21.0174194 10.3225806,20.9167742 10.3225806,20.8154839 L10.3225806,18.3322581 C10.3225806,17.6503226 10.876129,17.0967742 11.5580645,17.0967742 L14.8929032,17.0967742 C15.5754839,17.0967742 16.1290323,16.5432258 16.1290323,15.8612903 L16.1290323,14.8903226 C16.1290323,14.6464516 16.0567742,14.4077419 15.9212903,14.2051613 L15.0458065,12.8922581 C14.9109677,12.6890323 14.8387097,12.4503226 14.8387097,12.2064516 L14.8387097,9.94516129 C14.8387097,9.26322581 14.2851613,8.70967742 13.6032258,8.70967742 L12.8490323,8.70967742 C12.1664516,8.70967742 11.6129032,8.15612903 11.6129032,7.47419355 L11.6129032,7.45935484 C11.6129032,7.03354839 11.8322581,6.63741935 12.1935484,6.4116129 L16.1935484,3.9116129 C16.5548387,3.68580645 16.7741935,3.28967742 16.7741935,2.86387097 L16.7741935,2.12451613 C16.7741935,1.79677419 16.643871,1.48258065 16.4122581,1.25096774 L15.483871,0.322580645 C15.4587097,0.239354839 15.4425806,0.160645161 15.42,0.0787096774 C6.61741935,1.89677419 0,9.69096774 0,19.0322581 C0,21.5387097 0.481290323,23.9309677 1.3483871,26.1290323 L2.71354839,26.1290323 C3.04129032,26.1290323 3.35548387,25.9987097 3.58709677,25.7670968 L4.79870968,24.5554839 C5.03096774,24.323871 5.16129032,24.0096774 5.16129032,23.6819355 L5.16129032,22.8490323 C5.16129032,22.1664516 5.71483871,21.6129032 6.39677419,21.6129032 C6.83096774,21.6129032 7.23354839,21.8406452 7.45677419,22.2129032 Z" id="Shape"></path>
                    <path d="M24.516129,37.6858065 L24.516129,36.7516129 C24.516129,36.1464516 24.276129,35.5664516 23.8477419,35.1387097 L23.2483871,34.5393548 C22.8206452,34.1109677 22.2406452,33.8709677 21.636129,33.8709677 L20.576129,33.8709677 C19.8135484,33.8709677 19.1012903,33.4896774 18.6780645,32.8554839 L17.1574194,30.5748387 C16.9077419,30.2 16.7741935,29.76 16.7741935,29.3096774 L16.7741935,27.0967742 C16.7741935,26.2058065 16.0522581,25.483871 15.1612903,25.483871 C14.2703226,25.483871 13.5483871,26.2058065 13.5483871,27.0967742 L13.5483871,28.4103226 C13.5483871,29.0154839 13.3083871,29.5954839 12.88,30.0232258 L12.2806452,30.6225806 C11.8529032,31.0503226 11.2729032,31.2903226 10.6683871,31.2903226 C9.4083871,31.2903226 8.38709677,32.3116129 8.38709677,33.5716129 L8.38709677,34.516129 L8.38709677,34.9774194 C11.5051613,37.1264516 15.2819355,38.3870968 19.3548387,38.3870968 C21.1432258,38.3870968 22.8722581,38.1393548 24.516129,37.6858065 Z" id="Shape"></path>
                </g>
                <path d="M20,0 C8.97225806,0 0,8.97225806 0,20 C0,31.0277419 8.97225806,40 20,40 C31.0277419,40 40,31.0277419 40,20 C40,8.97225806 31.0277419,0 20,0 Z M1.29032258,20 C1.29032258,11.1574194 7.45870968,3.73290323 15.7174194,1.79096774 L16.6012903,2.67483871 C16.7129032,2.78645161 16.7741935,2.93483871 16.7741935,3.09225806 L16.7741935,3.83096774 C16.7741935,4.03548387 16.6703226,4.22258065 16.496129,4.3316129 L12.4967742,6.8316129 C11.9432258,7.17806452 11.6129032,7.77419355 11.6129032,8.44129032 C11.6129032,9.47870968 12.4567742,10.3225806 13.4941935,10.3225806 L14.2483871,10.3225806 C14.5735484,10.3225806 14.8387097,10.5877419 14.8387097,10.9135484 L14.8387097,13.1741935 C14.8387097,13.5470968 14.9477419,13.9083871 15.1548387,14.2174194 L16.0303226,15.5309677 C16.0948387,15.6277419 16.1290323,15.7412903 16.1290323,15.8580645 L16.1290323,16.8283871 C16.1290323,17.1541935 15.863871,17.4193548 15.5380645,17.4193548 L12.2032258,17.4193548 C11.1664516,17.4193548 10.3225806,18.2632258 10.3225806,19.3006452 L10.3225806,21.783871 C10.3225806,21.9374194 10.3412903,22.0916129 10.3787097,22.2406452 L10.9522581,24.5348387 C10.9625806,24.5754839 10.9677419,24.6167742 10.9677419,24.6574194 C10.9677419,24.9354839 10.7419355,25.1612903 10.463871,25.1612903 L10.3277419,25.1612903 C10.1522581,25.1612903 9.98645161,25.0677419 9.89612903,24.9167742 L8.65548387,22.8490323 C8.31741935,22.2851613 7.69935484,21.9354839 7.04258065,21.9354839 C6.00516129,21.9354839 5.16129032,22.7793548 5.16129032,23.8167742 L5.16129032,24.6496774 C5.16129032,24.8077419 5.1,24.956129 4.9883871,25.0670968 L3.77677419,26.2787097 C3.66516129,26.3903226 3.51677419,26.4516129 3.35935484,26.4516129 L2.43741935,26.4516129 C1.69612903,24.4393548 1.29032258,22.2664516 1.29032258,20 Z M24.516129,38.1548387 C23.0690323,38.5154839 21.5567742,38.7096774 20,38.7096774 C16.1858065,38.7096774 12.6393548,37.5567742 9.67741935,35.5890323 L9.67741935,34.5393548 C9.67741935,33.6374194 10.4116129,32.9032258 11.3135484,32.9032258 C12.0948387,32.9032258 12.8303226,32.5987097 13.3825806,32.0458065 L13.9819355,31.4464516 C14.5341935,30.8941935 14.8387097,30.1593548 14.8387097,29.3780645 L14.8387097,28.0645161 C14.8387097,27.5309677 15.2729032,27.0967742 15.8064516,27.0967742 C16.34,27.0967742 16.7741935,27.5309677 16.7741935,28.0645161 L16.7741935,30.2774194 C16.7741935,30.8567742 16.9445161,31.4187097 17.2658065,31.9006452 L18.7858065,34.1812903 C19.3296774,34.9974194 20.24,35.4845161 21.2206452,35.4845161 L22.2812903,35.4845161 C22.7180645,35.4845161 23.1290323,35.6548387 23.4380645,35.963871 L24.0374194,36.5632258 C24.3458065,36.8709677 24.516129,37.2819355 24.516129,37.7187097 L24.516129,38.1548387 Z M25.8064516,37.7825806 L25.8064516,37.7187097 C25.8064516,36.9374194 25.5019355,36.2019355 24.9490323,35.6496774 L24.3496774,35.0503226 C23.7974194,34.4980645 23.0625806,34.1935484 22.2812903,34.1935484 L21.2206452,34.1935484 C20.6722581,34.1935484 20.1632258,33.9212903 19.8593548,33.4651613 L18.3393548,31.1845161 C18.1593548,30.9148387 18.0645161,30.6012903 18.0645161,30.2774194 L18.0645161,28.0645161 C18.0645161,26.8193548 17.0516129,25.8064516 15.8064516,25.8064516 C14.5612903,25.8064516 13.5483871,26.8193548 13.5483871,28.0645161 L13.5483871,29.3780645 C13.5483871,29.8148387 13.3780645,30.2258065 13.0690323,30.5348387 L12.4696774,31.1341935 C12.1612903,31.4425806 11.7503226,31.6129032 11.3135484,31.6129032 C9.7,31.6129032 8.38709677,32.9258065 8.38709677,34.5393548 L8.38709677,34.6535484 C6.07806452,32.8193548 4.21225806,30.4541935 2.97419355,27.7419355 L3.35935484,27.7419355 C3.86193548,27.7419355 4.33419355,27.5464516 4.68967742,27.1909677 L5.90129032,25.9793548 C6.25612903,25.623871 6.4516129,25.1516129 6.4516129,24.6496774 L6.4516129,23.8167742 C6.4516129,23.4909677 6.71677419,23.2258065 7.04258065,23.2258065 C7.24903226,23.2258065 7.44322581,23.3354839 7.54903226,23.5129032 L8.78967742,25.5806452 C9.11225806,26.1180645 9.70129032,26.4522581 10.3277419,26.4522581 L10.463871,26.4522581 C11.4529032,26.4516129 12.2580645,25.6464516 12.2580645,24.6574194 C12.2580645,24.5116129 12.24,24.3658065 12.2045161,24.2219355 L11.6303226,21.9264516 C11.6187097,21.88 11.6129032,21.8316129 11.6129032,21.7832258 L11.6129032,19.3 C11.6129032,18.9748387 11.8780645,18.7096774 12.203871,18.7096774 L15.5387097,18.7096774 C16.5754839,18.7096774 17.4193548,17.8658065 17.4193548,16.8283871 L17.4193548,15.8580645 C17.4193548,15.4851613 17.3103226,15.123871 17.1032258,14.8148387 L16.2277419,13.5012903 C16.1632258,13.4045161 16.1290323,13.2916129 16.1290323,13.1741935 L16.1290323,10.9135484 C16.1290323,9.87612903 15.2851613,9.03225806 14.2477419,9.03225806 L13.4935484,9.03225806 C13.1683871,9.03225806 12.9032258,8.76709677 12.9032258,8.42709677 C12.9032258,8.22258065 13.0070968,8.03548387 13.1812903,7.92645161 L17.1806452,5.42645161 C17.7341935,5.08 18.0645161,4.48387097 18.0645161,3.83096774 L18.0645161,3.09225806 C18.0645161,2.58967742 17.8690323,2.11741935 17.5135484,1.76193548 L17.2458065,1.49419355 C18.1451613,1.36129032 19.0645161,1.29032258 20,1.29032258 C20.876129,1.29032258 21.736129,1.35548387 22.5806452,1.47225806 L22.5806452,3.47419355 C22.5806452,4.40451613 21.823871,5.16129032 20.8935484,5.16129032 C19.6896774,5.16129032 18.7096774,6.14129032 18.7096774,7.34516129 C18.7096774,8.24322581 19.2483871,9.03870968 20.0825806,9.37290323 L21.8541935,10.0819355 C21.956129,10.1225806 22.0290323,10.2109677 22.0509677,10.3187097 L22.3154839,11.64 C22.3567742,11.8490323 22.2664516,11.9987097 22.2083871,12.0696774 C22.1496774,12.1393548 22.0206452,12.2580645 21.8077419,12.2580645 C20.8109677,12.2580645 20,13.0690323 20,14.0658065 L20,14.9664516 C20,15.9632258 20.8109677,16.7741935 21.8077419,16.7741935 L22.9032258,16.7741935 C23.0812903,16.7741935 23.2258065,16.9187097 23.2258065,17.0967742 C23.2258065,18.3419355 24.2387097,19.3548387 25.483871,19.3548387 L25.8064516,19.3548387 C27.2296774,19.3548387 28.3870968,18.1974194 28.3870968,16.7741935 L28.3870968,15.8064516 C28.3870968,15.2729032 28.8212903,14.8387097 29.3548387,14.8387097 C29.8883871,14.8387097 30.3225806,15.2729032 30.3225806,15.8064516 L30.3225806,18.3870968 C30.3225806,20.343871 28.7309677,21.9354839 26.7741935,21.9354839 C25.8851613,21.9354839 25.1612903,22.6593548 25.1612903,23.5483871 L25.1612903,25.483871 C25.1612903,25.6619355 25.0167742,25.8064516 24.8387097,25.8064516 C23.9496774,25.8064516 23.2258065,26.5303226 23.2258065,27.4193548 C23.2258065,29.0335484 23.7277419,30.5774194 24.6774194,31.8832258 L24.843871,32.1116129 C26.0858065,33.8193548 28.0870968,34.8387097 30.1987097,34.8387097 L31.3767742,34.8387097 C29.7167742,36.1148387 27.8380645,37.1174194 25.8064516,37.7825806 Z M32.8832258,33.5483871 L30.1993548,33.5483871 C28.4993548,33.5483871 26.8877419,32.7277419 25.8877419,31.3529032 L25.7212903,31.1245161 C24.9329032,30.04 24.516129,28.7593548 24.516129,27.4193548 C24.516129,27.2412903 24.6606452,27.0967742 24.8387097,27.0967742 C25.7277419,27.0967742 26.4516129,26.3729032 26.4516129,25.483871 L26.4516129,23.5483871 C26.4516129,23.3703226 26.596129,23.2258065 26.7741935,23.2258065 C29.4425806,23.2258065 31.6129032,21.0554839 31.6129032,18.3870968 L31.6129032,15.8064516 C31.6129032,14.5612903 30.6,13.5483871 29.3548387,13.5483871 C28.1096774,13.5483871 27.0967742,14.5612903 27.0967742,15.8064516 L27.0967742,16.7741935 C27.0967742,17.4858065 26.5180645,18.0645161 25.8064516,18.0645161 L25.483871,18.0645161 C24.9503226,18.0645161 24.516129,17.6303226 24.516129,17.0967742 C24.516129,16.2077419 23.7922581,15.483871 22.9032258,15.483871 L21.8077419,15.483871 C21.5225806,15.483871 21.2903226,15.2516129 21.2903226,14.9664516 L21.2903226,14.0658065 C21.2903226,13.7806452 21.5225806,13.5483871 21.8077419,13.5483871 C22.3516129,13.5483871 22.8612903,13.3070968 23.2058065,12.8864516 C23.5509677,12.4658065 23.6870968,11.9187097 23.5806452,11.3858065 L23.316129,10.0651613 C23.2090323,9.52903226 22.8419355,9.08709677 22.3341935,8.88387097 L20.5625806,8.17483871 C20.2206452,8.03806452 20,7.71290323 20,7.34516129 C20,6.85290323 20.4012903,6.4516129 20.8935484,6.4516129 C22.5354839,6.4516129 23.8709677,5.11612903 23.8709677,3.47419355 L23.8709677,1.69548387 C32.336129,3.48387097 38.7096774,11.0103226 38.7096774,20 C38.7096774,25.3270968 36.4677419,30.1374194 32.8832258,33.5483871 Z" id="Shape" fill="#000000"></path>
                <rect id="Rectangle-path" fill="#000000" x="26.4516129" y="7.09677419" width="1.29032258" height="1.29032258"></rect>
                <rect id="Rectangle-path" fill="#000000" x="32.9032258" y="12.2580645" width="1.29032258" height="1.29032258"></rect>
                <rect id="Rectangle-path" fill="#000000" x="13.5483871" y="34.1935484" width="1.29032258" height="1.29032258"></rect>
                <rect id="Rectangle-path" fill="#000000" x="9.67741935" y="14.1935484" width="1.29032258" height="1.29032258"></rect>
                <rect id="Rectangle-path" fill="#000000" x="5.80645161" y="10.3225806" width="1.29032258" height="1.29032258"></rect>
                <rect id="Rectangle-path" fill="#000000" x="3.87096774" y="17.4193548" width="1.29032258" height="1.29032258"></rect>
            </g>
        </g>
    </g>
</svg>