<?xml version="1.0" encoding="UTF-8"?>
<svg width="40px" height="40px" viewBox="0 0 40 40" version="1.1" xmlns="http://www.w3.org/2000/svg" xmlns:xlink="http://www.w3.org/1999/xlink">
    <!-- Generator: sketchtool 50.2 (55047) - http://www.bohemiancoding.com/sketch -->
    <title>DD56FF9E-10A1-445D-97FB-2A0A4C589C2D</title>
    <desc>Created with sketchtool.</desc>
    <defs></defs>
    <g id="Visuals-Homepage-v2" stroke="none" stroke-width="1" fill="none" fill-rule="evenodd">
        <g id="Home-page-alternative-data-panel" transform="translate(-990.000000, -799.000000)" fill-rule="nonzero">
            <g id="income-copy" transform="translate(990.000000, 799.000000)">
                <rect id="Rectangle-path" fill="#24CD97" x="26.4516129" y="21.2903226" width="10.3225806" height="18.0645161"></rect>
                <g id="Group" transform="translate(0.645161, 26.451613)" fill="#24CD97">
                    <rect id="Rectangle-path" x="12.9032258" y="0" width="10.3225806" height="12.9032258"></rect>
                    <rect id="Rectangle-path" x="0" y="5.16129032" width="10.3225806" height="7.74193548"></rect>
                </g>
                <g id="Group" transform="translate(0.645161, 34.032258)" fill="#24CD97">
                    <rect id="Rectangle-path" x="0" y="0.161290323" width="10.3225806" height="2.58064516"></rect>
                </g>
                <path d="M8.38709677,5.80645161 C9.09870968,5.80645161 9.67741935,6.38516129 9.67741935,7.09677419 L10.9677419,7.09677419 C10.9677419,5.89806452 10.1425806,4.89612903 9.03225806,4.60774194 L9.03225806,3.22580645 L7.74193548,3.22580645 L7.74193548,4.60774194 C6.6316129,4.89612903 5.80645161,5.89806452 5.80645161,7.09677419 C5.80645161,8.52 6.96387097,9.67741935 8.38709677,9.67741935 C9.09870968,9.67741935 9.67741935,10.256129 9.67741935,10.9677419 C9.67741935,11.6793548 9.09870968,12.2580645 8.38709677,12.2580645 C7.67548387,12.2580645 7.09677419,11.6793548 7.09677419,10.9677419 L5.80645161,10.9677419 C5.80645161,12.1664516 6.6316129,13.1683871 7.74193548,13.4567742 L7.74193548,14.8387097 L9.03225806,14.8387097 L9.03225806,13.4567742 C10.1425806,13.1683871 10.9677419,12.1664516 10.9677419,10.9677419 C10.9677419,9.54451613 9.81032258,8.38709677 8.38709677,8.38709677 C7.67548387,8.38709677 7.09677419,7.8083871 7.09677419,7.09677419 C7.09677419,6.38516129 7.67548387,5.80645161 8.38709677,5.80645161 Z" id="Shape" fill="#000000"></path>
                <path d="M0,33.5483871 L0,34.8387097 L0,36.1290323 L0,37.4193548 L0,40 L11.6129032,40 L11.6129032,37.4193548 L11.6129032,36.1290323 L11.6129032,34.8387097 L11.6129032,33.5483871 L11.6129032,30.9677419 L0,30.9677419 L0,33.5483871 Z M10.3225806,38.7096774 L1.29032258,38.7096774 L1.29032258,37.4193548 L10.3225806,37.4193548 L10.3225806,38.7096774 Z M10.3225806,36.1290323 L1.29032258,36.1290323 L1.29032258,34.8387097 L10.3225806,34.8387097 L10.3225806,36.1290323 Z M1.29032258,32.2580645 L10.3225806,32.2580645 L10.3225806,33.5483871 L1.29032258,33.5483871 L1.29032258,32.2580645 Z" id="Shape" fill="#000000"></path>
                <path d="M12.9032258,28.3870968 L12.9032258,29.6774194 L12.9032258,30.9677419 L12.9032258,32.2580645 L12.9032258,33.5483871 L12.9032258,34.8387097 L12.9032258,36.1290323 L12.9032258,36.7741935 L12.9032258,40 L24.516129,40 L24.516129,36.7741935 L24.516129,36.1290323 L24.516129,34.8387097 L24.516129,33.5483871 L24.516129,32.2580645 L24.516129,30.9677419 L24.516129,29.6774194 L24.516129,28.3870968 L24.516129,25.8064516 L12.9032258,25.8064516 L12.9032258,28.3870968 Z M23.2258065,36.1290323 L16.7741935,36.1290323 L16.7741935,37.4193548 L23.2258065,37.4193548 L23.2258065,38.7096774 L14.1935484,38.7096774 L14.1935484,37.4193548 L15.483871,37.4193548 L15.483871,36.1290323 L14.1935484,36.1290323 L14.1935484,34.8387097 L23.2258065,34.8387097 L23.2258065,36.1290323 Z M23.2258065,33.5483871 L14.1935484,33.5483871 L14.1935484,32.2580645 L23.2258065,32.2580645 L23.2258065,33.5483871 Z M23.2258065,30.9677419 L14.1935484,30.9677419 L14.1935484,29.6774194 L23.2258065,29.6774194 L23.2258065,30.9677419 Z M14.1935484,27.0967742 L23.2258065,27.0967742 L23.2258065,28.3870968 L14.1935484,28.3870968 L14.1935484,27.0967742 Z" id="Shape" fill="#000000"></path>
                <path d="M25.8064516,23.2258065 L25.8064516,24.516129 L25.8064516,25.8064516 L25.8064516,26.4516129 L25.8064516,28.3870968 L25.8064516,29.6774194 L25.8064516,30.9677419 L25.8064516,32.2580645 L25.8064516,33.5483871 L25.8064516,34.8387097 L25.8064516,36.1290323 L25.8064516,37.4193548 L25.8064516,40 L37.4193548,40 L37.4193548,37.4193548 L37.4193548,36.1290323 L37.4193548,34.8387097 L37.4193548,33.5483871 L37.4193548,32.2580645 L37.4193548,30.9677419 L37.4193548,29.6774194 L37.4193548,28.3870968 L37.4193548,26.4516129 L37.4193548,25.8064516 L37.4193548,24.516129 L37.4193548,23.2258065 L37.4193548,20.6451613 L25.8064516,20.6451613 L25.8064516,23.2258065 Z M36.1290323,38.7096774 L27.0967742,38.7096774 L27.0967742,37.4193548 L36.1290323,37.4193548 L36.1290323,38.7096774 Z M36.1290323,36.1290323 L27.0967742,36.1290323 L27.0967742,34.8387097 L36.1290323,34.8387097 L36.1290323,36.1290323 Z M36.1290323,33.5483871 L27.0967742,33.5483871 L27.0967742,32.2580645 L36.1290323,32.2580645 L36.1290323,33.5483871 Z M36.1290323,30.9677419 L27.0967742,30.9677419 L27.0967742,29.6774194 L36.1290323,29.6774194 L36.1290323,30.9677419 Z M36.1290323,25.8064516 L34.8387097,25.8064516 L34.8387097,27.0967742 L36.1290323,27.0967742 L36.1290323,28.3870968 L27.0967742,28.3870968 L27.0967742,27.0967742 L33.5483871,27.0967742 L33.5483871,25.8064516 L27.0967742,25.8064516 L27.0967742,24.516129 L36.1290323,24.516129 L36.1290323,25.8064516 Z M27.0967742,21.9354839 L36.1290323,21.9354839 L36.1290323,23.2258065 L27.0967742,23.2258065 L27.0967742,21.9354839 Z" id="Shape" fill="#000000"></path>
                <path d="M30.3225806,0 C29.2554839,0 28.3870968,0.868387097 28.3870968,1.93548387 C28.3870968,3.00258065 29.2554839,3.87096774 30.3225806,3.87096774 L33.2812903,3.87096774 L23.7780645,13.3741935 L18.6677419,10.18 L16.1696774,12.1419355 C16.5554839,11.1793548 16.7741935,10.1316129 16.7741935,9.03225806 C16.7741935,4.40774194 13.0116129,0.64516129 8.38709677,0.64516129 C3.76258065,0.64516129 0,4.40774194 0,9.03225806 C0,13.6567742 3.76258065,17.4193548 8.38709677,17.4193548 C8.78967742,17.4193548 9.18258065,17.3812903 9.57032258,17.3258065 L0.246451613,24.6496774 L1.04387097,25.6645161 L18.7516129,11.7548387 L23.963871,15.0122581 L36.396129,2.58064516 L30.3225806,2.58064516 C29.9664516,2.58064516 29.6774194,2.29096774 29.6774194,1.93548387 C29.6774194,1.58 29.9664516,1.29032258 30.3225806,1.29032258 L38.7096774,1.29032258 L38.7096774,9.67741935 C38.7096774,10.0329032 38.4206452,10.3225806 38.0645161,10.3225806 C37.7083871,10.3225806 37.4193548,10.0329032 37.4193548,9.67741935 L37.4193548,4.24903226 L24.403871,17.263871 L18.6445161,14.0645161 L2.17741935,27.2380645 L2.98387097,28.2458065 L18.7748387,15.6129032 L24.6283871,18.8651613 L36.1290323,7.36387097 L36.1290323,9.67741935 C36.1290323,10.7445161 36.9974194,11.6129032 38.0645161,11.6129032 C39.1316129,11.6129032 40,10.7445161 40,9.67741935 L40,0 L30.3225806,0 Z M1.29032258,9.03225806 C1.29032258,5.11935484 4.47419355,1.93548387 8.38709677,1.93548387 C12.3,1.93548387 15.483871,5.11935484 15.483871,9.03225806 C15.483871,12.9451613 12.3,16.1290323 8.38709677,16.1290323 C4.47419355,16.1290323 1.29032258,12.9451613 1.29032258,9.03225806 Z" id="Shape" fill="#000000"></path>
                <rect id="Rectangle-path" fill="#000000" x="2.58064516" y="8.38709677" width="1.29032258" height="1.29032258"></rect>
                <rect id="Rectangle-path" fill="#000000" x="12.9032258" y="8.38709677" width="1.29032258" height="1.29032258"></rect>
            </g>
        </g>
    </g>
</svg>