<?xml version="1.0" encoding="UTF-8"?>
<svg width="152px" height="152px" viewBox="0 0 152 152" version="1.1" xmlns="http://www.w3.org/2000/svg" xmlns:xlink="http://www.w3.org/1999/xlink">
    <!-- Generator: sketchtool 50.2 (55047) - http://www.bohemiancoding.com/sketch -->
    <title>C7B304BD-D199-4B37-90FB-D1A43BE94F65</title>
    <desc>Created with sketchtool.</desc>
    <defs></defs>
    <g id="Visuals-Homepage-v2" stroke="none" stroke-width="1" fill="none" fill-rule="evenodd" opacity="0.200000003">
        <g id="Home-page-alternative-data-panel" transform="translate(-1130.000000, -802.000000)" fill-rule="nonzero">
            <g id="income-copy-2" transform="translate(1130.000000, 802.000000)">
                <g id="Group" transform="translate(2.451613, 129.322581)" fill="#24CD97">
                    <rect id="Rectangle-path" x="0" y="0.612903226" width="39.2258065" height="9.80645161"></rect>
                </g>
                <path d="M31.8709677,22.0645161 C34.5750968,22.0645161 36.7741935,24.2636129 36.7741935,26.9677419 L41.6774194,26.9677419 C41.6774194,22.4126452 38.5418065,18.6052903 34.3225806,17.5094194 L34.3225806,12.2580645 L29.4193548,12.2580645 L29.4193548,17.5094194 C25.200129,18.6052903 22.0645161,22.4126452 22.0645161,26.9677419 C22.0645161,32.376 26.4627097,36.7741935 31.8709677,36.7741935 C34.5750968,36.7741935 36.7741935,38.9732903 36.7741935,41.6774194 C36.7741935,44.3815484 34.5750968,46.5806452 31.8709677,46.5806452 C29.1668387,46.5806452 26.9677419,44.3815484 26.9677419,41.6774194 L22.0645161,41.6774194 C22.0645161,46.2325161 25.200129,50.039871 29.4193548,51.1357419 L29.4193548,56.3870968 L34.3225806,56.3870968 L34.3225806,51.1357419 C38.5418065,50.039871 41.6774194,46.2325161 41.6774194,41.6774194 C41.6774194,36.2691613 37.2792258,31.8709677 31.8709677,31.8709677 C29.1668387,31.8709677 26.9677419,29.671871 26.9677419,26.9677419 C26.9677419,24.2636129 29.1668387,22.0645161 31.8709677,22.0645161 Z" id="Shape" fill="#FFFFFF"></path>
                <path d="M0,127.483871 L0,132.387097 L0,137.290323 L0,142.193548 L0,152 L44.1290323,152 L44.1290323,142.193548 L44.1290323,137.290323 L44.1290323,132.387097 L44.1290323,127.483871 L44.1290323,117.677419 L0,117.677419 L0,127.483871 Z M39.2258065,147.096774 L4.90322581,147.096774 L4.90322581,142.193548 L39.2258065,142.193548 L39.2258065,147.096774 Z M39.2258065,137.290323 L4.90322581,137.290323 L4.90322581,132.387097 L39.2258065,132.387097 L39.2258065,137.290323 Z M4.90322581,122.580645 L39.2258065,122.580645 L39.2258065,127.483871 L4.90322581,127.483871 L4.90322581,122.580645 Z" id="Shape" fill="#FFFFFF"></path>
                <path d="M49.0322581,107.870968 L49.0322581,112.774194 L49.0322581,117.677419 L49.0322581,122.580645 L49.0322581,127.483871 L49.0322581,132.387097 L49.0322581,137.290323 L49.0322581,139.741935 L49.0322581,152 L93.1612903,152 L93.1612903,139.741935 L93.1612903,137.290323 L93.1612903,132.387097 L93.1612903,127.483871 L93.1612903,122.580645 L93.1612903,117.677419 L93.1612903,112.774194 L93.1612903,107.870968 L93.1612903,98.0645161 L49.0322581,98.0645161 L49.0322581,107.870968 Z M88.2580645,137.290323 L63.7419355,137.290323 L63.7419355,142.193548 L88.2580645,142.193548 L88.2580645,147.096774 L53.9354839,147.096774 L53.9354839,142.193548 L58.8387097,142.193548 L58.8387097,137.290323 L53.9354839,137.290323 L53.9354839,132.387097 L88.2580645,132.387097 L88.2580645,137.290323 Z M88.2580645,127.483871 L53.9354839,127.483871 L53.9354839,122.580645 L88.2580645,122.580645 L88.2580645,127.483871 Z M88.2580645,117.677419 L53.9354839,117.677419 L53.9354839,112.774194 L88.2580645,112.774194 L88.2580645,117.677419 Z M53.9354839,102.967742 L88.2580645,102.967742 L88.2580645,107.870968 L53.9354839,107.870968 L53.9354839,102.967742 Z" id="Shape" fill="#FFFFFF"></path>
                <path d="M98.0645161,88.2580645 L98.0645161,93.1612903 L98.0645161,98.0645161 L98.0645161,100.516129 L98.0645161,107.870968 L98.0645161,112.774194 L98.0645161,117.677419 L98.0645161,122.580645 L98.0645161,127.483871 L98.0645161,132.387097 L98.0645161,137.290323 L98.0645161,142.193548 L98.0645161,152 L142.193548,152 L142.193548,142.193548 L142.193548,137.290323 L142.193548,132.387097 L142.193548,127.483871 L142.193548,122.580645 L142.193548,117.677419 L142.193548,112.774194 L142.193548,107.870968 L142.193548,100.516129 L142.193548,98.0645161 L142.193548,93.1612903 L142.193548,88.2580645 L142.193548,78.4516129 L98.0645161,78.4516129 L98.0645161,88.2580645 Z M137.290323,147.096774 L102.967742,147.096774 L102.967742,142.193548 L137.290323,142.193548 L137.290323,147.096774 Z M137.290323,137.290323 L102.967742,137.290323 L102.967742,132.387097 L137.290323,132.387097 L137.290323,137.290323 Z M137.290323,127.483871 L102.967742,127.483871 L102.967742,122.580645 L137.290323,122.580645 L137.290323,127.483871 Z M137.290323,117.677419 L102.967742,117.677419 L102.967742,112.774194 L137.290323,112.774194 L137.290323,117.677419 Z M137.290323,98.0645161 L132.387097,98.0645161 L132.387097,102.967742 L137.290323,102.967742 L137.290323,107.870968 L102.967742,107.870968 L102.967742,102.967742 L127.483871,102.967742 L127.483871,98.0645161 L102.967742,98.0645161 L102.967742,93.1612903 L137.290323,93.1612903 L137.290323,98.0645161 Z M102.967742,83.3548387 L137.290323,83.3548387 L137.290323,88.2580645 L102.967742,88.2580645 L102.967742,83.3548387 Z" id="Shape" fill="#FFFFFF"></path>
                <path d="M115.225806,0 C111.170839,0 107.870968,3.29987097 107.870968,7.35483871 C107.870968,11.4098065 111.170839,14.7096774 115.225806,14.7096774 L126.468903,14.7096774 L90.3566452,50.8219355 L70.9374194,38.684 L61.4447742,46.1393548 C62.9108387,42.4815484 63.7419355,38.500129 63.7419355,34.3225806 C63.7419355,16.7494194 49.444129,2.4516129 31.8709677,2.4516129 C14.2978065,2.4516129 0,16.7494194 0,34.3225806 C0,51.8957419 14.2978065,66.1935484 31.8709677,66.1935484 C33.4007742,66.1935484 34.8938065,66.0489032 36.3672258,65.8380645 L0.936516129,93.6687742 L3.96670968,97.5251613 L71.256129,44.6683871 L91.0627097,57.0465806 L138.30529,9.80645161 L115.225806,9.80645161 C113.872516,9.80645161 112.774194,8.70567742 112.774194,7.35483871 C112.774194,6.004 113.872516,4.90322581 115.225806,4.90322581 L147.096774,4.90322581 L147.096774,36.7741935 C147.096774,38.1250323 145.998452,39.2258065 144.645161,39.2258065 C143.291871,39.2258065 142.193548,38.1250323 142.193548,36.7741935 L142.193548,16.1463226 L92.7347097,65.6027097 L70.8491613,53.4451613 L8.27419355,103.504645 L11.3387097,107.334065 L71.3443871,59.3290323 L93.587871,71.6876129 L137.290323,27.9827097 L137.290323,36.7741935 C137.290323,40.8291613 140.590194,44.1290323 144.645161,44.1290323 C148.700129,44.1290323 152,40.8291613 152,36.7741935 L152,0 L115.225806,0 Z M4.90322581,34.3225806 C4.90322581,19.4535484 17.0019355,7.35483871 31.8709677,7.35483871 C46.74,7.35483871 58.8387097,19.4535484 58.8387097,34.3225806 C58.8387097,49.1916129 46.74,61.2903226 31.8709677,61.2903226 C17.0019355,61.2903226 4.90322581,49.1916129 4.90322581,34.3225806 Z" id="Shape" fill="#FFFFFF"></path>
                <rect id="Rectangle-path" fill="#FFFFFF" x="9.80645161" y="31.8709677" width="4.90322581" height="4.90322581"></rect>
                <rect id="Rectangle-path" fill="#FFFFFF" x="49.0322581" y="31.8709677" width="4.90322581" height="4.90322581"></rect>
            </g>
        </g>
    </g>
</svg>