<?xml version="1.0" encoding="UTF-8"?>
<svg width="152px" height="152px" viewBox="0 0 152 152" version="1.1" xmlns="http://www.w3.org/2000/svg" xmlns:xlink="http://www.w3.org/1999/xlink">
    <!-- Generator: sketchtool 50.2 (55047) - http://www.bohemiancoding.com/sketch -->
    <title>34553850-C123-46FA-BA30-C4C28E20820F</title>
    <desc>Created with sketchtool.</desc>
    <defs></defs>
    <g id="Visuals-Homepage-v2" stroke="none" stroke-width="1" fill="none" fill-rule="evenodd">
        <g id="Home-page-alternative-data-panel" transform="translate(-1130.000000, -344.000000)" fill-rule="nonzero">
            <g id="loss-copy" transform="translate(1130.000000, 344.000000)">
                <g id="Group" transform="translate(31.870968, 76.451613)">
                    <rect id="Rectangle-path" x="0" y="0.451612903" width="14.7096774" height="34.3225806"></rect>
                    <rect id="Rectangle-path" x="24.516129" y="10.2580645" width="14.7096774" height="24.516129"></rect>
                    <rect id="Rectangle-path" x="49.0322581" y="15.1612903" width="14.7096774" height="19.6129032"></rect>
                    <rect id="Rectangle-path" x="73.5483871" y="20.0645161" width="14.7096774" height="14.7096774"></rect>
                </g>
                <g id="Group" fill="#FFFFFF" opacity="0.200000003">
                    <path d="M107.870968,132.387097 L147.096774,132.387097 L147.096774,139.741935 C147.096774,143.796903 143.796903,147.096774 139.741935,147.096774 L12.2580645,147.096774 C8.20309677,147.096774 4.90322581,143.796903 4.90322581,139.741935 L4.90322581,132.387097 L44.1290323,132.387097 L44.1290323,127.483871 L0,127.483871 L0,139.741935 C0,146.501032 5.49896774,152 12.2580645,152 L139.741935,152 C146.501032,152 152,146.501032 152,139.741935 L152,127.483871 L107.870968,127.483871 L107.870968,132.387097 Z" id="Shape"></path>
                    <path d="M56.3870968,142.193548 L95.6129032,142.193548 C99.667871,142.193548 102.967742,138.893677 102.967742,134.83871 L102.967742,127.483871 L49.0322581,127.483871 L49.0322581,134.83871 C49.0322581,138.893677 52.332129,142.193548 56.3870968,142.193548 Z M53.9354839,132.387097 L98.0645161,132.387097 L98.0645161,134.83871 C98.0645161,136.189548 96.9637419,137.290323 95.6129032,137.290323 L56.3870968,137.290323 C55.0362581,137.290323 53.9354839,136.189548 53.9354839,134.83871 L53.9354839,132.387097 Z" id="Shape"></path>
                    <rect id="Rectangle-path" x="14.7096774" y="137.290323" width="4.90322581" height="4.90322581"></rect>
                    <rect id="Rectangle-path" x="24.516129" y="137.290323" width="4.90322581" height="4.90322581"></rect>
                    <rect id="Rectangle-path" x="34.3225806" y="137.290323" width="4.90322581" height="4.90322581"></rect>
                    <rect id="Rectangle-path" x="142.193548" y="63.7419355" width="4.90322581" height="58.8387097"></rect>
                    <path d="M9.80645161,39.2258065 C9.80645161,35.1708387 13.1063226,31.8709677 17.1612903,31.8709677 L78.4516129,31.8709677 L78.4516129,26.9677419 L17.1612903,26.9677419 C10.4021935,26.9677419 4.90322581,32.4667097 4.90322581,39.2258065 L4.90322581,122.580645 L9.80645161,122.580645 L9.80645161,39.2258065 Z" id="Shape"></path>
                    <rect id="Rectangle-path" x="132.387097" y="71.0967742" width="4.90322581" height="51.483871"></rect>
                    <path d="M14.7096774,41.6774194 L14.7096774,122.580645 L19.6129032,122.580645 L19.6129032,41.6774194 L78.4516129,41.6774194 L78.4516129,36.7741935 L19.6129032,36.7741935 C16.9087742,36.7741935 14.7096774,38.9732903 14.7096774,41.6774194 Z" id="Shape"></path>
                    <path d="M117.677419,68.6451613 C136.603871,68.6451613 152,53.2490323 152,34.3225806 C152,15.396129 136.603871,0 117.677419,0 C98.7509677,0 83.3548387,15.396129 83.3548387,34.3225806 C83.3548387,53.2490323 98.7509677,68.6451613 117.677419,68.6451613 Z M117.677419,4.90322581 C133.899742,4.90322581 147.096774,18.1002581 147.096774,34.3225806 C147.096774,50.5449032 133.899742,63.7419355 117.677419,63.7419355 C101.455097,63.7419355 88.2580645,50.5449032 88.2580645,34.3225806 C88.2580645,18.1002581 101.455097,4.90322581 117.677419,4.90322581 Z" id="Shape"></path>
                    <path d="M115.225806,53.8104516 L115.225806,58.8387097 L120.129032,58.8387097 L120.129032,53.8104516 C125.630452,53.1926452 129.935484,48.5664516 129.935484,42.9032258 C129.935484,36.8207742 124.985677,31.8709677 118.903226,31.8709677 L116.451613,31.8709677 C113.07329,31.8709677 110.322581,29.1202581 110.322581,25.7419355 C110.322581,22.3636129 113.07329,19.6129032 116.451613,19.6129032 L118.903226,19.6129032 C122.281548,19.6129032 125.032258,22.3636129 125.032258,25.7419355 L125.032258,26.9677419 L129.935484,26.9677419 L129.935484,25.7419355 C129.935484,20.0787097 125.630452,15.4525161 120.129032,14.8347097 L120.129032,9.80645161 L115.225806,9.80645161 L115.225806,14.8347097 C109.724387,15.4525161 105.419355,20.0787097 105.419355,25.7419355 C105.419355,31.8243871 110.369161,36.7741935 116.451613,36.7741935 L118.903226,36.7741935 C122.281548,36.7741935 125.032258,39.5249032 125.032258,42.9032258 C125.032258,46.2815484 122.281548,49.0322581 118.903226,49.0322581 L116.451613,49.0322581 C113.07329,49.0322581 110.322581,46.2815484 110.322581,42.9032258 L110.322581,41.6774194 L105.419355,41.6774194 L105.419355,42.9032258 C105.419355,48.5664516 109.724387,53.1926452 115.225806,53.8104516 Z" id="Shape"></path>
                    <path d="M49.0322581,78.4516129 L29.4193548,78.4516129 L29.4193548,117.677419 L49.0322581,117.677419 L49.0322581,78.4516129 Z M44.1290323,112.774194 L34.3225806,112.774194 L34.3225806,83.3548387 L44.1290323,83.3548387 L44.1290323,112.774194 Z" id="Shape"></path>
                    <path d="M53.9354839,88.2580645 L53.9354839,117.677419 L73.5483871,117.677419 L73.5483871,88.2580645 L53.9354839,88.2580645 Z M68.6451613,112.774194 L58.8387097,112.774194 L58.8387097,93.1612903 L68.6451613,93.1612903 L68.6451613,112.774194 Z" id="Shape"></path>
                    <path d="M78.4516129,93.1612903 L78.4516129,117.677419 L98.0645161,117.677419 L98.0645161,93.1612903 L78.4516129,93.1612903 Z M93.1612903,112.774194 L83.3548387,112.774194 L83.3548387,98.0645161 L93.1612903,98.0645161 L93.1612903,112.774194 Z" id="Shape"></path>
                    <path d="M102.967742,117.677419 L122.580645,117.677419 L122.580645,98.0645161 L102.967742,98.0645161 L102.967742,117.677419 Z M107.870968,102.967742 L117.677419,102.967742 L117.677419,112.774194 L107.870968,112.774194 L107.870968,102.967742 Z" id="Shape"></path>
                    <path d="M100.235276,70.1795989 L97.8032755,74.4355989 L106.947792,79.6624376 L103.922501,79.6624376 C80.3085658,79.6624376 57.1261142,73.2416634 36.8757916,61.0914699 L31.6342432,57.9460505 L29.1115336,62.1505666 L34.353082,65.295986 C55.3634045,77.9021795 79.421082,84.5656634 103.922501,84.5656634 L106.947792,84.5656634 L97.8008239,89.7925021 L100.232824,94.0485021 L121.123017,82.1140505 L100.235276,70.1795989 Z" id="Shape" transform="translate(75.117276, 75.997276) scale(1, -1) rotate(144.000000) translate(-75.117276, -75.997276) "></path>
                </g>
            </g>
        </g>
    </g>
</svg>