<?xml version="1.0" encoding="UTF-8"?>
<svg width="50px" height="50px" viewBox="0 0 50 50" version="1.1" xmlns="http://www.w3.org/2000/svg" xmlns:xlink="http://www.w3.org/1999/xlink">
    <!-- Generator: sketchtool 50.2 (55047) - http://www.bohemiancoding.com/sketch -->
    <title>86C818A1-9AE0-4B84-8F2F-31BBE10C75D1</title>
    <desc>Created with sketchtool.</desc>
    <defs></defs>
    <g id="Visuals-Homepage-v2" stroke="none" stroke-width="1" fill="none" fill-rule="evenodd">
        <g id="Home-page-alternative-data-panel" transform="translate(-985.000000, -332.000000)" fill-rule="nonzero">
            <g id="loss" transform="translate(985.000000, 332.000000)">
                <g id="Group" transform="translate(10.483871, 0.806452)" fill="#24CD97">
                    <circle id="Oval" cx="28.2258065" cy="10.483871" r="10.483871"></circle>
                    <rect id="Rectangle-path" x="0" y="25.8064516" width="4.83870968" height="11.2903226"></rect>
                    <rect id="Rectangle-path" x="8.06451613" y="29.0322581" width="4.83870968" height="8.06451613"></rect>
                    <rect id="Rectangle-path" x="16.1290323" y="30.6451613" width="4.83870968" height="6.4516129"></rect>
                    <rect id="Rectangle-path" x="24.1935484" y="32.2580645" width="4.83870968" height="4.83870968"></rect>
                </g>
                <g id="Group" fill="#3F3A34">
                    <path d="M35.483871,43.5483871 L48.3870968,43.5483871 L48.3870968,45.9677419 C48.3870968,47.3016129 47.3016129,48.3870968 45.9677419,48.3870968 L4.03225806,48.3870968 C2.6983871,48.3870968 1.61290323,47.3016129 1.61290323,45.9677419 L1.61290323,43.5483871 L14.516129,43.5483871 L14.516129,41.9354839 L0,41.9354839 L0,45.9677419 C0,48.191129 1.80887097,50 4.03225806,50 L45.9677419,50 C48.191129,50 50,48.191129 50,45.9677419 L50,41.9354839 L35.483871,41.9354839 L35.483871,43.5483871 Z" id="Shape"></path>
                    <path d="M18.5483871,46.7741935 L31.4516129,46.7741935 C32.7854839,46.7741935 33.8709677,45.6887097 33.8709677,44.3548387 L33.8709677,41.9354839 L16.1290323,41.9354839 L16.1290323,44.3548387 C16.1290323,45.6887097 17.2145161,46.7741935 18.5483871,46.7741935 Z M17.7419355,43.5483871 L32.2580645,43.5483871 L32.2580645,44.3548387 C32.2580645,44.7991935 31.8959677,45.1612903 31.4516129,45.1612903 L18.5483871,45.1612903 C18.1040323,45.1612903 17.7419355,44.7991935 17.7419355,44.3548387 L17.7419355,43.5483871 Z" id="Shape"></path>
                    <rect id="Rectangle-path" x="4.83870968" y="45.1612903" width="1.61290323" height="1.61290323"></rect>
                    <rect id="Rectangle-path" x="8.06451613" y="45.1612903" width="1.61290323" height="1.61290323"></rect>
                    <rect id="Rectangle-path" x="11.2903226" y="45.1612903" width="1.61290323" height="1.61290323"></rect>
                    <rect id="Rectangle-path" x="46.7741935" y="20.9677419" width="1.61290323" height="19.3548387"></rect>
                    <path d="M3.22580645,12.9032258 C3.22580645,11.5693548 4.31129032,10.483871 5.64516129,10.483871 L25.8064516,10.483871 L25.8064516,8.87096774 L5.64516129,8.87096774 C3.42177419,8.87096774 1.61290323,10.6798387 1.61290323,12.9032258 L1.61290323,40.3225806 L3.22580645,40.3225806 L3.22580645,12.9032258 Z" id="Shape"></path>
                    <rect id="Rectangle-path" x="43.5483871" y="23.3870968" width="1.61290323" height="16.9354839"></rect>
                    <path d="M4.83870968,13.7096774 L4.83870968,40.3225806 L6.4516129,40.3225806 L6.4516129,13.7096774 L25.8064516,13.7096774 L25.8064516,12.0967742 L6.4516129,12.0967742 C5.56209677,12.0967742 4.83870968,12.8201613 4.83870968,13.7096774 Z" id="Shape"></path>
                    <path d="M38.7096774,22.5806452 C44.9354839,22.5806452 50,17.516129 50,11.2903226 C50,5.06451613 44.9354839,0 38.7096774,0 C32.483871,0 27.4193548,5.06451613 27.4193548,11.2903226 C27.4193548,17.516129 32.483871,22.5806452 38.7096774,22.5806452 Z M38.7096774,1.61290323 C44.0459677,1.61290323 48.3870968,5.95403226 48.3870968,11.2903226 C48.3870968,16.6266129 44.0459677,20.9677419 38.7096774,20.9677419 C33.3733871,20.9677419 29.0322581,16.6266129 29.0322581,11.2903226 C29.0322581,5.95403226 33.3733871,1.61290323 38.7096774,1.61290323 Z" id="Shape"></path>
                    <path d="M37.9032258,17.7008065 L37.9032258,19.3548387 L39.516129,19.3548387 L39.516129,17.7008065 C41.3258065,17.4975806 42.7419355,15.9758065 42.7419355,14.1129032 C42.7419355,12.1120968 41.1137097,10.483871 39.1129032,10.483871 L38.3064516,10.483871 C37.1951613,10.483871 36.2903226,9.57903226 36.2903226,8.46774194 C36.2903226,7.35645161 37.1951613,6.4516129 38.3064516,6.4516129 L39.1129032,6.4516129 C40.2241935,6.4516129 41.1290323,7.35645161 41.1290323,8.46774194 L41.1290323,8.87096774 L42.7419355,8.87096774 L42.7419355,8.46774194 C42.7419355,6.60483871 41.3258065,5.08306452 39.516129,4.87983871 L39.516129,3.22580645 L37.9032258,3.22580645 L37.9032258,4.87983871 C36.0935484,5.08306452 34.6774194,6.60483871 34.6774194,8.46774194 C34.6774194,10.4685484 36.3056452,12.0967742 38.3064516,12.0967742 L39.1129032,12.0967742 C40.2241935,12.0967742 41.1290323,13.0016129 41.1290323,14.1129032 C41.1290323,15.2241935 40.2241935,16.1290323 39.1129032,16.1290323 L38.3064516,16.1290323 C37.1951613,16.1290323 36.2903226,15.2241935 36.2903226,14.1129032 L36.2903226,13.7096774 L34.6774194,13.7096774 L34.6774194,14.1129032 C34.6774194,15.9758065 36.0935484,17.4975806 37.9032258,17.7008065 Z" id="Shape"></path>
                    <path d="M16.1290323,25.8064516 L9.67741935,25.8064516 L9.67741935,38.7096774 L16.1290323,38.7096774 L16.1290323,25.8064516 Z M14.516129,37.0967742 L11.2903226,37.0967742 L11.2903226,27.4193548 L14.516129,27.4193548 L14.516129,37.0967742 Z" id="Shape"></path>
                    <path d="M17.7419355,29.0322581 L17.7419355,38.7096774 L24.1935484,38.7096774 L24.1935484,29.0322581 L17.7419355,29.0322581 Z M22.5806452,37.0967742 L19.3548387,37.0967742 L19.3548387,30.6451613 L22.5806452,30.6451613 L22.5806452,37.0967742 Z" id="Shape"></path>
                    <path d="M25.8064516,30.6451613 L25.8064516,38.7096774 L32.2580645,38.7096774 L32.2580645,30.6451613 L25.8064516,30.6451613 Z M30.6451613,37.0967742 L27.4193548,37.0967742 L27.4193548,32.2580645 L30.6451613,32.2580645 L30.6451613,37.0967742 Z" id="Shape"></path>
                    <path d="M33.8709677,38.7096774 L40.3225806,38.7096774 L40.3225806,32.2580645 L33.8709677,32.2580645 L33.8709677,38.7096774 Z M35.483871,33.8709677 L38.7096774,33.8709677 L38.7096774,37.0967742 L35.483871,37.0967742 L35.483871,33.8709677 Z" id="Shape"></path>
                </g>
                <path d="M32.9721301,23.0853944 L32.1721301,24.4853944 L35.1801946,26.2047492 L34.1850333,26.2047492 C26.4172914,26.2047492 18.7914849,24.0926524 12.1301946,20.0958782 L10.4060011,19.0612008 L9.57616236,20.4442653 L11.3003559,21.4789428 C18.2116462,25.625717 26.1253559,27.8176524 34.1850333,27.8176524 L35.1801946,27.8176524 L32.1713236,29.5370073 L32.9713236,30.9370073 L39.8430978,27.0112008 L32.9721301,23.0853944 Z" id="Shape" fill="#000000" transform="translate(24.709630, 24.999104) scale(1, -1) rotate(144.000000) translate(-24.709630, -24.999104) "></path>
            </g>
        </g>
    </g>
</svg>