<?xml version="1.0" encoding="UTF-8"?>
<svg width="152px" height="168px" viewBox="0 0 152 168" version="1.1" xmlns="http://www.w3.org/2000/svg" xmlns:xlink="http://www.w3.org/1999/xlink">
    <!-- Generator: sketchtool 50.2 (55047) - http://www.bohemiancoding.com/sketch -->
    <title>DF9F825D-0FF5-4E54-8A32-B6FCE2115AB6</title>
    <desc>Created with sketchtool.</desc>
    <defs></defs>
    <g id="Visuals-Homepage-v2" stroke="none" stroke-width="1" fill="none" fill-rule="evenodd" opacity="0.100000001">
        <g id="Home-page-alternative-data-panel" transform="translate(-776.000000, -802.000000)" fill="#FFFFFF" fill-rule="nonzero">
            <g id="motorcycle-copy-2" transform="translate(776.000000, 802.000000)">
                <path d="M116.714286,51.2387097 L152,51.2387097 L152,35.0580645 L124.857143,35.0580645 L124.857143,24.2709677 L114,24.2709677 L114,16.1806452 C114,14.6920258 115.218714,13.483871 116.714286,13.483871 L119.428571,13.483871 L119.428571,21.5741935 L135.714286,21.5741935 C141.702,21.5741935 146.571429,16.7361806 146.571429,10.7870968 C146.571429,4.8380129 141.702,0 135.714286,0 L119.428571,0 L119.428571,8.09032258 L116.714286,8.09032258 C112.224857,8.09032258 108.571429,11.7201806 108.571429,16.1806452 L108.571429,24.2709677 L97.7142857,24.2709677 L97.7142857,35.0580645 L96.7181429,35.0580645 L95.5727143,25.9645419 C95.0651429,21.9247742 91.5908571,18.8774194 87.4922857,18.8774194 L64.505,18.8774194 C60.4064286,18.8774194 56.9321429,21.9247742 56.4245714,25.9645419 L55.2818571,35.0580645 L54.2857143,35.0580645 L54.2857143,24.2709677 L43.4285714,24.2709677 L43.4285714,16.1806452 C43.4285714,11.7201806 39.7751429,8.09032258 35.2857143,8.09032258 L32.5714286,8.09032258 L32.5714286,0 L16.2857143,0 C10.298,0 5.42857143,4.8380129 5.42857143,10.7870968 C5.42857143,16.7361806 10.298,21.5741935 16.2857143,21.5741935 L32.5714286,21.5741935 L32.5714286,13.483871 L35.2857143,13.483871 C36.7812857,13.483871 38,14.6920258 38,16.1806452 L38,24.2709677 L27.1428571,24.2709677 L27.1428571,35.0580645 L0,35.0580645 L0,51.2387097 L35.2857143,51.2387097 C38.2442857,51.2387097 41.0997143,52.2365161 43.4285714,53.9705419 L43.4285714,57.0961032 C43.4285714,61.2949806 41.7837143,65.2430581 38.7952857,68.2095097 L42.6332857,72.0227484 C45.961,68.7192 48.0265714,64.5014452 48.6427143,59.9438968 L54.2857143,67.4193548 L54.2857143,75.5096774 L46.1428571,75.5096774 L46.1428571,80.9032258 L54.2857143,80.9032258 L54.2857143,86.2967742 L59.7142857,86.2967742 L59.7142857,97.083871 L48.8571429,97.083871 L48.8571429,104.057729 L38,114.844826 L38,124.051613 L32.5714286,124.051613 L32.5714286,129.445161 L38,129.445161 L38,137.535484 L49.1014286,137.535484 C50.2495714,144.296297 55.6238571,149.633213 62.4285714,150.776645 L62.4285714,159.109677 C62.4285714,163.570142 66.082,167.2 70.5714286,167.2 L81.4285714,167.2 C85.918,167.2 89.5714286,163.570142 89.5714286,159.109677 L89.5714286,150.776645 C96.3761429,149.63591 101.747714,144.296297 102.898571,137.535484 L114,137.535484 L114,129.445161 L119.428571,129.445161 L119.428571,124.051613 L114,124.051613 L114,114.844826 L103.142857,104.057729 L103.142857,97.083871 L92.2857143,97.083871 L92.2857143,86.2967742 L97.7142857,86.2967742 L97.7142857,80.9032258 L105.857143,80.9032258 L105.857143,75.5096774 L97.7142857,75.5096774 L97.7142857,67.4193548 L103.357286,59.9465935 C103.973429,64.5041419 106.039,68.7192 109.366714,72.0254452 L113.204714,68.2122065 C110.216286,65.2403613 108.571429,61.2949806 108.571429,57.0961032 L108.571429,53.9705419 C110.900286,52.2365161 113.755714,51.2387097 116.714286,51.2387097 Z M124.857143,5.39354839 L135.714286,5.39354839 C138.708143,5.39354839 141.142857,7.81255484 141.142857,10.7870968 C141.142857,13.7616387 138.708143,16.1806452 135.714286,16.1806452 L124.857143,16.1806452 L124.857143,13.483871 L130.285714,13.483871 L130.285714,8.09032258 L124.857143,8.09032258 L124.857143,5.39354839 Z M27.1428571,16.1806452 L16.2857143,16.1806452 C13.2918571,16.1806452 10.8571429,13.7616387 10.8571429,10.7870968 C10.8571429,7.81255484 13.2918571,5.39354839 16.2857143,5.39354839 L27.1428571,5.39354839 L27.1428571,8.09032258 L21.7142857,8.09032258 L21.7142857,13.483871 L27.1428571,13.483871 L27.1428571,16.1806452 Z M43.4285714,117.077755 L48.8571429,111.684206 L48.8571429,132.141935 L43.4285714,132.141935 L43.4285714,117.077755 Z M108.571429,117.077755 L108.571429,132.141935 L103.142857,132.141935 L103.142857,111.684206 L108.571429,117.077755 Z M146.571429,45.8451613 L130.285714,45.8451613 L130.285714,40.4516129 L146.571429,40.4516129 L146.571429,45.8451613 Z M103.142857,29.6645161 L119.428571,29.6645161 L119.428571,35.0580645 L103.142857,35.0580645 L103.142857,29.6645161 Z M32.5714286,29.6645161 L48.8571429,29.6645161 L48.8571429,35.0580645 L32.5714286,35.0580645 L32.5714286,29.6645161 Z M5.42857143,40.4516129 L21.7142857,40.4516129 L21.7142857,45.8451613 L5.42857143,45.8451613 L5.42857143,40.4516129 Z M89.5714286,110.567742 L89.5714286,113.264516 L81.4285714,113.264516 L70.5714286,113.264516 L62.4285714,113.264516 L62.4285714,110.567742 C62.4285714,103.132735 68.5167143,97.083871 76,97.083871 C83.4832857,97.083871 89.5714286,103.132735 89.5714286,110.567742 Z M54.2857143,134.83871 L54.2857143,102.477419 L58.8592857,102.477419 C57.6812857,104.934181 57,107.671406 57,110.567742 L57,118.658065 L62.928,118.658065 C62.624,119.504852 62.4285714,120.405574 62.4285714,121.354839 L62.4285714,145.242865 C57.76,144.037406 54.2857143,139.852013 54.2857143,134.83871 Z M81.4285714,161.806452 L70.5714286,161.806452 C69.0758571,161.806452 67.8571429,160.598297 67.8571429,159.109677 L73.2857143,159.109677 L73.2857143,153.716129 L67.8571429,153.716129 L67.8571429,148.322581 L73.2857143,148.322581 L73.2857143,142.929032 L67.8571429,142.929032 L67.8571429,137.535484 L73.2857143,137.535484 L73.2857143,132.141935 L67.8571429,132.141935 L67.8571429,126.748387 L73.2857143,126.748387 L73.2857143,121.354839 L67.8571429,121.354839 C67.8571429,119.866219 69.0758571,118.658065 70.5714286,118.658065 L81.4285714,118.658065 C82.9241429,118.658065 84.1428571,119.866219 84.1428571,121.354839 L78.7142857,121.354839 L78.7142857,126.748387 L84.1428571,126.748387 L84.1428571,132.141935 L78.7142857,132.141935 L78.7142857,137.535484 L84.1428571,137.535484 L84.1428571,142.929032 L78.7142857,142.929032 L78.7142857,148.322581 L84.1428571,148.322581 L84.1428571,153.716129 L78.7142857,153.716129 L78.7142857,159.109677 L84.1428571,159.109677 C84.1428571,160.598297 82.9241429,161.806452 81.4285714,161.806452 Z M97.7142857,134.83871 C97.7142857,139.852013 94.24,144.037406 89.5714286,145.242865 L89.5714286,121.354839 C89.5714286,120.405574 89.376,119.504852 89.072,118.658065 L95,118.658065 L95,110.567742 C95,107.671406 94.3187143,104.934181 93.1407143,102.477419 L97.7142857,102.477419 L97.7142857,134.83871 Z M86.8571429,95.0990452 C83.7764286,92.9578065 80.0361429,91.6903226 76,91.6903226 C71.9638571,91.6903226 68.2235714,92.9578065 65.1428571,95.0990452 L65.1428571,86.2967742 L86.8571429,86.2967742 L86.8571429,95.0990452 Z M101.514286,53.3988258 L92.967,64.7225806 L92.2857143,64.7225806 L92.2857143,65.6233032 L90.1142857,68.4980645 L92.2857143,70.116129 L92.2857143,80.9032258 L59.7142857,80.9032258 L59.7142857,70.116129 L61.8857143,68.4980645 L59.7142857,65.6233032 L59.7142857,64.7225806 L59.0357143,64.7225806 L50.4857143,53.3988258 C46.9164286,48.6686839 41.2327143,45.8451613 35.2857143,45.8451613 L27.1428571,45.8451613 L27.1428571,40.4516129 L54.6032857,40.4516129 L54.3047143,42.8139871 L59.6898571,43.4827871 L61.8097143,26.6333419 C61.9834286,25.2876516 63.1397143,24.2709677 64.5077143,24.2709677 L87.495,24.2709677 C88.8602857,24.2709677 90.0192857,25.2876516 90.1875714,26.6333419 L92.3074286,43.4827871 L97.6925714,42.8139871 L97.3967143,40.4516129 L124.857143,40.4516129 L124.857143,45.8451613 L116.714286,45.8451613 C110.767286,45.8451613 105.083571,48.6686839 101.514286,53.3988258 Z" id="Shape"></path>
                <path d="M76,37.7548387 C67.0184286,37.7548387 59.7142857,45.0118581 59.7142857,53.9354839 C59.7142857,62.8591097 67.0184286,70.116129 76,70.116129 C84.9815714,70.116129 92.2857143,62.8591097 92.2857143,53.9354839 C92.2857143,45.0118581 84.9815714,37.7548387 76,37.7548387 Z M76,64.7225806 C70.0122857,64.7225806 65.1428571,59.8845677 65.1428571,53.9354839 C65.1428571,47.9864 70.0122857,43.1483871 76,43.1483871 C81.9877143,43.1483871 86.8571429,47.9864 86.8571429,53.9354839 C86.8571429,59.8845677 81.9877143,64.7225806 76,64.7225806 Z" id="Shape"></path>
                <g id="Group" transform="translate(24.142857, 64.419355)">
                    <path d="M13.8571429,21.5741935 C18.192334,21.5741935 21.7142857,18.0749641 21.7142857,13.7870968 C21.7142857,9.49922941 18.192334,6 13.8571429,6 C9.52195168,6 6,9.49922941 6,13.7870968 C6,18.0749641 9.52195168,21.5741935 13.8571429,21.5741935 Z M13.8571429,27.5741935 C6.21690547,27.5741935 0,21.3973972 0,13.7870968 C0,6.1767964 6.21690547,0 13.8571429,0 C21.4973802,0 27.7142857,6.1767964 27.7142857,13.7870968 C27.7142857,21.3973972 21.4973802,27.5741935 13.8571429,27.5741935 Z" id="Shape"></path>
                    <path d="M89.8571429,21.5741935 C94.192334,21.5741935 97.7142857,18.0749641 97.7142857,13.7870968 C97.7142857,9.49922941 94.192334,6 89.8571429,6 C85.5219517,6 82,9.49922941 82,13.7870968 C82,18.0749641 85.5219517,21.5741935 89.8571429,21.5741935 Z M89.8571429,27.5741935 C82.2169055,27.5741935 76,21.3973972 76,13.7870968 C76,6.1767964 82.2169055,0 89.8571429,0 C97.4973802,0 103.714286,6.1767964 103.714286,13.7870968 C103.714286,21.3973972 97.4973802,27.5741935 89.8571429,27.5741935 Z" id="Shape"></path>
                </g>
            </g>
        </g>
    </g>
</svg>