<?xml version="1.0" encoding="UTF-8"?>
<svg width="40px" height="44px" viewBox="0 0 40 44" version="1.1" xmlns="http://www.w3.org/2000/svg" xmlns:xlink="http://www.w3.org/1999/xlink">
    <!-- Generator: sketchtool 50.2 (55047) - http://www.bohemiancoding.com/sketch -->
    <title>5E4D6726-A005-4F83-8930-BFB87AF03877</title>
    <desc>Created with sketchtool.</desc>
    <defs></defs>
    <g id="Visuals-Homepage-v2" stroke="none" stroke-width="1" fill="none" fill-rule="evenodd">
        <g id="Home-page-alternative-data-panel" transform="translate(-636.000000, -797.000000)" fill-rule="nonzero">
            <g id="motorcycle-copy" transform="translate(636.000000, 797.000000)">
                <path d="M30.7142857,13.483871 L40,13.483871 L40,9.22580645 L32.8571429,9.22580645 L32.8571429,6.38709677 L30,6.38709677 L30,4.25806452 C30,3.86632258 30.3207143,3.5483871 30.7142857,3.5483871 L31.4285714,3.5483871 L31.4285714,5.67741935 L35.7142857,5.67741935 C37.29,5.67741935 38.5714286,4.40425806 38.5714286,2.83870968 C38.5714286,1.27316129 37.29,0 35.7142857,0 L31.4285714,0 L31.4285714,2.12903226 L30.7142857,2.12903226 C29.5328571,2.12903226 28.5714286,3.08425806 28.5714286,4.25806452 L28.5714286,6.38709677 L25.7142857,6.38709677 L25.7142857,9.22580645 L25.4521429,9.22580645 L25.1507143,6.83277419 C25.0171429,5.76967742 24.1028571,4.96774194 23.0242857,4.96774194 L16.975,4.96774194 C15.8964286,4.96774194 14.9821429,5.76967742 14.8485714,6.83277419 L14.5478571,9.22580645 L14.2857143,9.22580645 L14.2857143,6.38709677 L11.4285714,6.38709677 L11.4285714,4.25806452 C11.4285714,3.08425806 10.4671429,2.12903226 9.28571429,2.12903226 L8.57142857,2.12903226 L8.57142857,0 L4.28571429,0 C2.71,0 1.42857143,1.27316129 1.42857143,2.83870968 C1.42857143,4.40425806 2.71,5.67741935 4.28571429,5.67741935 L8.57142857,5.67741935 L8.57142857,3.5483871 L9.28571429,3.5483871 C9.67928571,3.5483871 10,3.86632258 10,4.25806452 L10,6.38709677 L7.14285714,6.38709677 L7.14285714,9.22580645 L0,9.22580645 L0,13.483871 L9.28571429,13.483871 C10.0642857,13.483871 10.8157143,13.7464516 11.4285714,14.2027742 L11.4285714,15.0252903 C11.4285714,16.1302581 10.9957143,17.1692258 10.2092857,17.949871 L11.2192857,18.9533548 C12.095,18.084 12.6385714,16.9740645 12.8007143,15.7747097 L14.2857143,17.7419355 L14.2857143,19.8709677 L12.1428571,19.8709677 L12.1428571,21.2903226 L14.2857143,21.2903226 L14.2857143,22.7096774 L15.7142857,22.7096774 L15.7142857,25.5483871 L12.8571429,25.5483871 L12.8571429,27.3836129 L10,30.2223226 L10,32.6451613 L8.57142857,32.6451613 L8.57142857,34.0645161 L10,34.0645161 L10,36.1935484 L12.9214286,36.1935484 C13.2235714,37.9727097 14.6378571,39.3771613 16.4285714,39.6780645 L16.4285714,41.8709677 C16.4285714,43.0447742 17.39,44 18.5714286,44 L21.4285714,44 C22.61,44 23.5714286,43.0447742 23.5714286,41.8709677 L23.5714286,39.6780645 C25.3621429,39.377871 26.7757143,37.9727097 27.0785714,36.1935484 L30,36.1935484 L30,34.0645161 L31.4285714,34.0645161 L31.4285714,32.6451613 L30,32.6451613 L30,30.2223226 L27.1428571,27.3836129 L27.1428571,25.5483871 L24.2857143,25.5483871 L24.2857143,22.7096774 L25.7142857,22.7096774 L25.7142857,21.2903226 L27.8571429,21.2903226 L27.8571429,19.8709677 L25.7142857,19.8709677 L25.7142857,17.7419355 L27.1992857,15.7754194 C27.3614286,16.9747742 27.905,18.084 28.7807143,18.9540645 L29.7907143,17.9505806 C29.0042857,17.1685161 28.5714286,16.1302581 28.5714286,15.0252903 L28.5714286,14.2027742 C29.1842857,13.7464516 29.9357143,13.483871 30.7142857,13.483871 Z M32.8571429,1.41935484 L35.7142857,1.41935484 C36.5021429,1.41935484 37.1428571,2.05593548 37.1428571,2.83870968 C37.1428571,3.62148387 36.5021429,4.25806452 35.7142857,4.25806452 L32.8571429,4.25806452 L32.8571429,3.5483871 L34.2857143,3.5483871 L34.2857143,2.12903226 L32.8571429,2.12903226 L32.8571429,1.41935484 Z M7.14285714,4.25806452 L4.28571429,4.25806452 C3.49785714,4.25806452 2.85714286,3.62148387 2.85714286,2.83870968 C2.85714286,2.05593548 3.49785714,1.41935484 4.28571429,1.41935484 L7.14285714,1.41935484 L7.14285714,2.12903226 L5.71428571,2.12903226 L5.71428571,3.5483871 L7.14285714,3.5483871 L7.14285714,4.25806452 Z M11.4285714,30.8099355 L12.8571429,29.3905806 L12.8571429,34.7741935 L11.4285714,34.7741935 L11.4285714,30.8099355 Z M28.5714286,30.8099355 L28.5714286,34.7741935 L27.1428571,34.7741935 L27.1428571,29.3905806 L28.5714286,30.8099355 Z M38.5714286,12.0645161 L34.2857143,12.0645161 L34.2857143,10.6451613 L38.5714286,10.6451613 L38.5714286,12.0645161 Z M27.1428571,7.80645161 L31.4285714,7.80645161 L31.4285714,9.22580645 L27.1428571,9.22580645 L27.1428571,7.80645161 Z M8.57142857,7.80645161 L12.8571429,7.80645161 L12.8571429,9.22580645 L8.57142857,9.22580645 L8.57142857,7.80645161 Z M1.42857143,10.6451613 L5.71428571,10.6451613 L5.71428571,12.0645161 L1.42857143,12.0645161 L1.42857143,10.6451613 Z M23.5714286,29.0967742 L23.5714286,29.8064516 L21.4285714,29.8064516 L18.5714286,29.8064516 L16.4285714,29.8064516 L16.4285714,29.0967742 C16.4285714,27.1401935 18.0307143,25.5483871 20,25.5483871 C21.9692857,25.5483871 23.5714286,27.1401935 23.5714286,29.0967742 Z M14.2857143,35.483871 L14.2857143,26.9677419 L15.4892857,26.9677419 C15.1792857,27.6142581 15,28.3345806 15,29.0967742 L15,31.2258065 L16.56,31.2258065 C16.48,31.4486452 16.4285714,31.6856774 16.4285714,31.9354839 L16.4285714,38.2218065 C15.2,37.9045806 14.2857143,36.8031613 14.2857143,35.483871 Z M21.4285714,42.5806452 L18.5714286,42.5806452 C18.1778571,42.5806452 17.8571429,42.2627097 17.8571429,41.8709677 L19.2857143,41.8709677 L19.2857143,40.4516129 L17.8571429,40.4516129 L17.8571429,39.0322581 L19.2857143,39.0322581 L19.2857143,37.6129032 L17.8571429,37.6129032 L17.8571429,36.1935484 L19.2857143,36.1935484 L19.2857143,34.7741935 L17.8571429,34.7741935 L17.8571429,33.3548387 L19.2857143,33.3548387 L19.2857143,31.9354839 L17.8571429,31.9354839 C17.8571429,31.5437419 18.1778571,31.2258065 18.5714286,31.2258065 L21.4285714,31.2258065 C21.8221429,31.2258065 22.1428571,31.5437419 22.1428571,31.9354839 L20.7142857,31.9354839 L20.7142857,33.3548387 L22.1428571,33.3548387 L22.1428571,34.7741935 L20.7142857,34.7741935 L20.7142857,36.1935484 L22.1428571,36.1935484 L22.1428571,37.6129032 L20.7142857,37.6129032 L20.7142857,39.0322581 L22.1428571,39.0322581 L22.1428571,40.4516129 L20.7142857,40.4516129 L20.7142857,41.8709677 L22.1428571,41.8709677 C22.1428571,42.2627097 21.8221429,42.5806452 21.4285714,42.5806452 Z M25.7142857,35.483871 C25.7142857,36.8031613 24.8,37.9045806 23.5714286,38.2218065 L23.5714286,31.9354839 C23.5714286,31.6856774 23.52,31.4486452 23.44,31.2258065 L25,31.2258065 L25,29.0967742 C25,28.3345806 24.8207143,27.6142581 24.5107143,26.9677419 L25.7142857,26.9677419 L25.7142857,35.483871 Z M22.8571429,25.0260645 C22.0464286,24.4625806 21.0621429,24.1290323 20,24.1290323 C18.9378571,24.1290323 17.9535714,24.4625806 17.1428571,25.0260645 L17.1428571,22.7096774 L22.8571429,22.7096774 L22.8571429,25.0260645 Z M26.7142857,14.0523226 L24.465,17.0322581 L24.2857143,17.0322581 L24.2857143,17.2692903 L23.7142857,18.0258065 L24.2857143,18.4516129 L24.2857143,21.2903226 L15.7142857,21.2903226 L15.7142857,18.4516129 L16.2857143,18.0258065 L15.7142857,17.2692903 L15.7142857,17.0322581 L15.5357143,17.0322581 L13.2857143,14.0523226 C12.3464286,12.8075484 10.8507143,12.0645161 9.28571429,12.0645161 L7.14285714,12.0645161 L7.14285714,10.6451613 L14.3692857,10.6451613 L14.2907143,11.2668387 L15.7078571,11.4428387 L16.2657143,7.00877419 C16.3114286,6.65464516 16.6157143,6.38709677 16.9757143,6.38709677 L23.025,6.38709677 C23.3842857,6.38709677 23.6892857,6.65464516 23.7335714,7.00877419 L24.2914286,11.4428387 L25.7085714,11.2668387 L25.6307143,10.6451613 L32.8571429,10.6451613 L32.8571429,12.0645161 L30.7142857,12.0645161 C29.1492857,12.0645161 27.6535714,12.8075484 26.7142857,14.0523226 Z" id="Shape" fill="#000000"></path>
                <ellipse id="Oval" fill="#A19EFF" cx="20" cy="14.1935484" rx="6.42857143" ry="6.38709677"></ellipse>
                <path d="M20,9.93548387 C17.6364286,9.93548387 15.7142857,11.8452258 15.7142857,14.1935484 C15.7142857,16.541871 17.6364286,18.4516129 20,18.4516129 C22.3635714,18.4516129 24.2857143,16.541871 24.2857143,14.1935484 C24.2857143,11.8452258 22.3635714,9.93548387 20,9.93548387 Z M20,17.0322581 C18.4242857,17.0322581 17.1428571,15.7590968 17.1428571,14.1935484 C17.1428571,12.628 18.4242857,11.3548387 20,11.3548387 C21.5757143,11.3548387 22.8571429,12.628 22.8571429,14.1935484 C22.8571429,15.7590968 21.5757143,17.0322581 20,17.0322581 Z" id="Shape" fill="#000000"></path>
                <g id="Group" transform="translate(7.142857, 17.741935)" fill="#A19EFF">
                    <path d="M2.85714286,5.67741935 C1.28142857,5.67741935 0,4.40425806 0,2.83870968 C0,1.27316129 1.28142857,0 2.85714286,0 C4.43285714,0 5.71428571,1.27316129 5.71428571,2.83870968 C5.71428571,4.40425806 4.43285714,5.67741935 2.85714286,5.67741935 Z" id="Shape"></path>
                    <path d="M22.8571429,5.67741935 C21.2814286,5.67741935 20,4.40425806 20,2.83870968 C20,1.27316129 21.2814286,0 22.8571429,0 C24.4328571,0 25.7142857,1.27316129 25.7142857,2.83870968 C25.7142857,4.40425806 24.4328571,5.67741935 22.8571429,5.67741935 Z" id="Shape"></path>
                </g>
            </g>
        </g>
    </g>
</svg>