<?xml version="1.0" encoding="UTF-8"?>
<svg width="40px" height="40px" viewBox="0 0 40 40" version="1.1" xmlns="http://www.w3.org/2000/svg" xmlns:xlink="http://www.w3.org/1999/xlink">
    <!-- Generator: sketchtool 50.2 (55047) - http://www.bohemiancoding.com/sketch -->
    <title>A36BFFD3-DFC6-4D11-B0D0-A5B39245B8F2</title>
    <desc>Created with sketchtool.</desc>
    <defs></defs>
    <g id="Visuals-Homepage-v2" stroke="none" stroke-width="1" fill="none" fill-rule="evenodd">
        <g id="Home-page-alternative-data-panel" transform="translate(-2760.000000, -797.000000)" fill-rule="nonzero">
            <g id="oil-(1)-copy" transform="translate(2760.000000, 797.000000)">
                <rect id="Rectangle-path" fill="#9795F3" x="0.64516129" y="23.8709677" width="18.0645161" height="11.6129032"></rect>
                <g id="Group" fill="#333333">
                    <path d="M40,10.3225806 C40,4.63096774 35.3690323,0 29.6774194,0 C23.9858065,0 19.3548387,4.63096774 19.3548387,10.3225806 C19.3548387,14.5354839 21.9309677,18.3167742 25.8064516,19.8864516 L25.8064516,29.6774194 C25.8064516,30.7445161 26.6748387,31.6129032 27.7419355,31.6129032 L27.7419355,35.483871 L29.0322581,35.483871 L29.0322581,40 L30.3225806,40 L30.3225806,35.483871 L31.6129032,35.483871 L31.6129032,31.6129032 C32.68,31.6129032 33.5483871,30.7445161 33.5483871,29.6774194 L33.5483871,19.8864516 C37.4232258,18.3167742 40,14.5348387 40,10.3225806 Z M35.1367742,12.2580645 C34.8135484,13.1664516 34.2696774,13.9825806 33.5483871,14.6329032 L33.5483871,12.2580645 L35.1367742,12.2580645 Z M23.8709677,10.3225806 C23.8709677,10.1045161 23.8851613,9.88967742 23.9090323,9.67741935 L35.4458065,9.67741935 C35.4696774,9.88967742 35.483871,10.1045161 35.483871,10.3225806 C35.483871,10.54 35.4645161,10.7541935 35.4406452,10.9677419 L23.9141935,10.9677419 C23.8903226,10.7541935 23.8709677,10.54 23.8709677,10.3225806 Z M24.2096774,8.38709677 C25.0096774,6.13548387 27.1548387,4.51612903 29.6774194,4.51612903 C32.2,4.51612903 34.3451613,6.13548387 35.1451613,8.38709677 L24.2096774,8.38709677 Z M25.8064516,12.2580645 L25.8064516,14.6335484 C25.0851613,13.9832258 24.5412903,13.1664516 24.2180645,12.2580645 L25.8064516,12.2580645 Z M30.3225806,34.1935484 L29.0322581,34.1935484 L29.0322581,31.6129032 L30.3225806,31.6129032 L30.3225806,34.1935484 Z M31.6129032,30.3225806 L27.7419355,30.3225806 C27.3864516,30.3225806 27.0967742,30.0329032 27.0967742,29.6774194 L27.0967742,12.2580645 L32.2580645,12.2580645 L32.2580645,29.6774194 C32.2580645,30.0329032 31.9683871,30.3225806 31.6129032,30.3225806 Z M33.5483871,18.4793548 L33.5483871,16.2535484 C35.5412903,14.9483871 36.7741935,12.7174194 36.7741935,10.3225806 C36.7741935,6.40967742 33.5903226,3.22580645 29.6774194,3.22580645 C25.7645161,3.22580645 22.5806452,6.40967742 22.5806452,10.3225806 C22.5806452,12.7180645 23.8135484,14.9490323 25.8064516,16.2535484 L25.8064516,18.4793548 C22.6864516,16.9974194 20.6451613,13.8309677 20.6451613,10.3225806 C20.6451613,5.34193548 24.6967742,1.29032258 29.6774194,1.29032258 C34.6580645,1.29032258 38.7096774,5.34193548 38.7096774,10.3225806 C38.7096774,13.8303226 36.6683871,16.9974194 33.5483871,18.4793548 Z" id="Shape"></path>
                    <path d="M18.5683871,9.67741935 L18.0645161,9.67741935 L18.0645161,5.16129032 C18.0645161,4.09419355 17.196129,3.22580645 16.1290323,3.22580645 L12.2580645,3.22580645 C11.1909677,3.22580645 10.3225806,4.09419355 10.3225806,5.16129032 L10.3225806,9.67741935 L9.67741935,9.67741935 L9.67741935,15.1296774 L3.52451613,19.0451613 C3.05612903,19.3425806 2.62064516,19.6922581 2.22903226,20.0845161 C0.791612903,21.5219355 0,23.4329032 0,25.4658065 L0,36.7741935 C0,38.5529032 1.44709677,40 3.22580645,40 L16.1290323,40 C17.9077419,40 19.3548387,38.5529032 19.3548387,36.7741935 L19.3548387,23.4180645 C20.1993548,22.0948387 20.6451613,20.5696774 20.6451613,18.9967742 C20.6451613,18.3251613 20.5625806,17.6541935 20.4,17.0032258 L18.5683871,9.67741935 Z M17.396129,12.2580645 L13.5483871,12.2580645 L13.5483871,13.5483871 L17.1606452,13.5483871 C17.0180645,14.003871 16.8187097,14.4367742 16.5664516,14.8387097 L10.9677419,14.8387097 L10.9677419,13.5483871 L12.2580645,13.5483871 L12.2580645,12.2580645 L10.9677419,12.2580645 L10.9677419,10.9677419 L17.4193548,10.9677419 L17.4193548,11.9154839 C17.4193548,12.0309677 17.403871,12.143871 17.396129,12.2580645 Z M16.7741935,5.16129032 L16.7741935,7.09677419 L16.1290323,7.09677419 L16.1290323,4.51612903 C16.4845161,4.51612903 16.7741935,4.80580645 16.7741935,5.16129032 Z M13.5483871,7.09677419 L13.5483871,4.51612903 L14.8387097,4.51612903 L14.8387097,7.09677419 L13.5483871,7.09677419 Z M12.2580645,4.51612903 L12.2580645,7.09677419 L11.6129032,7.09677419 L11.6129032,5.16129032 C11.6129032,4.80580645 11.9025806,4.51612903 12.2580645,4.51612903 Z M11.6129032,8.38709677 L16.7741935,8.38709677 L16.7741935,9.67741935 L11.6129032,9.67741935 L11.6129032,8.38709677 Z M10.5103226,16.1290323 L15.4393548,16.1290323 C15.1916129,16.3367742 14.9316129,16.5309677 14.6464516,16.6941935 C13.816129,17.1683871 12.8716129,17.4193548 11.9154839,17.4193548 L8.48322581,17.4193548 L10.5103226,16.1290323 Z M18.1729032,22.8677419 L18.0645161,23.0303226 L18.0645161,36.7741935 C18.0645161,37.8412903 17.196129,38.7096774 16.1290323,38.7096774 L3.22580645,38.7096774 C2.15870968,38.7096774 1.29032258,37.8412903 1.29032258,36.7741935 L1.29032258,25.4658065 C1.29032258,23.7774194 1.94774194,22.1903226 3.14129032,20.9967742 C3.46645161,20.6716129 3.8283871,20.3812903 4.21741935,20.1341935 L6.45548387,18.7096774 L11.9154839,18.7096774 C13.096129,18.7096774 14.2619355,18.4 15.2864516,17.8141935 C16.7483871,16.9787097 17.8135484,15.6329032 18.3387097,14.08 L19.1477419,17.316129 C19.2851613,17.8651613 19.3548387,18.4309677 19.3548387,18.9967742 C19.3548387,20.3696774 18.9522581,21.6987097 18.1729032,22.8677419 Z" id="Shape"></path>
                    <path d="M9.67741935,28.7651613 L8.84322581,29.5993548 C8.13290323,30.3090323 7.74193548,31.2535484 7.74193548,32.2580645 C7.74193548,33.3251613 8.61032258,34.1935484 9.67741935,34.1935484 C10.7445161,34.1935484 11.6129032,33.3251613 11.6129032,32.2580645 C11.6129032,31.2535484 11.2219355,30.3090323 10.5116129,29.5993548 L9.67741935,28.7651613 Z M9.67741935,32.9032258 C9.32193548,32.9032258 9.03225806,32.6135484 9.03225806,32.2580645 C9.03225806,31.636129 9.26064516,31.0490323 9.67741935,30.5935484 C10.0941935,31.0496774 10.3225806,31.636129 10.3225806,32.2580645 C10.3225806,32.6135484 10.0329032,32.9032258 9.67741935,32.9032258 Z" id="Shape"></path>
                    <rect id="Rectangle-path" x="6.4516129" y="25.8064516" width="6.4516129" height="1.29032258"></rect>
                    <rect id="Rectangle-path" x="6.4516129" y="28.3870968" width="1.29032258" height="1.29032258"></rect>
                    <rect id="Rectangle-path" x="11.6129032" y="28.3870968" width="1.29032258" height="1.29032258"></rect>
                </g>
                <g id="Group" transform="translate(27.096774, 13.548387)" fill="#9795F3">
                    <rect id="Rectangle-path" x="0" y="0" width="5.16129032" height="1.29032258"></rect>
                    <rect id="Rectangle-path" x="0" y="2.58064516" width="5.16129032" height="1.29032258"></rect>
                </g>
            </g>
        </g>
    </g>
</svg>