<?xml version="1.0" encoding="UTF-8"?>
<svg width="152px" height="152px" viewBox="0 0 152 152" version="1.1" xmlns="http://www.w3.org/2000/svg" xmlns:xlink="http://www.w3.org/1999/xlink">
    <!-- Generator: sketchtool 50.2 (55047) - http://www.bohemiancoding.com/sketch -->
    <title>E3AB007B-F24A-4FD8-917B-4941B46802E2</title>
    <desc>Created with sketchtool.</desc>
    <defs></defs>
    <g id="Visuals-Homepage-v2" stroke="none" stroke-width="1" fill="none" fill-rule="evenodd" opacity="0.100000001">
        <g id="Home-page-alternative-data-panel" transform="translate(-2900.000000, -802.000000)" fill="#FFFFFF" fill-rule="nonzero">
            <g id="oil-(1)-copy-2" transform="translate(2900.000000, 802.000000)">
                <g id="Group">
                    <path d="M152,39.2258065 C152,17.5976774 134.402323,0 112.774194,0 C91.1460645,0 73.5483871,17.5976774 73.5483871,39.2258065 C73.5483871,55.2348387 83.3376774,69.6037419 98.0645161,75.5685161 L98.0645161,112.774194 C98.0645161,116.829161 101.364387,120.129032 105.419355,120.129032 L105.419355,134.83871 L110.322581,134.83871 L110.322581,152 L115.225806,152 L115.225806,134.83871 L120.129032,134.83871 L120.129032,120.129032 C124.184,120.129032 127.483871,116.829161 127.483871,112.774194 L127.483871,75.5685161 C142.208258,69.6037419 152,55.2323871 152,39.2258065 Z M133.519742,46.5806452 C132.291484,50.0325161 130.224774,53.1338065 127.483871,55.6050323 L127.483871,46.5806452 L133.519742,46.5806452 Z M90.7096774,39.2258065 C90.7096774,38.3971613 90.7636129,37.5807742 90.8543226,36.7741935 L134.694065,36.7741935 C134.784774,37.5807742 134.83871,38.3971613 134.83871,39.2258065 C134.83871,40.052 134.765161,40.8659355 134.674452,41.6774194 L90.8739355,41.6774194 C90.7832258,40.8659355 90.7096774,40.052 90.7096774,39.2258065 Z M91.9967742,31.8709677 C95.0367742,23.3148387 103.188387,17.1612903 112.774194,17.1612903 C122.36,17.1612903 130.511613,23.3148387 133.551613,31.8709677 L91.9967742,31.8709677 Z M98.0645161,46.5806452 L98.0645161,55.6074839 C95.3236129,53.1362581 93.2569032,50.0325161 92.0286452,46.5806452 L98.0645161,46.5806452 Z M115.225806,129.935484 L110.322581,129.935484 L110.322581,120.129032 L115.225806,120.129032 L115.225806,129.935484 Z M120.129032,115.225806 L105.419355,115.225806 C104.068516,115.225806 102.967742,114.125032 102.967742,112.774194 L102.967742,46.5806452 L122.580645,46.5806452 L122.580645,112.774194 C122.580645,114.125032 121.479871,115.225806 120.129032,115.225806 Z M127.483871,70.2215484 L127.483871,61.7634839 C135.056903,56.803871 139.741935,48.3261935 139.741935,39.2258065 C139.741935,24.3567742 127.643226,12.2580645 112.774194,12.2580645 C97.9051613,12.2580645 85.8064516,24.3567742 85.8064516,39.2258065 C85.8064516,48.3286452 90.4914839,56.8063226 98.0645161,61.7634839 L98.0645161,70.2215484 C86.2085161,64.5901935 78.4516129,52.5576774 78.4516129,39.2258065 C78.4516129,20.2993548 93.8477419,4.90322581 112.774194,4.90322581 C131.700645,4.90322581 147.096774,20.2993548 147.096774,39.2258065 C147.096774,52.5552258 139.339871,64.5901935 127.483871,70.2215484 Z" id="Shape"></path>
                    <path d="M70.559871,36.7741935 L68.6451613,36.7741935 L68.6451613,19.6129032 C68.6451613,15.5579355 65.3452903,12.2580645 61.2903226,12.2580645 L46.5806452,12.2580645 C42.5256774,12.2580645 39.2258065,15.5579355 39.2258065,19.6129032 L39.2258065,36.7741935 L36.7741935,36.7741935 L36.7741935,57.4927742 L13.3931613,72.3716129 C11.6132903,73.5018065 9.95845161,74.8305806 8.47032258,76.3211613 C3.00812903,81.7833548 0,89.0450323 0,96.7700645 L0,139.741935 C0,146.501032 5.49896774,152 12.2580645,152 L61.2903226,152 C68.0494194,152 73.5483871,146.501032 73.5483871,139.741935 L73.5483871,88.9886452 C76.7575484,83.9603871 78.4516129,78.1647742 78.4516129,72.1877419 C78.4516129,69.6356129 78.1378065,67.0859355 77.52,64.6122581 L70.559871,36.7741935 Z M66.1052903,46.5806452 L51.483871,46.5806452 L51.483871,51.483871 L65.2104516,51.483871 C64.6686452,53.2147097 63.9110968,54.8597419 62.9525161,56.3870968 L41.6774194,56.3870968 L41.6774194,51.483871 L46.5806452,51.483871 L46.5806452,46.5806452 L41.6774194,46.5806452 L41.6774194,41.6774194 L66.1935484,41.6774194 L66.1935484,45.2788387 C66.1935484,45.7176774 66.1347097,46.1467097 66.1052903,46.5806452 Z M63.7419355,19.6129032 L63.7419355,26.9677419 L61.2903226,26.9677419 L61.2903226,17.1612903 C62.6411613,17.1612903 63.7419355,18.2620645 63.7419355,19.6129032 Z M51.483871,26.9677419 L51.483871,17.1612903 L56.3870968,17.1612903 L56.3870968,26.9677419 L51.483871,26.9677419 Z M46.5806452,17.1612903 L46.5806452,26.9677419 L44.1290323,26.9677419 L44.1290323,19.6129032 C44.1290323,18.2620645 45.2298065,17.1612903 46.5806452,17.1612903 Z M44.1290323,31.8709677 L63.7419355,31.8709677 L63.7419355,36.7741935 L44.1290323,36.7741935 L44.1290323,31.8709677 Z M39.9392258,61.2903226 L58.6695484,61.2903226 C57.728129,62.0797419 56.740129,62.8176774 55.6565161,63.4379355 C52.5012903,65.239871 48.912129,66.1935484 45.2788387,66.1935484 L32.2362581,66.1935484 L39.9392258,61.2903226 Z M69.0570323,86.8974194 L68.6451613,87.5152258 L68.6451613,139.741935 C68.6451613,143.796903 65.3452903,147.096774 61.2903226,147.096774 L12.2580645,147.096774 C8.20309677,147.096774 4.90322581,143.796903 4.90322581,139.741935 L4.90322581,96.7700645 C4.90322581,90.3541935 7.40141935,84.3232258 11.9369032,79.7877419 C13.1725161,78.552129 14.547871,77.4489032 16.0261935,76.5099355 L24.5308387,71.0967742 L45.2788387,71.0967742 C49.7652903,71.0967742 54.1953548,69.92 58.0885161,67.6939355 C63.643871,64.5190968 67.6914839,59.4050323 69.6870968,53.504 L72.7614194,65.8012903 C73.2836129,67.8876129 73.5483871,70.0376774 73.5483871,72.1877419 C73.5483871,77.4047742 72.0185806,82.4550968 69.0570323,86.8974194 Z" id="Shape"></path>
                    <path d="M36.7741935,109.307613 L33.6042581,112.477548 C30.9050323,115.174323 29.4193548,118.763484 29.4193548,122.580645 C29.4193548,126.635613 32.7192258,129.935484 36.7741935,129.935484 C40.8291613,129.935484 44.1290323,126.635613 44.1290323,122.580645 C44.1290323,118.763484 42.6433548,115.174323 39.944129,112.477548 L36.7741935,109.307613 Z M36.7741935,125.032258 C35.4233548,125.032258 34.3225806,123.931484 34.3225806,122.580645 C34.3225806,120.21729 35.1904516,117.986323 36.7741935,116.255484 C38.3579355,117.988774 39.2258065,120.21729 39.2258065,122.580645 C39.2258065,123.931484 38.1250323,125.032258 36.7741935,125.032258 Z" id="Shape"></path>
                    <rect id="Rectangle-path" x="24.516129" y="98.0645161" width="24.516129" height="4.90322581"></rect>
                    <rect id="Rectangle-path" x="24.516129" y="107.870968" width="4.90322581" height="4.90322581"></rect>
                    <rect id="Rectangle-path" x="44.1290323" y="107.870968" width="4.90322581" height="4.90322581"></rect>
                </g>
            </g>
        </g>
    </g>
</svg>