<?xml version="1.0" encoding="UTF-8"?>
<svg width="40px" height="40px" viewBox="0 0 40 40" version="1.1" xmlns="http://www.w3.org/2000/svg" xmlns:xlink="http://www.w3.org/1999/xlink">
    <!-- Generator: sketchtool 50.2 (55047) - http://www.bohemiancoding.com/sketch -->
    <title>C5F09D0A-53CB-41DA-9CEF-62E7F2E183B1</title>
    <desc>Created with sketchtool.</desc>
    <defs></defs>
    <g id="Visuals-Homepage-v2" stroke="none" stroke-width="1" fill="none" fill-rule="evenodd">
        <g id="Home-page-alternative-data-panel" transform="translate(-1698.000000, -340.000000)" fill-rule="nonzero">
            <g id="resume-copy" transform="translate(1698.000000, 340.000000)">
                <path d="M6.00353414,9.05156627 L10.0035341,9.05156627 C11.451245,9.05156627 12.8025703,8.32803213 13.6057831,7.12385542 L14.2387149,8.07293173 C14.6454618,8.68465863 15.3317269,9.05156627 16.0661847,9.05156627 C16.5911647,9.05156627 17.0885141,9.25012048 17.4605622,9.57911647 L17.4605622,5.19678715 C17.4605622,4.13140562 16.5975904,3.26843373 15.5322088,3.26843373 C14.7450602,1.69349398 13.1347791,0.69815261 11.3741365,0.69815261 C7.63823293,0.69815261 4.60915663,3.72722892 4.60915663,7.46313253 L4.60915663,9.57911647 C4.98120482,9.25012048 5.47855422,9.05156627 6.00353414,9.05156627 Z" id="Shape" fill="#FFCB57"></path>
                <polygon id="Shape" fill="#3F3A34" points="10.0896386 27.773494 8.81670683 27.5987149 9.57493976 22.0539759 8.91566265 21.0470683 9.99068273 20.3428112 10.9134137 21.7519679"></polygon>
                <path d="M39.3079518,9.85477912 L39.3079518,6.96321285 L37.7799197,6.67662651 C37.6404819,6.1773494 37.444498,5.70248996 37.1951807,5.26040161 L38.0716466,3.97911647 L36.026988,1.93445783 L34.7457028,2.81092369 C34.3036145,2.56160643 33.828755,2.36562249 33.3294779,2.22618474 L33.0428916,0.69815261 L30.1513253,0.69815261 L29.864739,2.22618474 C29.3654618,2.36626506 28.8906024,2.56160643 28.4485141,2.81092369 L27.1672289,1.93445783 L25.1225703,3.97911647 L25.9990361,5.26040161 C25.7497189,5.70248996 25.5537349,6.1773494 25.4142972,6.67662651 L23.8862651,6.96321285 L23.8862651,9.85477912 L25.4142972,10.1413655 C25.5537349,10.6406426 25.7497189,11.115502 25.9990361,11.5575904 L25.1225703,12.8388755 L27.1672289,14.8835341 L28.4485141,14.0070683 C28.8906024,14.2563855 29.3654618,14.4523695 29.864739,14.5918072 L30.1513253,16.1198394 L33.0428916,16.1198394 L33.3294779,14.5918072 C33.828755,14.4523695 34.3036145,14.2563855 34.7457028,14.0070683 L36.026988,14.8835341 L38.0716466,12.8388755 L37.1951807,11.5575904 C37.444498,11.115502 37.6404819,10.6406426 37.7799197,10.1413655 L39.3079518,9.85477912 Z M31.5971084,12.2644177 C29.4676305,12.2644177 27.7416867,10.5384739 27.7416867,8.40899598 C27.7416867,6.27951807 29.4676305,4.5535743 31.5971084,4.5535743 C33.7265863,4.5535743 35.4525301,6.27951807 35.4525301,8.40899598 C35.4525301,10.5384739 33.7265863,12.2644177 31.5971084,12.2644177 Z" id="Shape" fill="#FFCB57"></path>
                <polygon id="Shape" fill="#3F3A34" points="11.9800803 27.773494 11.1563052 21.7519679 12.0790361 20.3428112 13.1540562 21.0470683 12.4947791 22.0539759 13.253012 27.5987149"></polygon>
                <g id="Group" transform="translate(26.425703, 21.204819)" fill="#FFCB57">
                    <rect id="Rectangle-path" x="0.0308433735" y="0.0555823293" width="2.57028112" height="3.85542169"></rect>
                    <rect id="Rectangle-path" x="7.74168675" y="11.6218474" width="2.57028112" height="3.85542169"></rect>
                </g>
                <g id="Group" transform="translate(25.783133, 21.204819)" fill="#3F3A34">
                    <rect id="Rectangle-path" x="5.17140562" y="0.0555823293" width="6.42570281" height="1.28514056"></rect>
                    <rect id="Rectangle-path" x="5.17140562" y="2.62586345" width="1.28514056" height="1.28514056"></rect>
                    <rect id="Rectangle-path" x="7.74168675" y="2.62586345" width="3.85542169" height="1.28514056"></rect>
                    <rect id="Rectangle-path" x="0.0308433735" y="5.83871486" width="11.5662651" height="1.28514056"></rect>
                    <rect id="Rectangle-path" x="0.0308433735" y="8.40899598" width="11.5662651" height="1.28514056"></rect>
                    <rect id="Rectangle-path" x="0.0308433735" y="11.6218474" width="1.28514056" height="1.28514056"></rect>
                    <rect id="Rectangle-path" x="2.6011245" y="11.6218474" width="3.85542169" height="1.28514056"></rect>
                    <rect id="Rectangle-path" x="0.0308433735" y="14.1921285" width="6.42570281" height="1.28514056"></rect>
                </g>
                <g id="Group" fill="#3F3A34">
                    <path d="M4.02955823,12.7482731 C4.40738956,13.1460241 4.9060241,13.4056225 5.44064257,13.5026506 C5.56851406,13.81751 5.75742972,14.1073092 6.00481928,14.3540562 L8.49092369,16.8401606 C8.85461847,17.204498 9.3384739,17.4049799 9.85381526,17.4049799 L12.2165462,17.4049799 C12.731245,17.4049799 13.215743,17.204498 13.5794378,16.8401606 L16.0655422,14.3546988 C16.3129317,14.1073092 16.5018474,13.81751 16.6297189,13.5026506 C17.1643373,13.4056225 17.6629719,13.1460241 18.0408032,12.7482731 C18.5310843,12.2316466 18.779759,11.5550201 18.74249,10.8424096 C18.7122892,10.2589558 18.4713253,9.73718876 18.1037751,9.32208835 L18.1037751,5.19614458 C18.1037751,3.91421687 17.1604819,2.84819277 15.9318876,2.65606426 C14.9821687,1.04321285 13.2677912,0.0555823293 11.3741365,0.0555823293 C7.28931727,0.0555823293 3.96658635,3.37831325 3.96658635,7.46313253 L3.96658635,9.32144578 C3.59903614,9.73654618 3.35807229,10.2583133 3.32787149,10.8417671 C3.29060241,11.5550201 3.53927711,12.2316466 4.02955823,12.7482731 Z M4.61108434,10.9092369 C4.63293173,10.4896386 4.88610442,10.1195181 5.25172691,9.90104418 L5.25172691,12.0857831 C5.14698795,12.024739 5.04803213,11.9540562 4.96192771,11.8634538 C4.71646586,11.6057831 4.5924498,11.266506 4.61108434,10.9092369 Z M15.1563052,13.4454618 L12.6702008,15.9315663 C12.5506827,16.0510843 12.3855422,16.1198394 12.2159036,16.1198394 L9.85317269,16.1198394 C9.68417671,16.1198394 9.51839357,16.0510843 9.3988755,15.9315663 L6.91277108,13.4454618 C6.67052209,13.2025703 6.53686747,12.88 6.53686747,12.5368675 L6.53686747,9.69413655 L10.0035341,9.69413655 C11.3548594,9.69413655 12.6271486,9.14923695 13.5530924,8.20401606 L13.7034538,8.42955823 C14.1307631,9.0702008 14.7919679,9.49751004 15.5328514,9.6388755 L15.5328514,12.5368675 C15.5328514,12.88 15.3991968,13.2025703 15.1563052,13.4454618 Z M17.1077912,11.8634538 C17.0216867,11.9540562 16.9220884,12.024739 16.817992,12.0857831 L16.817992,9.90104418 C17.1836145,10.1195181 17.4367871,10.4896386 17.4586345,10.9092369 C17.4772691,11.266506 17.353253,11.6057831 17.1077912,11.8634538 Z M11.3741365,1.34072289 C12.9015261,1.34072289 14.2746988,2.18955823 14.957751,3.55566265 L15.1351004,3.91100402 L15.5328514,3.91100402 C16.2416064,3.91100402 16.817992,4.48738956 16.817992,5.19614458 L16.817992,8.52273092 C16.5776707,8.45590361 16.328996,8.40899598 16.0661847,8.40899598 C15.5450602,8.40899598 15.0618474,8.15004016 14.7726908,7.71630522 L13.6051406,5.9653012 L13.0705221,6.76722892 C12.3855422,7.79534137 11.2385542,8.40899598 10.0035341,8.40899598 L6.00353414,8.40899598 C5.74072289,8.40899598 5.49204819,8.45590361 5.25172691,8.52337349 L5.25172691,7.4637751 C5.25172691,4.08706827 7.99807229,1.34072289 11.3741365,1.34072289 Z" id="Shape"></path>
                    <path d="M18.1102008,18.9040964 L14.8902811,17.6131727 L14.8902811,17.4049799 L13.6051406,17.4049799 L13.6051406,18.0848193 L13.5736546,18.0771084 L13.0891566,20.0928514 L11.7384739,18.4073896 L10.331245,18.4073896 L8.98056225,20.0928514 L8.49606426,18.0771084 L8.46457831,18.0848193 L8.46457831,17.4049799 L7.17943775,17.4049799 L7.17943775,17.6131727 L3.98843373,18.8938153 C2.37108434,19.4547791 1.19325301,20.884498 0.91437751,22.6252209 L0,28.3286747 L22.0697189,28.3286747 L21.1559839,22.6245783 C20.8764659,20.8838554 19.6986345,19.4541365 18.1102008,18.9040964 Z M18.3408835,27.0435341 L18.0016064,23.5119679 L16.722249,23.6346988 L17.0493173,27.0435341 L5.02040161,27.0435341 L5.34811245,23.6346988 L4.06875502,23.5119679 L3.72883534,27.0435341 L1.50746988,27.0435341 L2.18281124,22.8276305 C2.38650602,21.5553414 3.23983936,20.5124498 4.43759036,20.0967068 L7.37670683,18.9182329 L8.3437751,22.9426506 L10.9481124,19.6925301 L11.122249,19.6925301 L13.7265863,22.9426506 L14.6936546,18.9182329 L17.6610442,20.1076305 C18.8305221,20.5130924 19.6832129,21.5553414 19.8875502,22.8276305 L20.562249,27.0435341 L18.3408835,27.0435341 Z" id="Shape"></path>
                    <path d="M23.2436948,39.8949398 L39.9505221,39.8949398 L39.9505221,18.0475502 L23.2436948,18.0475502 L23.2436948,39.8949398 Z M24.5288353,19.3326908 L38.6653815,19.3326908 L38.6653815,38.6097992 L24.5288353,38.6097992 L24.5288353,19.3326908 Z" id="Shape"></path>
                    <path d="M25.8139759,25.7583936 L29.6693976,25.7583936 L29.6693976,20.6178313 L25.8139759,20.6178313 L25.8139759,25.7583936 Z M27.0991165,21.9029719 L28.384257,21.9029719 L28.384257,24.473253 L27.0991165,24.473253 L27.0991165,21.9029719 Z" id="Shape"></path>
                    <path d="M33.5248193,37.3246586 L37.380241,37.3246586 L37.380241,32.1840964 L33.5248193,32.1840964 L33.5248193,37.3246586 Z M34.8099598,33.4692369 L36.0951004,33.4692369 L36.0951004,36.0395181 L34.8099598,36.0395181 L34.8099598,33.4692369 Z" id="Shape"></path>
                    <path d="M38.2785542,6.11630522 C38.1384739,5.70763052 37.9630522,5.31437751 37.755502,4.9448996 L36.6348594,5.57526104 C36.8578313,5.97108434 37.0351807,6.39967871 37.1611245,6.85012048 L37.2690763,7.23437751 L38.6653815,7.49654618 L38.6653815,9.32144578 L37.2690763,9.58361446 L37.1611245,9.96787149 C37.0351807,10.4183133 36.8578313,10.8469076 36.6348594,11.2427309 L36.4388755,11.591004 L37.2401606,12.7624096 L35.9498795,14.0526908 L34.7784739,13.2514056 L34.4308434,13.446747 C34.0350201,13.6697189 33.6064257,13.8470683 33.1559839,13.973012 L32.7717269,14.0809639 L32.5095582,15.4772691 L30.6846586,15.4772691 L30.42249,14.0809639 L30.0382329,13.973012 C29.5877912,13.8470683 29.1591968,13.6697189 28.7633735,13.446747 L28.4151004,13.2507631 L27.2436948,14.0520482 L25.5762249,12.3845783 L24.6676305,13.2931727 L27.0894779,15.7150201 L28.4922088,14.7550201 C28.7543775,14.8828916 29.0255422,14.9946988 29.3044177,15.0897992 L29.617992,16.7624096 L33.5762249,16.7624096 L33.8897992,15.0904418 C34.1686747,14.9953414 34.4398394,14.8828916 34.702008,14.7556627 L36.104739,15.7156627 L38.9031325,12.9172691 L37.9431325,11.5145382 C38.071004,11.2523695 38.1828112,10.9812048 38.2779116,10.7023293 L39.9505221,10.3881124 L39.9505221,6.42987952 L38.2785542,6.11630522 Z" id="Shape"></path>
                    <path d="M25.4393574,11.8730924 L26.5593574,11.2427309 C26.3363855,10.8469076 26.1590361,10.4183133 26.0330924,9.96787149 L25.9251406,9.58361446 L24.5288353,9.32144578 L24.5288353,7.49654618 L25.9251406,7.23437751 L26.0330924,6.85012048 C26.1590361,6.39967871 26.3363855,5.97108434 26.5593574,5.57526104 L26.7553414,5.22698795 L25.9540562,4.05558233 L27.2443373,2.7653012 L28.415743,3.56658635 L28.7640161,3.36995984 C29.1585542,3.14763052 29.5871486,2.97028112 30.0382329,2.84433735 L30.42249,2.73638554 L30.6846586,1.34072289 L32.5095582,1.34072289 L32.7717269,2.73702811 L33.1559839,2.84497992 C33.6070683,2.97156627 34.0363052,3.14827309 34.4302008,3.37060241 L34.7784739,3.56722892 L35.9498795,2.76594378 L37.6173494,4.43341365 L38.5259438,3.52481928 L36.104739,1.10297189 L34.702008,2.06232932 C34.4404819,1.9351004 34.1686747,1.8226506 33.8897992,1.7275502 L33.5762249,0.0555823293 L29.617992,0.0555823293 L29.3044177,1.7275502 C29.0248996,1.8226506 28.7537349,1.9351004 28.4922088,2.06232932 L27.0894779,1.10297189 L24.2910843,3.90136546 L25.2510843,5.30409639 C25.1232129,5.56626506 25.0114056,5.83742972 24.9163052,6.11630522 L23.2436948,6.42987952 L23.2436948,10.3881124 L24.9156627,10.7016867 C25.055743,11.1103614 25.2311647,11.5029719 25.4393574,11.8730924 Z" id="Shape"></path>
                    <path d="M31.5971084,3.91100402 C29.1167871,3.91100402 27.0991165,5.9286747 27.0991165,8.40899598 C27.0991165,10.8893173 29.1167871,12.906988 31.5971084,12.906988 C34.0774297,12.906988 36.0951004,10.8893173 36.0951004,8.40899598 C36.0951004,5.9286747 34.0774297,3.91100402 31.5971084,3.91100402 Z M31.5971084,11.6218474 C29.8255422,11.6218474 28.384257,10.1805622 28.384257,8.40899598 C28.384257,6.63742972 29.8255422,5.19614458 31.5971084,5.19614458 C33.3686747,5.19614458 34.8099598,6.63742972 34.8099598,8.40899598 C34.8099598,10.1805622 33.3686747,11.6218474 31.5971084,11.6218474 Z" id="Shape"></path>
                </g>
            </g>
        </g>
    </g>
</svg>