<?xml version="1.0" encoding="UTF-8"?>
<svg width="152px" height="152px" viewBox="0 0 152 152" version="1.1" xmlns="http://www.w3.org/2000/svg" xmlns:xlink="http://www.w3.org/1999/xlink">
    <!-- Generator: sketchtool 50.2 (55047) - http://www.bohemiancoding.com/sketch -->
    <title>CCCDB4BD-A4C2-486A-88A3-4E88B3C7677E</title>
    <desc>Created with sketchtool.</desc>
    <defs></defs>
    <g id="Visuals-Homepage-v2" stroke="none" stroke-width="1" fill="none" fill-rule="evenodd" opacity="0.300000012">
        <g id="Home-page-alternative-data-panel" transform="translate(-1838.000000, -344.000000)" fill-rule="nonzero">
            <g id="resume-copy-2" transform="translate(1838.000000, 344.000000)">
                <polygon id="Shape" fill="#FFFFFF" points="38.3406265 105.539277 33.5034859 104.875116 36.3847711 83.8051084 33.8795181 79.9788594 37.9645944 77.3026827 41.4709719 82.6574779"></polygon>
                <polygon id="Shape" fill="#FFFFFF" points="45.5243052 105.539277 42.3939598 82.6574779 45.9003373 77.3026827 49.9854137 79.9788594 47.4801606 83.8051084 50.3614458 104.875116"></polygon>
                <g id="Group" transform="translate(100.417671, 80.578313)" fill="#FFCB57">
                    <rect id="Rectangle-path" x="0.117204819" y="0.211212851" width="9.76706827" height="14.6506024"></rect>
                </g>
                <g id="Group" transform="translate(97.975904, 80.578313)" fill="#FFFFFF">
                    <rect id="Rectangle-path" x="19.6513414" y="0.211212851" width="24.4176707" height="4.88353414"></rect>
                    <rect id="Rectangle-path" x="19.6513414" y="9.97828112" width="4.88353414" height="4.88353414"></rect>
                    <rect id="Rectangle-path" x="29.4184096" y="9.97828112" width="14.6506024" height="4.88353414"></rect>
                    <rect id="Rectangle-path" x="0.117204819" y="22.1871165" width="43.9518072" height="4.88353414"></rect>
                    <rect id="Rectangle-path" x="0.117204819" y="31.9541847" width="43.9518072" height="4.88353414"></rect>
                    <rect id="Rectangle-path" x="0.117204819" y="44.1630201" width="4.88353414" height="4.88353414"></rect>
                    <rect id="Rectangle-path" x="9.88427309" y="44.1630201" width="14.6506024" height="4.88353414"></rect>
                    <rect id="Rectangle-path" x="0.117204819" y="53.9300884" width="24.4176707" height="4.88353414"></rect>
                </g>
                <g id="Group" fill="#FFFFFF">
                    <path d="M15.3123213,48.4434378 C16.7480803,49.9548916 18.6428916,50.9413655 20.6744418,51.3100723 C21.1603534,52.5065382 21.8782329,53.6077751 22.8183133,54.5454137 L32.26551,63.9926104 C33.6475502,65.3770924 35.4862008,66.1389237 37.444498,66.1389237 L46.4228755,66.1389237 C48.3787309,66.1389237 50.2198233,65.3770924 51.6018635,63.9926104 L61.0490602,54.5478554 C61.9891406,53.6077751 62.7070201,52.5065382 63.1929317,51.3100723 C65.2244819,50.9413655 67.1192932,49.9548916 68.5550522,48.4434378 C70.4181205,46.480257 71.3630843,43.9090763 71.2214618,41.2011566 C71.1066988,38.9840321 70.1910361,37.0013173 68.7943454,35.4239357 L68.7943454,19.7453494 C68.7943454,14.8740241 65.2098313,10.8231325 60.5411727,10.0930442 C56.932241,3.96420884 50.4176064,0.211212851 43.2217189,0.211212851 C27.6994056,0.211212851 15.0730281,12.8375904 15.0730281,28.3599036 L15.0730281,35.421494 C13.6763373,36.9988755 12.7606747,38.9815904 12.6459116,41.1987149 C12.5042892,43.9090763 13.449253,46.480257 15.3123213,48.4434378 Z M17.5221205,41.4551004 C17.6051406,39.8606265 18.5671968,38.4541687 19.9565622,37.6239679 L19.9565622,45.9259759 C19.5585542,45.694008 19.1825221,45.4254137 18.8553253,45.0811245 C17.9225703,44.1019759 17.4513092,42.8127229 17.5221205,41.4551004 Z M57.5939598,51.092755 L48.1467631,60.5399518 C47.6925944,60.9941205 47.0650602,61.2553896 46.4204337,61.2553896 L37.4420562,61.2553896 C36.7998715,61.2553896 36.1698956,60.9941205 35.7157269,60.5399518 L26.2685301,51.092755 C25.3479839,50.1697671 24.8400964,48.944 24.8400964,47.6400964 L24.8400964,36.8377189 L38.0134297,36.8377189 C43.1484659,36.8377189 47.9831647,34.7671004 51.501751,31.175261 L52.0731245,32.0323213 C53.6968996,34.4667631 56.2094779,36.0905382 59.0248353,36.6277269 L59.0248353,47.6400964 C59.0248353,48.944 58.5169478,50.1697671 57.5939598,51.092755 Z M65.0096064,45.0811245 C64.6824096,45.4254137 64.3039357,45.694008 63.9083695,45.9259759 L63.9083695,37.6239679 C65.2977349,38.4541687 66.2597912,39.8606265 66.3428112,41.4551004 C66.4136225,42.8127229 65.9423614,44.1019759 65.0096064,45.0811245 Z M43.2217189,5.09474699 C49.0257992,5.09474699 54.2438554,8.32032129 56.8394538,13.5115181 L57.5133815,14.8618153 L59.0248353,14.8618153 C61.7181044,14.8618153 63.9083695,17.0520803 63.9083695,19.7453494 L63.9083695,32.3863775 C62.9951486,32.1324337 62.0501847,31.9541847 61.051502,31.9541847 C59.0712289,31.9541847 57.2350201,30.9701526 56.1362249,29.3219598 L51.6995341,22.6681446 L49.6679839,25.7154699 C47.0650602,29.6222972 42.706506,31.9541847 38.0134297,31.9541847 L22.8134297,31.9541847 C21.814747,31.9541847 20.8697831,32.1324337 19.9565622,32.3888193 L19.9565622,28.3623454 C19.9565622,15.5308594 30.3926747,5.09474699 43.2217189,5.09474699 Z" id="Shape"></path>
                    <path d="M68.8187631,71.8355663 L56.5830683,66.9300562 L56.5830683,66.1389237 L51.6995341,66.1389237 L51.6995341,68.7223133 L51.5798876,68.693012 L49.7387952,76.3528353 L44.6062008,69.9480803 L39.2587309,69.9480803 L34.1261365,76.3528353 L32.2850442,68.693012 L32.1653976,68.7223133 L32.1653976,66.1389237 L27.2818635,66.1389237 L27.2818635,66.9300562 L15.1560482,71.796498 C9.01012048,73.9281606 4.53436145,79.3610924 3.47463454,85.9758394 L0,107.648964 L83.8649317,107.648964 L80.392739,85.9733976 C79.3305703,79.3586506 74.8548112,73.9257189 68.8187631,71.8355663 Z M69.6953574,102.76543 L68.4061044,89.3454779 L63.5445462,89.8118554 L64.7874056,102.76543 L19.0775261,102.76543 L20.3228273,89.8118554 L15.4612691,89.3454779 L14.1695743,102.76543 L5.72838554,102.76543 L8.29468273,86.744996 C9.06872289,81.9102972 12.3113896,77.9473092 16.8628434,76.3674859 L28.0314859,71.8892851 L31.7063454,87.1820723 L41.6028273,74.8316145 L42.2645462,74.8316145 L52.1610281,87.1820723 L55.8358876,71.8892851 L67.1119679,76.408996 C71.5559839,77.949751 74.7962088,81.9102972 75.5726908,86.744996 L78.1365462,102.76543 L69.6953574,102.76543 Z" id="Shape"></path>
                    <path d="M88.3260402,151.600771 L151.811984,151.600771 L151.811984,68.5806908 L88.3260402,68.5806908 L88.3260402,151.600771 Z M93.2095743,73.4642249 L146.92845,73.4642249 L146.92845,146.717237 L93.2095743,146.717237 L93.2095743,73.4642249 Z" id="Shape"></path>
                    <path d="M98.0931084,97.8818956 L112.743711,97.8818956 L112.743711,78.347759 L98.0931084,78.347759 L98.0931084,97.8818956 Z M102.976643,83.2312932 L107.860177,83.2312932 L107.860177,92.9983614 L102.976643,92.9983614 L102.976643,83.2312932 Z" id="Shape"></path>
                    <path d="M127.394313,141.833703 L142.044916,141.833703 L142.044916,122.299566 L127.394313,122.299566 L127.394313,141.833703 Z M132.277847,127.1831 L137.161382,127.1831 L137.161382,136.950169 L132.277847,136.950169 L132.277847,127.1831 Z" id="Shape"></path>
                    <path d="M145.458506,23.2419598 C144.926201,21.688996 144.259598,20.1946345 143.470908,18.7906185 L139.212466,21.185992 C140.059759,22.6901205 140.733687,24.3187791 141.212273,26.0304578 L141.62249,27.4906345 L146.92845,28.4868755 L146.92845,35.421494 L141.62249,36.4177349 L141.212273,37.8779116 C140.733687,39.5895904 140.059759,41.218249 139.212466,42.7223775 L138.467727,44.0458153 L141.51261,48.4971566 L136.609542,53.4002249 L132.158201,50.3553414 L130.837205,51.0976386 C129.333076,51.9449317 127.704418,52.6188594 125.992739,53.0974458 L124.532562,53.5076627 L123.536321,58.8136225 L116.601703,58.8136225 L115.605462,53.5076627 L114.145285,53.0974458 C112.433606,52.6188594 110.804948,51.9449317 109.300819,51.0976386 L107.977382,50.3528996 L103.52604,53.3977831 L97.1896546,47.0613976 L93.736996,50.5140562 L102.940016,59.7170763 L108.270394,56.0690763 C109.266635,56.554988 110.29706,56.9798554 111.356787,57.3412369 L112.548369,63.6971566 L127.589655,63.6971566 L128.781237,57.3436787 C129.840964,56.9822972 130.87139,56.554988 131.867631,56.0715181 L137.198008,59.7195181 L147.831904,49.0856225 L144.183904,43.755245 C144.669815,42.759004 145.094683,41.7285783 145.456064,40.6688514 L151.811984,39.4748273 L151.811984,24.4335422 L145.458506,23.2419598 Z" id="Shape"></path>
                    <path d="M96.6695582,45.117751 L100.925558,42.7223775 C100.078265,41.218249 99.4043373,39.5895904 98.925751,37.8779116 L98.5155341,36.4177349 L93.2095743,35.421494 L93.2095743,28.4868755 L98.5155341,27.4906345 L98.925751,26.0304578 C99.4043373,24.3187791 100.078265,22.6901205 100.925558,21.185992 L101.670297,19.8625542 L98.6254137,15.4112129 L103.528482,10.5081446 L107.979823,13.5530281 L109.303261,12.8058474 C110.802506,11.960996 112.431165,11.2870683 114.145285,10.8084819 L115.605462,10.3982651 L116.601703,5.09474699 L123.536321,5.09474699 L124.532562,10.4007068 L125.992739,10.8109237 C127.706859,11.2919518 129.33796,11.9634378 130.834763,12.8082892 L132.158201,13.5554699 L136.609542,10.5105863 L142.945928,16.8469719 L146.398586,13.3943133 L137.198008,4.19129317 L131.867631,7.83685141 C130.873831,7.35338153 129.840964,6.92607229 128.781237,6.56469076 L127.589655,0.211212851 L112.548369,0.211212851 L111.356787,6.56469076 C110.294618,6.92607229 109.264193,7.35338153 108.270394,7.83685141 L102.940016,4.19129317 L92.3061205,14.8251888 L95.9541205,20.1555663 C95.4682088,21.1518072 95.0433414,22.1822329 94.6819598,23.2419598 L88.3260402,24.4335422 L88.3260402,39.4748273 L94.6795181,40.6664096 C95.2118233,42.2193735 95.8784257,43.7112932 96.6695582,45.117751 Z" id="Shape"></path>
                    <path d="M120.069012,14.8618153 C110.643791,14.8618153 102.976643,22.5289639 102.976643,31.9541847 C102.976643,41.3794056 110.643791,49.0465542 120.069012,49.0465542 C129.494233,49.0465542 137.161382,41.3794056 137.161382,31.9541847 C137.161382,22.5289639 129.494233,14.8618153 120.069012,14.8618153 Z M120.069012,44.1630201 C113.33706,44.1630201 107.860177,38.6861365 107.860177,31.9541847 C107.860177,25.2222329 113.33706,19.7453494 120.069012,19.7453494 C126.800964,19.7453494 132.277847,25.2222329 132.277847,31.9541847 C132.277847,38.6861365 126.800964,44.1630201 120.069012,44.1630201 Z" id="Shape"></path>
                </g>
            </g>
        </g>
    </g>
</svg>