<?xml version="1.0" encoding="UTF-8"?>
<svg width="152px" height="152px" viewBox="0 0 152 152" version="1.1" xmlns="http://www.w3.org/2000/svg" xmlns:xlink="http://www.w3.org/1999/xlink">
    <!-- Generator: sketchtool 50.2 (55047) - http://www.bohemiancoding.com/sketch -->
    <title>B2DDE2DD-6977-4EC6-AE64-CC87BB65C8E7</title>
    <desc>Created with sketchtool.</desc>
    <defs></defs>
    <g id="Visuals-Homepage-v2" stroke="none" stroke-width="1" fill="none" fill-rule="evenodd" opacity="0.100000001">
        <g id="Home-page-alternative-data-panel" transform="translate(-1485.000000, -802.000000)" fill="#FFFFFF" fill-rule="nonzero">
            <g id="shopping-bag-copy" transform="translate(1485.000000, 802.000000)">
                <g id="Group" transform="translate(0.000000, 39.225806)">
                    <polygon id="Shape" points="4.90322581 4.90322581 93.1612903 4.90322581 93.1612903 49.0322581 98.0645161 49.0322581 98.0645161 4.90322581 112.774194 4.90322581 112.774194 49.0322581 117.677419 49.0322581 117.677419 0 0 0 0 112.774194 63.7419355 112.774194 63.7419355 107.870968 4.90322581 107.870968"></polygon>
                    <path d="M144.645161,53.9354839 L76,53.9354839 C71.9450323,53.9354839 68.6451613,57.2353548 68.6451613,61.2903226 L68.6451613,105.419355 C68.6451613,109.474323 71.9450323,112.774194 76,112.774194 L144.645161,112.774194 C148.700129,112.774194 152,109.474323 152,105.419355 L152,61.2903226 C152,57.2353548 148.700129,53.9354839 144.645161,53.9354839 Z M76,58.8387097 L144.645161,58.8387097 C145.998452,58.8387097 147.096774,59.9370323 147.096774,61.2903226 L147.096774,63.7419355 L73.5483871,63.7419355 L73.5483871,61.2903226 C73.5483871,59.9370323 74.6467097,58.8387097 76,58.8387097 Z M147.096774,68.6451613 L147.096774,73.5483871 L73.5483871,73.5483871 L73.5483871,68.6451613 L147.096774,68.6451613 Z M144.645161,107.870968 L76,107.870968 C74.6467097,107.870968 73.5483871,106.772645 73.5483871,105.419355 L73.5483871,78.4516129 L147.096774,78.4516129 L147.096774,105.419355 C147.096774,106.772645 145.998452,107.870968 144.645161,107.870968 Z" id="Shape"></path>
                    <path d="M132.387097,83.3548387 C129.44271,83.3548387 126.831742,84.6836129 125.032258,86.7429677 C123.232774,84.6836129 120.621806,83.3548387 117.677419,83.3548387 C112.269161,83.3548387 107.870968,87.7530323 107.870968,93.1612903 C107.870968,98.5695484 112.269161,102.967742 117.677419,102.967742 C120.621806,102.967742 123.232774,101.638968 125.032258,99.5796129 C126.831742,101.638968 129.44271,102.967742 132.387097,102.967742 C137.795355,102.967742 142.193548,98.5695484 142.193548,93.1612903 C142.193548,87.7530323 137.795355,83.3548387 132.387097,83.3548387 Z M117.677419,98.0645161 C114.97329,98.0645161 112.774194,95.8654194 112.774194,93.1612903 C112.774194,90.4571613 114.97329,88.2580645 117.677419,88.2580645 C120.381548,88.2580645 122.580645,90.4571613 122.580645,93.1612903 C122.580645,95.8654194 120.381548,98.0645161 117.677419,98.0645161 Z M132.387097,98.0645161 C129.682968,98.0645161 127.483871,95.8654194 127.483871,93.1612903 C127.483871,90.4571613 129.682968,88.2580645 132.387097,88.2580645 C135.091226,88.2580645 137.290323,90.4571613 137.290323,93.1612903 C137.290323,95.8654194 135.091226,98.0645161 132.387097,98.0645161 Z" id="Shape"></path>
                    <rect id="Rectangle-path" x="102.967742" y="9.80645161" width="4.90322581" height="39.2258065"></rect>
                </g>
                <path d="M68.6451613,0 C65.1589677,0 61.8443871,0.74283871 58.8387097,2.06180645 C55.8330323,0.74283871 52.5184516,0 49.0322581,0 C35.5140645,0 24.516129,10.9979355 24.516129,24.516129 L24.516129,54.3865806 C21.6698065,55.4015484 19.6129032,58.0983226 19.6129032,61.2903226 C19.6129032,65.3452903 22.9127742,68.6451613 26.9677419,68.6451613 C31.0227097,68.6451613 34.3225806,65.3452903 34.3225806,61.2903226 C34.3225806,58.0983226 32.2656774,55.4015484 29.4193548,54.3865806 L29.4193548,24.516129 C29.4193548,13.7020645 38.2181935,4.90322581 49.0322581,4.90322581 C50.5130323,4.90322581 51.952129,5.08219355 53.3397419,5.396 C47.7329032,9.89225806 44.1290323,16.7861935 44.1290323,24.516129 L44.1290323,39.2258065 L49.0322581,39.2258065 L49.0322581,24.516129 C49.0322581,17.2765161 52.9867097,10.9538065 58.8387097,7.55587097 C64.6907097,10.9538065 68.6451613,17.2740645 68.6451613,24.516129 L68.6451613,54.3865806 C65.7988387,55.4015484 63.7419355,58.0983226 63.7419355,61.2903226 C63.7419355,65.3452903 67.0418065,68.6451613 71.0967742,68.6451613 C75.1517419,68.6451613 78.4516129,65.3452903 78.4516129,61.2903226 C78.4516129,58.0983226 76.3947097,55.4015484 73.5483871,54.3865806 L73.5483871,24.516129 C73.5483871,16.7861935 69.9445161,9.89225806 64.3376774,5.396 C65.7252903,5.08219355 67.1643871,4.90322581 68.6451613,4.90322581 C79.4592258,4.90322581 88.2580645,13.7020645 88.2580645,24.516129 L88.2580645,39.2258065 L93.1612903,39.2258065 L93.1612903,24.516129 C93.1612903,10.9979355 82.1633548,0 68.6451613,0 Z M26.9677419,63.7419355 C25.6144516,63.7419355 24.516129,62.6411613 24.516129,61.2903226 C24.516129,59.9394839 25.6144516,58.8387097 26.9677419,58.8387097 C28.3210323,58.8387097 29.4193548,59.9394839 29.4193548,61.2903226 C29.4193548,62.6411613 28.3210323,63.7419355 26.9677419,63.7419355 Z M71.0967742,63.7419355 C69.7434839,63.7419355 68.6451613,62.6411613 68.6451613,61.2903226 C68.6451613,59.9394839 69.7434839,58.8387097 71.0967742,58.8387097 C72.4500645,58.8387097 73.5483871,59.9394839 73.5483871,61.2903226 C73.5483871,62.6411613 72.4500645,63.7419355 71.0967742,63.7419355 Z" id="Shape"></path>
            </g>
        </g>
    </g>
</svg>