<?xml version="1.0" encoding="UTF-8"?>
<svg width="40px" height="40px" viewBox="0 0 40 40" version="1.1" xmlns="http://www.w3.org/2000/svg" xmlns:xlink="http://www.w3.org/1999/xlink">
    <!-- Generator: sketchtool 50.2 (55047) - http://www.bohemiancoding.com/sketch -->
    <title>554971E8-EAB5-493E-AE07-9EEC83D0E243</title>
    <desc>Created with sketchtool.</desc>
    <defs></defs>
    <g id="Visuals-Homepage-v2" stroke="none" stroke-width="1" fill="none" fill-rule="evenodd">
        <g id="Home-page-alternative-data-panel" transform="translate(-1344.000000, -798.000000)" fill-rule="nonzero">
            <g id="shopping-bag" transform="translate(1344.000000, 798.000000)">
                <path d="M20,25.1612903 L38.0645161,25.1612903 C38.7774194,25.1612903 39.3548387,25.7387097 39.3548387,26.4516129 L39.3548387,38.0645161 C39.3548387,38.7774194 38.7774194,39.3548387 38.0645161,39.3548387 L20,39.3548387 C19.2870968,39.3548387 18.7096774,38.7774194 18.7096774,38.0645161 L18.7096774,26.4516129 C18.7096774,25.7387097 19.2870968,25.1612903 20,25.1612903 Z" id="Shape" fill="#A19EFF"></path>
                <g id="Group" transform="translate(0.000000, 10.322581)" fill="#3F3A34">
                    <polygon id="Shape" points="1.29032258 1.29032258 24.516129 1.29032258 24.516129 12.9032258 25.8064516 12.9032258 25.8064516 1.29032258 29.6774194 1.29032258 29.6774194 12.9032258 30.9677419 12.9032258 30.9677419 0 0 0 0 29.6774194 16.7741935 29.6774194 16.7741935 28.3870968 1.29032258 28.3870968"></polygon>
                    <path d="M38.0645161,14.1935484 L20,14.1935484 C18.9329032,14.1935484 18.0645161,15.0619355 18.0645161,16.1290323 L18.0645161,27.7419355 C18.0645161,28.8090323 18.9329032,29.6774194 20,29.6774194 L38.0645161,29.6774194 C39.1316129,29.6774194 40,28.8090323 40,27.7419355 L40,16.1290323 C40,15.0619355 39.1316129,14.1935484 38.0645161,14.1935484 Z M20,15.483871 L38.0645161,15.483871 C38.4206452,15.483871 38.7096774,15.7729032 38.7096774,16.1290323 L38.7096774,16.7741935 L19.3548387,16.7741935 L19.3548387,16.1290323 C19.3548387,15.7729032 19.643871,15.483871 20,15.483871 Z M38.7096774,18.0645161 L38.7096774,19.3548387 L19.3548387,19.3548387 L19.3548387,18.0645161 L38.7096774,18.0645161 Z M38.0645161,28.3870968 L20,28.3870968 C19.643871,28.3870968 19.3548387,28.0980645 19.3548387,27.7419355 L19.3548387,20.6451613 L38.7096774,20.6451613 L38.7096774,27.7419355 C38.7096774,28.0980645 38.4206452,28.3870968 38.0645161,28.3870968 Z" id="Shape"></path>
                    <path d="M34.8387097,21.9354839 C34.063871,21.9354839 33.3767742,22.2851613 32.9032258,22.8270968 C32.4296774,22.2851613 31.7425806,21.9354839 30.9677419,21.9354839 C29.5445161,21.9354839 28.3870968,23.0929032 28.3870968,24.516129 C28.3870968,25.9393548 29.5445161,27.0967742 30.9677419,27.0967742 C31.7425806,27.0967742 32.4296774,26.7470968 32.9032258,26.2051613 C33.3767742,26.7470968 34.063871,27.0967742 34.8387097,27.0967742 C36.2619355,27.0967742 37.4193548,25.9393548 37.4193548,24.516129 C37.4193548,23.0929032 36.2619355,21.9354839 34.8387097,21.9354839 Z M30.9677419,25.8064516 C30.256129,25.8064516 29.6774194,25.2277419 29.6774194,24.516129 C29.6774194,23.8045161 30.256129,23.2258065 30.9677419,23.2258065 C31.6793548,23.2258065 32.2580645,23.8045161 32.2580645,24.516129 C32.2580645,25.2277419 31.6793548,25.8064516 30.9677419,25.8064516 Z M34.8387097,25.8064516 C34.1270968,25.8064516 33.5483871,25.2277419 33.5483871,24.516129 C33.5483871,23.8045161 34.1270968,23.2258065 34.8387097,23.2258065 C35.5503226,23.2258065 36.1290323,23.8045161 36.1290323,24.516129 C36.1290323,25.2277419 35.5503226,25.8064516 34.8387097,25.8064516 Z" id="Shape"></path>
                    <rect id="Rectangle-path" x="27.0967742" y="2.58064516" width="1.29032258" height="10.3225806"></rect>
                </g>
                <path d="M18.0645161,0 C17.1470968,0 16.2748387,0.195483871 15.483871,0.542580645 C14.6929032,0.195483871 13.8206452,0 12.9032258,0 C9.34580645,0 6.4516129,2.89419355 6.4516129,6.4516129 L6.4516129,14.3122581 C5.70258065,14.5793548 5.16129032,15.2890323 5.16129032,16.1290323 C5.16129032,17.196129 6.02967742,18.0645161 7.09677419,18.0645161 C8.16387097,18.0645161 9.03225806,17.196129 9.03225806,16.1290323 C9.03225806,15.2890323 8.49096774,14.5793548 7.74193548,14.3122581 L7.74193548,6.4516129 C7.74193548,3.60580645 10.0574194,1.29032258 12.9032258,1.29032258 C13.2929032,1.29032258 13.6716129,1.33741935 14.0367742,1.42 C12.5612903,2.60322581 11.6129032,4.41741935 11.6129032,6.4516129 L11.6129032,10.3225806 L12.9032258,10.3225806 L12.9032258,6.4516129 C12.9032258,4.54645161 13.943871,2.88258065 15.483871,1.9883871 C17.023871,2.88258065 18.0645161,4.54580645 18.0645161,6.4516129 L18.0645161,14.3122581 C17.3154839,14.5793548 16.7741935,15.2890323 16.7741935,16.1290323 C16.7741935,17.196129 17.6425806,18.0645161 18.7096774,18.0645161 C19.7767742,18.0645161 20.6451613,17.196129 20.6451613,16.1290323 C20.6451613,15.2890323 20.103871,14.5793548 19.3548387,14.3122581 L19.3548387,6.4516129 C19.3548387,4.41741935 18.4064516,2.60322581 16.9309677,1.42 C17.296129,1.33741935 17.6748387,1.29032258 18.0645161,1.29032258 C20.9103226,1.29032258 23.2258065,3.60580645 23.2258065,6.4516129 L23.2258065,10.3225806 L24.516129,10.3225806 L24.516129,6.4516129 C24.516129,2.89419355 21.6219355,0 18.0645161,0 Z M7.09677419,16.7741935 C6.74064516,16.7741935 6.4516129,16.4845161 6.4516129,16.1290323 C6.4516129,15.7735484 6.74064516,15.483871 7.09677419,15.483871 C7.45290323,15.483871 7.74193548,15.7735484 7.74193548,16.1290323 C7.74193548,16.4845161 7.45290323,16.7741935 7.09677419,16.7741935 Z M18.7096774,16.7741935 C18.3535484,16.7741935 18.0645161,16.4845161 18.0645161,16.1290323 C18.0645161,15.7735484 18.3535484,15.483871 18.7096774,15.483871 C19.0658065,15.483871 19.3548387,15.7735484 19.3548387,16.1290323 C19.3548387,16.4845161 19.0658065,16.7741935 18.7096774,16.7741935 Z" id="Shape" fill="#3F3A34"></path>
            </g>
        </g>
    </g>
</svg>