<?xml version="1.0" encoding="UTF-8"?>
<svg width="139px" height="149px" viewBox="0 0 139 149" version="1.1" xmlns="http://www.w3.org/2000/svg" xmlns:xlink="http://www.w3.org/1999/xlink">
    <!-- Generator: sketchtool 50.2 (55047) - http://www.bohemiancoding.com/sketch -->
    <title>993C4882-2C73-4507-BBE8-2FD3E27C3601</title>
    <desc>Created with sketchtool.</desc>
    <defs></defs>
    <g id="Visuals-Homepage-v2" stroke="none" stroke-width="1" fill="none" fill-rule="evenodd" opacity="0.200000003">
        <g id="Home-page-alternative-data-panel" transform="translate(-2546.000000, -344.000000)" fill="#FFFFFF" fill-rule="nonzero">
            <g id="stethoscope-copy-3" transform="translate(2546.000000, 344.000000)">
                <path d="M62.1872541,64.7488906 C62.1872541,66.0524312 61.6586625,67.3296617 60.7354209,68.255295 L64.1198426,71.6325413 C65.9304485,69.8195437 66.9708891,67.3105271 66.9708891,64.7488906 C66.9708891,59.3792604 62.6034304,55.0118017 57.2338002,55.0118017 L57.2338002,59.7954367 C59.9652557,59.7954367 62.1872541,62.0174351 62.1872541,64.7488906 Z" id="Shape"></path>
                <polygon id="Shape" points="40.6608969 81.3217939 45.4445319 81.3217939 45.4445319 76.5381589 50.2281668 76.5381589 50.2281668 71.754524 45.4445319 71.754524 45.4445319 66.9708891 40.6608969 66.9708891 40.6608969 71.754524 35.877262 71.754524 35.877262 76.5381589 40.6608969 76.5381589"></polygon>
                <path d="M138.725413,74.1463415 C138.725413,68.8699921 134.434493,64.5790716 129.158143,64.5790716 C123.881794,64.5790716 119.590873,68.8699921 119.590873,74.1463415 C119.590873,78.5927301 122.6524,82.3048308 126.766326,83.3739732 L126.766326,131.549961 C126.766326,138.144201 121.401479,143.509048 114.807238,143.509048 C108.212998,143.509048 102.848151,138.144201 102.848151,131.549961 L102.848151,110.023603 C102.848151,100.79358 95.3378442,93.2808812 86.1054288,93.2808812 C76.8730134,93.2808812 69.3627065,100.79358 69.3627065,110.023603 L69.3627065,131.549961 C69.3627065,138.144201 63.99786,143.509048 57.4036192,143.509048 C50.8093784,143.509048 45.4445319,138.144201 45.4445319,131.549961 L45.4445319,114.807238 L50.2281668,114.807238 L50.2281668,99.0547286 L70.8839024,78.3989929 C72.8906373,76.3922581 74.3831314,74.0100079 75.3350747,71.4244532 C75.6388356,71.1374351 75.8756255,70.9054288 75.9760818,70.797797 C82.5081353,63.0530921 86.1054288,53.1988041 86.1054288,43.0527144 L86.1054288,16.7427223 C86.1054288,10.1484815 80.7405822,4.78363493 74.1463415,4.78363493 L71.754524,4.78363493 L71.754524,0 L59.7954367,0 C55.8393706,0 52.6199843,3.21938631 52.6199843,7.1754524 C52.6199843,11.1315185 55.8393706,14.3509048 59.7954367,14.3509048 L71.754524,14.3509048 L71.754524,9.56726987 L74.1463415,9.56726987 C78.1024076,9.56726987 81.3217939,12.7866562 81.3217939,16.7427223 L81.3217939,43.0527144 C81.3217939,49.7569788 79.5494571,56.3105586 76.3181117,61.9983006 C74.9763021,52.6558615 66.9421873,45.4445319 57.2338002,45.4445319 C52.0770417,45.4445319 47.2288277,47.4536585 43.5836979,51.0987884 L43.0527144,51.6297718 L42.5217309,51.0987884 C38.8766011,47.4536585 34.0283871,45.4445319 28.8716286,45.4445319 C19.1775924,45.4445319 11.1530448,52.6343352 9.79210071,61.9552478 C6.54162077,56.2292368 4.78363493,49.7187097 4.78363493,43.0527144 L4.78363493,16.7427223 C4.78363493,12.7866562 8.00302124,9.56726987 11.9590873,9.56726987 L14.3509048,9.56726987 L14.3509048,14.3509048 L26.3099921,14.3509048 C30.2660582,14.3509048 33.4854445,11.1315185 33.4854445,7.1754524 C33.4854445,3.21938631 30.2660582,0 26.3099921,0 L14.3509048,0 L14.3509048,4.78363493 L11.9590873,4.78363493 C5.36484658,4.78363493 0,10.1484815 0,16.7427223 L0,43.0527144 C0,53.2538159 3.63317073,63.1463729 10.3685287,71.0632887 C10.3685287,71.0632887 10.5407396,71.230716 10.7823131,71.4603304 C11.7366483,74.033926 13.221967,76.4018253 15.2191345,78.3989929 L35.877262,99.0547286 L35.877262,114.807238 L40.6608969,114.807238 L40.6608969,131.549961 C40.6608969,140.779984 48.1712038,148.292683 57.4036192,148.292683 C66.6360346,148.292683 74.1463415,140.779984 74.1463415,131.549961 L74.1463415,110.023603 C74.1463415,103.429363 79.511188,98.0645161 86.1054288,98.0645161 C92.6996696,98.0645161 98.0645161,103.429363 98.0645161,110.023603 L98.0645161,131.549961 C98.0645161,140.779984 105.574823,148.292683 114.807238,148.292683 C124.039654,148.292683 131.549961,140.779984 131.549961,131.549961 L131.549961,83.3739732 C135.663887,82.3048308 138.725413,78.5927301 138.725413,74.1463415 Z M66.9708891,9.56726987 L59.7954367,9.56726987 C58.4775452,9.56726987 57.4036192,8.49573564 57.4036192,7.1754524 C57.4036192,5.85516916 58.4775452,4.78363493 59.7954367,4.78363493 L66.9708891,4.78363493 L66.9708891,9.56726987 Z M19.1345397,4.78363493 L26.3099921,4.78363493 C27.6278836,4.78363493 28.7018096,5.85516916 28.7018096,7.1754524 C28.7018096,8.49573564 27.6278836,9.56726987 26.3099921,9.56726987 L19.1345397,9.56726987 L19.1345397,4.78363493 Z M45.4445319,110.023603 L40.6608969,110.023603 L40.6608969,100.456334 L45.4445319,100.456334 L45.4445319,110.023603 Z M14.3509048,64.7488906 C14.3509048,56.7434776 20.8662156,50.2281668 28.8716286,50.2281668 C32.7511566,50.2281668 36.3962864,51.7397954 39.139701,54.4808183 L43.0527144,58.3938316 L46.9657278,54.4808183 C49.7091424,51.7397954 53.3542722,50.2281668 57.2338002,50.2281668 C65.2392132,50.2281668 71.754524,56.7434776 71.754524,64.7488906 C71.754524,68.6260268 70.2452872,72.2735484 67.5018725,75.016963 L46.8461369,95.6726987 L39.2592919,95.6726987 L18.6035563,75.016963 C15.8601416,72.2759402 14.3509048,68.6260268 14.3509048,64.7488906 Z M129.158143,78.9299764 C126.519969,78.9299764 124.374508,76.7845161 124.374508,74.1463415 C124.374508,71.5081668 126.519969,69.3627065 129.158143,69.3627065 C131.796318,69.3627065 133.941778,71.5081668 133.941778,74.1463415 C133.941778,76.7845161 131.796318,78.9299764 129.158143,78.9299764 Z" id="Shape"></path>
            </g>
        </g>
    </g>
</svg>