<?xml version="1.0" encoding="UTF-8"?>
<svg width="40px" height="40px" viewBox="0 0 40 40" version="1.1" xmlns="http://www.w3.org/2000/svg" xmlns:xlink="http://www.w3.org/1999/xlink">
    <!-- Generator: sketchtool 50.2 (55047) - http://www.bohemiancoding.com/sketch -->
    <title>1B091E96-5E3F-4BE6-A45B-B78FED65316F</title>
    <desc>Created with sketchtool.</desc>
    <defs></defs>
    <g id="Visuals-Homepage-v2" stroke="none" stroke-width="1" fill="none" fill-rule="evenodd">
        <g id="Home-page-alternative-data-panel" transform="translate(-3468.000000, -799.000000)" fill-rule="nonzero">
            <g id="stethoscope-copy-2" transform="translate(3468.000000, 799.000000)">
                <g id="Group" transform="translate(5.161290, 14.838710)" fill="#A19EFF">
                    <path d="M6.4516129,2.58064516 L8.23032258,0.801935484 C8.74387097,0.288387097 9.44,0 10.1658065,0 C11.6780645,0 12.9032258,1.22516129 12.9032258,2.73741935 C12.9032258,3.46322581 12.6148387,4.15935484 12.1012903,4.67290323 L6.4516129,10.3225806 L0.801935484,4.67290323 C0.288387097,4.15935484 0,3.46322581 0,2.73741935 C0,1.22516129 1.22516129,0 2.73741935,0 C3.46322581,0 4.15935484,0.288387097 4.67290323,0.801935484 L6.4516129,2.58064516 Z" id="Shape"></path>
                    <path d="M29.6774194,10.3225806 C26.8316129,10.3225806 24.516129,8.00709677 24.516129,5.16129032 C24.516129,2.31548387 26.8316129,0 29.6774194,0 C32.5232258,0 34.8387097,2.31548387 34.8387097,5.16129032 C34.8387097,8.00709677 32.5232258,10.3225806 29.6774194,10.3225806 Z" id="Shape"></path>
                </g>
                <path d="M16.7741935,17.4651613 C16.7741935,17.8167742 16.6316129,18.1612903 16.3825806,18.4109677 L17.2954839,19.3219355 C17.783871,18.8329032 18.0645161,18.156129 18.0645161,17.4651613 C18.0645161,16.0167742 16.8864516,14.8387097 15.4380645,14.8387097 L15.4380645,16.1290323 C16.1748387,16.1290323 16.7741935,16.7283871 16.7741935,17.4651613 Z" id="Shape" fill="#000000"></path>
                <polygon id="Shape" fill="#000000" points="10.9677419 21.9354839 12.2580645 21.9354839 12.2580645 20.6451613 13.5483871 20.6451613 13.5483871 19.3548387 12.2580645 19.3548387 12.2580645 18.0645161 10.9677419 18.0645161 10.9677419 19.3548387 9.67741935 19.3548387 9.67741935 20.6451613 10.9677419 20.6451613"></polygon>
                <path d="M37.4193548,20 C37.4193548,18.5767742 36.2619355,17.4193548 34.8387097,17.4193548 C33.4154839,17.4193548 32.2580645,18.5767742 32.2580645,20 C32.2580645,21.1993548 33.083871,22.2006452 34.1935484,22.4890323 L34.1935484,35.483871 C34.1935484,37.2625806 32.7464516,38.7096774 30.9677419,38.7096774 C29.1890323,38.7096774 27.7419355,37.2625806 27.7419355,35.483871 L27.7419355,29.6774194 C27.7419355,27.1877419 25.716129,25.1612903 23.2258065,25.1612903 C20.7354839,25.1612903 18.7096774,27.1877419 18.7096774,29.6774194 L18.7096774,35.483871 C18.7096774,37.2625806 17.2625806,38.7096774 15.483871,38.7096774 C13.7051613,38.7096774 12.2580645,37.2625806 12.2580645,35.483871 L12.2580645,30.9677419 L13.5483871,30.9677419 L13.5483871,26.7187097 L19.12,21.1470968 C19.6612903,20.6058065 20.063871,19.9632258 20.3206452,19.2658065 C20.4025806,19.1883871 20.4664516,19.1258065 20.4935484,19.0967742 C22.2554839,17.0077419 23.2258065,14.3496774 23.2258065,11.6129032 L23.2258065,4.51612903 C23.2258065,2.73741935 21.7787097,1.29032258 20,1.29032258 L19.3548387,1.29032258 L19.3548387,0 L16.1290323,0 C15.0619355,0 14.1935484,0.868387097 14.1935484,1.93548387 C14.1935484,3.00258065 15.0619355,3.87096774 16.1290323,3.87096774 L19.3548387,3.87096774 L19.3548387,2.58064516 L20,2.58064516 C21.0670968,2.58064516 21.9354839,3.44903226 21.9354839,4.51612903 L21.9354839,11.6129032 C21.9354839,13.4212903 21.4574194,15.1890323 20.5858065,16.7232258 C20.223871,14.2032258 18.0567742,12.2580645 15.4380645,12.2580645 C14.0470968,12.2580645 12.7393548,12.8 11.756129,13.7832258 L11.6129032,13.9264516 L11.4696774,13.7832258 C10.4864516,12.8 9.17870968,12.2580645 7.78774194,12.2580645 C5.17290323,12.2580645 3.0083871,14.1974194 2.64129032,16.7116129 C1.76451613,15.1670968 1.29032258,13.4109677 1.29032258,11.6129032 L1.29032258,4.51612903 C1.29032258,3.44903226 2.15870968,2.58064516 3.22580645,2.58064516 L3.87096774,2.58064516 L3.87096774,3.87096774 L7.09677419,3.87096774 C8.16387097,3.87096774 9.03225806,3.00258065 9.03225806,1.93548387 C9.03225806,0.868387097 8.16387097,0 7.09677419,0 L3.87096774,0 L3.87096774,1.29032258 L3.22580645,1.29032258 C1.44709677,1.29032258 0,2.73741935 0,4.51612903 L0,11.6129032 C0,14.3645161 0.98,17.0329032 2.79677419,19.1683871 C2.79677419,19.1683871 2.84322581,19.2135484 2.9083871,19.2754839 C3.16580645,19.9696774 3.56645161,20.6083871 4.10516129,21.1470968 L9.67741935,26.7187097 L9.67741935,30.9677419 L10.9677419,30.9677419 L10.9677419,35.483871 C10.9677419,37.9735484 12.9935484,40 15.483871,40 C17.9741935,40 20,37.9735484 20,35.483871 L20,29.6774194 C20,27.8987097 21.4470968,26.4516129 23.2258065,26.4516129 C25.0045161,26.4516129 26.4516129,27.8987097 26.4516129,29.6774194 L26.4516129,35.483871 C26.4516129,37.9735484 28.4774194,40 30.9677419,40 C33.4580645,40 35.483871,37.9735484 35.483871,35.483871 L35.483871,22.4890323 C36.5935484,22.2006452 37.4193548,21.1993548 37.4193548,20 Z M18.0645161,2.58064516 L16.1290323,2.58064516 C15.7735484,2.58064516 15.483871,2.2916129 15.483871,1.93548387 C15.483871,1.57935484 15.7735484,1.29032258 16.1290323,1.29032258 L18.0645161,1.29032258 L18.0645161,2.58064516 Z M5.16129032,1.29032258 L7.09677419,1.29032258 C7.45225806,1.29032258 7.74193548,1.57935484 7.74193548,1.93548387 C7.74193548,2.2916129 7.45225806,2.58064516 7.09677419,2.58064516 L5.16129032,2.58064516 L5.16129032,1.29032258 Z M12.2580645,29.6774194 L10.9677419,29.6774194 L10.9677419,27.0967742 L12.2580645,27.0967742 L12.2580645,29.6774194 Z M3.87096774,17.4651613 C3.87096774,15.3058065 5.6283871,13.5483871 7.78774194,13.5483871 C8.83419355,13.5483871 9.81741935,13.956129 10.5574194,14.6954839 L11.6129032,15.7509677 L12.6683871,14.6954839 C13.4083871,13.956129 14.3916129,13.5483871 15.4380645,13.5483871 C17.5974194,13.5483871 19.3548387,15.3058065 19.3548387,17.4651613 C19.3548387,18.5109677 18.9477419,19.4948387 18.2077419,20.2348387 L12.636129,25.8064516 L10.5896774,25.8064516 L5.01806452,20.2348387 C4.27806452,19.4954839 3.87096774,18.5109677 3.87096774,17.4651613 Z M34.8387097,21.2903226 C34.1270968,21.2903226 33.5483871,20.7116129 33.5483871,20 C33.5483871,19.2883871 34.1270968,18.7096774 34.8387097,18.7096774 C35.5503226,18.7096774 36.1290323,19.2883871 36.1290323,20 C36.1290323,20.7116129 35.5503226,21.2903226 34.8387097,21.2903226 Z" id="Shape" fill="#000000"></path>
            </g>
        </g>
    </g>
</svg>