<?xml version="1.0" encoding="UTF-8"?>
<svg width="40px" height="42px" viewBox="0 0 40 42" version="1.1" xmlns="http://www.w3.org/2000/svg" xmlns:xlink="http://www.w3.org/1999/xlink">
    <!-- Generator: sketchtool 50.2 (55047) - http://www.bohemiancoding.com/sketch -->
    <title>589FCD02-001B-4336-90A2-BC6CB41BD0F2</title>
    <desc>Created with sketchtool.</desc>
    <defs></defs>
    <g id="Visuals-Homepage-v2" stroke="none" stroke-width="1" fill="none" fill-rule="evenodd">
        <g id="Home-page-alternative-data-panel" transform="translate(-3115.000000, -344.000000)">
            <g id="Group-28" transform="translate(3135.000000, 365.000000) scale(-1, 1) translate(-3135.000000, -365.000000) translate(3115.000000, 344.000000)">
                <g id="Group-4-Copy">
                    <rect id="Rectangle" fill="#F0BC5E" x="13.1521739" y="3.47826087" width="14.0217391" height="2.17391304"></rect>
                    <g id="Group-25">
                        <g id="faucet" fill="#000000" fill-rule="nonzero">
                            <path d="M37.3913043,22.6086957 L36.5217391,22.6086957 L36.5217391,18.2608696 C36.5217391,13.946087 33.0113043,10.4347826 28.6956522,10.4347826 L24.3478261,10.4347826 L24.3478261,6.95652174 C26.266087,6.95652174 27.826087,5.39652174 27.826087,3.47826087 C27.826087,1.56 26.266087,0 24.3478261,0 L15.6521739,0 C13.733913,0 12.173913,1.56 12.173913,3.47826087 C12.173913,5.39652174 13.733913,6.95652174 15.6521739,6.95652174 L15.6521739,10.4347826 L8.69565217,10.4347826 L8.69565217,8.69565217 C8.69565217,7.73652174 7.91565217,6.95652174 6.95652174,6.95652174 L1.73913043,6.95652174 C0.78,6.95652174 0,7.73652174 0,8.69565217 L0,20.8695652 C0,21.8286957 0.78,22.6086957 1.73913043,22.6086957 L6.95652174,22.6086957 C7.91565217,22.6086957 8.69565217,21.8286957 8.69565217,20.8695652 L8.69565217,19.1304348 L27.826087,19.1304348 L27.826087,22.6086957 L26.9565217,22.6086957 C25.5182609,22.6086957 24.3478261,23.7791304 24.3478261,25.2173913 L24.3478261,28.6956522 C24.3478261,29.1756522 24.7365217,29.5652174 25.2173913,29.5652174 L39.1304348,29.5652174 C39.6113043,29.5652174 40,29.1756522 40,28.6956522 L40,25.2173913 C40,23.7791304 38.8295652,22.6086957 37.3913043,22.6086957 Z M6.95652174,11.3043478 L6.95652174,18.2608696 L6.95652174,20.8695652 L1.73913043,20.8695652 L1.73913043,8.69565217 L6.95652174,8.69565217 L6.95652174,11.3043478 Z M13.9130435,3.47826087 C13.9130435,2.51913043 14.6930435,1.73913043 15.6521739,1.73913043 L24.3478261,1.73913043 C25.3069565,1.73913043 26.0869565,2.51913043 26.0869565,3.47826087 C26.0869565,4.4373913 25.3069565,5.2173913 24.3478261,5.2173913 L23.4782609,5.2173913 L16.5217391,5.2173913 L15.6521739,5.2173913 C14.6930435,5.2173913 13.9130435,4.4373913 13.9130435,3.47826087 Z M22.6086957,6.95652174 L22.6086957,10.4347826 L17.3913043,10.4347826 L17.3913043,6.95652174 L22.6086957,6.95652174 Z M8.69565217,17.3913043 L8.69565217,12.173913 L28.6956522,12.173913 C32.0513043,12.173913 34.7826087,14.9043478 34.7826087,18.2608696 L34.7826087,22.6086957 L29.5652174,22.6086957 L29.5652174,18.2608696 C29.5652174,17.7808696 29.1765217,17.3913043 28.6956522,17.3913043 L8.69565217,17.3913043 Z M38.2608696,27.826087 L26.0869565,27.826087 L26.0869565,25.2173913 C26.0869565,24.7382609 26.4765217,24.3478261 26.9565217,24.3478261 L28.6956522,24.3478261 L35.6521739,24.3478261 L37.3913043,24.3478261 C37.8713043,24.3478261 38.2608696,24.7382609 38.2608696,25.2173913 L38.2608696,27.826087 Z" id="Shape"></path>
                        </g>
                        <polygon id="Path-2" fill="#FECE46" points="32 34 31 36 30 38 31 40 32 40 34 40 35 39 34 36"></polygon>
                    </g>
                </g>
                <path d="M32,32 L29.2976258,37.1807529 L29.255154,37.2714841 C28.8363693,38.3378028 28.9377603,39.5622206 29.524975,40.5296423 C30.4061614,42.0188819 32.2285984,42.4479272 33.5955042,41.4878774 C33.9479787,41.2402946 34.2477799,40.9136622 34.475025,40.5296423 C35.0622397,39.5622206 35.1636307,38.3378028 34.744846,37.2714841 L32,32 Z M33.0826152,39.5315989 C32.673928,40.1849771 31.8563453,40.3537372 31.2566389,39.9084737 C31.1206874,39.8075352 31.0033694,39.6797176 30.9107225,39.5315989 C30.6401728,39.0857683 30.5869789,38.5239152 30.768317,38.0272752 L32,35.6727999 L33.2283519,38.0272752 C33.408649,38.5244823 33.3542059,39.0863354 33.0826152,39.5315989 Z" id="Shape" fill="#000000" fill-rule="nonzero"></path>
            </g>
        </g>
    </g>
</svg>