<?xml version="1.0" encoding="UTF-8"?>
<svg width="151px" height="159px" viewBox="0 0 151 159" version="1.1" xmlns="http://www.w3.org/2000/svg" xmlns:xlink="http://www.w3.org/1999/xlink">
    <!-- Generator: sketchtool 50.2 (55047) - http://www.bohemiancoding.com/sketch -->
    <title>9606ACBF-3D2F-463F-BFA5-9174AE662759</title>
    <desc>Created with sketchtool.</desc>
    <defs></defs>
    <g id="Visuals-Homepage-v2" stroke="none" stroke-width="1" fill="none" fill-rule="evenodd" opacity="0.300000012">
        <g id="Home-page-alternative-data-panel" transform="translate(-3254.000000, -345.000000)" fill="#FFFFFF" fill-rule="nonzero">
            <g id="Group-28-Copy" transform="translate(3254.000000, 345.000000)">
                <g id="Group-4-Copy">
                    <g id="Group-25">
                        <g id="faucet">
                            <path d="M141.152174,85.3478261 L137.869565,85.3478261 L137.869565,68.9347826 C137.869565,52.6464783 124.617674,39.3913043 108.326087,39.3913043 L91.9130435,39.3913043 L91.9130435,26.2608696 C99.1544783,26.2608696 105.043478,20.3718696 105.043478,13.1304348 C105.043478,5.889 99.1544783,0 91.9130435,0 L59.0869565,0 C51.8455217,0 45.9565217,5.889 45.9565217,13.1304348 C45.9565217,20.3718696 51.8455217,26.2608696 59.0869565,26.2608696 L59.0869565,39.3913043 L32.826087,39.3913043 L32.826087,32.826087 C32.826087,29.2053696 29.881587,26.2608696 26.2608696,26.2608696 L6.56521739,26.2608696 C2.9445,26.2608696 0,29.2053696 0,32.826087 L0,78.7826087 C0,82.4033261 2.9445,85.3478261 6.56521739,85.3478261 L26.2608696,85.3478261 C29.881587,85.3478261 32.826087,82.4033261 32.826087,78.7826087 L32.826087,72.2173913 L105.043478,72.2173913 L105.043478,85.3478261 L101.76087,85.3478261 C96.3314348,85.3478261 91.9130435,89.7662174 91.9130435,95.1956522 L91.9130435,108.326087 C91.9130435,110.138087 93.3803696,111.608696 95.1956522,111.608696 L147.717391,111.608696 C149.532674,111.608696 151,110.138087 151,108.326087 L151,95.1956522 C151,89.7662174 146.581609,85.3478261 141.152174,85.3478261 Z M26.2608696,42.673913 L26.2608696,68.9347826 L26.2608696,78.7826087 L6.56521739,78.7826087 L6.56521739,32.826087 L26.2608696,32.826087 L26.2608696,42.673913 Z M52.5217391,13.1304348 C52.5217391,9.50971739 55.4662391,6.56521739 59.0869565,6.56521739 L91.9130435,6.56521739 C95.5337609,6.56521739 98.4782609,9.50971739 98.4782609,13.1304348 C98.4782609,16.7511522 95.5337609,19.6956522 91.9130435,19.6956522 L88.6304348,19.6956522 L62.3695652,19.6956522 L59.0869565,19.6956522 C55.4662391,19.6956522 52.5217391,16.7511522 52.5217391,13.1304348 Z M85.3478261,26.2608696 L85.3478261,39.3913043 L65.6521739,39.3913043 L65.6521739,26.2608696 L85.3478261,26.2608696 Z M32.826087,65.6521739 L32.826087,45.9565217 L108.326087,45.9565217 C120.993674,45.9565217 131.304348,56.263913 131.304348,68.9347826 L131.304348,85.3478261 L111.608696,85.3478261 L111.608696,68.9347826 C111.608696,67.1227826 110.14137,65.6521739 108.326087,65.6521739 L32.826087,65.6521739 Z M144.434783,105.043478 L98.4782609,105.043478 L98.4782609,95.1956522 C98.4782609,93.3869348 99.9488696,91.9130435 101.76087,91.9130435 L108.326087,91.9130435 L134.586957,91.9130435 L141.152174,91.9130435 C142.964174,91.9130435 144.434783,93.3869348 144.434783,95.1956522 L144.434783,105.043478 Z" id="Shape" transform="translate(75.500000, 55.804348) scale(-1, 1) translate(-75.500000, -55.804348) "></path>
                        </g>
                    </g>
                </g>
                <path d="M26.8,120.8 L16.5985374,140.357342 L16.4382063,140.699852 C14.8572939,144.725206 15.2400453,149.347383 17.4567806,152.9994 C20.7832591,158.621279 27.6629589,160.240925 32.8230284,156.616737 C34.1536198,155.682112 35.2853691,154.449075 36.1432194,152.9994 C38.3599547,149.347383 38.7427061,144.725206 37.1617937,140.699852 L26.8,120.8 Z M30.8868725,149.231786 C29.3440781,151.698288 26.2577035,152.335358 23.9938119,150.654488 C23.480595,150.273445 23.0377195,149.790934 22.6879775,149.231786 C21.6666523,147.548775 21.4658454,145.42778 22.1503966,143.552964 L26.8,134.66482 L31.4370284,143.552964 C32.1176499,145.429921 31.9121274,147.550916 30.8868725,149.231786 Z" id="Shape" transform="translate(26.800000, 139.675000) scale(-1, 1) translate(-26.800000, -139.675000) "></path>
            </g>
        </g>
    </g>
</svg>