<?xml version="1.0" encoding="UTF-8"?>
<svg width="152px" height="152px" viewBox="0 0 152 152" version="1.1" xmlns="http://www.w3.org/2000/svg" xmlns:xlink="http://www.w3.org/1999/xlink">
    <!-- Generator: sketchtool 50.2 (55047) - http://www.bohemiancoding.com/sketch -->
    <title>59634D0A-8E1F-44BF-A391-6D0ED80B80D3</title>
    <desc>Created with sketchtool.</desc>
    <defs></defs>
    <g id="Visuals-Homepage-v2" stroke="none" stroke-width="1" fill="none" fill-rule="evenodd" opacity="0.100000001">
        <g id="Home-page-alternative-data-panel" transform="translate(-1484.000000, -344.000000)" fill="#FFFFFF" fill-rule="nonzero">
            <g id="Group-4" transform="translate(1484.000000, 344.000000)">
                <g id="Group-3">
                    <g id="thesis-copy">
                        <g id="Group" transform="translate(29.967742, 14.709677)">
                            <path d="M38.2258065,36.5541 L38.2258065,47 L-2,47 L-2,-2 L67.6451613,-2 L67.6451613,29.0541 L38.2258065,36.5541 Z M2,2 L2,43 L34.2258065,43 L34.2258065,33.4459 L63.6451613,25.9459 L63.6451613,2 L2,2 Z" id="Shape"></path>
                        </g>
                        <path d="M147.724387,46.0829677 L110.322581,37.284129 L110.322581,0 L14.7096774,0 C6.59729032,0 0,6.59729032 0,14.7096774 L0,137.290323 C0,145.40271 6.59729032,152 14.7096774,152 L110.322581,152 L110.322581,147.096774 C104.914323,147.096774 100.516129,142.698581 100.516129,137.290323 C100.516129,131.882065 104.914323,127.483871 110.322581,127.483871 L110.322581,125.032258 L110.322581,122.580645 L110.322581,95.076 L139.741935,87.7211613 L139.741935,58.7627097 L147.724387,56.8847742 C150.242194,56.2890323 152,54.0703226 152,51.483871 C152,48.8974194 150.242194,46.6787097 147.724387,46.0829677 Z M12.2580645,5.25135484 L12.2580645,122.80129 C9.45832258,123.274452 6.93070968,124.537032 4.90322581,126.356129 L4.90322581,14.7096774 C4.90322581,10.152129 8.03883871,6.34722581 12.2580645,5.25135484 Z M99.3663226,147.096774 L14.7096774,147.096774 C9.30141935,147.096774 4.90322581,142.698581 4.90322581,137.290323 C4.90322581,131.882065 9.30141935,127.483871 14.7096774,127.483871 L99.3663226,127.483871 C97.0348387,130.087484 95.6129032,133.527097 95.6129032,137.290323 C95.6129032,141.053548 97.0348387,144.493161 99.3663226,147.096774 Z M17.1612903,122.580645 L17.1612903,4.90322581 L105.419355,4.90322581 L105.419355,37.284129 L68.0175484,46.0829677 C65.4997419,46.6787097 63.7419355,48.8974194 63.7419355,51.483871 L63.7419355,66.7419355 L26.9677419,66.7419355 L26.9677419,71.6451613 L63.7419355,71.6451613 L63.7419355,73.9994839 C60.8956129,75.0144516 58.8387097,77.7112258 58.8387097,80.9032258 L58.8387097,98.0645161 L73.5483871,98.0645161 L73.5483871,80.9032258 C73.5483871,77.7112258 71.4914839,75.0144516 68.6451613,73.9994839 L68.6451613,57.031871 L76,58.7627097 L76,87.7211613 L105.419355,95.076 L105.419355,122.580645 L17.1612903,122.580645 Z M68.6451613,80.9032258 L68.6451613,93.1612903 L63.7419355,93.1612903 L63.7419355,80.9032258 C63.7419355,79.5499355 64.8402581,78.4516129 66.1935484,78.4516129 C67.5468387,78.4516129 68.6451613,79.5499355 68.6451613,80.9032258 Z M134.83871,74.0877419 L129.408387,75.4459355 L130.594968,80.1996129 L134.83871,79.1380645 L134.83871,83.8892903 L107.870968,90.6312258 L80.9032258,83.8892903 L80.9032258,79.1380645 L107.870968,85.8824516 L125.667226,81.4327742 L124.480645,76.6790968 L107.870968,80.8272258 L80.9032258,74.0877419 L80.9032258,59.9174194 L107.870968,66.2621935 L134.83871,59.9174194 L134.83871,74.0877419 Z M146.599097,52.1114839 L107.870968,61.224129 L69.1428387,52.1114839 C68.8510968,52.0428387 68.6451613,51.7854194 68.6451613,51.483871 C68.6451613,51.1823226 68.8510968,50.9249032 69.1428387,50.8562581 L107.870968,41.7436129 L146.599097,50.8562581 C146.890839,50.9249032 147.096774,51.1823226 147.096774,51.483871 C147.096774,51.7854194 146.890839,52.0428387 146.599097,52.1114839 Z" id="Shape"></path>
                        <rect id="Rectangle-path" x="26.9677419" y="76" width="26.9677419" height="4.90322581"></rect>
                        <rect id="Rectangle-path" x="26.9677419" y="85.8064516" width="26.9677419" height="4.90322581"></rect>
                        <rect id="Rectangle-path" x="26.9677419" y="95.6129032" width="26.9677419" height="4.90322581"></rect>
                        <rect id="Rectangle-path" transform="translate(45.356098, 107.944523) rotate(179.719253) translate(-45.356098, -107.944523) " x="26.9686273" y="105.492881" width="36.7749415" height="4.90328467"></rect>
                        <rect id="Rectangle-path" transform="translate(82.126539, 107.946443) rotate(179.650500) translate(-82.126539, -107.946443) " x="68.6421103" y="105.494785" width="26.9688566" height="4.90331703"></rect>
                        <rect id="Rectangle-path" x="12.2580645" y="134.83871" width="68.6451613" height="4.90322581"></rect>
                        <rect id="Rectangle-path" x="85.8064516" y="134.83871" width="4.90322581" height="4.90322581"></rect>
                    </g>
                </g>
            </g>
        </g>
    </g>
</svg>