<?xml version="1.0" encoding="UTF-8"?>
<svg width="40px" height="40px" viewBox="0 0 40 40" version="1.1" xmlns="http://www.w3.org/2000/svg" xmlns:xlink="http://www.w3.org/1999/xlink">
    <!-- Generator: sketchtool 50.2 (55047) - http://www.bohemiancoding.com/sketch -->
    <title>C7ACD337-C5CF-476B-A346-6E3B294004EC</title>
    <desc>Created with sketchtool.</desc>
    <defs></defs>
    <g id="Visuals-Homepage-v2" stroke="none" stroke-width="1" fill="none" fill-rule="evenodd">
        <g id="Home-page-alternative-data-panel" transform="translate(-1344.000000, -340.000000)" fill-rule="nonzero">
            <g id="thesis" transform="translate(1344.000000, 340.000000)">
                <g id="Group" transform="translate(7.096774, 3.870968)" fill="#9795F3">
                    <path d="M10.3225806,21.9354839 L10.3225806,21.2903226 L9.03225806,21.2903226 L9.03225806,17.4193548 C9.03225806,16.7064516 9.60967742,16.1290323 10.3225806,16.1290323 L10.3225806,13.5483871 L0,13.5483871 L0,25.1612903 L7.09677419,25.1612903 L10.3225806,25.1612903 L18.0645161,25.1612903 L18.0645161,21.9354839 L10.3225806,21.9354839 Z" id="Shape"></path>
                    <polygon id="Shape" stroke="#000000" points="0 0 0 11.6129032 10.3225806 11.6129032 10.3225806 9.03225806 18.0645161 7.09677419 18.0645161 0"></polygon>
                </g>
                <path d="M38.8748387,12.1270968 L29.0322581,9.8116129 L29.0322581,0 L3.87096774,0 C1.73612903,0 0,1.73612903 0,3.87096774 L0,36.1290323 C0,38.263871 1.73612903,40 3.87096774,40 L29.0322581,40 L29.0322581,38.7096774 C27.6090323,38.7096774 26.4516129,37.5522581 26.4516129,36.1290323 C26.4516129,34.7058065 27.6090323,33.5483871 29.0322581,33.5483871 L29.0322581,32.9032258 L29.0322581,32.2580645 L29.0322581,25.02 L36.7741935,23.0845161 L36.7741935,15.463871 L38.8748387,14.9696774 C39.5374194,14.8129032 40,14.2290323 40,13.5483871 C40,12.8677419 39.5374194,12.283871 38.8748387,12.1270968 Z M3.22580645,1.38193548 L3.22580645,32.316129 C2.48903226,32.4406452 1.82387097,32.7729032 1.29032258,33.2516129 L1.29032258,3.87096774 C1.29032258,2.6716129 2.11548387,1.67032258 3.22580645,1.38193548 Z M26.1490323,38.7096774 L3.87096774,38.7096774 C2.44774194,38.7096774 1.29032258,37.5522581 1.29032258,36.1290323 C1.29032258,34.7058065 2.44774194,33.5483871 3.87096774,33.5483871 L26.1490323,33.5483871 C25.5354839,34.2335484 25.1612903,35.1387097 25.1612903,36.1290323 C25.1612903,37.1193548 25.5354839,38.0245161 26.1490323,38.7096774 Z M4.51612903,32.2580645 L4.51612903,1.29032258 L27.7419355,1.29032258 L27.7419355,9.8116129 L17.8993548,12.1270968 C17.2367742,12.283871 16.7741935,12.8677419 16.7741935,13.5483871 L16.7741935,17.7096774 L7,17.7096774 L7,19 L16.7741935,19 L16.7741935,19.4735484 C16.0251613,19.7406452 15.483871,20.4503226 15.483871,21.2903226 L15.483871,25.8064516 L19.3548387,25.8064516 L19.3548387,21.2903226 C19.3548387,20.4503226 18.8135484,19.7406452 18.0645161,19.4735484 L18.0645161,15.0083871 L20,15.463871 L20,23.0845161 L27.7419355,25.02 L27.7419355,32.2580645 L4.51612903,32.2580645 Z M18.0645161,21.2903226 L18.0645161,24.516129 L16.7741935,24.516129 L16.7741935,21.2903226 C16.7741935,20.9341935 17.0632258,20.6451613 17.4193548,20.6451613 C17.7754839,20.6451613 18.0645161,20.9341935 18.0645161,21.2903226 Z M35.483871,19.4967742 L34.0548387,19.8541935 L34.3670968,21.1051613 L35.483871,20.8258065 L35.483871,22.076129 L28.3870968,23.8503226 L21.2903226,22.076129 L21.2903226,20.8258065 L28.3870968,22.6006452 L33.0703226,21.4296774 L32.7580645,20.1787097 L28.3870968,21.2703226 L21.2903226,19.4967742 L21.2903226,15.7677419 L28.3870968,17.4374194 L35.483871,15.7677419 L35.483871,19.4967742 Z M38.5787097,13.7135484 L28.3870968,16.1116129 L18.1954839,13.7135484 C18.1187097,13.6954839 18.0645161,13.6277419 18.0645161,13.5483871 C18.0645161,13.4690323 18.1187097,13.4012903 18.1954839,13.3832258 L28.3870968,10.9851613 L38.5787097,13.3832258 C38.6554839,13.4012903 38.7096774,13.4690323 38.7096774,13.5483871 C38.7096774,13.6277419 38.6554839,13.6954839 38.5787097,13.7135484 Z" id="Shape" fill="#000000"></path>
                <rect id="Rectangle-path" fill="#000000" x="7.09677419" y="20" width="7.09677419" height="1.29032258"></rect>
                <rect id="Rectangle-path" fill="#000000" x="7.09677419" y="22.5806452" width="7.09677419" height="1.29032258"></rect>
                <rect id="Rectangle-path" fill="#000000" x="7.09677419" y="25.1612903" width="7.09677419" height="1.29032258"></rect>
                <rect id="Rectangle-path" fill="#000000" transform="translate(11.935815, 28.406453) rotate(179.719253) translate(-11.935815, -28.406453) " x="7.09700718" y="27.7612844" width="9.67761618" height="1.29033807"></rect>
                <rect id="Rectangle-path" fill="#000000" transform="translate(21.612247, 28.406959) rotate(179.650500) translate(-21.612247, -28.406959) " x="18.0637132" y="27.7617854" width="7.09706752" height="1.29034659"></rect>
                <rect id="Rectangle-path" fill="#000000" x="3.22580645" y="35.483871" width="18.0645161" height="1.29032258"></rect>
                <rect id="Rectangle-path" fill="#000000" x="22.5806452" y="35.483871" width="1.29032258" height="1.29032258"></rect>
            </g>
        </g>
    </g>
</svg>