<?xml version="1.0" encoding="UTF-8"?>
<svg width="40px" height="40px" viewBox="0 0 40 40" version="1.1" xmlns="http://www.w3.org/2000/svg" xmlns:xlink="http://www.w3.org/1999/xlink">
    <!-- Generator: sketchtool 50.2 (55047) - http://www.bohemiancoding.com/sketch -->
    <title>5043C715-8C93-4CD5-93AF-0EB1B9FED129</title>
    <desc>Created with sketchtool.</desc>
    <defs></defs>
    <g id="Visuals-Homepage-v2" stroke="none" stroke-width="1" fill="none" fill-rule="evenodd">
        <g id="Home-page-alternative-data-panel" transform="translate(-3468.000000, -341.000000)" fill-rule="nonzero">
            <g id="worldwide-copy" transform="translate(3468.000000, 341.000000)">
                <circle id="Oval" fill="#A19EFF" cx="19.8387097" cy="15.483871" r="8.38709677"></circle>
                <g id="Group" fill="#333333">
                    <path d="M39.7722581,20.3032258 L38.5129032,15.2632258 C38.1787097,13.9264516 37.4870968,12.7045161 36.5116129,11.7290323 L32.736129,7.95354839 C32.1845161,7.40129032 31.4496774,7.09677419 30.6677419,7.09677419 C29.6916129,7.09677419 28.8316129,7.58129032 28.3,8.31806452 C26.2277419,5.91870968 23.2090323,4.51612903 20,4.51612903 C16.7909677,4.51612903 13.7722581,5.91806452 11.7,8.31741935 C11.1677419,7.58129032 10.3077419,7.09677419 9.33225806,7.09677419 C8.55032258,7.09677419 7.81548387,7.40129032 7.26322581,7.95354839 L3.48774194,11.7290323 C2.51225806,12.7045161 1.82064516,13.9258065 1.48709677,15.2632258 L0.227741935,20.3032258 C0.0761290323,20.9058065 0,21.5264516 0,22.1470968 L0,40 L1.29032258,40 L1.29032258,22.1470968 C1.29032258,21.6316129 1.35419355,21.116129 1.47870968,20.6154839 L2.73935484,15.5754839 C3.01612903,14.4658065 3.59032258,13.4509677 4.4,12.6412903 L8.17548387,8.86580645 C8.48387097,8.55741935 8.89483871,8.38709677 9.33225806,8.38709677 C10.2335484,8.38709677 10.9677419,9.12129032 10.9677419,10.0225806 L10.9677419,10.1109677 C10.9677419,10.5070968 10.823871,10.8896774 10.5625806,11.1883871 L7.70387097,14.4548387 C6.89612903,15.3780645 6.4516129,16.5625806 6.4516129,17.7890323 C6.4516129,17.9987097 6.46516129,18.2090323 6.49096774,18.4174194 L7.11612903,23.4154839 L8.21096774,25.6058065 C7.97419355,25.8316129 7.69096774,26.003871 7.37741935,26.1083871 C6.8116129,26.2954839 6.20774194,26.2529032 5.67548387,25.9877419 L5.45032258,25.8748387 L4.87225806,27.0277419 L5.09806452,27.1412903 C5.94064516,27.5619355 6.89483871,27.6283871 7.78516129,27.3322581 C8.43096774,27.1174194 8.99677419,26.7232258 9.42193548,26.1916129 L10.6864516,24.6096774 C11.0619355,24.1406452 11.6232258,23.8709677 12.223871,23.8709677 C13.3103226,23.8709677 14.1935484,24.7541935 14.1935484,25.8406452 L14.1935484,26.1929032 C14.1935484,26.6322581 14.0445161,27.0645161 13.7729032,27.4096774 L7.09677419,35.9058065 L7.09677419,40 L8.38709677,40 L8.38709677,36.3522581 L14.7870968,28.2070968 C15.236129,27.6348387 15.483871,26.92 15.483871,26.1929032 L15.483871,25.8406452 C15.483871,25.7064516 15.46,25.5787097 15.443871,25.4483871 C16.8335484,26.0858065 18.3735484,26.4516129 20,26.4516129 C21.6264516,26.4516129 23.1664516,26.0858065 24.556129,25.4483871 C24.54,25.5780645 24.516129,25.7058065 24.516129,25.8406452 L24.516129,26.1929032 C24.516129,26.92 24.763871,27.6348387 25.2129032,28.2070968 L31.6129032,36.3522581 L31.6129032,40 L32.9032258,40 L32.9032258,35.9058065 L26.2270968,27.4090323 C25.9554839,27.063871 25.8064516,26.6316129 25.8064516,26.1929032 L25.8064516,25.8406452 C25.8064516,24.7541935 26.6896774,23.8709677 27.776129,23.8709677 C28.3774194,23.8709677 28.9380645,24.1406452 29.3135484,24.6103226 L30.5793548,26.1922581 C31.003871,26.7232258 31.5696774,27.1180645 32.2148387,27.3322581 C33.1070968,27.6303226 34.0606452,27.5612903 34.9032258,27.1412903 L35.1283871,27.0283871 L34.5503226,25.8754839 L34.3258065,25.9877419 C33.7929032,26.2535484 33.1877419,26.2967742 32.6225806,26.1083871 C32.3096774,26.003871 32.0264516,25.8316129 31.7903226,25.6058065 L32.8851613,23.416129 L33.5103226,18.4180645 C33.5348387,18.2096774 33.5483871,17.9987097 33.5483871,17.7890323 C33.5483871,16.5625806 33.103871,15.3780645 32.296129,14.4548387 L29.4367742,11.1877419 C29.176129,10.8896774 29.0322581,10.5070968 29.0322581,10.1109677 L29.0322581,10.0225806 C29.0322581,9.12129032 29.7664516,8.38709677 30.6677419,8.38709677 C31.1051613,8.38709677 31.5154839,8.55741935 31.8245161,8.86580645 L35.6,12.6412903 C36.4096774,13.4509677 36.9845161,14.4658065 37.2612903,15.5754839 L38.5212903,20.6154839 C38.6458065,21.116129 38.7096774,21.6316129 38.7096774,22.1470968 L38.7096774,40 L40,40 L40,22.1470968 C40,21.5264516 39.923871,20.9058065 39.7722581,20.3032258 Z M10.3554839,16.1290323 L14.2219355,16.1290323 C14.2890323,17.6787097 14.5754839,19.0503226 15.0032258,20.2309677 C13.8503226,20.6690323 13.0129032,21.1832258 12.4832258,21.5664516 C11.2619355,20.0606452 10.4916129,18.1812903 10.3554839,16.1290323 Z M19.3548387,14.8387097 L15.5122581,14.8387097 C15.5787097,13.4348387 15.843871,12.1954839 16.2341935,11.1303226 C17.136129,11.3722581 18.176129,11.5451613 19.3554839,11.5935484 L19.3554839,14.8387097 L19.3548387,14.8387097 Z M19.3548387,16.1290323 L19.3548387,19.3748387 C18.176129,19.4232258 17.1354839,19.596129 16.2335484,19.8380645 C15.8432258,18.7729032 15.5780645,17.5335484 15.5116129,16.1296774 L19.3548387,16.1296774 L19.3548387,16.1290323 Z M16.7580645,21.0380645 C17.5174194,20.8458065 18.3845161,20.7090323 19.3548387,20.6651613 L19.3548387,24.48 C18.6025806,23.8019355 17.5716129,22.6670968 16.7580645,21.0380645 Z M15.5103226,21.4277419 C16.2541935,22.976129 17.1851613,24.1393548 17.9819355,24.9458065 C16.2219355,24.5709677 14.6425806,23.7116129 13.3774194,22.5206452 C13.843871,22.2012903 14.5541935,21.7877419 15.5103226,21.4277419 Z M20.6451613,24.48 L20.6451613,20.6651613 C21.6154839,20.7090323 22.4825806,20.8464516 23.2419355,21.0380645 C22.4283871,22.6677419 21.3974194,23.8019355 20.6451613,24.48 Z M24.4896774,21.4277419 C25.4458065,21.7877419 26.156129,22.2012903 26.6225806,22.5206452 C25.3574194,23.7116129 23.7787097,24.5703226 22.0180645,24.9458065 C22.8154839,24.1393548 23.7464516,22.9767742 24.4896774,21.4277419 Z M20.6451613,19.3748387 L20.6451613,16.1290323 L24.4877419,16.1290323 C24.4212903,17.5329032 24.156129,18.7722581 23.7658065,19.8374194 C22.8645161,19.5954839 21.823871,19.4225806 20.6451613,19.3748387 Z M20.6451613,14.8387097 L20.6451613,11.5929032 C21.823871,11.5445161 22.8645161,11.3716129 23.7664516,11.1296774 C24.1567742,12.1948387 24.4219355,13.4341935 24.4883871,14.8380645 L20.6451613,14.8380645 L20.6451613,14.8387097 Z M20.6451613,10.3025806 L20.6451613,9.03225806 L19.3548387,9.03225806 L19.3548387,10.3025806 C18.3845161,10.2587097 17.5174194,10.1212903 16.7580645,9.92967742 C17.5716129,8.3 18.6025806,7.16580645 19.3548387,6.48774194 L19.3548387,7.74193548 L20.6451613,7.74193548 L20.6451613,6.48774194 C21.3974194,7.16580645 22.4283871,8.30064516 23.2419355,9.92967742 C22.4825806,10.1219355 21.6154839,10.2587097 20.6451613,10.3025806 Z M15.5103226,9.54 C14.5483871,9.17806452 13.8354839,8.76129032 13.3690323,8.44129032 C14.6567742,7.22903226 16.2503226,6.39354839 17.9793548,6.02451613 C17.1825806,6.83032258 16.2529032,7.99290323 15.5103226,9.54 Z M22.0206452,6.02387097 C23.7496774,6.39290323 25.3432258,7.22903226 26.6309677,8.44064516 C26.1645161,8.76129032 25.4516129,9.17741935 24.4896774,9.53935484 C23.7470968,7.99290323 22.8174194,6.83032258 22.0206452,6.02387097 Z M11.5335484,12.0380645 C12.0012903,11.5045161 12.2580645,10.82 12.2580645,10.1109677 L12.2580645,10.0225806 C12.2580645,9.92 12.2380645,9.82322581 12.2277419,9.72322581 C12.3096774,9.61290323 12.3935484,9.50451613 12.48,9.39806452 C13.0096774,9.78193548 13.8477419,10.2974194 15.0032258,10.736129 C14.5754839,11.9174194 14.2890323,13.2883871 14.2219355,14.8380645 L10.3445161,14.8380645 C10.383871,14.2412903 10.4774194,13.6516129 10.6245161,13.076129 L11.5335484,12.0380645 Z M8.67548387,15.3045161 L9.05096774,14.8754839 C9.04,15.0774194 9.03225806,15.2806452 9.03225806,15.483871 C9.03225806,16.5451613 9.1916129,17.5683871 9.47419355,18.54 L7.94903226,19.683871 L7.77096774,18.2574194 C7.7516129,18.1025806 7.74193548,17.9458065 7.74193548,17.7890323 C7.74193548,16.8748387 8.07354839,15.9922581 8.67548387,15.3045161 Z M9.67870968,23.803871 L9.1083871,24.5167742 L8.36774194,23.036129 L8.13290323,21.1574194 L9.92580645,19.8129032 C10.3703226,20.843871 10.9722581,21.7890323 11.6954839,22.6283871 C10.9064516,22.7567742 10.1890323,23.1658065 9.67870968,23.803871 Z M28.303871,22.6283871 C29.0270968,21.7890323 29.6290323,20.843871 30.0735484,19.8135484 L31.8664516,21.1580645 L31.6316129,23.0367742 L30.8909677,24.5174194 L30.3206452,23.8045161 C29.8109677,23.1658065 29.0935484,22.7567742 28.303871,22.6283871 Z M32.2580645,17.7890323 C32.2580645,17.9458065 32.2483871,18.1019355 32.2290323,18.2574194 L32.0509677,19.683871 L30.5258065,18.54 C30.8083871,17.5683871 30.9677419,16.5451613 30.9677419,15.483871 C30.9677419,15.2806452 30.96,15.0774194 30.9483871,14.8748387 L31.323871,15.303871 C31.9264516,15.9922581 32.2580645,16.8748387 32.2580645,17.7890323 Z M29.3754839,13.0774194 C29.5225806,13.6529032 29.616129,14.2432258 29.6554839,14.8387097 L28.3870968,14.8387097 L28.3870968,16.1290323 L29.6445161,16.1290323 C29.5083871,18.1812903 28.7380645,20.0606452 27.516129,21.5670968 C26.9864516,21.1832258 26.1496774,20.6696774 24.996129,20.2316129 C25.423871,19.0503226 25.7103226,17.6793548 25.7774194,16.1296774 L27.0967742,16.1296774 L27.0967742,14.8393548 L25.7780645,14.8393548 C25.7109677,13.2896774 25.4245161,11.9180645 24.9967742,10.7374194 C26.1522581,10.2980645 26.9903226,9.78322581 27.52,9.39935484 C27.6064516,9.50580645 27.6903226,9.61419355 27.7722581,9.72451613 C27.7619355,9.82322581 27.7419355,9.92064516 27.7419355,10.0225806 L27.7419355,10.1109677 C27.7419355,10.8206452 27.9987097,11.5045161 28.4658065,12.0374194 L29.3754839,13.0774194 Z" id="Shape"></path>
                    <rect id="Rectangle-path" x="27.0967742" y="0" width="1.29032258" height="1.29032258"></rect>
                    <rect id="Rectangle-path" x="27.0967742" y="2.58064516" width="1.29032258" height="1.29032258"></rect>
                    <rect id="Rectangle-path" x="28.3870968" y="1.29032258" width="1.29032258" height="1.29032258"></rect>
                    <rect id="Rectangle-path" x="25.8064516" y="1.29032258" width="1.29032258" height="1.29032258"></rect>
                    <rect id="Rectangle-path" x="10.9677419" y="1.93548387" width="1.29032258" height="1.29032258"></rect>
                    <rect id="Rectangle-path" x="10.9677419" y="4.51612903" width="1.29032258" height="1.29032258"></rect>
                    <rect id="Rectangle-path" x="12.2580645" y="3.22580645" width="1.29032258" height="1.29032258"></rect>
                    <rect id="Rectangle-path" x="9.67741935" y="3.22580645" width="1.29032258" height="1.29032258"></rect>
                    <rect id="Rectangle-path" x="21.2903226" y="27.7419355" width="1.29032258" height="1.29032258"></rect>
                    <rect id="Rectangle-path" x="21.2903226" y="30.3225806" width="1.29032258" height="1.29032258"></rect>
                    <rect id="Rectangle-path" x="22.5806452" y="29.0322581" width="1.29032258" height="1.29032258"></rect>
                    <rect id="Rectangle-path" x="20" y="29.0322581" width="1.29032258" height="1.29032258"></rect>
                </g>
            </g>
        </g>
    </g>
</svg>