<?xml version="1.0" encoding="UTF-8"?>
<svg width="152px" height="152px" viewBox="0 0 152 152" version="1.1" xmlns="http://www.w3.org/2000/svg" xmlns:xlink="http://www.w3.org/1999/xlink">
    <!-- Generator: sketchtool 50.2 (55047) - http://www.bohemiancoding.com/sketch -->
    <title>84536FFA-FE8A-447A-A784-7CEBDB65BCD2</title>
    <desc>Created with sketchtool.</desc>
    <defs></defs>
    <g id="Visuals-Homepage-v2" stroke="none" stroke-width="1" fill="none" fill-rule="evenodd" opacity="0.100000001">
        <g id="Home-page-alternative-data-panel" transform="translate(-3610.000000, -345.000000)" fill="#FFFFFF" fill-rule="nonzero">
            <g id="worldwide-copy-2" transform="translate(3610.000000, 345.000000)">
                <g id="Group">
                    <path d="M151.134581,77.1522581 L146.349032,58.0002581 C145.079097,52.9205161 142.450968,48.2771613 138.744129,44.5703226 L124.39729,30.2234839 C122.301161,28.1249032 119.508774,26.9677419 116.537419,26.9677419 C112.828129,26.9677419 109.560129,28.8089032 107.54,31.6086452 C99.6654194,22.4910968 88.1943226,17.1612903 76,17.1612903 C63.8056774,17.1612903 52.3345806,22.4886452 44.46,31.6061935 C42.4374194,28.8089032 39.1694194,26.9677419 35.4625806,26.9677419 C32.4912258,26.9677419 29.6988387,28.1249032 27.6002581,30.2234839 L13.2534194,44.5703226 C9.54658065,48.2771613 6.91845161,52.9180645 5.65096774,58.0002581 L0.865419355,77.1522581 C0.289290323,79.4420645 0,81.8005161 0,84.1589677 L0,152 L4.90322581,152 L4.90322581,84.1589677 C4.90322581,82.200129 5.14593548,80.2412903 5.61909677,78.3388387 L10.4095484,59.1868387 C11.4612903,54.9700645 13.6432258,51.1136774 16.72,48.0369032 L31.0668387,33.6900645 C32.2387097,32.5181935 33.8003871,31.8709677 35.4625806,31.8709677 C38.8874839,31.8709677 41.6774194,34.6609032 41.6774194,38.0858065 L41.6774194,38.4216774 C41.6774194,39.9269677 41.1307097,41.3807742 40.1378065,42.515871 L29.2747097,54.9283871 C26.2052903,58.4366452 24.516129,62.9378065 24.516129,67.5983226 C24.516129,68.3950968 24.5676129,69.1943226 24.6656774,69.9861935 L27.0412903,88.9788387 L31.2016774,97.3020645 C30.3019355,98.160129 29.2256774,98.8147097 28.0341935,99.211871 C25.884129,99.9228387 23.5894194,99.7610323 21.5668387,98.7534194 L20.7112258,98.3243871 L18.5145806,102.705419 L19.3726452,103.136903 C22.5744516,104.735355 26.2003871,104.987871 29.5836129,103.862581 C32.0376774,103.046194 34.1877419,101.548258 35.8033548,99.528129 L40.6085161,93.5167742 C42.0353548,91.7344516 44.1682581,90.7096774 46.4507097,90.7096774 C50.5792258,90.7096774 53.9354839,94.0659355 53.9354839,98.1944516 L53.9354839,99.5330323 C53.9354839,101.202581 53.3691613,102.845161 52.3370323,104.156774 L26.9677419,136.442065 L26.9677419,152 L31.8709677,152 L31.8709677,138.138581 L56.1909677,107.186968 C57.8972903,105.012387 58.8387097,102.296 58.8387097,99.5330323 L58.8387097,98.1944516 C58.8387097,97.6845161 58.748,97.1990968 58.6867097,96.703871 C63.9674839,99.1260645 69.8194839,100.516129 76,100.516129 C82.1805161,100.516129 88.0325161,99.1260645 93.3132903,96.703871 C93.252,97.1966452 93.1612903,97.6820645 93.1612903,98.1944516 L93.1612903,99.5330323 C93.1612903,102.296 94.1027097,105.012387 95.8090323,107.186968 L120.129032,138.138581 L120.129032,152 L125.032258,152 L125.032258,136.442065 L99.6629677,104.154323 C98.6308387,102.84271 98.0645161,101.200129 98.0645161,99.5330323 L98.0645161,98.1944516 C98.0645161,94.0659355 101.420774,90.7096774 105.54929,90.7096774 C107.834194,90.7096774 109.964645,91.7344516 111.391484,93.5192258 L116.201548,99.5305806 C117.81471,101.548258 119.964774,103.048645 122.416387,103.862581 C125.806968,104.995226 129.430452,104.732903 132.632258,103.136903 L133.487871,102.707871 L131.291226,98.3268387 L130.438065,98.7534194 C128.413032,99.7634839 126.113419,99.9277419 123.965806,99.211871 C122.776774,98.8147097 121.700516,98.160129 120.803226,97.3020645 L124.963613,88.9812903 L127.339226,69.9886452 C127.432387,69.1967742 127.483871,68.3950968 127.483871,67.5983226 C127.483871,62.9378065 125.79471,58.4366452 122.72529,54.9283871 L111.859742,42.5134194 C110.86929,41.3807742 110.322581,39.9269677 110.322581,38.4216774 L110.322581,38.0858065 C110.322581,34.6609032 113.112516,31.8709677 116.537419,31.8709677 C118.199613,31.8709677 119.758839,32.5181935 120.933161,33.6900645 L135.28,48.0369032 C138.356774,51.1136774 140.541161,54.9700645 141.592903,59.1868387 L146.380903,78.3388387 C146.854065,80.2412903 147.096774,82.200129 147.096774,84.1589677 L147.096774,152 L152,152 L152,84.1589677 C152,81.8005161 151.71071,79.4420645 151.134581,77.1522581 Z M39.3508387,61.2903226 L54.0433548,61.2903226 C54.2983226,67.1790968 55.3868387,72.3912258 57.0122581,76.8776774 C52.6312258,78.5423226 49.4490323,80.4962581 47.4362581,81.9525161 C42.7953548,76.2304516 39.868129,69.0889032 39.3508387,61.2903226 Z M73.5483871,56.3870968 L58.9465806,56.3870968 C59.1990968,51.0523871 60.2067097,46.3428387 61.6899355,42.2952258 C65.1172903,43.2145806 69.0692903,43.8716129 73.5508387,44.0554839 L73.5508387,56.3870968 L73.5483871,56.3870968 Z M73.5483871,61.2903226 L73.5483871,73.6243871 C69.0692903,73.8082581 65.1148387,74.4652903 61.6874839,75.3846452 C60.2042581,71.3370323 59.1966452,66.6274839 58.944129,61.2927742 L73.5483871,61.2927742 L73.5483871,61.2903226 Z M63.6806452,79.9446452 C66.5661935,79.2140645 69.8611613,78.6943226 73.5483871,78.5276129 L73.5483871,93.024 C70.6898065,90.4473548 66.772129,86.1349677 63.6806452,79.9446452 Z M58.9392258,81.4254194 C61.7659355,87.3092903 65.3036129,91.7295484 68.3313548,94.7940645 C61.6433548,93.3696774 55.6418065,90.104129 50.8341935,85.5784516 C52.6067097,84.3649032 55.3059355,82.7934194 58.9392258,81.4254194 Z M78.4516129,93.024 L78.4516129,78.5276129 C82.1388387,78.6943226 85.4338065,79.2165161 88.3193548,79.9446452 C85.227871,86.1374194 81.3101935,90.4473548 78.4516129,93.024 Z M93.0607742,81.4254194 C96.6940645,82.7934194 99.3932903,84.3649032 101.165806,85.5784516 C96.3581935,90.104129 90.3590968,93.3672258 83.6686452,94.7940645 C86.6988387,91.7295484 90.2365161,87.3117419 93.0607742,81.4254194 Z M78.4516129,73.6243871 L78.4516129,61.2903226 L93.0534194,61.2903226 C92.8009032,66.6250323 91.7932903,71.3345806 90.3100645,75.3821935 C86.8851613,74.4628387 82.9307097,73.8058065 78.4516129,73.6243871 Z M78.4516129,56.3870968 L78.4516129,44.0530323 C82.9307097,43.8691613 86.8851613,43.212129 90.3125161,42.2927742 C91.7957419,46.3403871 92.8033548,51.0499355 93.055871,56.3846452 L78.4516129,56.3846452 L78.4516129,56.3870968 Z M78.4516129,39.1498065 L78.4516129,34.3225806 L73.5483871,34.3225806 L73.5483871,39.1498065 C69.8611613,38.9830968 66.5661935,38.4609032 63.6806452,37.7327742 C66.772129,31.54 70.6898065,27.2300645 73.5483871,24.6534194 L73.5483871,29.4193548 L78.4516129,29.4193548 L78.4516129,24.6534194 C81.3101935,27.2300645 85.227871,31.5424516 88.3193548,37.7327742 C85.4338065,38.4633548 82.1388387,38.9830968 78.4516129,39.1498065 Z M58.9392258,36.252 C55.283871,34.8766452 52.5748387,33.2929032 50.8023226,32.0769032 C55.6957419,27.4703226 61.7512258,24.2954839 68.3215484,22.8931613 C65.2938065,25.9552258 61.7610323,30.3730323 58.9392258,36.252 Z M83.6784516,22.8907097 C90.2487742,24.2930323 96.3042581,27.4703226 101.197677,32.0744516 C99.4251613,33.2929032 96.716129,34.8741935 93.0607742,36.2495484 C90.2389677,30.3730323 86.7061935,25.9552258 83.6784516,22.8907097 Z M43.8274839,45.7446452 C45.6049032,43.7171613 46.5806452,41.116 46.5806452,38.4216774 L46.5806452,38.0858065 C46.5806452,37.696 46.5046452,37.3282581 46.4654194,36.9482581 C46.7767742,36.5290323 47.0954839,36.1171613 47.424,35.7126452 C49.4367742,37.1713548 52.6214194,39.1301935 57.0122581,40.7972903 C55.3868387,45.2861935 54.2983226,50.495871 54.0433548,56.3846452 L39.3091613,56.3846452 C39.4587097,54.1169032 39.8141935,51.876129 40.3731613,49.6892903 L43.8274839,45.7446452 Z M32.9668387,58.1571613 L34.3936774,56.5268387 C34.352,57.2941935 34.3225806,58.0664516 34.3225806,58.8387097 C34.3225806,62.8716129 34.928129,66.759871 36.0019355,70.452 L30.2063226,74.7987097 L29.5296774,69.3781935 C29.456129,68.7898065 29.4193548,68.1940645 29.4193548,67.5983226 C29.4193548,64.1243871 30.6794839,60.7705806 32.9668387,58.1571613 Z M36.7790968,90.4547097 L34.611871,93.1637419 L31.7974194,87.5372903 L30.9050323,80.3981935 L37.7180645,75.2890323 C39.4072258,79.2067097 41.6945806,82.7983226 44.4428387,85.987871 C41.4445161,86.4757419 38.7183226,88.0300645 36.7790968,90.4547097 Z M107.55471,85.987871 C110.302968,82.7983226 112.590323,79.2067097 114.279484,75.2914839 L121.092516,80.4006452 L120.200129,87.5397419 L117.385677,93.1661935 L115.218452,90.4571613 C113.281677,88.0300645 110.555484,86.4757419 107.55471,85.987871 Z M122.580645,67.5983226 C122.580645,68.1940645 122.543871,68.7873548 122.470323,69.3781935 L121.793677,74.7987097 L115.998065,70.452 C117.071871,66.759871 117.677419,62.8716129 117.677419,58.8387097 C117.677419,58.0664516 117.648,57.2941935 117.603871,56.5243871 L119.03071,58.1547097 C121.320516,60.7705806 122.580645,64.1243871 122.580645,67.5983226 Z M111.626839,49.6941935 C112.185806,51.8810323 112.54129,54.1242581 112.690839,56.3870968 L107.870968,56.3870968 L107.870968,61.2903226 L112.649161,61.2903226 C112.131871,69.0889032 109.204645,76.2304516 104.56129,81.9549677 C102.548516,80.4962581 99.3687742,78.5447742 94.9852903,76.880129 C96.6107097,72.3912258 97.6992258,67.1815484 97.9541935,61.2927742 L102.967742,61.2927742 L102.967742,56.3895484 L97.9566452,56.3895484 C97.7016774,50.5007742 96.6131613,45.2886452 94.9877419,40.8021935 C99.3785806,39.1326452 102.563226,37.1762581 104.576,35.7175484 C104.904516,36.1220645 105.223226,36.5339355 105.534581,36.9531613 C105.495355,37.3282581 105.419355,37.6984516 105.419355,38.0858065 L105.419355,38.4216774 C105.419355,41.1184516 106.395097,43.7171613 108.170065,45.7421935 L111.626839,49.6941935 Z" id="Shape"></path>
                    <rect id="Rectangle-path" x="102.967742" y="0" width="4.90322581" height="4.90322581"></rect>
                    <rect id="Rectangle-path" x="102.967742" y="9.80645161" width="4.90322581" height="4.90322581"></rect>
                    <rect id="Rectangle-path" x="107.870968" y="4.90322581" width="4.90322581" height="4.90322581"></rect>
                    <rect id="Rectangle-path" x="98.0645161" y="4.90322581" width="4.90322581" height="4.90322581"></rect>
                    <rect id="Rectangle-path" x="41.6774194" y="7.35483871" width="4.90322581" height="4.90322581"></rect>
                    <rect id="Rectangle-path" x="41.6774194" y="17.1612903" width="4.90322581" height="4.90322581"></rect>
                    <rect id="Rectangle-path" x="46.5806452" y="12.2580645" width="4.90322581" height="4.90322581"></rect>
                    <rect id="Rectangle-path" x="36.7741935" y="12.2580645" width="4.90322581" height="4.90322581"></rect>
                    <rect id="Rectangle-path" x="80.9032258" y="105.419355" width="4.90322581" height="4.90322581"></rect>
                    <rect id="Rectangle-path" x="80.9032258" y="115.225806" width="4.90322581" height="4.90322581"></rect>
                    <rect id="Rectangle-path" x="85.8064516" y="110.322581" width="4.90322581" height="4.90322581"></rect>
                    <rect id="Rectangle-path" x="76" y="110.322581" width="4.90322581" height="4.90322581"></rect>
                </g>
            </g>
        </g>
    </g>
</svg>